<?xml version="1.0" encoding="UTF-8"?> <svg xmlns="http://www.w3.org/2000/svg" width="1920" height="1080" viewBox="0 0 1920 1080" fill="none"><rect width="1920" height="1080" fill="#FBF5EE"></rect><g clip-path="url(#clip0_811_4517)"><path d="M1835.23 970H1849.85L1870 1030H1856.13L1849.35 1007.01C1835.56 1007.8 1821.83 1017.86 1815 1030L1835.23 970ZM1849.35 1007.01L1842.5 983.944L1835.48 1007.01H1849.35Z" fill="#23374F"></path></g><path d="M386 536V392H444.2C445.6 392 447.333 392.067 449.4 392.2C451.467 392.267 453.433 392.467 455.3 392.8C463.3 394.067 469.967 396.8 475.3 401C480.7 405.2 484.733 410.5 487.4 416.9C490.067 423.3 491.4 430.367 491.4 438.1C491.4 449.567 488.467 459.467 482.6 467.8C476.733 476.067 467.933 481.233 456.2 483.3L447.7 484.3H406.9V536H386ZM470.2 536L441.8 477.4L462.9 472L494.1 536H470.2ZM406.9 464.5H443.4C444.733 464.5 446.2 464.433 447.8 464.3C449.467 464.167 451.033 463.933 452.5 463.6C456.767 462.6 460.2 460.767 462.8 458.1C465.4 455.367 467.267 452.233 468.4 448.7C469.533 445.167 470.1 441.633 470.1 438.1C470.1 434.567 469.533 431.067 468.4 427.6C467.267 424.067 465.4 420.967 462.8 418.3C460.2 415.567 456.767 413.7 452.5 412.7C451.033 412.3 449.467 412.033 447.8 411.9C446.2 411.767 444.733 411.7 443.4 411.7H406.9V464.5ZM576.178 539C561.778 539 549.511 535.867 539.378 529.6C529.245 523.267 521.478 514.467 516.078 503.2C510.745 491.933 508.078 478.867 508.078 464C508.078 449.133 510.745 436.067 516.078 424.8C521.478 413.533 529.245 404.767 539.378 398.5C549.511 392.167 561.778 389 576.178 389C590.511 389 602.745 392.167 612.878 398.5C623.078 404.767 630.845 413.533 636.178 424.8C641.511 436.067 644.178 449.133 644.178 464C644.178 478.867 641.511 491.933 636.178 503.2C630.845 514.467 623.078 523.267 612.878 529.6C602.745 535.867 590.511 539 576.178 539ZM576.178 519.1C586.378 519.233 594.845 517 601.578 512.4C608.378 507.733 613.478 501.267 616.878 493C620.278 484.667 621.978 475 621.978 464C621.978 453 620.278 443.4 616.878 435.2C613.478 426.933 608.378 420.5 601.578 415.9C594.845 411.3 586.378 408.967 576.178 408.9C565.978 408.767 557.478 411 550.678 415.6C543.945 420.2 538.878 426.667 535.478 435C532.078 443.333 530.345 453 530.278 464C530.211 475 531.878 484.633 535.278 492.9C538.678 501.1 543.778 507.5 550.578 512.1C557.445 516.7 565.978 519.033 576.178 519.1ZM666.125 536V392H687.025V536H666.125ZM755.094 481.3V464.5H815.094V481.3H755.094ZM917.417 520.7L904.317 507.7L939.817 473L904.317 438.3L917.417 425.3L965.017 473L917.417 520.7ZM1003.09 535.9L1003.19 517.3L1065.89 461.1C1070.96 456.633 1074.39 452.367 1076.19 448.3C1078.06 444.233 1078.99 440.167 1078.99 436.1C1078.99 430.967 1077.86 426.367 1075.59 422.3C1073.33 418.167 1070.19 414.9 1066.19 412.5C1062.19 410.1 1057.59 408.9 1052.39 408.9C1047.06 408.9 1042.29 410.167 1038.09 412.7C1033.96 415.167 1030.73 418.467 1028.39 422.6C1026.06 426.733 1024.93 431.2 1024.99 436H1003.59C1003.59 426.667 1005.69 418.5 1009.89 411.5C1014.16 404.433 1019.99 398.933 1027.39 395C1034.79 391 1043.26 389 1052.79 389C1061.86 389 1069.99 391.067 1077.19 395.2C1084.39 399.267 1090.06 404.867 1094.19 412C1098.39 419.133 1100.49 427.267 1100.49 436.4C1100.49 443 1099.63 448.6 1097.89 453.2C1096.16 457.8 1093.56 462.067 1090.09 466C1086.63 469.933 1082.29 474.2 1077.09 478.8L1028.69 522L1026.39 516H1100.49V535.9H1003.09ZM1174.68 539C1164.88 539 1156.21 536.867 1148.68 532.6C1141.14 528.267 1135.21 522.333 1130.88 514.8C1126.61 507.267 1124.48 498.6 1124.48 488.8V439.2C1124.48 429.4 1126.61 420.733 1130.88 413.2C1135.21 405.667 1141.14 399.767 1148.68 395.5C1156.21 391.167 1164.88 389 1174.68 389C1184.48 389 1193.14 391.167 1200.68 395.5C1208.21 399.767 1214.11 405.667 1218.38 413.2C1222.71 420.733 1224.88 429.4 1224.88 439.2V488.8C1224.88 498.6 1222.71 507.267 1218.38 514.8C1214.11 522.333 1208.21 528.267 1200.68 532.6C1193.14 536.867 1184.48 539 1174.68 539ZM1174.68 519C1180.01 519 1184.84 517.733 1189.18 515.2C1193.58 512.6 1197.08 509.133 1199.68 504.8C1202.28 500.4 1203.58 495.5 1203.58 490.1V437.7C1203.58 432.367 1202.28 427.533 1199.68 423.2C1197.08 418.8 1193.58 415.333 1189.18 412.8C1184.84 410.2 1180.01 408.9 1174.68 408.9C1169.34 408.9 1164.48 410.2 1160.08 412.8C1155.74 415.333 1152.28 418.8 1149.68 423.2C1147.08 427.533 1145.78 432.367 1145.78 437.7V490.1C1145.78 495.5 1147.08 500.4 1149.68 504.8C1152.28 509.133 1155.74 512.6 1160.08 515.2C1164.48 517.733 1169.34 519 1174.68 519ZM1303 539C1293.2 539 1284.53 536.867 1277 532.6C1269.46 528.267 1263.53 522.333 1259.2 514.8C1254.93 507.267 1252.8 498.6 1252.8 488.8V439.2C1252.8 429.4 1254.93 420.733 1259.2 413.2C1263.53 405.667 1269.46 399.767 1277 395.5C1284.53 391.167 1293.2 389 1303 389C1312.8 389 1321.46 391.167 1329 395.5C1336.53 399.767 1342.43 405.667 1346.7 413.2C1351.03 420.733 1353.2 429.4 1353.2 439.2V488.8C1353.2 498.6 1351.03 507.267 1346.7 514.8C1342.43 522.333 1336.53 528.267 1329 532.6C1321.46 536.867 1312.8 539 1303 539ZM1303 519C1308.33 519 1313.16 517.733 1317.5 515.2C1321.9 512.6 1325.4 509.133 1328 504.8C1330.6 500.4 1331.9 495.5 1331.9 490.1V437.7C1331.9 432.367 1330.6 427.533 1328 423.2C1325.4 418.8 1321.9 415.333 1317.5 412.8C1313.16 410.2 1308.33 408.9 1303 408.9C1297.66 408.9 1292.8 410.2 1288.4 412.8C1284.06 415.333 1280.6 418.8 1278 423.2C1275.4 427.533 1274.1 432.367 1274.1 437.7V490.1C1274.1 495.5 1275.4 500.4 1278 504.8C1280.6 509.133 1284.06 512.6 1288.4 515.2C1292.8 517.733 1297.66 519 1303 519ZM1399.12 536L1385.12 522L1515.22 392L1529.22 406.1L1399.12 536ZM1499.22 539C1492.62 539 1486.58 537.4 1481.12 534.2C1475.72 530.933 1471.38 526.6 1468.12 521.2C1464.85 515.733 1463.22 509.667 1463.22 503C1463.22 496.467 1464.88 490.467 1468.22 485C1471.55 479.533 1475.95 475.167 1481.42 471.9C1486.88 468.633 1492.82 467 1499.22 467C1505.82 467 1511.85 468.633 1517.32 471.9C1522.78 475.1 1527.12 479.433 1530.32 484.9C1533.58 490.3 1535.22 496.333 1535.22 503C1535.22 509.667 1533.58 515.733 1530.32 521.2C1527.12 526.6 1522.78 530.933 1517.32 534.2C1511.85 537.4 1505.82 539 1499.22 539ZM1499.22 520.9C1502.48 520.9 1505.45 520.1 1508.12 518.5C1510.85 516.833 1513.02 514.633 1514.62 511.9C1516.28 509.167 1517.12 506.2 1517.12 503C1517.12 499.8 1516.28 496.833 1514.62 494.1C1513.02 491.367 1510.85 489.2 1508.12 487.6C1505.45 485.933 1502.48 485.1 1499.22 485.1C1496.02 485.1 1493.05 485.933 1490.32 487.6C1487.65 489.2 1485.48 491.367 1483.82 494.1C1482.22 496.833 1481.42 499.8 1481.42 503C1481.42 506.2 1482.22 509.167 1483.82 511.9C1485.48 514.633 1487.65 516.833 1490.32 518.5C1493.05 520.1 1496.02 520.9 1499.22 520.9ZM1415.12 461C1408.52 461 1402.48 459.4 1397.02 456.2C1391.55 452.933 1387.18 448.6 1383.92 443.2C1380.72 437.733 1379.12 431.667 1379.12 425C1379.12 418.467 1380.78 412.467 1384.12 407C1387.45 401.533 1391.85 397.167 1397.32 393.9C1402.78 390.633 1408.72 389 1415.12 389C1421.72 389 1427.72 390.633 1433.12 393.9C1438.58 397.1 1442.95 401.433 1446.22 406.9C1449.48 412.3 1451.12 418.333 1451.12 425C1451.12 431.667 1449.48 437.733 1446.22 443.2C1442.95 448.6 1438.58 452.933 1433.12 456.2C1427.72 459.4 1421.72 461 1415.12 461ZM1415.12 442.9C1418.32 442.9 1421.28 442.1 1424.02 440.5C1426.75 438.833 1428.92 436.633 1430.52 433.9C1432.18 431.167 1433.02 428.2 1433.02 425C1433.02 421.8 1432.18 418.833 1430.52 416.1C1428.92 413.367 1426.75 411.2 1424.02 409.6C1421.28 407.933 1418.32 407.1 1415.12 407.1C1411.92 407.1 1408.95 407.933 1406.22 409.6C1403.55 411.2 1401.38 413.367 1399.72 416.1C1398.05 418.833 1397.22 421.8 1397.22 425C1397.22 428.2 1398.05 431.167 1399.72 433.9C1401.38 436.633 1403.55 438.833 1406.22 440.5C1408.88 442.1 1411.85 442.9 1415.12 442.9Z" fill="#23374F"></path><path d="M505.708 644V618.08H516.184C516.436 618.08 516.748 618.092 517.12 618.116C517.492 618.128 517.846 618.164 518.182 618.224C519.622 618.452 520.822 618.944 521.781 619.7C522.754 620.456 523.48 621.41 523.96 622.562C524.44 623.714 524.68 624.986 524.68 626.378C524.68 628.442 524.152 630.224 523.096 631.724C522.04 633.212 520.456 634.142 518.344 634.514L516.814 634.694H509.47V644H505.708ZM520.864 644L515.752 633.452L519.55 632.48L525.166 644H520.864ZM509.47 631.13H516.04C516.28 631.13 516.544 631.118 516.832 631.094C517.132 631.07 517.414 631.028 517.678 630.968C518.446 630.788 519.064 630.458 519.532 629.978C520 629.486 520.336 628.922 520.54 628.286C520.744 627.65 520.846 627.014 520.846 626.378C520.846 625.742 520.744 625.112 520.54 624.488C520.336 623.852 520 623.294 519.532 622.814C519.064 622.322 518.446 621.986 517.678 621.806C517.414 621.734 517.132 621.686 516.832 621.662C516.544 621.638 516.28 621.626 516.04 621.626H509.47V631.13ZM539.94 644.54C537.348 644.54 535.14 643.976 533.316 642.848C531.492 641.708 530.094 640.124 529.122 638.096C528.162 636.068 527.682 633.716 527.682 631.04C527.682 628.364 528.162 626.012 529.122 623.984C530.094 621.956 531.492 620.378 533.316 619.25C535.14 618.11 537.348 617.54 539.94 617.54C542.52 617.54 544.722 618.11 546.546 619.25C548.382 620.378 549.78 621.956 550.74 623.984C551.7 626.012 552.18 628.364 552.18 631.04C552.18 633.716 551.7 636.068 550.74 638.096C549.78 640.124 548.382 641.708 546.546 642.848C544.722 643.976 542.52 644.54 539.94 644.54ZM539.94 640.958C541.776 640.982 543.3 640.58 544.512 639.752C545.736 638.912 546.654 637.748 547.266 636.26C547.878 634.76 548.184 633.02 548.184 631.04C548.184 629.06 547.878 627.332 547.266 625.856C546.654 624.368 545.736 623.21 544.512 622.382C543.3 621.554 541.776 621.134 539.94 621.122C538.104 621.098 536.574 621.5 535.35 622.328C534.138 623.156 533.226 624.32 532.614 625.82C532.002 627.32 531.69 629.06 531.678 631.04C531.666 633.02 531.966 634.754 532.578 636.242C533.19 637.718 534.108 638.87 535.332 639.698C536.568 640.526 538.104 640.946 539.94 640.958ZM556.13 644V618.08H559.892V644H556.13ZM581.666 650.714C580.274 649.094 579.074 647.264 578.066 645.224C577.058 643.196 576.29 641.066 575.762 638.834C575.234 636.59 574.988 634.352 575.024 632.12C574.988 629.888 575.234 627.656 575.762 625.424C576.29 623.18 577.058 621.044 578.066 619.016C579.074 616.976 580.274 615.146 581.666 613.526L584.474 615.614C583.034 617.318 581.876 619.07 581 620.87C580.124 622.658 579.482 624.494 579.074 626.378C578.666 628.25 578.462 630.164 578.462 632.12C578.462 634.064 578.666 635.978 579.074 637.862C579.482 639.746 580.124 641.588 581 643.388C581.888 645.188 583.046 646.934 584.474 648.626L581.666 650.714ZM588.5 644V618.08H598.976C599.228 618.08 599.54 618.092 599.912 618.116C600.284 618.128 600.638 618.164 600.974 618.224C602.414 618.452 603.614 618.944 604.574 619.7C605.546 620.456 606.272 621.41 606.752 622.562C607.232 623.714 607.472 624.986 607.472 626.378C607.472 628.442 606.944 630.224 605.888 631.724C604.832 633.212 603.248 634.142 601.136 634.514L599.606 634.694H592.262V644H588.5ZM603.656 644L598.544 633.452L602.342 632.48L607.958 644H603.656ZM592.262 631.13H598.832C599.072 631.13 599.336 631.118 599.624 631.094C599.924 631.07 600.206 631.028 600.47 630.968C601.238 630.788 601.856 630.458 602.324 629.978C602.792 629.486 603.128 628.922 603.332 628.286C603.536 627.65 603.638 627.014 603.638 626.378C603.638 625.742 603.536 625.112 603.332 624.488C603.128 623.852 602.792 623.294 602.324 622.814C601.856 622.322 601.238 621.986 600.47 621.806C600.206 621.734 599.924 621.686 599.624 621.662C599.336 621.638 599.072 621.626 598.832 621.626H592.262V631.13ZM620.537 644.54C618.605 644.54 616.907 644.12 615.443 643.28C613.991 642.428 612.857 641.246 612.041 639.734C611.237 638.21 610.835 636.446 610.835 634.442C610.835 632.318 611.231 630.476 612.023 628.916C612.827 627.356 613.943 626.15 615.371 625.298C616.799 624.446 618.461 624.02 620.357 624.02C622.337 624.02 624.023 624.482 625.415 625.406C626.807 626.318 627.845 627.62 628.529 629.312C629.225 631.004 629.501 633.014 629.357 635.342H625.595V633.974C625.571 631.718 625.139 630.05 624.299 628.97C623.471 627.89 622.205 627.35 620.501 627.35C618.617 627.35 617.201 627.944 616.253 629.132C615.305 630.32 614.831 632.036 614.831 634.28C614.831 636.416 615.305 638.072 616.253 639.248C617.201 640.412 618.569 640.994 620.357 640.994C621.533 640.994 622.547 640.73 623.399 640.202C624.263 639.662 624.935 638.894 625.415 637.898L629.105 639.068C628.349 640.808 627.203 642.158 625.667 643.118C624.131 644.066 622.421 644.54 620.537 644.54ZM613.607 635.342V632.408H627.485V635.342H613.607ZM644.519 644C643.295 644.24 642.095 644.342 640.919 644.306C639.743 644.27 638.693 644.042 637.769 643.622C636.845 643.202 636.149 642.542 635.681 641.642C635.261 640.838 635.033 640.022 634.997 639.194C634.973 638.354 634.961 637.406 634.961 636.35V619.16H638.741V636.17C638.741 636.95 638.747 637.628 638.759 638.204C638.783 638.78 638.909 639.266 639.137 639.662C639.569 640.406 640.253 640.832 641.189 640.94C642.137 641.036 643.247 640.994 644.519 640.814V644ZM631.235 627.584V624.56H644.519V627.584H631.235ZM655.944 644.522C654.6 644.522 653.472 644.306 652.56 643.874C651.648 643.442 650.904 642.878 650.328 642.182C649.764 641.474 649.332 640.706 649.032 639.878C648.732 639.05 648.528 638.24 648.42 637.448C648.312 636.656 648.258 635.96 648.258 635.36V624.56H652.074V634.118C652.074 634.874 652.134 635.654 652.254 636.458C652.386 637.25 652.626 637.988 652.974 638.672C653.334 639.356 653.832 639.908 654.468 640.328C655.116 640.748 655.956 640.958 656.988 640.958C657.66 640.958 658.296 640.85 658.896 640.634C659.496 640.406 660.018 640.046 660.462 639.554C660.918 639.062 661.272 638.414 661.524 637.61C661.788 636.806 661.92 635.828 661.92 634.676L664.26 635.558C664.26 637.322 663.93 638.882 663.27 640.238C662.61 641.582 661.662 642.632 660.426 643.388C659.19 644.144 657.696 644.522 655.944 644.522ZM662.37 644V638.384H661.92V624.56H665.718V644H662.37ZM670.766 644V624.56H674.114V629.276L673.646 628.664C673.886 628.04 674.198 627.47 674.582 626.954C674.966 626.426 675.41 625.994 675.914 625.658C676.406 625.298 676.952 625.022 677.552 624.83C678.164 624.626 678.788 624.506 679.424 624.47C680.06 624.422 680.672 624.452 681.26 624.56V628.088C680.624 627.92 679.916 627.872 679.136 627.944C678.368 628.016 677.66 628.262 677.012 628.682C676.4 629.078 675.914 629.558 675.554 630.122C675.206 630.686 674.954 631.316 674.798 632.012C674.642 632.696 674.564 633.422 674.564 634.19V644H670.766ZM698.332 644V634.442C698.332 633.686 698.266 632.912 698.134 632.12C698.014 631.316 697.774 630.572 697.414 629.888C697.066 629.204 696.568 628.652 695.92 628.232C695.284 627.812 694.45 627.602 693.418 627.602C692.746 627.602 692.11 627.716 691.51 627.944C690.91 628.16 690.382 628.514 689.926 629.006C689.482 629.498 689.128 630.146 688.864 630.95C688.612 631.754 688.486 632.732 688.486 633.884L686.146 633.002C686.146 631.238 686.476 629.684 687.136 628.34C687.796 626.984 688.744 625.928 689.98 625.172C691.216 624.416 692.71 624.038 694.462 624.038C695.806 624.038 696.934 624.254 697.846 624.686C698.758 625.118 699.496 625.688 700.06 626.396C700.636 627.092 701.074 627.854 701.374 628.682C701.674 629.51 701.878 630.32 701.986 631.112C702.094 631.904 702.148 632.6 702.148 633.2V644H698.332ZM684.67 644V624.56H688.036V630.176H688.486V644H684.67ZM722.485 644.54C720.541 644.54 718.855 644.102 717.427 643.226C715.999 642.35 714.895 641.144 714.115 639.608C713.347 638.06 712.963 636.278 712.963 634.262C712.963 632.234 713.359 630.452 714.151 628.916C714.943 627.368 716.053 626.168 717.481 625.316C718.909 624.452 720.577 624.02 722.485 624.02C724.429 624.02 726.115 624.458 727.543 625.334C728.971 626.21 730.075 627.416 730.855 628.952C731.635 630.488 732.025 632.258 732.025 634.262C732.025 636.29 731.629 638.078 730.837 639.626C730.057 641.162 728.953 642.368 727.525 643.244C726.097 644.108 724.417 644.54 722.485 644.54ZM722.485 640.994C724.345 640.994 725.731 640.37 726.643 639.122C727.567 637.862 728.029 636.242 728.029 634.262C728.029 632.234 727.561 630.614 726.625 629.402C725.701 628.178 724.321 627.566 722.485 627.566C721.225 627.566 720.187 627.854 719.371 628.43C718.555 628.994 717.949 629.78 717.553 630.788C717.157 631.784 716.959 632.942 716.959 634.262C716.959 636.302 717.427 637.934 718.363 639.158C719.299 640.382 720.673 640.994 722.485 640.994ZM749.625 644V634.442C749.625 633.686 749.559 632.912 749.427 632.12C749.307 631.316 749.067 630.572 748.707 629.888C748.359 629.204 747.861 628.652 747.213 628.232C746.577 627.812 745.743 627.602 744.711 627.602C744.039 627.602 743.403 627.716 742.803 627.944C742.203 628.16 741.675 628.514 741.219 629.006C740.775 629.498 740.421 630.146 740.157 630.95C739.905 631.754 739.779 632.732 739.779 633.884L737.439 633.002C737.439 631.238 737.769 629.684 738.429 628.34C739.089 626.984 740.037 625.928 741.273 625.172C742.509 624.416 744.003 624.038 745.755 624.038C747.099 624.038 748.227 624.254 749.139 624.686C750.051 625.118 750.789 625.688 751.353 626.396C751.929 627.092 752.367 627.854 752.667 628.682C752.967 629.51 753.171 630.32 753.279 631.112C753.387 631.904 753.441 632.6 753.441 633.2V644H749.625ZM735.963 644V624.56H739.329V630.176H739.779V644H735.963ZM765.696 644V618.08H769.458V644H765.696ZM788.508 644V634.442C788.508 633.686 788.442 632.912 788.31 632.12C788.19 631.316 787.95 630.572 787.59 629.888C787.242 629.204 786.744 628.652 786.096 628.232C785.46 627.812 784.626 627.602 783.594 627.602C782.922 627.602 782.286 627.716 781.686 627.944C781.086 628.16 780.558 628.514 780.102 629.006C779.658 629.498 779.304 630.146 779.04 630.95C778.788 631.754 778.662 632.732 778.662 633.884L776.322 633.002C776.322 631.238 776.652 629.684 777.312 628.34C777.972 626.984 778.92 625.928 780.156 625.172C781.392 624.416 782.886 624.038 784.638 624.038C785.982 624.038 787.11 624.254 788.022 624.686C788.934 625.118 789.672 625.688 790.236 626.396C790.812 627.092 791.25 627.854 791.55 628.682C791.85 629.51 792.054 630.32 792.162 631.112C792.27 631.904 792.324 632.6 792.324 633.2V644H788.508ZM774.846 644V624.56H778.212V630.176H778.662V644H774.846ZM802.268 644L795.212 624.56H799.01L804.176 639.284L809.342 624.56H813.14L806.084 644H802.268ZM824.302 644.54C822.37 644.54 820.672 644.12 819.208 643.28C817.756 642.428 816.622 641.246 815.806 639.734C815.002 638.21 814.6 636.446 814.6 634.442C814.6 632.318 814.996 630.476 815.788 628.916C816.592 627.356 817.708 626.15 819.136 625.298C820.564 624.446 822.226 624.02 824.122 624.02C826.102 624.02 827.788 624.482 829.18 625.406C830.572 626.318 831.61 627.62 832.294 629.312C832.99 631.004 833.266 633.014 833.122 635.342H829.36V633.974C829.336 631.718 828.904 630.05 828.064 628.97C827.236 627.89 825.97 627.35 824.266 627.35C822.382 627.35 820.966 627.944 820.018 629.132C819.07 630.32 818.596 632.036 818.596 634.28C818.596 636.416 819.07 638.072 820.018 639.248C820.966 640.412 822.334 640.994 824.122 640.994C825.298 640.994 826.312 640.73 827.164 640.202C828.028 639.662 828.7 638.894 829.18 637.898L832.87 639.068C832.114 640.808 830.968 642.158 829.432 643.118C827.896 644.066 826.186 644.54 824.302 644.54ZM817.372 635.342V632.408H831.25V635.342H817.372ZM844.595 644.522C842.231 644.522 840.305 644 838.817 642.956C837.329 641.912 836.417 640.442 836.081 638.546L839.933 637.952C840.173 638.96 840.725 639.758 841.589 640.346C842.465 640.922 843.551 641.21 844.847 641.21C846.023 641.21 846.941 640.97 847.601 640.49C848.273 640.01 848.609 639.35 848.609 638.51C848.609 638.018 848.489 637.622 848.249 637.322C848.021 637.01 847.535 636.716 846.791 636.44C846.047 636.164 844.913 635.822 843.389 635.414C841.721 634.982 840.395 634.52 839.411 634.028C838.439 633.524 837.743 632.942 837.323 632.282C836.915 631.61 836.711 630.8 836.711 629.852C836.711 628.676 837.023 627.65 837.647 626.774C838.271 625.898 839.147 625.22 840.275 624.74C841.415 624.26 842.747 624.02 844.271 624.02C845.759 624.02 847.085 624.254 848.249 624.722C849.413 625.19 850.355 625.856 851.075 626.72C851.795 627.572 852.227 628.574 852.371 629.726L848.519 630.428C848.387 629.492 847.949 628.754 847.205 628.214C846.461 627.674 845.495 627.38 844.307 627.332C843.167 627.284 842.243 627.476 841.535 627.908C840.827 628.328 840.473 628.91 840.473 629.654C840.473 630.086 840.605 630.452 840.869 630.752C841.145 631.052 841.673 631.34 842.453 631.616C843.233 631.892 844.385 632.222 845.909 632.606C847.541 633.026 848.837 633.494 849.797 634.01C850.757 634.514 851.441 635.12 851.849 635.828C852.269 636.524 852.479 637.37 852.479 638.366C852.479 640.286 851.777 641.792 850.373 642.884C848.981 643.976 847.055 644.522 844.595 644.522ZM867.585 644C866.361 644.24 865.161 644.342 863.985 644.306C862.809 644.27 861.759 644.042 860.835 643.622C859.911 643.202 859.215 642.542 858.747 641.642C858.327 640.838 858.099 640.022 858.063 639.194C858.039 638.354 858.027 637.406 858.027 636.35V619.16H861.807V636.17C861.807 636.95 861.813 637.628 861.825 638.204C861.849 638.78 861.975 639.266 862.203 639.662C862.635 640.406 863.319 640.832 864.255 640.94C865.203 641.036 866.313 640.994 867.585 640.814V644ZM854.301 627.584V624.56H867.585V627.584H854.301ZM894.976 644L894.994 631.886C894.994 630.482 894.634 629.39 893.914 628.61C893.194 627.818 892.246 627.422 891.07 627.422C890.35 627.422 889.69 627.59 889.09 627.926C888.502 628.25 888.022 628.742 887.65 629.402C887.29 630.05 887.11 630.866 887.11 631.85L885.292 630.932C885.268 629.564 885.556 628.364 886.156 627.332C886.768 626.3 887.596 625.502 888.64 624.938C889.684 624.362 890.854 624.074 892.15 624.074C894.25 624.074 895.876 624.704 897.028 625.964C898.18 627.224 898.756 628.898 898.756 630.986L898.738 644H894.976ZM871.666 644V624.56H875.014V630.176H875.446V644H871.666ZM883.33 644L883.348 631.958C883.348 630.542 882.988 629.432 882.268 628.628C881.56 627.824 880.606 627.422 879.406 627.422C878.218 627.422 877.258 627.83 876.526 628.646C875.806 629.462 875.446 630.53 875.446 631.85L873.646 630.698C873.646 629.426 873.952 628.292 874.564 627.296C875.176 626.3 876.004 625.514 877.048 624.938C878.092 624.362 879.274 624.074 880.594 624.074C881.974 624.074 883.15 624.368 884.122 624.956C885.094 625.532 885.832 626.342 886.336 627.386C886.852 628.43 887.11 629.642 887.11 631.022L887.092 644H883.33ZM911.806 644.54C909.874 644.54 908.176 644.12 906.712 643.28C905.26 642.428 904.126 641.246 903.31 639.734C902.506 638.21 902.104 636.446 902.104 634.442C902.104 632.318 902.5 630.476 903.292 628.916C904.096 627.356 905.212 626.15 906.64 625.298C908.068 624.446 909.73 624.02 911.626 624.02C913.606 624.02 915.292 624.482 916.684 625.406C918.076 626.318 919.114 627.62 919.798 629.312C920.494 631.004 920.77 633.014 920.626 635.342H916.864V633.974C916.84 631.718 916.408 630.05 915.568 628.97C914.74 627.89 913.474 627.35 911.77 627.35C909.886 627.35 908.47 627.944 907.522 629.132C906.574 630.32 906.1 632.036 906.1 634.28C906.1 636.416 906.574 638.072 907.522 639.248C908.47 640.412 909.838 640.994 911.626 640.994C912.802 640.994 913.816 640.73 914.668 640.202C915.532 639.662 916.204 638.894 916.684 637.898L920.374 639.068C919.618 640.808 918.472 642.158 916.936 643.118C915.4 644.066 913.69 644.54 911.806 644.54ZM904.876 635.342V632.408H918.754V635.342H904.876ZM937.781 644V634.442C937.781 633.686 937.715 632.912 937.583 632.12C937.463 631.316 937.223 630.572 936.863 629.888C936.515 629.204 936.017 628.652 935.369 628.232C934.733 627.812 933.899 627.602 932.867 627.602C932.195 627.602 931.559 627.716 930.959 627.944C930.359 628.16 929.831 628.514 929.375 629.006C928.931 629.498 928.577 630.146 928.313 630.95C928.061 631.754 927.935 632.732 927.935 633.884L925.595 633.002C925.595 631.238 925.925 629.684 926.585 628.34C927.245 626.984 928.193 625.928 929.429 625.172C930.665 624.416 932.159 624.038 933.911 624.038C935.255 624.038 936.383 624.254 937.295 624.686C938.207 625.118 938.945 625.688 939.509 626.396C940.085 627.092 940.523 627.854 940.823 628.682C941.123 629.51 941.327 630.32 941.435 631.112C941.543 631.904 941.597 632.6 941.597 633.2V644H937.781ZM924.119 644V624.56H927.485V630.176H927.935V644H924.119ZM957.41 644C956.186 644.24 954.986 644.342 953.81 644.306C952.634 644.27 951.584 644.042 950.66 643.622C949.736 643.202 949.04 642.542 948.572 641.642C948.152 640.838 947.924 640.022 947.888 639.194C947.864 638.354 947.852 637.406 947.852 636.35V619.16H951.632V636.17C951.632 636.95 951.638 637.628 951.65 638.204C951.674 638.78 951.8 639.266 952.028 639.662C952.46 640.406 953.144 640.832 954.08 640.94C955.028 641.036 956.138 640.994 957.41 640.814V644ZM944.126 627.584V624.56H957.41V627.584H944.126ZM968.355 634.154V631.13H992.115V634.154H968.355ZM1017.64 642.2L1011.34 634.262L1017.64 626.342L1019.71 627.98L1014.69 634.262L1019.71 640.562L1017.64 642.2ZM1010.67 642.2L1004.37 634.262L1010.67 626.342L1012.74 627.98L1007.74 634.262L1012.74 640.562L1010.67 642.2ZM1024.49 644V624.56H1033.04C1033.6 624.56 1034.17 624.596 1034.73 624.668C1035.3 624.728 1035.79 624.818 1036.23 624.938C1037.21 625.214 1038.05 625.766 1038.75 626.594C1039.44 627.41 1039.79 628.502 1039.79 629.87C1039.79 630.65 1039.67 631.31 1039.43 631.85C1039.19 632.378 1038.86 632.834 1038.44 633.218C1038.25 633.386 1038.04 633.536 1037.83 633.668C1037.61 633.8 1037.4 633.902 1037.18 633.974C1037.62 634.046 1038.06 634.202 1038.49 634.442C1039.15 634.79 1039.69 635.294 1040.11 635.954C1040.55 636.602 1040.76 637.472 1040.76 638.564C1040.76 639.872 1040.44 640.97 1039.81 641.858C1039.17 642.734 1038.27 643.334 1037.11 643.658C1036.65 643.79 1036.14 643.88 1035.56 643.928C1035 643.976 1034.43 644 1033.87 644H1024.49ZM1028.31 641.03H1033.63C1033.89 641.03 1034.17 641.006 1034.5 640.958C1034.82 640.91 1035.11 640.844 1035.36 640.76C1035.9 640.592 1036.29 640.286 1036.51 639.842C1036.75 639.398 1036.87 638.924 1036.87 638.42C1036.87 637.736 1036.69 637.19 1036.33 636.782C1035.97 636.362 1035.52 636.092 1034.97 635.972C1034.73 635.888 1034.46 635.84 1034.17 635.828C1033.89 635.816 1033.64 635.81 1033.44 635.81H1028.31V641.03ZM1028.31 632.786H1032.52C1032.87 632.786 1033.22 632.768 1033.58 632.732C1033.94 632.684 1034.25 632.606 1034.52 632.498C1034.98 632.318 1035.33 632.018 1035.56 631.598C1035.79 631.166 1035.9 630.698 1035.9 630.194C1035.9 629.642 1035.78 629.15 1035.52 628.718C1035.27 628.286 1034.89 627.986 1034.39 627.818C1034.04 627.698 1033.64 627.632 1033.18 627.62C1032.74 627.596 1032.46 627.584 1032.34 627.584H1028.31V632.786ZM1052.81 644.54C1050.87 644.54 1049.18 644.102 1047.76 643.226C1046.33 642.35 1045.22 641.144 1044.44 639.608C1043.68 638.06 1043.29 636.278 1043.29 634.262C1043.29 632.234 1043.69 630.452 1044.48 628.916C1045.27 627.368 1046.38 626.168 1047.81 625.316C1049.24 624.452 1050.91 624.02 1052.81 624.02C1054.76 624.02 1056.44 624.458 1057.87 625.334C1059.3 626.21 1060.4 627.416 1061.18 628.952C1061.96 630.488 1062.35 632.258 1062.35 634.262C1062.35 636.29 1061.96 638.078 1061.17 639.626C1060.39 641.162 1059.28 642.368 1057.85 643.244C1056.43 644.108 1054.75 644.54 1052.81 644.54ZM1052.81 640.994C1054.67 640.994 1056.06 640.37 1056.97 639.122C1057.9 637.862 1058.36 636.242 1058.36 634.262C1058.36 632.234 1057.89 630.614 1056.95 629.402C1056.03 628.178 1054.65 627.566 1052.81 627.566C1051.55 627.566 1050.52 627.854 1049.7 628.43C1048.88 628.994 1048.28 629.78 1047.88 630.788C1047.49 631.784 1047.29 632.942 1047.29 634.262C1047.29 636.302 1047.76 637.934 1048.69 639.158C1049.63 640.382 1051 640.994 1052.81 640.994ZM1072.71 644.54C1070.83 644.54 1069.14 644.138 1067.64 643.334C1066.15 642.53 1064.97 641.42 1064.11 640.004L1067.1 638.042C1067.79 638.978 1068.6 639.704 1069.51 640.22C1070.43 640.736 1071.47 640.994 1072.62 640.994C1073.82 640.994 1074.77 640.724 1075.47 640.184C1076.17 639.632 1076.53 638.894 1076.53 637.97C1076.53 637.238 1076.32 636.698 1075.92 636.35C1075.52 635.99 1074.97 635.756 1074.26 635.648C1073.56 635.54 1072.77 635.486 1071.88 635.486H1070.16V632.462H1071.88C1073.06 632.462 1074.03 632.3 1074.78 631.976C1075.55 631.64 1075.93 631.01 1075.93 630.086C1075.93 629.186 1075.6 628.538 1074.94 628.142C1074.3 627.746 1073.52 627.548 1072.62 627.548C1071.61 627.548 1070.64 627.764 1069.69 628.196C1068.74 628.616 1067.91 629.138 1067.2 629.762L1065.01 627.188C1066.04 626.192 1067.22 625.418 1068.54 624.866C1069.87 624.302 1071.3 624.02 1072.82 624.02C1074.07 624.02 1075.22 624.242 1076.28 624.686C1077.34 625.118 1078.2 625.76 1078.83 626.612C1079.48 627.464 1079.8 628.514 1079.8 629.762C1079.8 630.734 1079.59 631.622 1079.16 632.426C1078.72 633.23 1078.06 633.962 1077.18 634.622L1077.07 633.344C1077.8 633.572 1078.41 633.938 1078.9 634.442C1079.4 634.946 1079.76 635.54 1080 636.224C1080.25 636.896 1080.38 637.61 1080.38 638.366C1080.38 639.674 1080.03 640.79 1079.34 641.714C1078.65 642.638 1077.73 643.34 1076.56 643.82C1075.4 644.3 1074.12 644.54 1072.71 644.54ZM1084.33 644V624.56H1092.88C1093.44 624.56 1094 624.596 1094.57 624.668C1095.13 624.728 1095.63 624.818 1096.06 624.938C1097.05 625.214 1097.89 625.766 1098.58 626.594C1099.28 627.41 1099.63 628.502 1099.63 629.87C1099.63 630.65 1099.51 631.31 1099.27 631.85C1099.03 632.378 1098.7 632.834 1098.28 633.218C1098.08 633.386 1097.88 633.536 1097.66 633.668C1097.45 633.8 1097.23 633.902 1097.02 633.974C1097.46 634.046 1097.9 634.202 1098.33 634.442C1098.99 634.79 1099.53 635.294 1099.95 635.954C1100.38 636.602 1100.6 637.472 1100.6 638.564C1100.6 639.872 1100.28 640.97 1099.64 641.858C1099.01 642.734 1098.11 643.334 1096.94 643.658C1096.49 643.79 1095.97 643.88 1095.4 643.928C1094.83 643.976 1094.27 644 1093.7 644H1084.33ZM1088.14 641.03H1093.47C1093.72 641.03 1094.01 641.006 1094.33 640.958C1094.66 640.91 1094.95 640.844 1095.2 640.76C1095.74 640.592 1096.12 640.286 1096.35 639.842C1096.59 639.398 1096.71 638.924 1096.71 638.42C1096.71 637.736 1096.53 637.19 1096.17 636.782C1095.81 636.362 1095.35 636.092 1094.8 635.972C1094.56 635.888 1094.3 635.84 1094.01 635.828C1093.72 635.816 1093.48 635.81 1093.27 635.81H1088.14V641.03ZM1088.14 632.786H1092.35C1092.7 632.786 1093.06 632.768 1093.42 632.732C1093.78 632.684 1094.09 632.606 1094.35 632.498C1094.82 632.318 1095.17 632.018 1095.4 631.598C1095.62 631.166 1095.74 630.698 1095.74 630.194C1095.74 629.642 1095.61 629.15 1095.36 628.718C1095.11 628.286 1094.73 627.986 1094.23 627.818C1093.88 627.698 1093.48 627.632 1093.02 627.62C1092.58 627.596 1092.29 627.584 1092.17 627.584H1088.14V632.786ZM1113.33 644.54C1111.47 644.54 1109.91 644.09 1108.65 643.19C1107.39 642.278 1106.44 641.048 1105.79 639.5C1105.14 637.952 1104.82 636.206 1104.82 634.262C1104.82 632.318 1105.14 630.572 1105.77 629.024C1106.42 627.476 1107.37 626.258 1108.62 625.37C1109.88 624.47 1111.43 624.02 1113.26 624.02C1115.09 624.02 1116.66 624.47 1117.98 625.37C1119.31 626.258 1120.34 627.476 1121.06 629.024C1121.78 630.56 1122.14 632.306 1122.14 634.262C1122.14 636.206 1121.78 637.958 1121.06 639.518C1120.35 641.066 1119.33 642.29 1118.01 643.19C1116.71 644.09 1115.15 644.54 1113.33 644.54ZM1104.19 652.64V624.56H1107.54V638.546H1107.97V652.64H1104.19ZM1112.81 641.138C1114.01 641.138 1115 640.832 1115.78 640.22C1116.57 639.608 1117.16 638.786 1117.55 637.754C1117.94 636.71 1118.14 635.546 1118.14 634.262C1118.14 632.99 1117.94 631.838 1117.55 630.806C1117.16 629.774 1116.57 628.952 1115.76 628.34C1114.96 627.728 1113.93 627.422 1112.69 627.422C1111.51 627.422 1110.54 627.71 1109.77 628.286C1109.01 628.862 1108.45 629.666 1108.08 630.698C1107.72 631.73 1107.54 632.918 1107.54 634.262C1107.54 635.606 1107.72 636.794 1108.08 637.826C1108.44 638.858 1109.01 639.668 1109.79 640.256C1110.57 640.844 1111.58 641.138 1112.81 641.138ZM1131.6 644.54C1130.16 644.54 1128.95 644.276 1127.98 643.748C1127.01 643.208 1126.27 642.5 1125.77 641.624C1125.28 640.736 1125.03 639.764 1125.03 638.708C1125.03 637.724 1125.2 636.86 1125.55 636.116C1125.9 635.372 1126.42 634.742 1127.1 634.226C1127.78 633.698 1128.62 633.272 1129.62 632.948C1130.48 632.696 1131.46 632.474 1132.55 632.282C1133.65 632.09 1134.79 631.91 1135.99 631.742C1137.2 631.574 1138.4 631.406 1139.59 631.238L1138.22 631.994C1138.25 630.47 1137.92 629.342 1137.25 628.61C1136.59 627.866 1135.45 627.494 1133.83 627.494C1132.81 627.494 1131.88 627.734 1131.02 628.214C1130.17 628.682 1129.58 629.462 1129.24 630.554L1125.73 629.474C1126.21 627.806 1127.12 626.48 1128.47 625.496C1129.82 624.512 1131.62 624.02 1133.87 624.02C1135.61 624.02 1137.12 624.32 1138.4 624.92C1139.7 625.508 1140.65 626.444 1141.25 627.728C1141.56 628.364 1141.75 629.036 1141.82 629.744C1141.9 630.452 1141.93 631.214 1141.93 632.03V644H1138.6V639.554L1139.25 640.13C1138.45 641.618 1137.42 642.728 1136.17 643.46C1134.94 644.18 1133.41 644.54 1131.6 644.54ZM1132.27 641.462C1133.33 641.462 1134.25 641.276 1135.02 640.904C1135.79 640.52 1136.41 640.034 1136.87 639.446C1137.34 638.858 1137.65 638.246 1137.79 637.61C1138 637.034 1138.11 636.386 1138.13 635.666C1138.17 634.946 1138.19 634.37 1138.19 633.938L1139.41 634.388C1138.22 634.568 1137.14 634.73 1136.17 634.874C1135.2 635.018 1134.32 635.162 1133.53 635.306C1132.75 635.438 1132.05 635.6 1131.44 635.792C1130.92 635.972 1130.46 636.188 1130.05 636.44C1129.66 636.692 1129.34 636.998 1129.1 637.358C1128.87 637.718 1128.76 638.156 1128.76 638.672C1128.76 639.176 1128.88 639.644 1129.13 640.076C1129.39 640.496 1129.77 640.832 1130.29 641.084C1130.8 641.336 1131.46 641.462 1132.27 641.462ZM1151.63 644V627.944H1144.99V624.56H1162.03V627.944H1155.39V644H1151.63ZM1189.04 624.56V644H1185.42V630.482L1175.7 644H1172.64V624.56H1176.26V637.808L1185.99 624.56H1189.04ZM1194.05 644V624.56H1197.81V632.498H1207.3V624.56H1211.06V644H1207.3V636.044H1197.81V644H1194.05ZM1216.09 644V624.56H1224.64C1225.21 624.56 1225.77 624.596 1226.33 624.668C1226.9 624.728 1227.4 624.818 1227.83 624.938C1228.81 625.214 1229.65 625.766 1230.35 626.594C1231.04 627.41 1231.39 628.502 1231.39 629.87C1231.39 630.65 1231.27 631.31 1231.03 631.85C1230.79 632.378 1230.46 632.834 1230.04 633.218C1229.85 633.386 1229.65 633.536 1229.43 633.668C1229.21 633.8 1229 633.902 1228.78 633.974C1229.23 634.046 1229.66 634.202 1230.1 634.442C1230.76 634.79 1231.3 635.294 1231.72 635.954C1232.15 636.602 1232.36 637.472 1232.36 638.564C1232.36 639.872 1232.05 640.97 1231.41 641.858C1230.77 642.734 1229.87 643.334 1228.71 643.658C1228.25 643.79 1227.74 643.88 1227.16 643.928C1226.6 643.976 1226.03 644 1225.47 644H1216.09ZM1219.91 641.03H1225.24C1225.49 641.03 1225.78 641.006 1226.1 640.958C1226.42 640.91 1226.71 640.844 1226.96 640.76C1227.5 640.592 1227.89 640.286 1228.12 639.842C1228.36 639.398 1228.48 638.924 1228.48 638.42C1228.48 637.736 1228.3 637.19 1227.94 636.782C1227.58 636.362 1227.12 636.092 1226.57 635.972C1226.33 635.888 1226.06 635.84 1225.78 635.828C1225.49 635.816 1225.24 635.81 1225.04 635.81H1219.91V641.03ZM1219.91 632.786H1224.12C1224.47 632.786 1224.82 632.768 1225.18 632.732C1225.54 632.684 1225.85 632.606 1226.12 632.498C1226.59 632.318 1226.93 632.018 1227.16 631.598C1227.39 631.166 1227.5 630.698 1227.5 630.194C1227.5 629.642 1227.38 629.15 1227.13 628.718C1226.87 628.286 1226.5 627.986 1225.99 627.818C1225.64 627.698 1225.24 627.632 1224.79 627.62C1224.34 627.596 1224.06 627.584 1223.94 627.584H1219.91V632.786ZM1244.6 644.54C1242.66 644.54 1240.97 644.12 1239.5 643.28C1238.05 642.428 1236.92 641.246 1236.1 639.734C1235.3 638.21 1234.89 636.446 1234.89 634.442C1234.89 632.318 1235.29 630.476 1236.08 628.916C1236.89 627.356 1238 626.15 1239.43 625.298C1240.86 624.446 1242.52 624.02 1244.42 624.02C1246.4 624.02 1248.08 624.482 1249.47 625.406C1250.87 626.318 1251.9 627.62 1252.59 629.312C1253.28 631.004 1253.56 633.014 1253.42 635.342H1249.65V633.974C1249.63 631.718 1249.2 630.05 1248.36 628.97C1247.53 627.89 1246.26 627.35 1244.56 627.35C1242.68 627.35 1241.26 627.944 1240.31 629.132C1239.36 630.32 1238.89 632.036 1238.89 634.28C1238.89 636.416 1239.36 638.072 1240.31 639.248C1241.26 640.412 1242.63 640.994 1244.42 640.994C1245.59 640.994 1246.61 640.73 1247.46 640.202C1248.32 639.662 1248.99 638.894 1249.47 637.898L1253.16 639.068C1252.41 640.808 1251.26 642.158 1249.73 643.118C1248.19 644.066 1246.48 644.54 1244.6 644.54ZM1237.67 635.342V632.408H1251.54V635.342H1237.67ZM1265.77 644.54C1263.78 644.54 1262.09 644.096 1260.69 643.208C1259.3 642.32 1258.23 641.102 1257.49 639.554C1256.76 638.006 1256.39 636.248 1256.37 634.28C1256.39 632.276 1256.77 630.506 1257.53 628.97C1258.28 627.422 1259.36 626.21 1260.77 625.334C1262.17 624.458 1263.86 624.02 1265.82 624.02C1267.95 624.02 1269.76 624.548 1271.26 625.604C1272.77 626.66 1273.77 628.106 1274.25 629.942L1270.5 631.022C1270.13 629.93 1269.52 629.084 1268.67 628.484C1267.83 627.872 1266.86 627.566 1265.77 627.566C1264.53 627.566 1263.52 627.86 1262.73 628.448C1261.94 629.024 1261.35 629.816 1260.96 630.824C1260.58 631.832 1260.38 632.984 1260.37 634.28C1260.38 636.284 1260.84 637.904 1261.74 639.14C1262.65 640.376 1263.99 640.994 1265.77 640.994C1266.98 640.994 1267.96 640.718 1268.7 640.166C1269.46 639.602 1270.04 638.798 1270.43 637.754L1274.25 638.654C1273.61 640.55 1272.56 642.008 1271.1 643.028C1269.63 644.036 1267.86 644.54 1265.77 644.54ZM1282.73 644V627.944H1276.08V624.56H1293.13V627.944H1286.49V644H1282.73ZM1312.93 624.56V644H1309.31V630.482L1299.59 644H1296.53V624.56H1300.15V637.808L1309.89 624.56H1312.93ZM1334.37 647.834V644H1317.94V624.56H1321.7V640.454H1330.58V624.56H1334.34V640.616H1338.14V647.834H1334.37ZM1357.4 624.56V644H1353.78V630.482L1344.06 644H1341V624.56H1344.62V637.808L1354.36 624.56H1357.4ZM1371.11 622.328C1370.16 622.328 1369.29 622.094 1368.5 621.626C1367.72 621.158 1367.09 620.534 1366.62 619.754C1366.16 618.974 1365.92 618.104 1365.92 617.144H1368.91C1368.91 617.744 1369.13 618.26 1369.56 618.692C1369.99 619.124 1370.51 619.34 1371.11 619.34C1371.72 619.34 1372.23 619.124 1372.65 618.692C1373.09 618.26 1373.3 617.744 1373.3 617.144H1376.29C1376.29 618.104 1376.06 618.974 1375.59 619.754C1375.12 620.534 1374.49 621.158 1373.7 621.626C1372.92 622.094 1372.05 622.328 1371.11 622.328ZM1378.81 624.56V644H1375.19V630.482L1365.47 644H1362.41V624.56H1366.03V637.808L1375.77 624.56H1378.81ZM1385.68 642.2L1383.61 640.562L1388.61 634.262L1383.61 627.98L1385.68 626.342L1391.98 634.262L1385.68 642.2ZM1392.64 642.2L1390.55 640.562L1395.58 634.262L1390.55 627.98L1392.64 626.342L1398.94 634.262L1392.64 642.2ZM1406.12 650.714L1403.31 648.626C1404.74 646.934 1405.89 645.188 1406.77 643.388C1407.65 641.588 1408.3 639.746 1408.71 637.862C1409.12 635.978 1409.32 634.064 1409.32 632.12C1409.32 630.164 1409.12 628.25 1408.71 626.378C1408.3 624.494 1407.66 622.658 1406.78 620.87C1405.91 619.07 1404.75 617.318 1403.31 615.614L1406.12 613.526C1407.51 615.146 1408.71 616.976 1409.72 619.016C1410.73 621.044 1411.49 623.18 1412.02 625.424C1412.55 627.656 1412.8 629.888 1412.76 632.12C1412.8 634.352 1412.55 636.59 1412.02 638.834C1411.49 641.066 1410.73 643.196 1409.72 645.224C1408.71 647.264 1407.51 649.094 1406.12 650.714Z" fill="#23374F"></path><path d="M628.975 735V709.08H639.451C639.703 709.08 640.015 709.092 640.387 709.116C640.759 709.128 641.113 709.164 641.449 709.224C642.889 709.452 644.089 709.944 645.049 710.7C646.021 711.456 646.747 712.41 647.227 713.562C647.707 714.714 647.947 715.986 647.947 717.378C647.947 719.442 647.419 721.224 646.363 722.724C645.307 724.212 643.723 725.142 641.611 725.514L640.081 725.694H632.737V735H628.975ZM644.131 735L639.019 724.452L642.817 723.48L648.433 735H644.131ZM632.737 722.13H639.307C639.547 722.13 639.811 722.118 640.099 722.094C640.399 722.07 640.681 722.028 640.945 721.968C641.713 721.788 642.331 721.458 642.799 720.978C643.267 720.486 643.603 719.922 643.807 719.286C644.011 718.65 644.113 718.014 644.113 717.378C644.113 716.742 644.011 716.112 643.807 715.488C643.603 714.852 643.267 714.294 642.799 713.814C642.331 713.322 641.713 712.986 640.945 712.806C640.681 712.734 640.399 712.686 640.099 712.662C639.811 712.638 639.547 712.626 639.307 712.626H632.737V722.13ZM663.207 735.54C660.615 735.54 658.407 734.976 656.583 733.848C654.759 732.708 653.361 731.124 652.389 729.096C651.429 727.068 650.949 724.716 650.949 722.04C650.949 719.364 651.429 717.012 652.389 714.984C653.361 712.956 654.759 711.378 656.583 710.25C658.407 709.11 660.615 708.54 663.207 708.54C665.787 708.54 667.989 709.11 669.813 710.25C671.649 711.378 673.047 712.956 674.007 714.984C674.967 717.012 675.447 719.364 675.447 722.04C675.447 724.716 674.967 727.068 674.007 729.096C673.047 731.124 671.649 732.708 669.813 733.848C667.989 734.976 665.787 735.54 663.207 735.54ZM663.207 731.958C665.043 731.982 666.567 731.58 667.779 730.752C669.003 729.912 669.921 728.748 670.533 727.26C671.145 725.76 671.451 724.02 671.451 722.04C671.451 720.06 671.145 718.332 670.533 716.856C669.921 715.368 669.003 714.21 667.779 713.382C666.567 712.554 665.043 712.134 663.207 712.122C661.371 712.098 659.841 712.5 658.617 713.328C657.405 714.156 656.493 715.32 655.881 716.82C655.269 718.32 654.957 720.06 654.945 722.04C654.933 724.02 655.233 725.754 655.845 727.242C656.457 728.718 657.375 729.87 658.599 730.698C659.835 731.526 661.371 731.946 663.207 731.958ZM679.398 735V709.08H683.16V735H679.398ZM697.572 720.258V717.234H715.932V720.258H697.572ZM697.572 726.846V723.822H715.932V726.846H697.572ZM739.141 741.714C737.749 740.094 736.549 738.264 735.541 736.224C734.533 734.196 733.765 732.066 733.237 729.834C732.709 727.59 732.463 725.352 732.499 723.12C732.463 720.888 732.709 718.656 733.237 716.424C733.765 714.18 734.533 712.044 735.541 710.016C736.549 707.976 737.749 706.146 739.141 704.526L741.949 706.614C740.509 708.318 739.351 710.07 738.475 711.87C737.599 713.658 736.957 715.494 736.549 717.378C736.141 719.25 735.937 721.164 735.937 723.12C735.937 725.064 736.141 726.978 736.549 728.862C736.957 730.746 737.599 732.588 738.475 734.388C739.363 736.188 740.521 737.934 741.949 739.626L739.141 741.714ZM745.975 735V709.08H766.585V735H762.823V712.626H749.737V735H745.975ZM780.765 735.54C778.905 735.54 777.345 735.09 776.085 734.19C774.825 733.278 773.871 732.048 773.223 730.5C772.575 728.952 772.251 727.206 772.251 725.262C772.251 723.318 772.569 721.572 773.205 720.024C773.853 718.476 774.801 717.258 776.049 716.37C777.309 715.47 778.857 715.02 780.693 715.02C782.517 715.02 784.089 715.47 785.409 716.37C786.741 717.258 787.767 718.476 788.487 720.024C789.207 721.56 789.567 723.306 789.567 725.262C789.567 727.206 789.207 728.958 788.487 730.518C787.779 732.066 786.765 733.29 785.445 734.19C784.137 735.09 782.577 735.54 780.765 735.54ZM771.621 743.64V715.56H774.969V729.546H775.401V743.64H771.621ZM780.243 732.138C781.443 732.138 782.433 731.832 783.213 731.22C784.005 730.608 784.593 729.786 784.977 728.754C785.373 727.71 785.571 726.546 785.571 725.262C785.571 723.99 785.373 722.838 784.977 721.806C784.593 720.774 783.999 719.952 783.195 719.34C782.391 718.728 781.365 718.422 780.117 718.422C778.941 718.422 777.969 718.71 777.201 719.286C776.445 719.862 775.881 720.666 775.509 721.698C775.149 722.73 774.969 723.918 774.969 725.262C774.969 726.606 775.149 727.794 775.509 728.826C775.869 729.858 776.439 730.668 777.219 731.256C777.999 731.844 779.007 732.138 780.243 732.138ZM809.921 715.56V735H806.303V721.482L796.583 735H793.523V715.56H797.141V728.808L806.879 715.56H809.921ZM822.944 735.558C821.096 735.546 819.524 735.144 818.228 734.352C816.932 733.56 815.918 732.42 815.186 730.932C814.466 729.432 814.046 727.626 813.926 725.514C813.866 724.494 813.872 723.366 813.944 722.13C814.016 720.882 814.148 719.676 814.34 718.512C814.544 717.348 814.802 716.376 815.114 715.596C815.462 714.732 815.936 713.94 816.536 713.22C817.136 712.488 817.796 711.876 818.516 711.384C819.284 710.856 820.136 710.448 821.072 710.16C822.008 709.86 822.986 709.626 824.006 709.458C825.038 709.29 826.076 709.146 827.12 709.026C828.176 708.894 829.202 708.732 830.198 708.54L830.558 711.906C829.898 712.062 829.118 712.188 828.218 712.284C827.33 712.38 826.406 712.488 825.446 712.608C824.498 712.728 823.592 712.896 822.728 713.112C821.864 713.328 821.114 713.634 820.478 714.03C819.578 714.582 818.888 715.386 818.408 716.442C817.94 717.498 817.658 718.644 817.562 719.88C818.306 718.752 819.254 717.942 820.406 717.45C821.558 716.946 822.752 716.694 823.988 716.694C825.716 716.694 827.204 717.102 828.452 717.918C829.712 718.734 830.678 719.844 831.35 721.248C832.022 722.652 832.358 724.242 832.358 726.018C832.358 727.938 831.962 729.618 831.17 731.058C830.39 732.486 829.292 733.602 827.876 734.406C826.46 735.198 824.816 735.582 822.944 735.558ZM823.142 732.012C824.87 732.012 826.172 731.478 827.048 730.41C827.936 729.342 828.38 727.92 828.38 726.144C828.38 724.32 827.924 722.886 827.012 721.842C826.1 720.798 824.81 720.276 823.142 720.276C821.45 720.276 820.154 720.798 819.254 721.842C818.366 722.886 817.922 724.32 817.922 726.144C817.922 727.992 818.372 729.432 819.272 730.464C820.172 731.496 821.462 732.012 823.142 732.012ZM836.309 735V715.56H840.089V722.31H842.645C843.197 722.31 843.791 722.322 844.427 722.346C845.063 722.37 845.603 722.43 846.047 722.526C847.091 722.742 847.997 723.102 848.765 723.606C849.533 724.11 850.121 724.782 850.529 725.622C850.949 726.45 851.159 727.47 851.159 728.682C851.159 730.374 850.721 731.724 849.845 732.732C848.969 733.728 847.781 734.4 846.281 734.748C845.801 734.856 845.231 734.928 844.571 734.964C843.923 734.988 843.323 735 842.771 735H836.309ZM840.089 731.976H842.987C843.299 731.976 843.647 731.964 844.031 731.94C844.415 731.916 844.769 731.862 845.093 731.778C845.657 731.61 846.167 731.268 846.623 730.752C847.079 730.236 847.307 729.546 847.307 728.682C847.307 727.794 847.079 727.086 846.623 726.558C846.179 726.03 845.615 725.688 844.931 725.532C844.619 725.448 844.289 725.394 843.941 725.37C843.605 725.346 843.287 725.334 842.987 725.334H840.089V731.976ZM853.301 735V715.56H857.063V735H853.301ZM860.296 735V731.814C861.016 731.946 861.562 731.928 861.934 731.76C862.318 731.58 862.6 731.256 862.78 730.788C862.972 730.32 863.134 729.714 863.266 728.97C863.47 727.878 863.644 726.636 863.788 725.244C863.944 723.84 864.082 722.322 864.202 720.69C864.322 719.058 864.43 717.348 864.526 715.56H878.494V735H874.714V719.106H867.91C867.838 720.054 867.754 721.062 867.658 722.13C867.574 723.186 867.478 724.236 867.37 725.28C867.262 726.324 867.148 727.302 867.028 728.214C866.908 729.126 866.782 729.906 866.65 730.554C866.41 731.85 866.056 732.882 865.588 733.65C865.132 734.406 864.484 734.892 863.644 735.108C862.804 735.336 861.688 735.3 860.296 735ZM883.523 735V715.56H887.303V722.31H891.137C891.689 722.31 892.277 722.322 892.901 722.346C893.537 722.37 894.083 722.43 894.539 722.526C895.583 722.742 896.483 723.102 897.239 723.606C898.007 724.11 898.601 724.782 899.021 725.622C899.441 726.45 899.651 727.47 899.651 728.682C899.651 730.374 899.207 731.724 898.319 732.732C897.443 733.728 896.255 734.4 894.755 734.748C894.275 734.856 893.705 734.928 893.045 734.964C892.397 734.988 891.803 735 891.263 735H883.523ZM887.303 731.976H891.479C891.779 731.976 892.121 731.964 892.505 731.94C892.889 731.916 893.243 731.862 893.567 731.778C894.143 731.61 894.659 731.268 895.115 730.752C895.571 730.236 895.799 729.546 895.799 728.682C895.799 727.794 895.571 727.086 895.115 726.558C894.671 726.03 894.107 725.688 893.423 725.532C893.099 725.448 892.769 725.394 892.433 725.37C892.097 725.346 891.779 725.334 891.479 725.334H887.303V731.976ZM917.375 709.08H921.173L914.261 735H910.463L917.375 709.08ZM953.471 735H949.655V715.722L936.893 735H933.077V709.08H936.893V728.34L949.655 709.08H953.471V735ZM958.477 735V715.56H962.239V723.498H971.725V715.56H975.487V735H971.725V727.044H962.239V735H958.477ZM980.52 735V715.56H989.07C989.634 715.56 990.198 715.596 990.762 715.668C991.326 715.728 991.824 715.818 992.256 715.938C993.24 716.214 994.08 716.766 994.776 717.594C995.472 718.41 995.82 719.502 995.82 720.87C995.82 721.65 995.7 722.31 995.46 722.85C995.22 723.378 994.89 723.834 994.47 724.218C994.278 724.386 994.074 724.536 993.858 724.668C993.642 724.8 993.426 724.902 993.21 724.974C993.654 725.046 994.092 725.202 994.524 725.442C995.184 725.79 995.724 726.294 996.144 726.954C996.576 727.602 996.792 728.472 996.792 729.564C996.792 730.872 996.474 731.97 995.838 732.858C995.202 733.734 994.302 734.334 993.138 734.658C992.682 734.79 992.166 734.88 991.59 734.928C991.026 734.976 990.462 735 989.898 735H980.52ZM984.336 732.03H989.664C989.916 732.03 990.204 732.006 990.528 731.958C990.852 731.91 991.14 731.844 991.392 731.76C991.932 731.592 992.316 731.286 992.544 730.842C992.784 730.398 992.904 729.924 992.904 729.42C992.904 728.736 992.724 728.19 992.364 727.782C992.004 727.362 991.548 727.092 990.996 726.972C990.756 726.888 990.492 726.84 990.204 726.828C989.916 726.816 989.67 726.81 989.466 726.81H984.336V732.03ZM984.336 723.786H988.548C988.896 723.786 989.25 723.768 989.61 723.732C989.97 723.684 990.282 723.606 990.546 723.498C991.014 723.318 991.362 723.018 991.59 722.598C991.818 722.166 991.932 721.698 991.932 721.194C991.932 720.642 991.806 720.15 991.554 719.718C991.302 719.286 990.924 718.986 990.42 718.818C990.072 718.698 989.67 718.632 989.214 718.62C988.77 718.596 988.488 718.584 988.368 718.584H984.336V723.786ZM1009.02 735.54C1007.09 735.54 1005.39 735.12 1003.93 734.28C1002.48 733.428 1001.34 732.246 1000.53 730.734C999.723 729.21 999.321 727.446 999.321 725.442C999.321 723.318 999.717 721.476 1000.51 719.916C1001.31 718.356 1002.43 717.15 1003.86 716.298C1005.28 715.446 1006.95 715.02 1008.84 715.02C1010.82 715.02 1012.51 715.482 1013.9 716.406C1015.29 717.318 1016.33 718.62 1017.01 720.312C1017.71 722.004 1017.99 724.014 1017.84 726.342H1014.08V724.974C1014.06 722.718 1013.62 721.05 1012.78 719.97C1011.96 718.89 1010.69 718.35 1008.99 718.35C1007.1 718.35 1005.69 718.944 1004.74 720.132C1003.79 721.32 1003.32 723.036 1003.32 725.28C1003.32 727.416 1003.79 729.072 1004.74 730.248C1005.69 731.412 1007.05 731.994 1008.84 731.994C1010.02 731.994 1011.03 731.73 1011.88 731.202C1012.75 730.662 1013.42 729.894 1013.9 728.898L1017.59 730.068C1016.83 731.808 1015.69 733.158 1014.15 734.118C1012.62 735.066 1010.91 735.54 1009.02 735.54ZM1002.09 726.342V723.408H1015.97V726.342H1002.09ZM1030.2 735.54C1028.21 735.54 1026.51 735.096 1025.12 734.208C1023.73 733.32 1022.66 732.102 1021.92 730.554C1021.19 729.006 1020.81 727.248 1020.8 725.28C1020.81 723.276 1021.2 721.506 1021.95 719.97C1022.71 718.422 1023.79 717.21 1025.19 716.334C1026.6 715.458 1028.28 715.02 1030.25 715.02C1032.38 715.02 1034.19 715.548 1035.69 716.604C1037.2 717.66 1038.2 719.106 1038.68 720.942L1034.93 722.022C1034.56 720.93 1033.95 720.084 1033.1 719.484C1032.26 718.872 1031.29 718.566 1030.2 718.566C1028.96 718.566 1027.95 718.86 1027.16 719.448C1026.36 720.024 1025.78 720.816 1025.39 721.824C1025.01 722.832 1024.81 723.984 1024.8 725.28C1024.81 727.284 1025.27 728.904 1026.17 730.14C1027.08 731.376 1028.42 731.994 1030.2 731.994C1031.41 731.994 1032.39 731.718 1033.13 731.166C1033.89 730.602 1034.46 729.798 1034.86 728.754L1038.68 729.654C1038.04 731.55 1036.99 733.008 1035.53 734.028C1034.06 735.036 1032.29 735.54 1030.2 735.54ZM1047.15 735V718.944H1040.51V715.56H1057.56V718.944H1050.92V735H1047.15ZM1077.36 715.56V735H1073.74V721.482L1064.02 735H1060.96V715.56H1064.58V728.808L1074.31 715.56H1077.36ZM1098.8 738.834V735H1082.37V715.56H1086.13V731.454H1095V715.56H1098.77V731.616H1102.56V738.834H1098.8ZM1121.83 715.56V735H1118.21V721.482L1108.49 735H1105.43V715.56H1109.05V728.808L1118.79 715.56H1121.83ZM1143.24 715.56V735H1139.62V721.482L1129.9 735H1126.84V715.56H1130.46V728.808L1140.2 715.56H1143.24ZM1157.26 741.714L1154.45 739.626C1155.88 737.934 1157.03 736.188 1157.91 734.388C1158.79 732.588 1159.44 730.746 1159.85 728.862C1160.26 726.978 1160.46 725.064 1160.46 723.12C1160.46 721.164 1160.26 719.25 1159.85 717.378C1159.44 715.494 1158.8 713.658 1157.92 711.87C1157.05 710.07 1155.89 708.318 1154.45 706.614L1157.26 704.526C1158.65 706.146 1159.85 707.976 1160.86 710.016C1161.87 712.044 1162.63 714.18 1163.16 716.424C1163.69 718.656 1163.94 720.888 1163.9 723.12C1163.94 725.352 1163.69 727.59 1163.16 729.834C1162.63 732.066 1161.87 734.196 1160.86 736.224C1159.85 738.264 1158.65 740.094 1157.26 741.714ZM1181.43 721.59L1178.7 719.61L1181.43 716.262L1177.24 715.092L1178.28 711.87L1182.33 713.454L1182.12 709.08H1185.5L1185.28 713.454L1189.35 711.87L1190.4 715.092L1186.18 716.262L1188.92 719.61L1186.18 721.59L1183.81 717.99L1181.43 721.59ZM1206.79 735V713.22L1201.91 716.19V711.996L1206.79 709.08H1210.62V735H1206.79ZM1226.49 735.54C1224.73 735.54 1223.17 735.156 1221.81 734.388C1220.46 733.608 1219.39 732.54 1218.61 731.184C1217.84 729.828 1217.46 728.268 1217.46 726.504V717.576C1217.46 715.812 1217.84 714.252 1218.61 712.896C1219.39 711.54 1220.46 710.478 1221.81 709.71C1223.17 708.93 1224.73 708.54 1226.49 708.54C1228.26 708.54 1229.82 708.93 1231.17 709.71C1232.53 710.478 1233.59 711.54 1234.36 712.896C1235.14 714.252 1235.53 715.812 1235.53 717.576V726.504C1235.53 728.268 1235.14 729.828 1234.36 731.184C1233.59 732.54 1232.53 733.608 1231.17 734.388C1229.82 735.156 1228.26 735.54 1226.49 735.54ZM1226.49 731.94C1227.45 731.94 1228.32 731.712 1229.1 731.256C1229.89 730.788 1230.52 730.164 1230.99 729.384C1231.46 728.592 1231.69 727.71 1231.69 726.738V717.306C1231.69 716.346 1231.46 715.476 1230.99 714.696C1230.52 713.904 1229.89 713.28 1229.1 712.824C1228.32 712.356 1227.45 712.122 1226.49 712.122C1225.53 712.122 1224.66 712.356 1223.86 712.824C1223.08 713.28 1222.46 713.904 1221.99 714.696C1221.52 715.476 1221.29 716.346 1221.29 717.306V726.738C1221.29 727.71 1221.52 728.592 1221.99 729.384C1222.46 730.164 1223.08 730.788 1223.86 731.256C1224.66 731.712 1225.53 731.94 1226.49 731.94ZM1249.59 735.54C1247.83 735.54 1246.27 735.156 1244.91 734.388C1243.55 733.608 1242.49 732.54 1241.71 731.184C1240.94 729.828 1240.55 728.268 1240.55 726.504V717.576C1240.55 715.812 1240.94 714.252 1241.71 712.896C1242.49 711.54 1243.55 710.478 1244.91 709.71C1246.27 708.93 1247.83 708.54 1249.59 708.54C1251.35 708.54 1252.91 708.93 1254.27 709.71C1255.63 710.478 1256.69 711.54 1257.46 712.896C1258.24 714.252 1258.63 715.812 1258.63 717.576V726.504C1258.63 728.268 1258.24 729.828 1257.46 731.184C1256.69 732.54 1255.63 733.608 1254.27 734.388C1252.91 735.156 1251.35 735.54 1249.59 735.54ZM1249.59 731.94C1250.55 731.94 1251.42 731.712 1252.2 731.256C1252.99 730.788 1253.62 730.164 1254.09 729.384C1254.56 728.592 1254.79 727.71 1254.79 726.738V717.306C1254.79 716.346 1254.56 715.476 1254.09 714.696C1253.62 713.904 1252.99 713.28 1252.2 712.824C1251.42 712.356 1250.55 712.122 1249.59 712.122C1248.63 712.122 1247.75 712.356 1246.96 712.824C1246.18 713.28 1245.56 713.904 1245.09 714.696C1244.62 715.476 1244.39 716.346 1244.39 717.306V726.738C1244.39 727.71 1244.62 728.592 1245.09 729.384C1245.56 730.164 1246.18 730.788 1246.96 731.256C1247.75 731.712 1248.63 731.94 1249.59 731.94ZM1266.89 735L1264.37 732.48L1287.79 709.08L1290.31 711.618L1266.89 735ZM1284.91 735.54C1283.72 735.54 1282.63 735.252 1281.65 734.676C1280.68 734.088 1279.9 733.308 1279.31 732.336C1278.72 731.352 1278.43 730.26 1278.43 729.06C1278.43 727.884 1278.73 726.804 1279.33 725.82C1279.93 724.836 1280.72 724.05 1281.7 723.462C1282.69 722.874 1283.76 722.58 1284.91 722.58C1286.1 722.58 1287.18 722.874 1288.17 723.462C1289.15 724.038 1289.93 724.818 1290.51 725.802C1291.09 726.774 1291.39 727.86 1291.39 729.06C1291.39 730.26 1291.09 731.352 1290.51 732.336C1289.93 733.308 1289.15 734.088 1288.17 734.676C1287.18 735.252 1286.1 735.54 1284.91 735.54ZM1284.91 732.282C1285.5 732.282 1286.03 732.138 1286.51 731.85C1287 731.55 1287.39 731.154 1287.68 730.662C1287.98 730.17 1288.13 729.636 1288.13 729.06C1288.13 728.484 1287.98 727.95 1287.68 727.458C1287.39 726.966 1287 726.576 1286.51 726.288C1286.03 725.988 1285.5 725.838 1284.91 725.838C1284.33 725.838 1283.8 725.988 1283.31 726.288C1282.83 726.576 1282.44 726.966 1282.14 727.458C1281.85 727.95 1281.7 728.484 1281.7 729.06C1281.7 729.636 1281.85 730.17 1282.14 730.662C1282.44 731.154 1282.83 731.55 1283.31 731.85C1283.8 732.138 1284.33 732.282 1284.91 732.282ZM1269.77 721.5C1268.58 721.5 1267.5 721.212 1266.51 720.636C1265.53 720.048 1264.74 719.268 1264.15 718.296C1263.58 717.312 1263.29 716.22 1263.29 715.02C1263.29 713.844 1263.59 712.764 1264.19 711.78C1264.79 710.796 1265.58 710.01 1266.57 709.422C1267.55 708.834 1268.62 708.54 1269.77 708.54C1270.96 708.54 1272.04 708.834 1273.01 709.422C1273.99 709.998 1274.78 710.778 1275.37 711.762C1275.96 712.734 1276.25 713.82 1276.25 715.02C1276.25 716.22 1275.96 717.312 1275.37 718.296C1274.78 719.268 1273.99 720.048 1273.01 720.636C1272.04 721.212 1270.96 721.5 1269.77 721.5ZM1269.77 718.242C1270.35 718.242 1270.88 718.098 1271.37 717.81C1271.86 717.51 1272.25 717.114 1272.54 716.622C1272.84 716.13 1272.99 715.596 1272.99 715.02C1272.99 714.444 1272.84 713.91 1272.54 713.418C1272.25 712.926 1271.86 712.536 1271.37 712.248C1270.88 711.948 1270.35 711.798 1269.77 711.798C1269.19 711.798 1268.66 711.948 1268.17 712.248C1267.69 712.536 1267.3 712.926 1267 713.418C1266.7 713.91 1266.55 714.444 1266.55 715.02C1266.55 715.596 1266.7 716.13 1267 716.622C1267.3 717.114 1267.69 717.51 1268.17 717.81C1268.65 718.098 1269.18 718.242 1269.77 718.242Z" fill="#23374F"></path><path d="M82.144 169.68V155.696C83.7227 155.696 85.024 155.301 86.048 154.512C87.072 153.701 87.8827 152.603 88.48 151.216C89.0987 149.808 89.568 148.208 89.888 146.416C90.2293 144.624 90.4853 142.736 90.656 140.752C90.912 138.064 91.1253 135.44 91.296 132.88C91.488 130.299 91.6587 127.632 91.808 124.88C91.9787 122.128 92.16 119.131 92.352 115.888L121.856 115.92V155.696H125.28V169.68H118.56V162H88.832V169.68H82.144ZM93.12 155.696H115.168V122.224L98.528 122.192C98.3787 124.539 98.2507 126.768 98.144 128.88C98.0373 130.992 97.8987 133.125 97.728 135.28C97.5787 137.413 97.3867 139.707 97.152 142.16C96.9173 144.507 96.672 146.501 96.416 148.144C96.16 149.765 95.776 151.173 95.264 152.368C94.7733 153.563 94.0587 154.672 93.12 155.696ZM151.525 162.96C146.917 162.96 142.991 161.957 139.749 159.952C136.506 157.925 134.021 155.109 132.293 151.504C130.586 147.899 129.733 143.717 129.733 138.96C129.733 134.203 130.586 130.021 132.293 126.416C134.021 122.811 136.506 120.005 139.749 118C142.991 115.973 146.917 114.96 151.525 114.96C156.111 114.96 160.026 115.973 163.269 118C166.533 120.005 169.018 122.811 170.725 126.416C172.431 130.021 173.285 134.203 173.285 138.96C173.285 143.717 172.431 147.899 170.725 151.504C169.018 155.109 166.533 157.925 163.269 159.952C160.026 161.957 156.111 162.96 151.525 162.96ZM151.525 156.592C154.789 156.635 157.498 155.92 159.653 154.448C161.829 152.955 163.461 150.885 164.549 148.24C165.637 145.573 166.181 142.48 166.181 138.96C166.181 135.44 165.637 132.368 164.549 129.744C163.461 127.099 161.829 125.04 159.653 123.568C157.498 122.096 154.789 121.349 151.525 121.328C148.261 121.285 145.541 122 143.365 123.472C141.21 124.944 139.589 127.013 138.501 129.68C137.413 132.347 136.858 135.44 136.837 138.96C136.815 142.48 137.349 145.563 138.437 148.208C139.525 150.832 141.157 152.88 143.333 154.352C145.53 155.824 148.261 156.571 151.525 156.592ZM172.64 162L188.352 138.672L173.056 115.92H181.248L192.48 133.008L203.648 115.92H211.872L196.576 138.672L212.256 162H204.064L192.48 144.368L180.864 162H172.64ZM234.65 162.96C230.042 162.96 226.116 161.957 222.874 159.952C219.631 157.925 217.146 155.109 215.418 151.504C213.711 147.899 212.858 143.717 212.858 138.96C212.858 134.203 213.711 130.021 215.418 126.416C217.146 122.811 219.631 120.005 222.874 118C226.116 115.973 230.042 114.96 234.65 114.96C239.236 114.96 243.151 115.973 246.394 118C249.658 120.005 252.143 122.811 253.85 126.416C255.556 130.021 256.41 134.203 256.41 138.96C256.41 143.717 255.556 147.899 253.85 151.504C252.143 155.109 249.658 157.925 246.394 159.952C243.151 161.957 239.236 162.96 234.65 162.96ZM234.65 156.592C237.914 156.635 240.623 155.92 242.778 154.448C244.954 152.955 246.586 150.885 247.674 148.24C248.762 145.573 249.306 142.48 249.306 138.96C249.306 135.44 248.762 132.368 247.674 129.744C246.586 127.099 244.954 125.04 242.778 123.568C240.623 122.096 237.914 121.349 234.65 121.328C231.386 121.285 228.666 122 226.49 123.472C224.335 124.944 222.714 127.013 221.626 129.68C220.538 132.347 219.983 135.44 219.962 138.96C219.94 142.48 220.474 145.563 221.562 148.208C222.65 150.832 224.282 152.88 226.458 154.352C228.655 155.824 231.386 156.571 234.65 156.592ZM259.207 169.68V155.696C260.785 155.696 262.087 155.301 263.111 154.512C264.135 153.701 264.945 152.603 265.543 151.216C266.161 149.808 266.631 148.208 266.951 146.416C267.292 144.624 267.548 142.736 267.719 140.752C267.975 138.064 268.188 135.44 268.359 132.88C268.551 130.299 268.721 127.632 268.871 124.88C269.041 122.128 269.223 119.131 269.415 115.888L298.919 115.92V155.696H302.343V169.68H295.623V162H265.895V169.68H259.207ZM270.183 155.696H292.231V122.224L275.591 122.192C275.441 124.539 275.313 126.768 275.207 128.88C275.1 130.992 274.961 133.125 274.791 135.28C274.641 137.413 274.449 139.707 274.215 142.16C273.98 144.507 273.735 146.501 273.479 148.144C273.223 149.765 272.839 151.173 272.327 152.368C271.836 153.563 271.121 154.672 270.183 155.696ZM309.355 162V115.92H316.043V135.792H339.083V115.92H345.803V162H339.083V142.096H316.043V162H309.355ZM374.025 162.96C369.417 162.96 365.491 161.957 362.249 159.952C359.006 157.925 356.521 155.109 354.793 151.504C353.086 147.899 352.233 143.717 352.233 138.96C352.233 134.203 353.086 130.021 354.793 126.416C356.521 122.811 359.006 120.005 362.249 118C365.491 115.973 369.417 114.96 374.025 114.96C378.611 114.96 382.526 115.973 385.769 118C389.033 120.005 391.518 122.811 393.225 126.416C394.931 130.021 395.785 134.203 395.785 138.96C395.785 143.717 394.931 147.899 393.225 151.504C391.518 155.109 389.033 157.925 385.769 159.952C382.526 161.957 378.611 162.96 374.025 162.96ZM374.025 156.592C377.289 156.635 379.998 155.92 382.153 154.448C384.329 152.955 385.961 150.885 387.049 148.24C388.137 145.573 388.681 142.48 388.681 138.96C388.681 135.44 388.137 132.368 387.049 129.744C385.961 127.099 384.329 125.04 382.153 123.568C379.998 122.096 377.289 121.349 374.025 121.328C370.761 121.285 368.041 122 365.865 123.472C363.71 124.944 362.089 127.013 361.001 129.68C359.913 132.347 359.358 135.44 359.337 138.96C359.315 142.48 359.849 145.563 360.937 148.208C362.025 150.832 363.657 152.88 365.833 154.352C368.03 155.824 370.761 156.571 374.025 156.592ZM421.4 162.96C416.792 162.96 412.866 161.957 409.624 159.952C406.381 157.925 403.896 155.109 402.168 151.504C400.461 147.899 399.608 143.717 399.608 138.96C399.608 134.203 400.461 130.021 402.168 126.416C403.896 122.811 406.381 120.005 409.624 118C412.866 115.973 416.792 114.96 421.4 114.96C426.712 114.96 431.106 116.304 434.583 118.992C438.082 121.68 440.514 125.296 441.88 129.84L435.096 131.664C434.2 128.443 432.6 125.915 430.296 124.08C428.013 122.245 425.048 121.328 421.4 121.328C418.136 121.328 415.416 122.064 413.24 123.536C411.064 125.008 409.421 127.067 408.312 129.712C407.224 132.357 406.68 135.44 406.68 138.96C406.658 142.48 407.192 145.563 408.28 148.208C409.389 150.853 411.032 152.912 413.208 154.384C415.405 155.856 418.136 156.592 421.4 156.592C425.048 156.592 428.013 155.675 430.296 153.84C432.6 151.984 434.2 149.456 435.096 146.256L441.88 148.08C440.514 152.624 438.082 156.24 434.583 158.928C431.106 161.616 426.712 162.96 421.4 162.96ZM460.406 162V122.224H445.078V115.92H482.422V122.224H467.094V162H460.406ZM487.511 162V115.92H494.199V132.464H506.135C506.561 132.464 507.105 132.485 507.767 132.528C508.449 132.549 509.079 132.613 509.655 132.72C512.215 133.125 514.348 134 516.055 135.344C517.783 136.688 519.073 138.384 519.927 140.432C520.801 142.48 521.239 144.752 521.239 147.248C521.239 149.723 520.812 151.984 519.958 154.032C519.105 156.08 517.815 157.776 516.087 159.12C514.38 160.464 512.236 161.339 509.655 161.744C509.079 161.829 508.46 161.893 507.799 161.936C507.137 161.979 506.583 162 506.135 162H487.511ZM494.199 155.696H505.879C506.284 155.696 506.743 155.675 507.255 155.632C507.788 155.589 508.289 155.504 508.759 155.376C510.145 155.056 511.244 154.469 512.055 153.616C512.887 152.741 513.484 151.749 513.847 150.64C514.231 149.509 514.423 148.379 514.423 147.248C514.423 146.117 514.231 144.987 513.847 143.856C513.484 142.725 512.887 141.733 512.055 140.88C511.244 140.005 510.145 139.408 508.759 139.088C508.289 138.96 507.788 138.885 507.255 138.864C506.743 138.821 506.284 138.8 505.879 138.8H494.199V155.696Z" fill="#23374F"></path><defs><clipPath id="clip0_811_4517"><rect width="55" height="60" fill="white" transform="translate(1815 970)"></rect></clipPath></defs></svg> 