<?xml version="1.0" encoding="UTF-8"?> <svg xmlns="http://www.w3.org/2000/svg" width="1920" height="1080" viewBox="0 0 1920 1080" fill="none"><rect width="1920" height="1080" fill="#FBF5EE"></rect><g clip-path="url(#clip0_837_4607)"><path d="M1835.23 970H1849.85L1870 1030H1856.13L1849.35 1007.01C1835.56 1007.8 1821.83 1017.86 1815 1030L1835.23 970ZM1849.35 1007.01L1842.5 983.944L1835.48 1007.01H1849.35Z" fill="#23374F"></path></g><path d="M84.48 162V115.92H121.12V162H114.432V122.224H91.168V162H84.48ZM130.105 162V115.92H148.729C149.177 115.92 149.732 115.941 150.393 115.984C151.054 116.005 151.684 116.069 152.281 116.176C154.841 116.581 156.974 117.456 158.681 118.8C160.409 120.144 161.7 121.84 162.553 123.888C163.406 125.936 163.833 128.197 163.833 130.672C163.833 133.168 163.406 135.44 162.553 137.488C161.7 139.536 160.409 141.232 158.681 142.576C156.974 143.92 154.841 144.795 152.281 145.2C151.684 145.285 151.044 145.349 150.361 145.392C149.7 145.435 149.156 145.456 148.729 145.456H136.793V162H130.105ZM136.793 139.12H148.473C148.9 139.12 149.369 139.099 149.881 139.056C150.414 139.013 150.916 138.939 151.385 138.832C152.75 138.512 153.849 137.925 154.681 137.072C155.513 136.197 156.11 135.195 156.473 134.064C156.836 132.933 157.017 131.803 157.017 130.672C157.017 129.541 156.836 128.421 156.473 127.312C156.11 126.181 155.513 125.189 154.681 124.336C153.849 123.461 152.75 122.864 151.385 122.544C150.916 122.416 150.414 122.331 149.881 122.288C149.369 122.245 148.9 122.224 148.473 122.224H136.793V139.12ZM170.23 162V115.92H199.67V122.224H176.918V135.152H195.83V141.456H176.918V155.696H199.67V162H170.23ZM243.611 162H236.827V127.728L214.139 162H207.355V115.92H214.139V150.16L236.827 115.92H243.611V162ZM252.543 162V115.92H258.591L275.295 150.576L291.903 115.92H298.015V161.968H291.679V130.448L276.799 162H273.759L258.847 130.448V162H252.543ZM313.604 162L319.428 150.064L303.364 115.92H310.884L322.916 142.96L335.268 115.92H342.404L320.836 162H313.604ZM396.538 168.816V162H392.058V155.984H403.226V168.816H396.538ZM347.418 162V115.92H354.106V155.696H369.466V115.92H376.154V155.696H391.482V115.92H398.202V162H347.418ZM408.355 162V115.92H437.795V122.224H415.043V135.152H433.955V141.456H415.043V155.696H437.795V162H408.355ZM462.775 162.96C458.167 162.96 454.241 161.957 450.999 159.952C447.756 157.925 445.271 155.109 443.543 151.504C441.836 147.899 440.983 143.717 440.983 138.96C440.983 134.203 441.836 130.021 443.543 126.416C445.271 122.811 447.756 120.005 450.999 118C454.241 115.973 458.167 114.96 462.775 114.96C468.087 114.96 472.481 116.304 475.958 118.992C479.457 121.68 481.889 125.296 483.255 129.84L476.471 131.664C475.575 128.443 473.975 125.915 471.671 124.08C469.388 122.245 466.423 121.328 462.775 121.328C459.511 121.328 456.791 122.064 454.615 123.536C452.439 125.008 450.796 127.067 449.687 129.712C448.599 132.357 448.055 135.44 448.055 138.96C448.033 142.48 448.567 145.563 449.655 148.208C450.764 150.853 452.407 152.912 454.583 154.384C456.78 155.856 459.511 156.592 462.775 156.592C466.423 156.592 469.388 155.675 471.671 153.84C473.975 151.984 475.575 149.456 476.471 146.256L483.255 148.08C481.889 152.624 479.457 156.24 475.958 158.928C472.481 161.616 468.087 162.96 462.775 162.96ZM501.781 162V122.224H486.453V115.92H523.797V122.224H508.469V162H501.781ZM528.918 162V115.92H547.03C549.952 115.92 552.406 116.517 554.39 117.712C556.374 118.907 557.867 120.453 558.87 122.352C559.872 124.229 560.374 126.213 560.374 128.304C560.374 130.843 559.744 133.019 558.486 134.832C557.248 136.645 555.574 137.883 553.462 138.544L553.398 136.976C556.342 137.701 558.603 139.12 560.182 141.232C561.76 143.323 562.55 145.765 562.55 148.56C562.55 151.269 562.006 153.627 560.918 155.632C559.851 157.637 558.283 159.205 556.214 160.336C554.166 161.445 551.68 162 548.758 162H528.918ZM535.702 155.632H547.734C549.248 155.632 550.603 155.344 551.798 154.768C553.014 154.192 553.963 153.371 554.646 152.304C555.35 151.216 555.702 149.925 555.702 148.432C555.702 147.045 555.392 145.797 554.774 144.688C554.176 143.557 553.302 142.672 552.15 142.032C551.019 141.371 549.686 141.04 548.15 141.04H535.702V155.632ZM535.702 134.736H546.934C548.171 134.736 549.28 134.491 550.262 134C551.264 133.488 552.054 132.763 552.63 131.824C553.227 130.864 553.526 129.712 553.526 128.368C553.526 126.576 552.928 125.104 551.734 123.952C550.539 122.8 548.939 122.224 546.934 122.224H535.702V134.736ZM565.718 162L580.694 115.92H590.326L605.302 162H598.358L584.566 119.952H586.294L572.661 162H565.718ZM573.494 151.6V145.328H597.558V151.6H573.494Z" fill="#23374F"></path><rect x="273" y="399" width="1373" height="149" rx="31" fill="white"></rect><rect x="273" y="399" width="1373" height="149" rx="31" stroke="#DFDFDF" stroke-width="2"></rect><path d="M426.74 498V459.152H411.828V451.92H449.364V459.152H434.452V498H426.74ZM464.619 498.96C461.163 498.96 458.144 498.181 455.563 496.624C452.982 495.067 450.976 492.923 449.547 490.192C448.139 487.44 447.435 484.283 447.435 480.72C447.435 477.093 448.16 473.915 449.611 471.184C451.062 468.453 453.078 466.32 455.659 464.784C458.24 463.248 461.227 462.48 464.619 462.48C468.096 462.48 471.126 463.259 473.707 464.816C476.288 466.373 478.294 468.528 479.723 471.28C481.152 474.011 481.867 477.157 481.867 480.72C481.867 484.304 481.142 487.472 479.691 490.224C478.262 492.955 476.256 495.099 473.675 496.656C471.094 498.192 468.075 498.96 464.619 498.96ZM464.619 491.728C467.691 491.728 469.974 490.704 471.467 488.656C472.96 486.608 473.707 483.963 473.707 480.72C473.707 477.371 472.95 474.704 471.435 472.72C469.92 470.715 467.648 469.712 464.619 469.712C462.55 469.712 460.843 470.181 459.499 471.12C458.176 472.037 457.195 473.328 456.555 474.992C455.915 476.635 455.595 478.544 455.595 480.72C455.595 484.069 456.352 486.747 457.867 488.752C459.403 490.736 461.654 491.728 464.619 491.728ZM509.046 498V486.384C507.851 486.981 506.486 487.451 504.95 487.792C503.435 488.133 501.846 488.304 500.182 488.304C496.619 488.304 493.771 487.504 491.638 485.904C489.526 484.304 488.16 481.979 487.542 478.928C487.35 478.053 487.211 477.147 487.126 476.208C487.062 475.248 487.019 474.384 486.998 473.616C486.998 472.827 486.998 472.229 486.998 471.824V463.44H494.806V471.824C494.806 472.293 494.827 472.987 494.87 473.904C494.912 474.8 495.03 475.696 495.222 476.592C495.627 478.299 496.363 479.547 497.43 480.336C498.496 481.125 500.022 481.52 502.006 481.52C503.542 481.52 504.896 481.317 506.07 480.912C507.243 480.507 508.235 479.995 509.046 479.376V463.44H516.79V498H509.046ZM525.666 498V463.44H533.378V477.072H548.898V463.44H556.61V498H548.898V484.304H533.378V498H525.666ZM565.511 498L565.479 463.44H573.191V474.96H577.062C578.023 474.96 579.1 474.981 580.295 475.024C581.511 475.067 582.524 475.163 583.335 475.312C585.276 475.739 586.929 476.421 588.295 477.36C589.681 478.299 590.737 479.525 591.463 481.04C592.188 482.555 592.551 484.379 592.551 486.512C592.551 489.563 591.761 492.005 590.183 493.84C588.604 495.653 586.396 496.891 583.559 497.552C582.727 497.744 581.692 497.872 580.455 497.936C579.217 497.979 578.119 498 577.159 498H565.511ZM573.191 491.952H577.831C578.3 491.952 578.823 491.931 579.399 491.888C579.975 491.845 580.519 491.749 581.031 491.6C581.991 491.344 582.844 490.768 583.591 489.872C584.337 488.955 584.711 487.835 584.711 486.512C584.711 485.125 584.337 483.984 583.591 483.088C582.844 482.192 581.927 481.605 580.839 481.328C580.327 481.2 579.804 481.115 579.271 481.072C578.759 481.029 578.279 481.008 577.831 481.008H573.191V491.952ZM596.167 498V463.44H603.879V498H596.167ZM628.823 459.536C627.052 459.536 625.431 459.099 623.959 458.224C622.487 457.349 621.314 456.187 620.439 454.736C619.564 453.264 619.127 451.632 619.127 449.84H625.143C625.143 450.864 625.495 451.739 626.199 452.464C626.924 453.168 627.799 453.52 628.823 453.52C629.847 453.52 630.711 453.168 631.415 452.464C632.14 451.739 632.503 450.864 632.503 449.84H638.519C638.519 451.632 638.082 453.264 637.207 454.736C636.332 456.187 635.159 457.349 633.687 458.224C632.215 459.099 630.594 459.536 628.823 459.536ZM642.807 463.44V498H635.415V475.44L618.967 498H612.791V463.44H620.183V485.424L636.695 463.44H642.807ZM679.613 498.96C676.05 498.96 673.01 498.171 670.493 496.592C667.976 494.992 666.045 492.816 664.701 490.064C663.378 487.312 662.706 484.197 662.685 480.72C662.706 477.179 663.4 474.043 664.765 471.312C666.152 468.56 668.114 466.405 670.653 464.848C673.192 463.269 676.21 462.48 679.709 462.48C683.634 462.48 686.952 463.472 689.661 465.456C692.392 467.419 694.173 470.107 695.005 473.52L687.325 475.6C686.728 473.744 685.736 472.304 684.349 471.28C682.962 470.235 681.384 469.712 679.613 469.712C677.608 469.712 675.954 470.192 674.653 471.152C673.352 472.091 672.392 473.392 671.773 475.056C671.154 476.72 670.845 478.608 670.845 480.72C670.845 484.005 671.581 486.661 673.053 488.688C674.525 490.715 676.712 491.728 679.613 491.728C681.661 491.728 683.272 491.259 684.445 490.32C685.64 489.381 686.536 488.027 687.133 486.256L695.005 488.016C693.938 491.536 692.072 494.245 689.405 496.144C686.738 498.021 683.474 498.96 679.613 498.96ZM718.026 498.96C714.655 498.96 711.828 498.16 709.546 496.56C707.263 494.96 705.546 492.784 704.394 490.032C703.242 487.259 702.666 484.155 702.666 480.72C702.666 477.243 703.242 474.128 704.394 471.376C705.546 468.624 707.231 466.459 709.45 464.88C711.69 463.28 714.452 462.48 717.738 462.48C721.002 462.48 723.828 463.28 726.218 464.88C728.628 466.459 730.495 468.624 731.818 471.376C733.14 474.107 733.802 477.221 733.802 480.72C733.802 484.176 733.151 487.28 731.85 490.032C730.548 492.784 728.714 494.96 726.346 496.56C723.978 498.16 721.204 498.96 718.026 498.96ZM701.354 513.36V463.44H708.17V487.696H709.13V513.36H701.354ZM716.842 492.048C718.847 492.048 720.5 491.547 721.802 490.544C723.103 489.541 724.063 488.187 724.682 486.48C725.322 484.752 725.642 482.832 725.642 480.72C725.642 478.629 725.322 476.731 724.682 475.024C724.042 473.296 723.05 471.931 721.706 470.928C720.362 469.904 718.655 469.392 716.586 469.392C714.623 469.392 713.023 469.872 711.786 470.832C710.548 471.771 709.631 473.093 709.034 474.8C708.458 476.485 708.17 478.459 708.17 480.72C708.17 482.96 708.458 484.933 709.034 486.64C709.631 488.347 710.559 489.68 711.818 490.64C713.098 491.579 714.772 492.048 716.842 492.048ZM756.119 498.96C752.663 498.96 749.644 498.181 747.063 496.624C744.482 495.067 742.476 492.923 741.047 490.192C739.639 487.44 738.935 484.283 738.935 480.72C738.935 477.093 739.66 473.915 741.111 471.184C742.562 468.453 744.578 466.32 747.159 464.784C749.74 463.248 752.727 462.48 756.119 462.48C759.596 462.48 762.626 463.259 765.207 464.816C767.788 466.373 769.794 468.528 771.223 471.28C772.652 474.011 773.367 477.157 773.367 480.72C773.367 484.304 772.642 487.472 771.191 490.224C769.762 492.955 767.756 495.099 765.175 496.656C762.594 498.192 759.575 498.96 756.119 498.96ZM756.119 491.728C759.191 491.728 761.474 490.704 762.967 488.656C764.46 486.608 765.207 483.963 765.207 480.72C765.207 477.371 764.45 474.704 762.935 472.72C761.42 470.715 759.148 469.712 756.119 469.712C754.05 469.712 752.343 470.181 750.999 471.12C749.676 472.037 748.695 473.328 748.055 474.992C747.415 476.635 747.095 478.544 747.095 480.72C747.095 484.069 747.852 486.747 749.367 488.752C750.903 490.736 753.154 491.728 756.119 491.728ZM780.354 498L780.418 463.44H788.226V480.08L800.866 463.44H810.498L797.09 480.72L811.65 498H801.442L788.226 481.36V498H780.354ZM827.604 498V463.44H843.316C844.446 463.44 845.502 463.504 846.484 463.632C847.465 463.76 848.308 463.92 849.012 464.112C850.676 464.603 852.148 465.563 853.428 466.992C854.708 468.4 855.347 470.352 855.347 472.848C855.347 474.32 855.113 475.536 854.644 476.496C854.174 477.435 853.556 478.224 852.788 478.864C852.425 479.163 852.052 479.419 851.668 479.632C851.284 479.845 850.9 480.016 850.516 480.144C851.348 480.272 852.137 480.517 852.884 480.88C854.057 481.456 855.038 482.309 855.828 483.44C856.638 484.571 857.044 486.16 857.044 488.208C857.044 490.533 856.478 492.496 855.347 494.096C854.238 495.675 852.606 496.773 850.452 497.392C849.662 497.605 848.756 497.765 847.732 497.872C846.708 497.957 845.662 498 844.596 498H827.604ZM835.412 492.048H844.052C844.5 492.048 844.99 492.005 845.524 491.92C846.057 491.835 846.537 491.717 846.964 491.568C847.732 491.291 848.286 490.8 848.628 490.096C848.99 489.392 849.172 488.656 849.172 487.888C849.172 486.843 848.905 486.011 848.372 485.392C847.86 484.752 847.241 484.325 846.516 484.112C846.089 483.941 845.62 483.845 845.108 483.824C844.617 483.781 844.212 483.76 843.892 483.76H835.412V492.048ZM835.412 477.712H841.812C842.473 477.712 843.113 477.68 843.732 477.616C844.372 477.531 844.905 477.392 845.332 477.2C846.036 476.923 846.548 476.453 846.868 475.792C847.209 475.131 847.38 474.395 847.38 473.584C847.38 472.731 847.188 471.963 846.804 471.28C846.441 470.576 845.854 470.107 845.044 469.872C844.51 469.659 843.86 469.541 843.092 469.52C842.345 469.499 841.865 469.488 841.652 469.488H835.412V477.712ZM878.682 498.96C875.226 498.96 872.207 498.181 869.626 496.624C867.044 495.067 865.039 492.923 863.61 490.192C862.202 487.44 861.498 484.283 861.498 480.72C861.498 477.093 862.223 473.915 863.674 471.184C865.124 468.453 867.14 466.32 869.722 464.784C872.303 463.248 875.29 462.48 878.682 462.48C882.159 462.48 885.188 463.259 887.77 464.816C890.351 466.373 892.356 468.528 893.786 471.28C895.215 474.011 895.93 477.157 895.93 480.72C895.93 484.304 895.204 487.472 893.754 490.224C892.324 492.955 890.319 495.099 887.738 496.656C885.156 498.192 882.138 498.96 878.682 498.96ZM878.682 491.728C881.754 491.728 884.036 490.704 885.53 488.656C887.023 486.608 887.77 483.963 887.77 480.72C887.77 477.371 887.012 474.704 885.498 472.72C883.983 470.715 881.711 469.712 878.682 469.712C876.612 469.712 874.906 470.181 873.562 471.12C872.239 472.037 871.258 473.328 870.618 474.992C869.978 476.635 869.658 478.544 869.658 480.72C869.658 484.069 870.415 486.747 871.93 488.752C873.466 490.736 875.716 491.728 878.682 491.728ZM914.143 498.96C910.858 498.96 907.86 498.267 905.151 496.88C902.442 495.493 900.308 493.595 898.751 491.184L904.831 487.12C906.068 488.592 907.444 489.733 908.959 490.544C910.474 491.333 912.159 491.728 914.015 491.728C915.956 491.728 917.482 491.301 918.591 490.448C919.7 489.595 920.255 488.453 920.255 487.024C920.255 485.765 919.882 484.88 919.135 484.368C918.388 483.835 917.407 483.515 916.191 483.408C914.975 483.301 913.674 483.248 912.287 483.248H909.727V477.136H912.255C914.196 477.136 915.818 476.912 917.119 476.464C918.442 476.016 919.103 475.024 919.103 473.488C919.103 472.101 918.591 471.12 917.567 470.544C916.543 469.947 915.348 469.648 913.983 469.648C912.319 469.648 910.676 470 909.055 470.704C907.434 471.408 905.983 472.261 904.703 473.264L900.351 468.016C902.271 466.309 904.415 464.965 906.783 463.984C909.151 462.981 911.679 462.48 914.367 462.48C916.586 462.48 918.655 462.864 920.575 463.632C922.516 464.4 924.074 465.552 925.247 467.088C926.442 468.624 927.039 470.523 927.039 472.784C927.039 474.405 926.687 475.931 925.983 477.36C925.3 478.789 924.202 480.144 922.687 481.424L922.591 478.928C923.764 479.419 924.756 480.101 925.567 480.976C926.399 481.851 927.028 482.875 927.455 484.048C927.903 485.221 928.127 486.469 928.127 487.792C928.127 490.203 927.487 492.24 926.207 493.904C924.927 495.568 923.22 496.827 921.087 497.68C918.975 498.533 916.66 498.96 914.143 498.96ZM935.104 498V463.44H950.816C951.946 463.44 953.002 463.504 953.984 463.632C954.965 463.76 955.808 463.92 956.512 464.112C958.176 464.603 959.648 465.563 960.928 466.992C962.208 468.4 962.847 470.352 962.847 472.848C962.847 474.32 962.613 475.536 962.144 476.496C961.674 477.435 961.056 478.224 960.288 478.864C959.925 479.163 959.552 479.419 959.168 479.632C958.784 479.845 958.4 480.016 958.016 480.144C958.848 480.272 959.637 480.517 960.384 480.88C961.557 481.456 962.538 482.309 963.328 483.44C964.138 484.571 964.544 486.16 964.544 488.208C964.544 490.533 963.978 492.496 962.847 494.096C961.738 495.675 960.106 496.773 957.952 497.392C957.162 497.605 956.256 497.765 955.232 497.872C954.208 497.957 953.162 498 952.096 498H935.104ZM942.912 492.048H951.552C952 492.048 952.49 492.005 953.024 491.92C953.557 491.835 954.037 491.717 954.464 491.568C955.232 491.291 955.786 490.8 956.128 490.096C956.49 489.392 956.672 488.656 956.672 487.888C956.672 486.843 956.405 486.011 955.872 485.392C955.36 484.752 954.741 484.325 954.016 484.112C953.589 483.941 953.12 483.845 952.608 483.824C952.117 483.781 951.712 483.76 951.392 483.76H942.912V492.048ZM942.912 477.712H949.312C949.973 477.712 950.613 477.68 951.232 477.616C951.872 477.531 952.405 477.392 952.832 477.2C953.536 476.923 954.048 476.453 954.368 475.792C954.709 475.131 954.88 474.395 954.88 473.584C954.88 472.731 954.688 471.963 954.304 471.28C953.941 470.576 953.354 470.107 952.544 469.872C952.01 469.659 951.36 469.541 950.592 469.52C949.845 469.499 949.365 469.488 949.152 469.488H942.912V477.712ZM987.526 498.96C984.155 498.96 981.328 498.16 979.046 496.56C976.763 494.96 975.046 492.784 973.894 490.032C972.742 487.259 972.166 484.155 972.166 480.72C972.166 477.243 972.742 474.128 973.894 471.376C975.046 468.624 976.731 466.459 978.95 464.88C981.19 463.28 983.952 462.48 987.238 462.48C990.502 462.48 993.328 463.28 995.718 464.88C998.128 466.459 999.995 468.624 1001.32 471.376C1002.64 474.107 1003.3 477.221 1003.3 480.72C1003.3 484.176 1002.65 487.28 1001.35 490.032C1000.05 492.784 998.214 494.96 995.846 496.56C993.478 498.16 990.704 498.96 987.526 498.96ZM970.854 513.36V463.44H977.67V487.696H978.63V513.36H970.854ZM986.342 492.048C988.347 492.048 990 491.547 991.302 490.544C992.603 489.541 993.563 488.187 994.182 486.48C994.822 484.752 995.142 482.832 995.142 480.72C995.142 478.629 994.822 476.731 994.182 475.024C993.542 473.296 992.55 471.931 991.206 470.928C989.862 469.904 988.155 469.392 986.086 469.392C984.123 469.392 982.523 469.872 981.286 470.832C980.048 471.771 979.131 473.093 978.534 474.8C977.958 476.485 977.67 478.459 977.67 480.72C977.67 482.96 977.958 484.933 978.534 486.64C979.131 488.347 980.059 489.68 981.318 490.64C982.598 491.579 984.272 492.048 986.342 492.048ZM1020.02 498.96C1017.52 498.96 1015.41 498.491 1013.68 497.552C1011.96 496.592 1010.64 495.323 1009.75 493.744C1008.87 492.165 1008.44 490.427 1008.44 488.528C1008.44 486.864 1008.71 485.371 1009.27 484.048C1009.82 482.704 1010.68 481.552 1011.83 480.592C1012.98 479.611 1014.47 478.811 1016.31 478.192C1017.69 477.744 1019.32 477.339 1021.17 476.976C1023.05 476.613 1025.08 476.283 1027.25 475.984C1029.45 475.664 1031.74 475.323 1034.13 474.96L1031.38 476.528C1031.4 474.139 1030.87 472.379 1029.78 471.248C1028.69 470.117 1026.86 469.552 1024.28 469.552C1022.72 469.552 1021.21 469.915 1019.76 470.64C1018.31 471.365 1017.3 472.613 1016.72 474.384L1009.68 472.176C1010.54 469.253 1012.16 466.907 1014.55 465.136C1016.96 463.365 1020.2 462.48 1024.28 462.48C1027.35 462.48 1030.05 462.981 1032.37 463.984C1034.72 464.987 1036.46 466.629 1037.59 468.912C1038.21 470.128 1038.58 471.376 1038.71 472.656C1038.84 473.915 1038.9 475.291 1038.9 476.784V498H1032.15V490.512L1033.27 491.728C1031.71 494.224 1029.89 496.059 1027.8 497.232C1025.73 498.384 1023.13 498.96 1020.02 498.96ZM1021.56 492.816C1023.3 492.816 1024.8 492.507 1026.04 491.888C1027.27 491.269 1028.25 490.512 1028.98 489.616C1029.73 488.72 1030.23 487.877 1030.48 487.088C1030.89 486.107 1031.11 484.987 1031.16 483.728C1031.22 482.448 1031.25 481.413 1031.25 480.624L1033.62 481.328C1031.29 481.691 1029.3 482.011 1027.64 482.288C1025.97 482.565 1024.54 482.832 1023.35 483.088C1022.15 483.323 1021.1 483.589 1020.18 483.888C1019.28 484.208 1018.53 484.581 1017.91 485.008C1017.29 485.435 1016.81 485.925 1016.47 486.48C1016.15 487.035 1015.99 487.685 1015.99 488.432C1015.99 489.285 1016.2 490.043 1016.63 490.704C1017.05 491.344 1017.67 491.856 1018.48 492.24C1019.32 492.624 1020.34 492.816 1021.56 492.816ZM1055.9 498V470.288H1044.35V463.44H1075.17V470.288H1063.61V498H1055.9ZM1090.08 498.96C1087.59 498.96 1085.47 498.491 1083.75 497.552C1082.02 496.592 1080.71 495.323 1079.81 493.744C1078.93 492.165 1078.5 490.427 1078.5 488.528C1078.5 486.864 1078.77 485.371 1079.33 484.048C1079.88 482.704 1080.74 481.552 1081.89 480.592C1083.04 479.611 1084.53 478.811 1086.37 478.192C1087.76 477.744 1089.38 477.339 1091.23 476.976C1093.11 476.613 1095.14 476.283 1097.31 475.984C1099.51 475.664 1101.8 475.323 1104.19 474.96L1101.44 476.528C1101.46 474.139 1100.93 472.379 1099.84 471.248C1098.75 470.117 1096.92 469.552 1094.34 469.552C1092.78 469.552 1091.28 469.915 1089.83 470.64C1088.37 471.365 1087.36 472.613 1086.79 474.384L1079.75 472.176C1080.6 469.253 1082.22 466.907 1084.61 465.136C1087.02 463.365 1090.26 462.48 1094.34 462.48C1097.41 462.48 1100.11 462.981 1102.43 463.984C1104.78 464.987 1106.52 466.629 1107.65 468.912C1108.27 470.128 1108.64 471.376 1108.77 472.656C1108.9 473.915 1108.96 475.291 1108.96 476.784V498H1102.21V490.512L1103.33 491.728C1101.77 494.224 1099.95 496.059 1097.86 497.232C1095.79 498.384 1093.2 498.96 1090.08 498.96ZM1091.62 492.816C1093.37 492.816 1094.86 492.507 1096.1 491.888C1097.33 491.269 1098.32 490.512 1099.04 489.616C1099.79 488.72 1100.29 487.877 1100.55 487.088C1100.95 486.107 1101.17 484.987 1101.22 483.728C1101.28 482.448 1101.31 481.413 1101.31 480.624L1103.68 481.328C1101.36 481.691 1099.36 482.011 1097.7 482.288C1096.03 482.565 1094.6 482.832 1093.41 483.088C1092.21 483.323 1091.16 483.589 1090.24 483.888C1089.35 484.208 1088.59 484.581 1087.97 485.008C1087.35 485.435 1086.87 485.925 1086.53 486.48C1086.21 487.035 1086.05 487.685 1086.05 488.432C1086.05 489.285 1086.26 490.043 1086.69 490.704C1087.12 491.344 1087.73 491.856 1088.55 492.24C1089.38 492.624 1090.4 492.816 1091.62 492.816ZM1160.06 463.44V498H1152.67V475.44L1136.22 498H1130.04V463.44H1137.43V485.424L1153.95 463.44H1160.06ZM1168.98 498V463.44H1176.69V477.072H1192.21V463.44H1199.92V498H1192.21V484.304H1176.69V498H1168.98ZM1208.79 498V463.44H1224.5C1225.63 463.44 1226.69 463.504 1227.67 463.632C1228.65 463.76 1229.5 463.92 1230.2 464.112C1231.86 464.603 1233.34 465.563 1234.62 466.992C1235.9 468.4 1236.53 470.352 1236.53 472.848C1236.53 474.32 1236.3 475.536 1235.83 476.496C1235.36 477.435 1234.74 478.224 1233.98 478.864C1233.61 479.163 1233.24 479.419 1232.86 479.632C1232.47 479.845 1232.09 480.016 1231.7 480.144C1232.54 480.272 1233.32 480.517 1234.07 480.88C1235.24 481.456 1236.23 482.309 1237.02 483.44C1237.83 484.571 1238.23 486.16 1238.23 488.208C1238.23 490.533 1237.67 492.496 1236.53 494.096C1235.43 495.675 1233.79 496.773 1231.64 497.392C1230.85 497.605 1229.94 497.765 1228.92 497.872C1227.9 497.957 1226.85 498 1225.78 498H1208.79ZM1216.6 492.048H1225.24C1225.69 492.048 1226.18 492.005 1226.71 491.92C1227.24 491.835 1227.72 491.717 1228.15 491.568C1228.92 491.291 1229.47 490.8 1229.82 490.096C1230.18 489.392 1230.36 488.656 1230.36 487.888C1230.36 486.843 1230.09 486.011 1229.56 485.392C1229.05 484.752 1228.43 484.325 1227.7 484.112C1227.28 483.941 1226.81 483.845 1226.3 483.824C1225.8 483.781 1225.4 483.76 1225.08 483.76H1216.6V492.048ZM1216.6 477.712H1223C1223.66 477.712 1224.3 477.68 1224.92 477.616C1225.56 477.531 1226.09 477.392 1226.52 477.2C1227.22 476.923 1227.74 476.453 1228.06 475.792C1228.4 475.131 1228.57 474.395 1228.57 473.584C1228.57 472.731 1228.38 471.963 1227.99 471.28C1227.63 470.576 1227.04 470.107 1226.23 469.872C1225.7 469.659 1225.05 469.541 1224.28 469.52C1223.53 469.499 1223.05 469.488 1222.84 469.488H1216.6V477.712ZM1260.32 498.96C1256.82 498.96 1253.75 498.203 1251.1 496.688C1248.46 495.173 1246.39 493.072 1244.89 490.384C1243.42 487.696 1242.69 484.603 1242.69 481.104C1242.69 477.328 1243.41 474.053 1244.86 471.28C1246.31 468.485 1248.33 466.32 1250.91 464.784C1253.49 463.248 1256.48 462.48 1259.87 462.48C1263.45 462.48 1266.49 463.323 1268.99 465.008C1271.51 466.672 1273.37 469.029 1274.59 472.08C1275.81 475.131 1276.26 478.725 1275.97 482.864H1268.32V480.048C1268.3 476.293 1267.63 473.552 1266.33 471.824C1265.03 470.096 1262.98 469.232 1260.19 469.232C1257.03 469.232 1254.69 470.213 1253.15 472.176C1251.61 474.117 1250.85 476.965 1250.85 480.72C1250.85 484.219 1251.61 486.928 1253.15 488.848C1254.69 490.768 1256.93 491.728 1259.87 491.728C1261.77 491.728 1263.4 491.312 1264.77 490.48C1266.15 489.627 1267.22 488.4 1267.97 486.8L1275.58 489.104C1274.26 492.219 1272.21 494.64 1269.44 496.368C1266.69 498.096 1263.65 498.96 1260.32 498.96ZM1248.41 482.864V477.04H1272.19V482.864H1248.41ZM1298.11 498.96C1294.55 498.96 1291.51 498.171 1288.99 496.592C1286.48 494.992 1284.55 492.816 1283.2 490.064C1281.88 487.312 1281.21 484.197 1281.19 480.72C1281.21 477.179 1281.9 474.043 1283.27 471.312C1284.65 468.56 1286.61 466.405 1289.15 464.848C1291.69 463.269 1294.71 462.48 1298.21 462.48C1302.13 462.48 1305.45 463.472 1308.16 465.456C1310.89 467.419 1312.67 470.107 1313.51 473.52L1305.83 475.6C1305.23 473.744 1304.24 472.304 1302.85 471.28C1301.46 470.235 1299.88 469.712 1298.11 469.712C1296.11 469.712 1294.45 470.192 1293.15 471.152C1291.85 472.091 1290.89 473.392 1290.27 475.056C1289.65 476.72 1289.35 478.608 1289.35 480.72C1289.35 484.005 1290.08 486.661 1291.55 488.688C1293.03 490.715 1295.21 491.728 1298.11 491.728C1300.16 491.728 1301.77 491.259 1302.95 490.32C1304.14 489.381 1305.04 488.027 1305.63 486.256L1313.51 488.016C1312.44 491.536 1310.57 494.245 1307.91 496.144C1305.24 498.021 1301.97 498.96 1298.11 498.96ZM1328.4 498V470.288H1316.85V463.44H1347.67V470.288H1336.11V498H1328.4ZM1383.68 463.44V498H1376.29V475.44L1359.84 498H1353.67V463.44H1361.06V485.424L1377.57 463.44H1383.68ZM1421.6 505.264V498H1392.6V463.44H1400.32V490.768H1414.91V463.44H1422.62V491.152H1429.31V505.264H1421.6ZM1464.37 463.44V498H1456.98V475.44L1440.53 498H1434.35V463.44H1441.75V485.424L1458.26 463.44H1464.37ZM1489.32 459.536C1487.55 459.536 1485.93 459.099 1484.46 458.224C1482.99 457.349 1481.81 456.187 1480.94 454.736C1480.06 453.264 1479.63 451.632 1479.63 449.84H1485.64C1485.64 450.864 1486 451.739 1486.7 452.464C1487.42 453.168 1488.3 453.52 1489.32 453.52C1490.35 453.52 1491.21 453.168 1491.92 452.464C1492.64 451.739 1493 450.864 1493 449.84H1499.02C1499.02 451.632 1498.58 453.264 1497.71 454.736C1496.83 456.187 1495.66 457.349 1494.19 458.224C1492.72 459.099 1491.09 459.536 1489.32 459.536ZM1503.31 463.44V498H1495.92V475.44L1479.47 498H1473.29V463.44H1480.68V485.424L1497.2 463.44H1503.31Z" fill="#23374F"></path><rect x="273" y="610" width="1372" height="149" rx="31" fill="white"></rect><rect x="273" y="610" width="1372" height="149" rx="31" stroke="#DFDFDF" stroke-width="2"></rect><path d="M314.81 709L320.89 696.584L304.986 662.92H313.69L324.922 688.456L336.506 662.92H344.73L323.034 709H314.81ZM359.666 709L359.73 674.44H367.538V691.08L380.178 674.44H389.81L376.402 691.72L390.962 709H380.754L367.538 692.36V709H359.666ZM403.832 709.96C401.336 709.96 399.224 709.491 397.496 708.552C395.768 707.592 394.456 706.323 393.56 704.744C392.685 703.165 392.248 701.427 392.248 699.528C392.248 697.864 392.525 696.371 393.08 695.048C393.634 693.704 394.488 692.552 395.64 691.592C396.792 690.611 398.285 689.811 400.12 689.192C401.506 688.744 403.128 688.339 404.984 687.976C406.861 687.613 408.888 687.283 411.064 686.984C413.261 686.664 415.554 686.323 417.944 685.96L415.192 687.528C415.213 685.139 414.68 683.379 413.592 682.248C412.504 681.117 410.669 680.552 408.088 680.552C406.53 680.552 405.026 680.915 403.576 681.64C402.125 682.365 401.112 683.613 400.536 685.384L393.496 683.176C394.349 680.253 395.97 677.907 398.36 676.136C400.77 674.365 404.013 673.48 408.088 673.48C411.16 673.48 413.858 673.981 416.184 674.984C418.53 675.987 420.269 677.629 421.4 679.912C422.018 681.128 422.392 682.376 422.52 683.656C422.648 684.915 422.712 686.291 422.712 687.784V709H415.96V701.512L417.08 702.728C415.522 705.224 413.698 707.059 411.608 708.232C409.538 709.384 406.946 709.96 403.832 709.96ZM405.368 703.816C407.117 703.816 408.61 703.507 409.848 702.888C411.085 702.269 412.066 701.512 412.792 700.616C413.538 699.72 414.04 698.877 414.296 698.088C414.701 697.107 414.925 695.987 414.968 694.728C415.032 693.448 415.064 692.413 415.064 691.624L417.432 692.328C415.106 692.691 413.112 693.011 411.448 693.288C409.784 693.565 408.354 693.832 407.16 694.088C405.965 694.323 404.909 694.589 403.992 694.888C403.096 695.208 402.338 695.581 401.72 696.008C401.101 696.435 400.621 696.925 400.28 697.48C399.96 698.035 399.8 698.685 399.8 699.432C399.8 700.285 400.013 701.043 400.44 701.704C400.866 702.344 401.485 702.856 402.296 703.24C403.128 703.624 404.152 703.816 405.368 703.816ZM427.203 709L439.875 691.72L427.971 674.44H436.419L447.651 691.176V674.44H454.499V691.176L465.731 674.44H474.147L462.243 691.72L474.915 709H466.019L454.499 692.264V709H447.651V692.264L436.099 709H427.203ZM476.233 716.68V702.952C478.11 702.952 479.443 702.312 480.233 701.032C481.022 699.752 481.651 697.533 482.121 694.376C482.419 692.499 482.665 690.515 482.857 688.424C483.049 686.333 483.209 684.125 483.337 681.8C483.486 679.475 483.614 677.021 483.72 674.44H509.449V702.952H512.937V716.68H505.641V709H483.497V716.68H476.233ZM486.569 702.952H501.769V680.488H490.472C490.409 681.768 490.334 683.08 490.249 684.424C490.163 685.747 490.067 687.069 489.961 688.392C489.854 689.715 489.737 690.984 489.609 692.2C489.502 693.395 489.374 694.504 489.225 695.528C488.99 697.32 488.702 698.792 488.361 699.944C488.019 701.096 487.422 702.099 486.569 702.952ZM534.619 709.96C531.163 709.96 528.144 709.181 525.563 707.624C522.982 706.067 520.976 703.923 519.547 701.192C518.139 698.44 517.435 695.283 517.435 691.72C517.435 688.093 518.16 684.915 519.611 682.184C521.062 679.453 523.078 677.32 525.659 675.784C528.24 674.248 531.227 673.48 534.619 673.48C538.096 673.48 541.126 674.259 543.707 675.816C546.288 677.373 548.294 679.528 549.723 682.28C551.152 685.011 551.867 688.157 551.867 691.72C551.867 695.304 551.142 698.472 549.691 701.224C548.262 703.955 546.256 706.099 543.675 707.656C541.094 709.192 538.075 709.96 534.619 709.96ZM534.619 702.728C537.691 702.728 539.974 701.704 541.467 699.656C542.96 697.608 543.707 694.963 543.707 691.72C543.707 688.371 542.95 685.704 541.435 683.72C539.92 681.715 537.648 680.712 534.619 680.712C532.55 680.712 530.843 681.181 529.499 682.12C528.176 683.037 527.195 684.328 526.555 685.992C525.915 687.635 525.595 689.544 525.595 691.72C525.595 695.069 526.352 697.747 527.867 699.752C529.403 701.736 531.654 702.728 534.619 702.728ZM558.918 709V674.44H583.558V681.672H566.63V709H558.918ZM604.307 709.96C600.851 709.96 597.832 709.181 595.251 707.624C592.669 706.067 590.664 703.923 589.235 701.192C587.827 698.44 587.123 695.283 587.123 691.72C587.123 688.093 587.848 684.915 589.299 682.184C590.749 679.453 592.765 677.32 595.347 675.784C597.928 674.248 600.915 673.48 604.307 673.48C607.784 673.48 610.813 674.259 613.395 675.816C615.976 677.373 617.981 679.528 619.411 682.28C620.84 685.011 621.555 688.157 621.555 691.72C621.555 695.304 620.829 698.472 619.379 701.224C617.949 703.955 615.944 706.099 613.363 707.656C610.781 709.192 607.763 709.96 604.307 709.96ZM604.307 702.728C607.379 702.728 609.661 701.704 611.155 699.656C612.648 697.608 613.395 694.963 613.395 691.72C613.395 688.371 612.637 685.704 611.123 683.72C609.608 681.715 607.336 680.712 604.307 680.712C602.237 680.712 600.531 681.181 599.187 682.12C597.864 683.037 596.883 684.328 596.243 685.992C595.603 687.635 595.283 689.544 595.283 691.72C595.283 695.069 596.04 697.747 597.555 699.752C599.091 701.736 601.341 702.728 604.307 702.728ZM641.354 709V674.44H671.37V709H663.658V681.672H649.066V709H641.354ZM696.963 709.96C693.592 709.96 690.766 709.16 688.483 707.56C686.2 705.96 684.483 703.784 683.331 701.032C682.179 698.259 681.603 695.155 681.603 691.72C681.603 688.243 682.179 685.128 683.331 682.376C684.483 679.624 686.168 677.459 688.387 675.88C690.627 674.28 693.39 673.48 696.675 673.48C699.939 673.48 702.766 674.28 705.155 675.88C707.566 677.459 709.432 679.624 710.755 682.376C712.078 685.107 712.739 688.221 712.739 691.72C712.739 695.176 712.088 698.28 710.787 701.032C709.486 703.784 707.651 705.96 705.283 707.56C702.915 709.16 700.142 709.96 696.963 709.96ZM680.291 724.36V674.44H687.107V698.696H688.067V724.36H680.291ZM695.779 703.048C697.784 703.048 699.438 702.547 700.739 701.544C702.04 700.541 703 699.187 703.619 697.48C704.259 695.752 704.579 693.832 704.579 691.72C704.579 689.629 704.259 687.731 703.619 686.024C702.979 684.296 701.987 682.931 700.643 681.928C699.299 680.904 697.592 680.392 695.523 680.392C693.56 680.392 691.96 680.872 690.723 681.832C689.486 682.771 688.568 684.093 687.971 685.8C687.395 687.485 687.107 689.459 687.107 691.72C687.107 693.96 687.395 695.933 687.971 697.64C688.568 699.347 689.496 700.68 690.755 701.64C692.035 702.579 693.71 703.048 695.779 703.048ZM735.057 709.96C731.601 709.96 728.582 709.181 726.001 707.624C723.419 706.067 721.414 703.923 719.985 701.192C718.577 698.44 717.873 695.283 717.873 691.72C717.873 688.093 718.598 684.915 720.049 682.184C721.499 679.453 723.515 677.32 726.097 675.784C728.678 674.248 731.665 673.48 735.057 673.48C738.534 673.48 741.563 674.259 744.145 675.816C746.726 677.373 748.731 679.528 750.161 682.28C751.59 685.011 752.305 688.157 752.305 691.72C752.305 695.304 751.579 698.472 750.129 701.224C748.699 703.955 746.694 706.099 744.113 707.656C741.531 709.192 738.513 709.96 735.057 709.96ZM735.057 702.728C738.129 702.728 740.411 701.704 741.905 699.656C743.398 697.608 744.145 694.963 744.145 691.72C744.145 688.371 743.387 685.704 741.873 683.72C740.358 681.715 738.086 680.712 735.057 680.712C732.987 680.712 731.281 681.181 729.937 682.12C728.614 683.037 727.633 684.328 726.993 685.992C726.353 687.635 726.033 689.544 726.033 691.72C726.033 695.069 726.79 697.747 728.305 699.752C729.841 701.736 732.091 702.728 735.057 702.728ZM775.067 709.96C771.568 709.96 768.496 709.203 765.851 707.688C763.206 706.173 761.136 704.072 759.643 701.384C758.171 698.696 757.435 695.603 757.435 692.104C757.435 688.328 758.16 685.053 759.611 682.28C761.062 679.485 763.078 677.32 765.659 675.784C768.24 674.248 771.227 673.48 774.619 673.48C778.203 673.48 781.243 674.323 783.739 676.008C786.256 677.672 788.123 680.029 789.339 683.08C790.555 686.131 791.014 689.725 790.715 693.864H783.067V691.048C783.046 687.293 782.384 684.552 781.083 682.824C779.782 681.096 777.734 680.232 774.939 680.232C771.782 680.232 769.435 681.213 767.899 683.176C766.363 685.117 765.595 687.965 765.595 691.72C765.595 695.219 766.363 697.928 767.899 699.848C769.435 701.768 771.675 702.728 774.619 702.728C776.518 702.728 778.15 702.312 779.515 701.48C780.902 700.627 781.968 699.4 782.715 697.8L790.331 700.104C789.008 703.219 786.96 705.64 784.187 707.368C781.435 709.096 778.395 709.96 775.067 709.96ZM763.163 693.864V688.04H786.939V693.864H763.163ZM797.791 709L797.855 674.44H805.663V691.08L818.303 674.44H827.935L814.527 691.72L829.087 709H818.879L805.663 692.36V709H797.791ZM840.965 709V681.288H829.413V674.44H860.229V681.288H848.677V709H840.965ZM875.144 709.96C872.648 709.96 870.536 709.491 868.808 708.552C867.08 707.592 865.768 706.323 864.872 704.744C863.997 703.165 863.56 701.427 863.56 699.528C863.56 697.864 863.837 696.371 864.392 695.048C864.947 693.704 865.8 692.552 866.952 691.592C868.104 690.611 869.597 689.811 871.432 689.192C872.819 688.744 874.44 688.339 876.296 687.976C878.173 687.613 880.2 687.283 882.376 686.984C884.573 686.664 886.867 686.323 889.256 685.96L886.504 687.528C886.525 685.139 885.992 683.379 884.904 682.248C883.816 681.117 881.981 680.552 879.4 680.552C877.843 680.552 876.339 680.915 874.888 681.64C873.437 682.365 872.424 683.613 871.848 685.384L864.808 683.176C865.661 680.253 867.283 677.907 869.672 676.136C872.083 674.365 875.325 673.48 879.4 673.48C882.472 673.48 885.171 673.981 887.496 674.984C889.843 675.987 891.581 677.629 892.712 679.912C893.331 681.128 893.704 682.376 893.832 683.656C893.96 684.915 894.024 686.291 894.024 687.784V709H887.272V701.512L888.392 702.728C886.835 705.224 885.011 707.059 882.92 708.232C880.851 709.384 878.259 709.96 875.144 709.96ZM876.68 703.816C878.429 703.816 879.923 703.507 881.16 702.888C882.397 702.269 883.379 701.512 884.104 700.616C884.851 699.72 885.352 698.877 885.608 698.088C886.013 697.107 886.237 695.987 886.28 694.728C886.344 693.448 886.376 692.413 886.376 691.624L888.744 692.328C886.419 692.691 884.424 693.011 882.76 693.288C881.096 693.565 879.667 693.832 878.472 694.088C877.277 694.323 876.221 694.589 875.304 694.888C874.408 695.208 873.651 695.581 873.032 696.008C872.413 696.435 871.933 696.925 871.592 697.48C871.272 698.035 871.112 698.685 871.112 699.432C871.112 700.285 871.325 701.043 871.752 701.704C872.179 702.344 872.797 702.856 873.608 703.24C874.44 703.624 875.464 703.816 876.68 703.816ZM930.88 709.96C927.381 709.96 924.309 709.203 921.664 707.688C919.018 706.173 916.949 704.072 915.456 701.384C913.984 698.696 913.248 695.603 913.248 692.104C913.248 688.328 913.973 685.053 915.424 682.28C916.874 679.485 918.89 677.32 921.472 675.784C924.053 674.248 927.04 673.48 930.432 673.48C934.016 673.48 937.056 674.323 939.552 676.008C942.069 677.672 943.936 680.029 945.152 683.08C946.368 686.131 946.826 689.725 946.528 693.864H938.88V691.048C938.858 687.293 938.197 684.552 936.896 682.824C935.594 681.096 933.546 680.232 930.752 680.232C927.594 680.232 925.248 681.213 923.712 683.176C922.176 685.117 921.408 687.965 921.408 691.72C921.408 695.219 922.176 697.928 923.712 699.848C925.248 701.768 927.488 702.728 930.432 702.728C932.33 702.728 933.962 702.312 935.328 701.48C936.714 700.627 937.781 699.4 938.528 697.8L946.144 700.104C944.821 703.219 942.773 705.64 940 707.368C937.248 709.096 934.208 709.96 930.88 709.96ZM918.976 693.864V688.04H942.752V693.864H918.976ZM968.676 709.96C965.113 709.96 962.073 709.171 959.556 707.592C957.038 705.992 955.108 703.816 953.764 701.064C952.441 698.312 951.769 695.197 951.748 691.72C951.769 688.179 952.462 685.043 953.828 682.312C955.214 679.56 957.177 677.405 959.716 675.848C962.254 674.269 965.273 673.48 968.772 673.48C972.697 673.48 976.014 674.472 978.724 676.456C981.454 678.419 983.236 681.107 984.068 684.52L976.388 686.6C975.79 684.744 974.798 683.304 973.412 682.28C972.025 681.235 970.446 680.712 968.676 680.712C966.67 680.712 965.017 681.192 963.716 682.152C962.414 683.091 961.454 684.392 960.836 686.056C960.217 687.72 959.908 689.608 959.908 691.72C959.908 695.005 960.644 697.661 962.116 699.688C963.588 701.715 965.774 702.728 968.676 702.728C970.724 702.728 972.334 702.259 973.508 701.32C974.702 700.381 975.598 699.027 976.196 697.256L984.068 699.016C983.001 702.536 981.134 705.245 978.468 707.144C975.801 709.021 972.537 709.96 968.676 709.96ZM998.965 709V681.288H987.413V674.44H1018.23V681.288H1006.68V709H998.965ZM1024.26 709L1024.23 674.44H1031.94V685.96H1038.15C1039.11 685.96 1040.19 685.981 1041.38 686.024C1042.6 686.067 1043.61 686.163 1044.42 686.312C1046.36 686.739 1048.02 687.421 1049.38 688.36C1050.77 689.299 1051.82 690.525 1052.55 692.04C1053.27 693.555 1053.64 695.379 1053.64 697.512C1053.64 700.563 1052.85 703.005 1051.27 704.84C1049.71 706.653 1047.51 707.891 1044.68 708.552C1043.82 708.744 1042.78 708.872 1041.54 708.936C1040.32 708.979 1039.23 709 1038.24 709H1024.26ZM1031.94 702.952H1038.92C1039.39 702.952 1039.91 702.931 1040.48 702.888C1041.06 702.845 1041.62 702.749 1042.15 702.6C1043.11 702.344 1043.95 701.768 1044.68 700.872C1045.42 699.955 1045.8 698.835 1045.8 697.512C1045.8 696.125 1045.42 694.984 1044.68 694.088C1043.93 693.192 1043.01 692.605 1041.92 692.328C1041.43 692.2 1040.92 692.115 1040.39 692.072C1039.86 692.029 1039.36 692.008 1038.92 692.008H1031.94V702.952ZM1088.49 709.96C1084.93 709.96 1081.89 709.171 1079.37 707.592C1076.85 705.992 1074.92 703.816 1073.58 701.064C1072.25 698.312 1071.58 695.197 1071.56 691.72C1071.58 688.179 1072.27 685.043 1073.64 682.312C1075.03 679.56 1076.99 677.405 1079.53 675.848C1082.07 674.269 1085.09 673.48 1088.58 673.48C1092.51 673.48 1095.83 674.472 1098.54 676.456C1101.27 678.419 1103.05 681.107 1103.88 684.52L1096.2 686.6C1095.6 684.744 1094.61 683.304 1093.22 682.28C1091.84 681.235 1090.26 680.712 1088.49 680.712C1086.48 680.712 1084.83 681.192 1083.53 682.152C1082.23 683.091 1081.27 684.392 1080.65 686.056C1080.03 687.72 1079.72 689.608 1079.72 691.72C1079.72 695.005 1080.46 697.661 1081.93 699.688C1083.4 701.715 1085.59 702.728 1088.49 702.728C1090.54 702.728 1092.15 702.259 1093.32 701.32C1094.51 700.381 1095.41 699.027 1096.01 697.256L1103.88 699.016C1102.81 702.536 1100.95 705.245 1098.28 707.144C1095.61 709.021 1092.35 709.96 1088.49 709.96ZM1126.9 709.96C1123.53 709.96 1120.7 709.16 1118.42 707.56C1116.14 705.96 1114.42 703.784 1113.27 701.032C1112.12 698.259 1111.54 695.155 1111.54 691.72C1111.54 688.243 1112.12 685.128 1113.27 682.376C1114.42 679.624 1116.11 677.459 1118.32 675.88C1120.56 674.28 1123.33 673.48 1126.61 673.48C1129.88 673.48 1132.7 674.28 1135.09 675.88C1137.5 677.459 1139.37 679.624 1140.69 682.376C1142.02 685.107 1142.68 688.221 1142.68 691.72C1142.68 695.176 1142.03 698.28 1140.72 701.032C1139.42 703.784 1137.59 705.96 1135.22 707.56C1132.85 709.16 1130.08 709.96 1126.9 709.96ZM1110.23 724.36V674.44H1117.04V698.696H1118V724.36H1110.23ZM1125.72 703.048C1127.72 703.048 1129.38 702.547 1130.68 701.544C1131.98 700.541 1132.94 699.187 1133.56 697.48C1134.2 695.752 1134.52 693.832 1134.52 691.72C1134.52 689.629 1134.2 687.731 1133.56 686.024C1132.92 684.296 1131.92 682.931 1130.58 681.928C1129.24 680.904 1127.53 680.392 1125.46 680.392C1123.5 680.392 1121.9 680.872 1120.66 681.832C1119.42 682.771 1118.51 684.093 1117.91 685.8C1117.33 687.485 1117.04 689.459 1117.04 691.72C1117.04 693.96 1117.33 695.933 1117.91 697.64C1118.51 699.347 1119.43 700.68 1120.69 701.64C1121.97 702.579 1123.65 703.048 1125.72 703.048ZM1164.99 709.96C1161.54 709.96 1158.52 709.181 1155.94 707.624C1153.36 706.067 1151.35 703.923 1149.92 701.192C1148.51 698.44 1147.81 695.283 1147.81 691.72C1147.81 688.093 1148.54 684.915 1149.99 682.184C1151.44 679.453 1153.45 677.32 1156.03 675.784C1158.62 674.248 1161.6 673.48 1164.99 673.48C1168.47 673.48 1171.5 674.259 1174.08 675.816C1176.66 677.373 1178.67 679.528 1180.1 682.28C1181.53 685.011 1182.24 688.157 1182.24 691.72C1182.24 695.304 1181.52 698.472 1180.07 701.224C1178.64 703.955 1176.63 706.099 1174.05 707.656C1171.47 709.192 1168.45 709.96 1164.99 709.96ZM1164.99 702.728C1168.07 702.728 1170.35 701.704 1171.84 699.656C1173.34 697.608 1174.08 694.963 1174.08 691.72C1174.08 688.371 1173.32 685.704 1171.81 683.72C1170.3 681.715 1168.02 680.712 1164.99 680.712C1162.92 680.712 1161.22 681.181 1159.87 682.12C1158.55 683.037 1157.57 684.328 1156.93 685.992C1156.29 687.635 1155.97 689.544 1155.97 691.72C1155.97 695.069 1156.73 697.747 1158.24 699.752C1159.78 701.736 1162.03 702.728 1164.99 702.728ZM1189.23 709L1189.29 674.44H1197.1V691.08L1209.74 674.44H1219.37L1205.96 691.72L1220.52 709H1210.32L1197.1 692.36V709H1189.23ZM1253.15 709.96C1249.78 709.96 1246.95 709.16 1244.67 707.56C1242.39 705.96 1240.67 703.784 1239.52 701.032C1238.37 698.259 1237.79 695.155 1237.79 691.72C1237.79 688.243 1238.37 685.128 1239.52 682.376C1240.67 679.624 1242.36 677.459 1244.57 675.88C1246.81 674.28 1249.58 673.48 1252.86 673.48C1256.13 673.48 1258.95 674.28 1261.34 675.88C1263.75 677.459 1265.62 679.624 1266.94 682.376C1268.27 685.107 1268.93 688.221 1268.93 691.72C1268.93 695.176 1268.28 698.28 1266.97 701.032C1265.67 703.784 1263.84 705.96 1261.47 707.56C1259.1 709.16 1256.33 709.96 1253.15 709.96ZM1236.48 724.36V674.44H1243.29V698.696H1244.25V724.36H1236.48ZM1251.97 703.048C1253.97 703.048 1255.63 702.547 1256.93 701.544C1258.23 700.541 1259.19 699.187 1259.81 697.48C1260.45 695.752 1260.77 693.832 1260.77 691.72C1260.77 689.629 1260.45 687.731 1259.81 686.024C1259.17 684.296 1258.17 682.931 1256.83 681.928C1255.49 680.904 1253.78 680.392 1251.71 680.392C1249.75 680.392 1248.15 680.872 1246.91 681.832C1245.67 682.771 1244.76 684.093 1244.16 685.8C1243.58 687.485 1243.29 689.459 1243.29 691.72C1243.29 693.96 1243.58 695.933 1244.16 697.64C1244.76 699.347 1245.68 700.68 1246.94 701.64C1248.22 702.579 1249.9 703.048 1251.97 703.048ZM1291.69 709.96C1288.19 709.96 1285.12 709.203 1282.48 707.688C1279.83 706.173 1277.76 704.072 1276.27 701.384C1274.8 698.696 1274.06 695.603 1274.06 692.104C1274.06 688.328 1274.79 685.053 1276.24 682.28C1277.69 679.485 1279.7 677.32 1282.28 675.784C1284.87 674.248 1287.85 673.48 1291.24 673.48C1294.83 673.48 1297.87 674.323 1300.36 676.008C1302.88 677.672 1304.75 680.029 1305.96 683.08C1307.18 686.131 1307.64 689.725 1307.34 693.864H1299.69V691.048C1299.67 687.293 1299.01 684.552 1297.71 682.824C1296.41 681.096 1294.36 680.232 1291.56 680.232C1288.41 680.232 1286.06 681.213 1284.52 683.176C1282.99 685.117 1282.22 687.965 1282.22 691.72C1282.22 695.219 1282.99 697.928 1284.52 699.848C1286.06 701.768 1288.3 702.728 1291.24 702.728C1293.14 702.728 1294.77 702.312 1296.14 701.48C1297.53 700.627 1298.59 699.4 1299.34 697.8L1306.96 700.104C1305.63 703.219 1303.59 705.64 1300.81 707.368C1298.06 709.096 1295.02 709.96 1291.69 709.96ZM1279.79 693.864V688.04H1303.56V693.864H1279.79ZM1323.52 709.96C1321.02 709.96 1318.91 709.491 1317.18 708.552C1315.46 707.592 1314.14 706.323 1313.25 704.744C1312.37 703.165 1311.94 701.427 1311.94 699.528C1311.94 697.864 1312.21 696.371 1312.77 695.048C1313.32 693.704 1314.18 692.552 1315.33 691.592C1316.48 690.611 1317.97 689.811 1319.81 689.192C1321.19 688.744 1322.82 688.339 1324.67 687.976C1326.55 687.613 1328.58 687.283 1330.75 686.984C1332.95 686.664 1335.24 686.323 1337.63 685.96L1334.88 687.528C1334.9 685.139 1334.37 683.379 1333.28 682.248C1332.19 681.117 1330.36 680.552 1327.78 680.552C1326.22 680.552 1324.71 680.915 1323.26 681.64C1321.81 682.365 1320.8 683.613 1320.22 685.384L1313.18 683.176C1314.04 680.253 1315.66 677.907 1318.05 676.136C1320.46 674.365 1323.7 673.48 1327.78 673.48C1330.85 673.48 1333.55 673.981 1335.87 674.984C1338.22 675.987 1339.96 677.629 1341.09 679.912C1341.71 681.128 1342.08 682.376 1342.21 683.656C1342.34 684.915 1342.4 686.291 1342.4 687.784V709H1335.65V701.512L1336.77 702.728C1335.21 705.224 1333.39 707.059 1331.3 708.232C1329.23 709.384 1326.63 709.96 1323.52 709.96ZM1325.06 703.816C1326.8 703.816 1328.3 703.507 1329.54 702.888C1330.77 702.269 1331.75 701.512 1332.48 700.616C1333.23 699.72 1333.73 698.877 1333.98 698.088C1334.39 697.107 1334.61 695.987 1334.66 694.728C1334.72 693.448 1334.75 692.413 1334.75 691.624L1337.12 692.328C1334.79 692.691 1332.8 693.011 1331.14 693.288C1329.47 693.565 1328.04 693.832 1326.85 694.088C1325.65 694.323 1324.6 694.589 1323.68 694.888C1322.78 695.208 1322.03 695.581 1321.41 696.008C1320.79 696.435 1320.31 696.925 1319.97 697.48C1319.65 698.035 1319.49 698.685 1319.49 699.432C1319.49 700.285 1319.7 701.043 1320.13 701.704C1320.55 702.344 1321.17 702.856 1321.98 703.24C1322.82 703.624 1323.84 703.816 1325.06 703.816ZM1347.53 709V702.536C1348.79 702.771 1349.76 702.749 1350.44 702.472C1351.12 702.173 1351.64 701.619 1351.98 700.808C1352.32 699.997 1352.62 698.92 1352.87 697.576C1353.22 695.677 1353.51 693.491 1353.77 691.016C1354.05 688.541 1354.28 685.896 1354.47 683.08C1354.69 680.264 1354.88 677.384 1355.05 674.44H1380.49V709H1372.81V681.672H1361.83C1361.73 683.059 1361.6 684.616 1361.45 686.344C1361.3 688.051 1361.14 689.779 1360.97 691.528C1360.8 693.277 1360.61 694.941 1360.39 696.52C1360.2 698.077 1360 699.411 1359.79 700.52C1359.3 703.016 1358.59 704.989 1357.67 706.44C1356.78 707.891 1355.52 708.819 1353.9 709.224C1352.28 709.651 1350.15 709.576 1347.53 709ZM1419.43 674.44V709H1412.04V686.44L1395.59 709H1389.42V674.44H1396.81V696.424L1413.32 674.44H1419.43ZM1440.71 709.96C1437.42 709.96 1434.42 709.267 1431.71 707.88C1429 706.493 1426.87 704.595 1425.31 702.184L1431.39 698.12C1432.63 699.592 1434.01 700.733 1435.52 701.544C1437.04 702.333 1438.72 702.728 1440.58 702.728C1442.52 702.728 1444.04 702.301 1445.15 701.448C1446.26 700.595 1446.82 699.453 1446.82 698.024C1446.82 696.765 1446.44 695.88 1445.7 695.368C1444.95 694.835 1443.97 694.515 1442.75 694.408C1441.54 694.301 1440.24 694.248 1438.85 694.248H1436.29V688.136H1438.82C1440.76 688.136 1442.38 687.912 1443.68 687.464C1445 687.016 1445.67 686.024 1445.67 684.488C1445.67 683.101 1445.15 682.12 1444.13 681.544C1443.11 680.947 1441.91 680.648 1440.55 680.648C1438.88 680.648 1437.24 681 1435.62 681.704C1434 682.408 1432.55 683.261 1431.27 684.264L1426.91 679.016C1428.83 677.309 1430.98 675.965 1433.35 674.984C1435.71 673.981 1438.24 673.48 1440.93 673.48C1443.15 673.48 1445.22 673.864 1447.14 674.632C1449.08 675.4 1450.64 676.552 1451.81 678.088C1453 679.624 1453.6 681.523 1453.6 683.784C1453.6 685.405 1453.25 686.931 1452.55 688.36C1451.86 689.789 1450.76 691.144 1449.25 692.424L1449.15 689.928C1450.33 690.419 1451.32 691.101 1452.13 691.976C1452.96 692.851 1453.59 693.875 1454.02 695.048C1454.47 696.221 1454.69 697.469 1454.69 698.792C1454.69 701.203 1454.05 703.24 1452.77 704.904C1451.49 706.568 1449.78 707.827 1447.65 708.68C1445.54 709.533 1443.22 709.96 1440.71 709.96ZM1471.39 709.96C1468.9 709.96 1466.79 709.491 1465.06 708.552C1463.33 707.592 1462.02 706.323 1461.12 704.744C1460.25 703.165 1459.81 701.427 1459.81 699.528C1459.81 697.864 1460.09 696.371 1460.64 695.048C1461.2 693.704 1462.05 692.552 1463.2 691.592C1464.35 690.611 1465.85 689.811 1467.68 689.192C1469.07 688.744 1470.69 688.339 1472.55 687.976C1474.42 687.613 1476.45 687.283 1478.63 686.984C1480.82 686.664 1483.12 686.323 1485.51 685.96L1482.75 687.528C1482.78 685.139 1482.24 683.379 1481.15 682.248C1480.07 681.117 1478.23 680.552 1475.65 680.552C1474.09 680.552 1472.59 680.915 1471.14 681.64C1469.69 682.365 1468.67 683.613 1468.1 685.384L1461.06 683.176C1461.91 680.253 1463.53 677.907 1465.92 676.136C1468.33 674.365 1471.58 673.48 1475.65 673.48C1478.72 673.48 1481.42 673.981 1483.75 674.984C1486.09 675.987 1487.83 677.629 1488.96 679.912C1489.58 681.128 1489.95 682.376 1490.08 683.656C1490.21 684.915 1490.27 686.291 1490.27 687.784V709H1483.52V701.512L1484.64 702.728C1483.08 705.224 1481.26 707.059 1479.17 708.232C1477.1 709.384 1474.51 709.96 1471.39 709.96ZM1472.93 703.816C1474.68 703.816 1476.17 703.507 1477.41 702.888C1478.65 702.269 1479.63 701.512 1480.35 700.616C1481.1 699.72 1481.6 698.877 1481.86 698.088C1482.26 697.107 1482.49 695.987 1482.53 694.728C1482.59 693.448 1482.63 692.413 1482.63 691.624L1484.99 692.328C1482.67 692.691 1480.67 693.011 1479.01 693.288C1477.35 693.565 1475.92 693.832 1474.72 694.088C1473.53 694.323 1472.47 694.589 1471.55 694.888C1470.66 695.208 1469.9 695.581 1469.28 696.008C1468.66 696.435 1468.18 696.925 1467.84 697.48C1467.52 698.035 1467.36 698.685 1467.36 699.432C1467.36 700.285 1467.58 701.043 1468 701.704C1468.43 702.344 1469.05 702.856 1469.86 703.24C1470.69 703.624 1471.71 703.816 1472.93 703.816ZM1527.53 716.264V709H1498.54V674.44H1506.25V701.768H1520.85V674.44H1528.56V702.152H1535.25V716.264H1527.53ZM1570.31 674.44V709H1562.92V686.44L1546.47 709H1540.29V674.44H1547.68V696.424L1564.2 674.44H1570.31ZM1609.24 674.44V709H1601.85V686.44L1585.4 709H1579.23V674.44H1586.62V696.424L1603.13 674.44H1609.24Z" fill="#23374F"></path><defs><clipPath id="clip0_837_4607"><rect width="55" height="60" fill="white" transform="translate(1815 970)"></rect></clipPath></defs></svg> 