<?xml version="1.0" encoding="UTF-8"?> <svg xmlns="http://www.w3.org/2000/svg" width="1920" height="1080" viewBox="0 0 1920 1080" fill="none"><rect width="1920" height="1080" fill="#FBF5EE"></rect><path d="M102.368 162.96C98.976 162.96 95.9253 162.416 93.216 161.328C90.528 160.219 88.2453 158.576 86.368 156.4C84.512 154.224 83.136 151.536 82.24 148.336L88.8 146.672C89.7173 149.68 91.328 152.101 93.632 153.936C95.9573 155.749 98.7413 156.635 101.984 156.592C104.224 156.549 106.336 156.123 108.32 155.312C110.304 154.48 111.936 153.2 113.216 151.472C114.304 150.064 115.083 148.571 115.552 146.992C116.043 145.413 116.363 143.781 116.512 142.096H100V135.792H116.544C116.245 132.912 115.488 130.384 114.272 128.208C113.077 126.032 111.445 124.336 109.376 123.12C107.328 121.883 104.864 121.285 101.984 121.328C98.5707 121.371 95.7013 122.331 93.376 124.208C91.0507 126.064 89.4827 128.581 88.672 131.76L81.92 130.8C83.072 125.765 85.4293 121.872 88.992 119.12C92.576 116.347 97.0347 114.96 102.368 114.96C106.848 114.96 110.677 115.973 113.856 118C117.035 120.005 119.467 122.811 121.152 126.416C122.859 130 123.733 134.181 123.776 138.96C123.819 143.44 122.997 147.493 121.312 151.12C119.648 154.747 117.205 157.627 113.984 159.76C110.784 161.893 106.912 162.96 102.368 162.96ZM140.406 162V122.224H125.078V115.92H162.422V122.224H147.094V162H140.406ZM163.093 162L178.069 115.92H187.701L202.677 162H195.733L181.941 119.952H183.669L170.036 162H163.093ZM170.869 151.6V145.328H194.933V151.6H170.869ZM208.418 162V115.92H245.058V162H238.37V122.224H215.106V162H208.418ZM254.011 162V115.92H260.699V132.464H272.635C273.061 132.464 273.605 132.485 274.267 132.528C274.949 132.549 275.579 132.613 276.155 132.72C278.715 133.125 280.848 134 282.555 135.344C284.283 136.688 285.573 138.384 286.427 140.432C287.301 142.48 287.739 144.752 287.739 147.248C287.739 149.723 287.312 151.984 286.458 154.032C285.605 156.08 284.315 157.776 282.587 159.12C280.88 160.464 278.736 161.339 276.155 161.744C275.579 161.829 274.96 161.893 274.299 161.936C273.637 161.979 273.083 162 272.635 162H254.011ZM260.699 155.696H272.379C272.784 155.696 273.243 155.675 273.755 155.632C274.288 155.589 274.789 155.504 275.259 155.376C276.645 155.056 277.744 154.469 278.555 153.616C279.387 152.741 279.984 151.749 280.347 150.64C280.731 149.509 280.923 148.379 280.923 147.248C280.923 146.117 280.731 144.987 280.347 143.856C279.984 142.725 279.387 141.733 278.555 140.88C277.744 140.005 276.645 139.408 275.259 139.088C274.789 138.96 274.288 138.885 273.755 138.864C273.243 138.821 272.784 138.8 272.379 138.8H260.699V155.696ZM292.283 162V115.92H298.971V162H292.283ZM320.793 162V115.92H339.417C339.865 115.92 340.419 115.941 341.081 115.984C341.742 116.005 342.371 116.069 342.969 116.176C345.529 116.581 347.662 117.456 349.368 118.8C351.097 120.144 352.387 121.84 353.241 123.888C354.094 125.936 354.521 128.197 354.521 130.672C354.521 133.168 354.094 135.44 353.241 137.488C352.387 139.536 351.097 141.232 349.368 142.576C347.662 143.92 345.529 144.795 342.969 145.2C342.371 145.285 341.731 145.349 341.049 145.392C340.387 145.435 339.843 145.456 339.417 145.456H327.481V162H320.793ZM327.481 139.12H339.161C339.587 139.12 340.057 139.099 340.569 139.056C341.102 139.013 341.603 138.939 342.073 138.832C343.438 138.512 344.537 137.925 345.369 137.072C346.201 136.197 346.798 135.195 347.161 134.064C347.523 132.933 347.705 131.803 347.705 130.672C347.705 129.541 347.523 128.421 347.161 127.312C346.798 126.181 346.201 125.189 345.369 124.336C344.537 123.461 343.438 122.864 342.073 122.544C341.603 122.416 341.102 122.331 340.569 122.288C340.057 122.245 339.587 122.224 339.161 122.224H327.481V139.12ZM355.155 162L370.131 115.92H379.763L394.739 162H387.795L374.003 119.952H375.731L362.099 162H355.155ZM362.931 151.6V145.328H386.995V151.6H362.931ZM400.48 162V115.92H430.528V122.224H407.168V133.328H419.104C419.531 133.328 420.075 133.349 420.736 133.392C421.419 133.413 422.059 133.467 422.656 133.552C425.152 133.851 427.253 134.661 428.96 135.984C430.688 137.307 431.989 138.981 432.864 141.008C433.76 143.035 434.208 145.253 434.208 147.664C434.208 150.075 433.771 152.293 432.896 154.32C432.021 156.347 430.72 158.021 428.992 159.344C427.285 160.667 425.173 161.477 422.656 161.776C422.059 161.861 421.429 161.925 420.768 161.968C420.107 161.989 419.552 162 419.104 162H400.48ZM407.168 155.696H418.848C419.275 155.696 419.744 155.675 420.256 155.632C420.789 155.589 421.291 155.525 421.76 155.44C423.829 155.013 425.28 154.032 426.112 152.496C426.965 150.96 427.392 149.349 427.392 147.664C427.392 145.957 426.965 144.347 426.112 142.832C425.28 141.296 423.829 140.315 421.76 139.888C421.291 139.781 420.789 139.717 420.256 139.696C419.744 139.653 419.275 139.632 418.848 139.632H407.168V155.696ZM459.837 162.96C455.229 162.96 451.304 161.957 448.061 159.952C444.818 157.925 442.333 155.109 440.605 151.504C438.898 147.899 438.045 143.717 438.045 138.96C438.045 134.203 438.898 130.021 440.605 126.416C442.333 122.811 444.818 120.005 448.061 118C451.304 115.973 455.229 114.96 459.837 114.96C464.424 114.96 468.338 115.973 471.581 118C474.845 120.005 477.33 122.811 479.037 126.416C480.744 130.021 481.597 134.203 481.597 138.96C481.597 143.717 480.744 147.899 479.037 151.504C477.33 155.109 474.845 157.925 471.581 159.952C468.338 161.957 464.424 162.96 459.837 162.96ZM459.837 156.592C463.101 156.635 465.81 155.92 467.965 154.448C470.141 152.955 471.773 150.885 472.861 148.24C473.949 145.573 474.493 142.48 474.493 138.96C474.493 135.44 473.949 132.368 472.861 129.744C471.773 127.099 470.141 125.04 467.965 123.568C465.81 122.096 463.101 121.349 459.837 121.328C456.573 121.285 453.853 122 451.677 123.472C449.522 124.944 447.901 127.013 446.813 129.68C445.725 132.347 445.17 135.44 445.149 138.96C445.128 142.48 445.661 145.563 446.749 148.208C447.837 150.832 449.469 152.88 451.645 154.352C453.842 155.824 456.573 156.571 459.837 156.592ZM498.218 162V122.224H482.89V115.92H520.234V122.224H504.906V162H498.218ZM525.323 162V115.92H532.011V132.464H543.947C544.374 132.464 544.918 132.485 545.579 132.528C546.262 132.549 546.891 132.613 547.467 132.72C550.027 133.125 552.16 134 553.867 135.344C555.595 136.688 556.886 138.384 557.739 140.432C558.614 142.48 559.051 144.752 559.051 147.248C559.051 149.723 558.624 151.984 557.771 154.032C556.918 156.08 555.627 157.776 553.899 159.12C552.192 160.464 550.048 161.339 547.467 161.744C546.891 161.829 546.272 161.893 545.611 161.936C544.95 161.979 544.395 162 543.947 162H525.323ZM532.011 155.696H543.691C544.096 155.696 544.555 155.675 545.067 155.632C545.6 155.589 546.102 155.504 546.571 155.376C547.958 155.056 549.056 154.469 549.867 153.616C550.699 152.741 551.296 151.749 551.659 150.64C552.043 149.509 552.235 148.379 552.235 147.248C552.235 146.117 552.043 144.987 551.659 143.856C551.296 142.725 550.699 141.733 549.867 140.88C549.056 140.005 547.958 139.408 546.571 139.088C546.102 138.96 545.6 138.885 545.067 138.864C544.555 138.821 544.096 138.8 543.691 138.8H532.011V155.696ZM563.595 162V115.92H570.283V162H563.595ZM592.105 162V115.92H628.745V162H622.057V122.224H598.793V162H592.105ZM656.962 162.96C652.354 162.96 648.429 161.957 645.186 159.952C641.943 157.925 639.458 155.109 637.73 151.504C636.023 147.899 635.17 143.717 635.17 138.96C635.17 134.203 636.023 130.021 637.73 126.416C639.458 122.811 641.943 120.005 645.186 118C648.429 115.973 652.354 114.96 656.962 114.96C661.549 114.96 665.463 115.973 668.706 118C671.97 120.005 674.455 122.811 676.162 126.416C677.869 130.021 678.722 134.203 678.722 138.96C678.722 143.717 677.869 147.899 676.162 151.504C674.455 155.109 671.97 157.925 668.706 159.952C665.463 161.957 661.549 162.96 656.962 162.96ZM656.962 156.592C660.226 156.635 662.935 155.92 665.09 154.448C667.266 152.955 668.898 150.885 669.986 148.24C671.074 145.573 671.618 142.48 671.618 138.96C671.618 135.44 671.074 132.368 669.986 129.744C668.898 127.099 667.266 125.04 665.09 123.568C662.935 122.096 660.226 121.349 656.962 121.328C653.698 121.285 650.978 122 648.802 123.472C646.647 124.944 645.026 127.013 643.938 129.68C642.85 132.347 642.295 135.44 642.274 138.96C642.253 142.48 642.786 145.563 643.874 148.208C644.962 150.832 646.594 152.88 648.77 154.352C650.967 155.824 653.698 156.571 656.962 156.592ZM704.337 162.96C699.729 162.96 695.804 161.957 692.561 159.952C689.318 157.925 686.833 155.109 685.105 151.504C683.398 147.899 682.545 143.717 682.545 138.96C682.545 134.203 683.398 130.021 685.105 126.416C686.833 122.811 689.318 120.005 692.561 118C695.804 115.973 699.729 114.96 704.337 114.96C709.649 114.96 714.044 116.304 717.521 118.992C721.02 121.68 723.452 125.296 724.817 129.84L718.033 131.664C717.137 128.443 715.537 125.915 713.233 124.08C710.95 122.245 707.985 121.328 704.337 121.328C701.073 121.328 698.353 122.064 696.177 123.536C694.001 125.008 692.358 127.067 691.249 129.712C690.161 132.357 689.617 135.44 689.617 138.96C689.596 142.48 690.129 145.563 691.217 148.208C692.326 150.853 693.969 152.912 696.145 154.384C698.342 155.856 701.073 156.592 704.337 156.592C707.985 156.592 710.95 155.675 713.233 153.84C715.537 151.984 717.137 149.456 718.033 146.256L724.817 148.08C723.452 152.624 721.02 156.24 717.521 158.928C714.044 161.616 709.649 162.96 704.337 162.96ZM727.405 162V156.272C728.493 156.379 729.389 156.325 730.093 156.112C730.818 155.877 731.426 155.429 731.917 154.768C732.408 154.085 732.824 153.104 733.165 151.824C733.528 150.544 733.88 148.891 734.221 146.864C734.69 144.283 735.085 141.627 735.405 138.896C735.725 136.165 735.992 133.456 736.205 130.768C736.44 128.059 736.632 125.445 736.781 122.928C736.93 120.411 737.048 118.075 737.133 115.92H767.373V162H760.685V122.224H743.405C743.298 123.931 743.17 125.84 743.021 127.952C742.872 130.064 742.69 132.304 742.477 134.672C742.264 137.04 741.997 139.483 741.677 142C741.378 144.517 740.994 147.045 740.525 149.584C740.141 151.76 739.672 153.723 739.117 155.472C738.562 157.221 737.816 158.683 736.877 159.856C735.938 161.008 734.712 161.776 733.197 162.16C731.682 162.565 729.752 162.512 727.405 162ZM776.355 162V115.92H805.795V122.224H783.043V135.152H801.955V141.456H783.043V155.696H805.795V162H776.355ZM862.549 162H855.765V127.728L833.077 162H826.293V115.92H833.077V150.16L855.765 115.92H862.549V162ZM871.48 162V115.92H878.168V135.792H901.208V115.92H907.928V162H901.208V142.096H878.168V162H871.48ZM916.918 162V115.92H935.03C937.952 115.92 940.406 116.517 942.39 117.712C944.374 118.907 945.867 120.453 946.87 122.352C947.872 124.229 948.374 126.213 948.374 128.304C948.374 130.843 947.744 133.019 946.486 134.832C945.248 136.645 943.574 137.883 941.462 138.544L941.398 136.976C944.342 137.701 946.603 139.12 948.182 141.232C949.76 143.323 950.55 145.765 950.55 148.56C950.55 151.269 950.006 153.627 948.918 155.632C947.851 157.637 946.283 159.205 944.214 160.336C942.166 161.445 939.68 162 936.758 162H916.918ZM923.702 155.632H935.734C937.248 155.632 938.603 155.344 939.798 154.768C941.014 154.192 941.963 153.371 942.646 152.304C943.35 151.216 943.702 149.925 943.702 148.432C943.702 147.045 943.392 145.797 942.774 144.688C942.176 143.557 941.302 142.672 940.15 142.032C939.019 141.371 937.686 141.04 936.15 141.04H923.702V155.632ZM923.702 134.736H934.934C936.171 134.736 937.28 134.491 938.262 134C939.264 133.488 940.054 132.763 940.63 131.824C941.227 130.864 941.526 129.712 941.526 128.368C941.526 126.576 940.928 125.104 939.734 123.952C938.539 122.8 936.939 122.224 934.934 122.224H923.702V134.736ZM956.918 162V115.92H986.358V122.224H963.606V135.152H982.518V141.456H963.606V155.696H986.358V162H956.918ZM1011.34 162.96C1006.73 162.96 1002.8 161.957 999.561 159.952C996.318 157.925 993.833 155.109 992.105 151.504C990.398 147.899 989.545 143.717 989.545 138.96C989.545 134.203 990.398 130.021 992.105 126.416C993.833 122.811 996.318 120.005 999.561 118C1002.8 115.973 1006.73 114.96 1011.34 114.96C1016.65 114.96 1021.04 116.304 1024.52 118.992C1028.02 121.68 1030.45 125.296 1031.82 129.84L1025.03 131.664C1024.14 128.443 1022.54 125.915 1020.23 124.08C1017.95 122.245 1014.99 121.328 1011.34 121.328C1008.07 121.328 1005.35 122.064 1003.18 123.536C1001 125.008 999.358 127.067 998.249 129.712C997.161 132.357 996.617 135.44 996.617 138.96C996.596 142.48 997.129 145.563 998.217 148.208C999.326 150.853 1000.97 152.912 1003.15 154.384C1005.34 155.856 1008.07 156.592 1011.34 156.592C1014.99 156.592 1017.95 155.675 1020.23 153.84C1022.54 151.984 1024.14 149.456 1025.03 146.256L1031.82 148.08C1030.45 152.624 1028.02 156.24 1024.52 158.928C1021.04 161.616 1016.65 162.96 1011.34 162.96ZM1050.34 162V122.224H1035.02V115.92H1072.36V122.224H1057.03V162H1050.34ZM1113.74 162H1106.95V127.728L1084.26 162H1077.48V115.92H1084.26V150.16L1106.95 115.92H1113.74V162ZM1122.67 162V115.92H1141.29C1141.74 115.92 1142.29 115.941 1142.96 115.984C1143.62 116.005 1144.25 116.069 1144.84 116.176C1147.4 116.581 1149.54 117.456 1151.24 118.8C1152.97 120.144 1154.26 121.84 1155.12 123.888C1155.97 125.936 1156.4 128.197 1156.4 130.672C1156.4 133.168 1155.97 135.44 1155.12 137.488C1154.26 139.536 1152.97 141.232 1151.24 142.576C1149.54 143.92 1147.4 144.795 1144.84 145.2C1144.25 145.285 1143.61 145.349 1142.92 145.392C1142.26 145.435 1141.72 145.456 1141.29 145.456H1129.36V162H1122.67ZM1129.36 139.12H1141.04C1141.46 139.12 1141.93 139.099 1142.44 139.056C1142.98 139.013 1143.48 138.939 1143.95 138.832C1145.31 138.512 1146.41 137.925 1147.24 137.072C1148.08 136.197 1148.67 135.195 1149.04 134.064C1149.4 132.933 1149.58 131.803 1149.58 130.672C1149.58 129.541 1149.4 128.421 1149.04 127.312C1148.67 126.181 1148.08 125.189 1147.24 124.336C1146.41 123.461 1145.31 122.864 1143.95 122.544C1143.48 122.416 1142.98 122.331 1142.44 122.288C1141.93 122.245 1141.46 122.224 1141.04 122.224H1129.36V139.12ZM1182.02 162.96C1177.42 162.96 1173.49 161.957 1170.25 159.952C1167.01 157.925 1164.52 155.109 1162.79 151.504C1161.09 147.899 1160.23 143.717 1160.23 138.96C1160.23 134.203 1161.09 130.021 1162.79 126.416C1164.52 122.811 1167.01 120.005 1170.25 118C1173.49 115.973 1177.42 114.96 1182.02 114.96C1186.61 114.96 1190.53 115.973 1193.77 118C1197.03 120.005 1199.52 122.811 1201.22 126.416C1202.93 130.021 1203.78 134.203 1203.78 138.96C1203.78 143.717 1202.93 147.899 1201.22 151.504C1199.52 155.109 1197.03 157.925 1193.77 159.952C1190.53 161.957 1186.61 162.96 1182.02 162.96ZM1182.02 156.592C1185.29 156.635 1188 155.92 1190.15 154.448C1192.33 152.955 1193.96 150.885 1195.05 148.24C1196.14 145.573 1196.68 142.48 1196.68 138.96C1196.68 135.44 1196.14 132.368 1195.05 129.744C1193.96 127.099 1192.33 125.04 1190.15 123.568C1188 122.096 1185.29 121.349 1182.02 121.328C1178.76 121.285 1176.04 122 1173.86 123.472C1171.71 124.944 1170.09 127.013 1169 129.68C1167.91 132.347 1167.36 135.44 1167.34 138.96C1167.32 142.48 1167.85 145.563 1168.94 148.208C1170.02 150.832 1171.66 152.88 1173.83 154.352C1176.03 155.824 1178.76 156.571 1182.02 156.592ZM1210.17 162V115.92H1228.28C1231.2 115.92 1233.66 116.517 1235.64 117.712C1237.62 118.907 1239.12 120.453 1240.12 122.352C1241.12 124.229 1241.62 126.213 1241.62 128.304C1241.62 130.843 1240.99 133.019 1239.74 134.832C1238.5 136.645 1236.82 137.883 1234.71 138.544L1234.65 136.976C1237.59 137.701 1239.85 139.12 1241.43 141.232C1243.01 143.323 1243.8 145.765 1243.8 148.56C1243.8 151.269 1243.26 153.627 1242.17 155.632C1241.1 157.637 1239.53 159.205 1237.46 160.336C1235.42 161.445 1232.93 162 1230.01 162H1210.17ZM1216.95 155.632H1228.98C1230.5 155.632 1231.85 155.344 1233.05 154.768C1234.26 154.192 1235.21 153.371 1235.9 152.304C1236.6 151.216 1236.95 149.925 1236.95 148.432C1236.95 147.045 1236.64 145.797 1236.02 144.688C1235.43 143.557 1234.55 142.672 1233.4 142.032C1232.27 141.371 1230.94 141.04 1229.4 141.04H1216.95V155.632ZM1216.95 134.736H1228.18C1229.42 134.736 1230.53 134.491 1231.51 134C1232.51 133.488 1233.3 132.763 1233.88 131.824C1234.48 130.864 1234.78 129.712 1234.78 128.368C1234.78 126.576 1234.18 125.104 1232.98 123.952C1231.79 122.8 1230.19 122.224 1228.18 122.224H1216.95V134.736ZM1246.97 162L1261.94 115.92H1271.58L1286.55 162H1279.61L1265.82 119.952H1267.54L1253.91 162H1246.97ZM1254.74 151.6V145.328H1278.81V151.6H1254.74ZM1292.29 162V115.92H1298.98V135.792H1322.02V115.92H1328.74V162H1322.02V142.096H1298.98V162H1292.29ZM1373.99 162H1367.2V127.728L1344.51 162H1337.73V115.92H1344.51V150.16L1367.2 115.92H1373.99V162ZM1415.59 162H1408.87V145.456H1395.85L1393.13 145.136C1389.37 144.475 1386.55 142.821 1384.68 140.176C1382.8 137.509 1381.86 134.341 1381.86 130.672C1381.86 128.197 1382.29 125.936 1383.14 123.888C1383.99 121.84 1385.27 120.144 1386.98 118.8C1388.69 117.456 1390.83 116.581 1393.41 116.176C1394.01 116.069 1394.64 116.005 1395.3 115.984C1395.96 115.941 1396.52 115.92 1396.97 115.92H1415.59V162ZM1388.65 162H1381L1390.98 141.52L1397.73 143.248L1388.65 162ZM1408.87 139.12V122.224H1397.22C1396.79 122.224 1396.31 122.245 1395.78 122.288C1395.27 122.331 1394.78 122.416 1394.31 122.544C1392.94 122.864 1391.85 123.461 1391.01 124.336C1390.18 125.189 1389.57 126.181 1389.19 127.312C1388.83 128.421 1388.65 129.541 1388.65 130.672C1388.65 131.803 1388.83 132.933 1389.19 134.064C1389.57 135.195 1390.18 136.197 1391.01 137.072C1391.85 137.925 1392.94 138.512 1394.31 138.832C1394.78 138.939 1395.27 139.013 1395.78 139.056C1396.31 139.099 1396.79 139.12 1397.22 139.12H1408.87Z" fill="#23374F"></path><g clip-path="url(#clip0_803_4439)"><path d="M1835.23 970H1849.85L1870 1030H1856.13L1849.35 1007.01C1835.56 1007.8 1821.83 1017.86 1815 1030L1835.23 970ZM1849.35 1007.01L1842.5 983.944L1835.48 1007.01H1849.35Z" fill="#23374F"></path></g><rect x="604" y="315" width="7" height="553" fill="#23374F"></rect><circle cx="608" cy="352" r="44.5" fill="#FBF5EE" stroke="#23374F" stroke-width="3"></circle><path d="M606.512 377V338.28L597.84 343.56V336.104L606.512 330.92H613.328V377H606.512Z" fill="#23374F"></path><path d="M684.36 370V335.44H711.336V370H707.064V339.496H688.632V370H684.36ZM729.103 370.72C726.527 370.72 724.303 370.136 722.431 368.968C720.575 367.8 719.143 366.184 718.135 364.12C717.127 362.056 716.623 359.688 716.623 357.016C716.623 354.296 717.135 351.912 718.159 349.864C719.183 347.816 720.631 346.224 722.503 345.088C724.375 343.936 726.575 343.36 729.103 343.36C731.695 343.36 733.927 343.944 735.799 345.112C737.671 346.264 739.103 347.872 740.095 349.936C741.103 351.984 741.607 354.344 741.607 357.016C741.607 359.72 741.103 362.104 740.095 364.168C739.087 366.216 737.647 367.824 735.775 368.992C733.903 370.144 731.679 370.72 729.103 370.72ZM729.103 366.664C731.791 366.664 733.791 365.768 735.103 363.976C736.415 362.184 737.071 359.864 737.071 357.016C737.071 354.088 736.407 351.76 735.079 350.032C733.751 348.288 731.759 347.416 729.103 347.416C727.295 347.416 725.807 347.824 724.639 348.64C723.471 349.456 722.599 350.584 722.023 352.024C721.447 353.464 721.159 355.128 721.159 357.016C721.159 359.928 721.831 362.264 723.175 364.024C724.519 365.784 726.495 366.664 729.103 366.664ZM746.867 370L746.891 344.08H751.211V356.56L762.083 344.08H767.627L756.179 357.04L768.971 370H762.995L751.211 357.52V370H746.867ZM774.96 381.52L779.976 367.888L780.048 371.92L768.72 344.08H773.208L782.088 366.472H780.552L788.88 344.08H793.224L779.112 381.52H774.96ZM797.164 370V344.08H818.404V370H814.132V348.136H801.436V370H797.164ZM825.102 370L825.126 344.08H829.446V356.56L840.318 344.08H845.862L834.414 357.04L847.206 370H841.23L829.446 357.52V370H825.102ZM856.962 370.72C855.026 370.72 853.402 370.368 852.09 369.664C850.794 368.944 849.81 368 849.138 366.832C848.482 365.664 848.154 364.384 848.154 362.992C848.154 361.632 848.41 360.456 848.922 359.464C849.45 358.456 850.186 357.624 851.13 356.968C852.074 356.296 853.202 355.768 854.514 355.384C855.746 355.048 857.122 354.76 858.642 354.52C860.178 354.264 861.73 354.032 863.298 353.824C864.866 353.616 866.33 353.416 867.69 353.224L866.154 354.112C866.202 351.808 865.738 350.104 864.762 349C863.802 347.896 862.138 347.344 859.77 347.344C858.202 347.344 856.826 347.704 855.642 348.424C854.474 349.128 853.65 350.28 853.17 351.88L849.114 350.656C849.738 348.384 850.946 346.6 852.738 345.304C854.53 344.008 856.89 343.36 859.818 343.36C862.17 343.36 864.186 343.784 865.866 344.632C867.562 345.464 868.778 346.728 869.514 348.424C869.882 349.224 870.114 350.096 870.21 351.04C870.306 351.968 870.354 352.944 870.354 353.968V370H866.562V363.784L867.45 364.36C866.474 366.456 865.106 368.04 863.346 369.112C861.602 370.184 859.474 370.72 856.962 370.72ZM857.61 367.144C859.146 367.144 860.474 366.872 861.594 366.328C862.73 365.768 863.642 365.04 864.33 364.144C865.018 363.232 865.466 362.24 865.674 361.168C865.914 360.368 866.042 359.48 866.058 358.504C866.09 357.512 866.106 356.752 866.106 356.224L867.594 356.872C866.202 357.064 864.834 357.248 863.49 357.424C862.146 357.6 860.874 357.792 859.674 358C858.474 358.192 857.394 358.424 856.434 358.696C855.73 358.92 855.066 359.208 854.442 359.56C853.834 359.912 853.338 360.368 852.954 360.928C852.586 361.472 852.402 362.152 852.402 362.968C852.402 363.672 852.578 364.344 852.93 364.984C853.298 365.624 853.858 366.144 854.61 366.544C855.378 366.944 856.378 367.144 857.61 367.144ZM897.244 370.72C894.668 370.72 892.444 370.136 890.572 368.968C888.716 367.8 887.284 366.184 886.276 364.12C885.268 362.056 884.764 359.688 884.764 357.016C884.764 354.296 885.276 351.912 886.3 349.864C887.324 347.816 888.772 346.224 890.644 345.088C892.516 343.936 894.716 343.36 897.244 343.36C899.836 343.36 902.068 343.944 903.94 345.112C905.812 346.264 907.244 347.872 908.236 349.936C909.244 351.984 909.748 354.344 909.748 357.016C909.748 359.72 909.244 362.104 908.236 364.168C907.228 366.216 905.788 367.824 903.916 368.992C902.044 370.144 899.82 370.72 897.244 370.72ZM897.244 366.664C899.932 366.664 901.932 365.768 903.244 363.976C904.556 362.184 905.212 359.864 905.212 357.016C905.212 354.088 904.548 351.76 903.22 350.032C901.892 348.288 899.9 347.416 897.244 347.416C895.436 347.416 893.948 347.824 892.78 348.64C891.612 349.456 890.74 350.584 890.164 352.024C889.588 353.464 889.3 355.128 889.3 357.016C889.3 359.928 889.972 362.264 891.316 364.024C892.66 365.784 894.636 366.664 897.244 366.664ZM925.568 370.744C923.12 370.728 921.032 370.2 919.304 369.16C917.576 368.104 916.232 366.56 915.272 364.528C914.312 362.496 913.776 360.008 913.664 357.064C913.6 355.704 913.616 354.208 913.712 352.576C913.824 350.944 914 349.376 914.24 347.872C914.496 346.368 914.816 345.128 915.2 344.152C915.632 342.984 916.24 341.904 917.024 340.912C917.824 339.904 918.72 339.072 919.712 338.416C920.72 337.728 921.848 337.192 923.096 336.808C924.344 336.424 925.648 336.128 927.008 335.92C928.384 335.696 929.76 335.504 931.136 335.344C932.512 335.168 933.824 334.96 935.072 334.72L935.504 338.56C934.624 338.752 933.584 338.92 932.384 339.064C931.184 339.192 929.936 339.344 928.64 339.52C927.36 339.696 926.128 339.944 924.944 340.264C923.776 340.568 922.768 340.992 921.92 341.536C920.672 342.288 919.712 343.416 919.04 344.92C918.384 346.408 917.984 348.08 917.84 349.936C918.832 348.4 920.12 347.272 921.704 346.552C923.288 345.832 924.976 345.472 926.768 345.472C929.088 345.472 931.088 346.016 932.768 347.104C934.448 348.176 935.736 349.656 936.632 351.544C937.544 353.432 938 355.584 938 358C938 360.56 937.488 362.8 936.464 364.72C935.44 366.64 933.992 368.128 932.12 369.184C930.264 370.24 928.08 370.76 925.568 370.744ZM925.832 366.688C928.344 366.688 930.248 365.912 931.544 364.36C932.84 362.792 933.488 360.712 933.488 358.12C933.488 355.464 932.816 353.376 931.472 351.856C930.128 350.32 928.24 349.552 925.808 349.552C923.344 349.552 921.456 350.32 920.144 351.856C918.848 353.376 918.2 355.464 918.2 358.12C918.2 360.792 918.856 362.888 920.168 364.408C921.48 365.928 923.368 366.688 925.832 366.688ZM944.522 370L944.498 347.608H940.898V344.08H948.794V353.464H954.386C955.138 353.464 955.906 353.48 956.69 353.512C957.474 353.544 958.154 353.616 958.73 353.728C960.074 353.984 961.25 354.432 962.258 355.072C963.266 355.712 964.05 356.584 964.609 357.688C965.17 358.776 965.45 360.128 965.45 361.744C965.45 363.984 964.866 365.76 963.698 367.072C962.546 368.368 961.034 369.232 959.162 369.664C958.522 369.808 957.786 369.904 956.954 369.952C956.138 369.984 955.362 370 954.626 370H944.522ZM948.794 366.472H954.698C955.178 366.472 955.714 366.456 956.306 366.424C956.898 366.392 957.426 366.312 957.89 366.184C958.706 365.944 959.434 365.472 960.074 364.768C960.73 364.064 961.058 363.056 961.058 361.744C961.058 360.416 960.738 359.392 960.098 358.672C959.474 357.952 958.65 357.48 957.626 357.256C957.162 357.144 956.674 357.072 956.162 357.04C955.65 357.008 955.162 356.992 954.698 356.992H948.794V366.472ZM981.951 370.72C979.407 370.72 977.183 370.16 975.279 369.04C973.391 367.904 971.919 366.328 970.863 364.312C969.807 362.28 969.279 359.912 969.279 357.208C969.279 354.376 969.799 351.928 970.839 349.864C971.879 347.784 973.327 346.184 975.183 345.064C977.055 343.928 979.247 343.36 981.759 343.36C984.367 343.36 986.583 343.96 988.407 345.16C990.247 346.36 991.623 348.072 992.535 350.296C993.463 352.52 993.863 355.168 993.735 358.24H989.415V356.704C989.367 353.52 988.719 351.144 987.471 349.576C986.223 347.992 984.367 347.2 981.903 347.2C979.263 347.2 977.255 348.048 975.879 349.744C974.503 351.44 973.815 353.872 973.815 357.04C973.815 360.096 974.503 362.464 975.879 364.144C977.255 365.824 979.215 366.664 981.759 366.664C983.471 366.664 984.959 366.272 986.223 365.488C987.487 364.704 988.479 363.576 989.199 362.104L993.303 363.52C992.295 365.808 990.775 367.584 988.743 368.848C986.727 370.096 984.463 370.72 981.951 370.72ZM972.375 358.24V354.808H991.527V358.24H972.375ZM999.055 370L999.079 344.08H1003.4V356.56L1014.27 344.08H1019.81L1008.37 357.04L1021.16 370H1015.18L1003.4 357.52V370H999.055ZM1030.41 370V347.968H1021.39V344.08H1043.71V347.968H1034.68V370H1030.41ZM1054.77 370.72C1052.84 370.72 1051.21 370.368 1049.9 369.664C1048.61 368.944 1047.62 368 1046.95 366.832C1046.29 365.664 1045.97 364.384 1045.97 362.992C1045.97 361.632 1046.22 360.456 1046.73 359.464C1047.26 358.456 1048 357.624 1048.94 356.968C1049.89 356.296 1051.01 355.768 1052.33 355.384C1053.56 355.048 1054.93 354.76 1056.45 354.52C1057.99 354.264 1059.54 354.032 1061.11 353.824C1062.68 353.616 1064.14 353.416 1065.5 353.224L1063.97 354.112C1064.01 351.808 1063.55 350.104 1062.57 349C1061.61 347.896 1059.95 347.344 1057.58 347.344C1056.01 347.344 1054.64 347.704 1053.45 348.424C1052.29 349.128 1051.46 350.28 1050.98 351.88L1046.93 350.656C1047.55 348.384 1048.76 346.6 1050.55 345.304C1052.34 344.008 1054.7 343.36 1057.63 343.36C1059.98 343.36 1062 343.784 1063.68 344.632C1065.37 345.464 1066.59 346.728 1067.33 348.424C1067.69 349.224 1067.93 350.096 1068.02 351.04C1068.12 351.968 1068.17 352.944 1068.17 353.968V370H1064.37V363.784L1065.26 364.36C1064.29 366.456 1062.92 368.04 1061.16 369.112C1059.41 370.184 1057.29 370.72 1054.77 370.72ZM1055.42 367.144C1056.96 367.144 1058.29 366.872 1059.41 366.328C1060.54 365.768 1061.45 365.04 1062.14 364.144C1062.83 363.232 1063.28 362.24 1063.49 361.168C1063.73 360.368 1063.85 359.48 1063.87 358.504C1063.9 357.512 1063.92 356.752 1063.92 356.224L1065.41 356.872C1064.01 357.064 1062.65 357.248 1061.3 357.424C1059.96 357.6 1058.69 357.792 1057.49 358C1056.29 358.192 1055.21 358.424 1054.25 358.696C1053.54 358.92 1052.88 359.208 1052.25 359.56C1051.65 359.912 1051.15 360.368 1050.77 360.928C1050.4 361.472 1050.21 362.152 1050.21 362.968C1050.21 363.672 1050.39 364.344 1050.74 364.984C1051.11 365.624 1051.67 366.144 1052.42 366.544C1053.19 366.944 1054.19 367.144 1055.42 367.144Z" fill="#23374F"></path><circle cx="608" cy="474" r="44.5" fill="#FBF5EE" stroke="#23374F" stroke-width="3"></circle><path d="M591.419 498.968L591.451 493.016L611.515 475.032C613.136 473.603 614.235 472.237 614.811 470.936C615.408 469.635 615.707 468.333 615.707 467.032C615.707 465.389 615.344 463.917 614.619 462.616C613.893 461.293 612.891 460.248 611.611 459.48C610.331 458.712 608.859 458.328 607.195 458.328C605.488 458.328 603.963 458.733 602.619 459.544C601.296 460.333 600.261 461.389 599.515 462.712C598.768 464.035 598.405 465.464 598.427 467H591.579C591.579 464.013 592.251 461.4 593.595 459.16C594.96 456.899 596.827 455.139 599.195 453.88C601.563 452.6 604.272 451.96 607.323 451.96C610.224 451.96 612.827 452.621 615.131 453.944C617.435 455.245 619.248 457.037 620.571 459.32C621.915 461.603 622.587 464.205 622.587 467.128C622.587 469.24 622.309 471.032 621.755 472.504C621.2 473.976 620.368 475.341 619.259 476.6C618.149 477.859 616.763 479.224 615.099 480.696L599.611 494.52L598.875 492.6H622.587V498.968H591.419Z" fill="#23374F"></path><path d="M686.36 492V457.44H713.336V492H709.064V461.496H690.632V492H686.36ZM731.967 492.72C729.535 492.72 727.487 492.12 725.823 490.92C724.159 489.704 722.895 488.064 722.031 486C721.183 483.92 720.759 481.592 720.759 479.016C720.759 476.408 721.183 474.072 722.031 472.008C722.895 469.944 724.159 468.32 725.823 467.136C727.503 465.952 729.559 465.36 731.991 465.36C734.391 465.36 736.455 465.96 738.183 467.16C739.927 468.344 741.263 469.968 742.191 472.032C743.119 474.096 743.583 476.424 743.583 479.016C743.583 481.608 743.119 483.936 742.191 486C741.263 488.064 739.927 489.704 738.183 490.92C736.455 492.12 734.383 492.72 731.967 492.72ZM720.039 503.52V466.08H723.855V485.16H724.335V503.52H720.039ZM731.439 488.808C733.151 488.808 734.567 488.376 735.687 487.512C736.807 486.648 737.647 485.48 738.207 484.008C738.767 482.52 739.047 480.856 739.047 479.016C739.047 477.192 738.767 475.544 738.207 474.072C737.663 472.6 736.815 471.432 735.663 470.568C734.527 469.704 733.079 469.272 731.319 469.272C729.639 469.272 728.247 469.688 727.143 470.52C726.039 471.336 725.215 472.48 724.671 473.952C724.127 475.408 723.855 477.096 723.855 479.016C723.855 480.904 724.119 482.592 724.647 484.08C725.191 485.552 726.023 486.712 727.143 487.56C728.263 488.392 729.695 488.808 731.439 488.808ZM759.884 492.72C757.308 492.72 755.084 492.136 753.212 490.968C751.356 489.8 749.924 488.184 748.916 486.12C747.908 484.056 747.404 481.688 747.404 479.016C747.404 476.296 747.916 473.912 748.94 471.864C749.964 469.816 751.412 468.224 753.284 467.088C755.156 465.936 757.356 465.36 759.884 465.36C762.476 465.36 764.708 465.944 766.58 467.112C768.452 468.264 769.884 469.872 770.876 471.936C771.884 473.984 772.388 476.344 772.388 479.016C772.388 481.72 771.884 484.104 770.876 486.168C769.868 488.216 768.428 489.824 766.556 490.992C764.684 492.144 762.46 492.72 759.884 492.72ZM759.884 488.664C762.572 488.664 764.572 487.768 765.884 485.976C767.196 484.184 767.852 481.864 767.852 479.016C767.852 476.088 767.188 473.76 765.86 472.032C764.532 470.288 762.54 469.416 759.884 469.416C758.076 469.416 756.588 469.824 755.42 470.64C754.252 471.456 753.38 472.584 752.804 474.024C752.228 475.464 751.94 477.128 751.94 479.016C751.94 481.928 752.612 484.264 753.956 486.024C755.3 487.784 757.276 488.664 759.884 488.664ZM788.905 492.72C786.361 492.72 784.137 492.16 782.233 491.04C780.345 489.904 778.873 488.328 777.817 486.312C776.761 484.28 776.233 481.912 776.233 479.208C776.233 476.376 776.753 473.928 777.793 471.864C778.833 469.784 780.281 468.184 782.137 467.064C784.009 465.928 786.201 465.36 788.713 465.36C791.321 465.36 793.537 465.96 795.361 467.16C797.201 468.36 798.577 470.072 799.489 472.296C800.417 474.52 800.817 477.168 800.689 480.24H796.369V478.704C796.321 475.52 795.673 473.144 794.425 471.576C793.177 469.992 791.321 469.2 788.857 469.2C786.217 469.2 784.209 470.048 782.833 471.744C781.457 473.44 780.769 475.872 780.769 479.04C780.769 482.096 781.457 484.464 782.833 486.144C784.209 487.824 786.169 488.664 788.713 488.664C790.425 488.664 791.913 488.272 793.177 487.488C794.441 486.704 795.433 485.576 796.153 484.104L800.257 485.52C799.249 487.808 797.729 489.584 795.697 490.848C793.681 492.096 791.417 492.72 788.905 492.72ZM779.329 480.24V476.808H798.481V480.24H779.329ZM806.008 492L806.032 466.08H810.352V478.56L821.224 466.08H826.768L815.32 479.04L828.112 492H822.136L810.352 479.52V492H806.008ZM837.365 492V469.968H828.341V466.08H850.661V469.968H841.637V492H837.365ZM855.18 492V466.08H859.452V477H873.084V466.08H877.356V492H873.084V481.056H859.452V492H855.18ZM891.447 492.72C889.511 492.72 887.887 492.368 886.575 491.664C885.279 490.944 884.295 490 883.623 488.832C882.967 487.664 882.639 486.384 882.639 484.992C882.639 483.632 882.895 482.456 883.407 481.464C883.935 480.456 884.671 479.624 885.615 478.968C886.559 478.296 887.687 477.768 888.999 477.384C890.231 477.048 891.607 476.76 893.127 476.52C894.663 476.264 896.215 476.032 897.783 475.824C899.351 475.616 900.815 475.416 902.175 475.224L900.639 476.112C900.687 473.808 900.223 472.104 899.247 471C898.287 469.896 896.623 469.344 894.255 469.344C892.687 469.344 891.311 469.704 890.127 470.424C888.959 471.128 888.135 472.28 887.655 473.88L883.599 472.656C884.223 470.384 885.431 468.6 887.223 467.304C889.015 466.008 891.375 465.36 894.303 465.36C896.655 465.36 898.671 465.784 900.351 466.632C902.047 467.464 903.263 468.728 903.999 470.424C904.367 471.224 904.599 472.096 904.695 473.04C904.791 473.968 904.839 474.944 904.839 475.968V492H901.047V485.784L901.935 486.36C900.959 488.456 899.591 490.04 897.831 491.112C896.087 492.184 893.959 492.72 891.447 492.72ZM892.095 489.144C893.631 489.144 894.959 488.872 896.079 488.328C897.215 487.768 898.127 487.04 898.815 486.144C899.503 485.232 899.951 484.24 900.159 483.168C900.399 482.368 900.527 481.48 900.543 480.504C900.575 479.512 900.591 478.752 900.591 478.224L902.079 478.872C900.687 479.064 899.319 479.248 897.975 479.424C896.631 479.6 895.359 479.792 894.159 480C892.959 480.192 891.879 480.424 890.919 480.696C890.215 480.92 889.551 481.208 888.927 481.56C888.319 481.912 887.823 482.368 887.439 482.928C887.071 483.472 886.887 484.152 886.887 484.968C886.887 485.672 887.063 486.344 887.415 486.984C887.783 487.624 888.343 488.144 889.095 488.544C889.863 488.944 890.863 489.144 892.095 489.144ZM927.087 492V482.616H921.495C920.839 482.616 920.111 482.592 919.311 482.544C918.527 482.48 917.791 482.392 917.103 482.28C915.231 481.928 913.647 481.104 912.351 479.808C911.071 478.512 910.431 476.72 910.431 474.432C910.431 472.208 911.031 470.424 912.231 469.08C913.447 467.72 914.943 466.84 916.719 466.44C917.519 466.248 918.327 466.144 919.143 466.128C919.975 466.096 920.679 466.08 921.255 466.08H931.359L931.383 492H927.087ZM909.639 492L916.527 481.44H921.135L914.247 492H909.639ZM921.183 479.088H927.087V469.608H921.183C920.815 469.608 920.327 469.624 919.719 469.656C919.127 469.688 918.559 469.784 918.015 469.944C917.503 470.088 916.999 470.352 916.503 470.736C916.023 471.12 915.623 471.616 915.303 472.224C914.983 472.832 914.823 473.552 914.823 474.384C914.823 475.584 915.159 476.56 915.831 477.312C916.503 478.048 917.319 478.544 918.279 478.8C918.807 478.928 919.327 479.008 919.839 479.04C920.367 479.072 920.815 479.088 921.183 479.088ZM945.815 497.76V488.472C947.271 488.472 948.311 488 948.935 487.056C949.559 486.096 950.063 484.52 950.447 482.328C950.703 480.952 950.911 479.48 951.071 477.912C951.231 476.344 951.367 474.6 951.479 472.68C951.607 470.744 951.727 468.544 951.839 466.08H969.695V488.472H972.215V497.76H968.135V492H949.895V497.76H945.815ZM952.391 488.472H965.423V469.608H955.703C955.655 470.744 955.591 471.936 955.511 473.184C955.431 474.416 955.335 475.648 955.223 476.88C955.127 478.112 955.007 479.28 954.863 480.384C954.735 481.472 954.583 482.448 954.407 483.312C954.199 484.512 953.959 485.528 953.687 486.36C953.415 487.192 952.983 487.896 952.391 488.472ZM988.072 492.72C985.496 492.72 983.272 492.136 981.4 490.968C979.544 489.8 978.112 488.184 977.104 486.12C976.096 484.056 975.592 481.688 975.592 479.016C975.592 476.296 976.104 473.912 977.128 471.864C978.152 469.816 979.6 468.224 981.472 467.088C983.344 465.936 985.544 465.36 988.072 465.36C990.664 465.36 992.896 465.944 994.768 467.112C996.64 468.264 998.072 469.872 999.064 471.936C1000.07 473.984 1000.58 476.344 1000.58 479.016C1000.58 481.72 1000.07 484.104 999.064 486.168C998.056 488.216 996.616 489.824 994.744 490.992C992.872 492.144 990.648 492.72 988.072 492.72ZM988.072 488.664C990.76 488.664 992.76 487.768 994.072 485.976C995.384 484.184 996.04 481.864 996.04 479.016C996.04 476.088 995.376 473.76 994.048 472.032C992.72 470.288 990.728 469.416 988.072 469.416C986.264 469.416 984.776 469.824 983.608 470.64C982.44 471.456 981.568 472.584 980.992 474.024C980.416 475.464 980.128 477.128 980.128 479.016C980.128 481.928 980.8 484.264 982.144 486.024C983.488 487.784 985.464 488.664 988.072 488.664ZM1005.84 492L1005.86 466.08H1010.18V478.56L1021.05 466.08H1026.6L1015.15 479.04L1027.94 492H1021.96L1010.18 479.52V492H1005.84ZM1033.93 503.52L1038.94 489.888L1039.02 493.92L1027.69 466.08H1032.18L1041.06 488.472H1039.52L1047.85 466.08H1052.19L1038.08 503.52H1033.93ZM1056.13 492V466.08H1059.8L1069.64 486.192L1079.48 466.08H1083.16V492H1079.03V474.984L1070.77 492H1068.52L1060.26 474.984V492H1056.13ZM1101.09 492.72C1098.55 492.72 1096.32 492.16 1094.42 491.04C1092.53 489.904 1091.06 488.328 1090 486.312C1088.95 484.28 1088.42 481.912 1088.42 479.208C1088.42 476.376 1088.94 473.928 1089.98 471.864C1091.02 469.784 1092.47 468.184 1094.32 467.064C1096.2 465.928 1098.39 465.36 1100.9 465.36C1103.51 465.36 1105.72 465.96 1107.55 467.16C1109.39 468.36 1110.76 470.072 1111.68 472.296C1112.6 474.52 1113 477.168 1112.88 480.24H1108.56V478.704C1108.51 475.52 1107.86 473.144 1106.61 471.576C1105.36 469.992 1103.51 469.2 1101.04 469.2C1098.4 469.2 1096.4 470.048 1095.02 471.744C1093.64 473.44 1092.96 475.872 1092.96 479.04C1092.96 482.096 1093.64 484.464 1095.02 486.144C1096.4 487.824 1098.36 488.664 1100.9 488.664C1102.61 488.664 1104.1 488.272 1105.36 487.488C1106.63 486.704 1107.62 485.576 1108.34 484.104L1112.44 485.52C1111.44 487.808 1109.92 489.584 1107.88 490.848C1105.87 492.096 1103.6 492.72 1101.09 492.72ZM1091.52 480.24V476.808H1110.67V480.24H1091.52ZM1118.2 492V466.08H1122.47V477H1136.1V466.08H1140.37V492H1136.1V481.056H1122.47V492H1118.2ZM1153.96 492V469.968H1144.93V466.08H1167.25V469.968H1158.23V492H1153.96ZM1178.32 492.72C1176.39 492.72 1174.76 492.368 1173.45 491.664C1172.15 490.944 1171.17 490 1170.5 488.832C1169.84 487.664 1169.51 486.384 1169.51 484.992C1169.51 483.632 1169.77 482.456 1170.28 481.464C1170.81 480.456 1171.55 479.624 1172.49 478.968C1173.43 478.296 1174.56 477.768 1175.87 477.384C1177.11 477.048 1178.48 476.76 1180 476.52C1181.54 476.264 1183.09 476.032 1184.66 475.824C1186.23 475.616 1187.69 475.416 1189.05 475.224L1187.51 476.112C1187.56 473.808 1187.1 472.104 1186.12 471C1185.16 469.896 1183.5 469.344 1181.13 469.344C1179.56 469.344 1178.19 469.704 1177 470.424C1175.83 471.128 1175.01 472.28 1174.53 473.88L1170.47 472.656C1171.1 470.384 1172.31 468.6 1174.1 467.304C1175.89 466.008 1178.25 465.36 1181.18 465.36C1183.53 465.36 1185.55 465.784 1187.23 466.632C1188.92 467.464 1190.14 468.728 1190.87 470.424C1191.24 471.224 1191.47 472.096 1191.57 473.04C1191.67 473.968 1191.71 474.944 1191.71 475.968V492H1187.92V485.784L1188.81 486.36C1187.83 488.456 1186.47 490.04 1184.71 491.112C1182.96 492.184 1180.83 492.72 1178.32 492.72ZM1178.97 489.144C1180.51 489.144 1181.83 488.872 1182.95 488.328C1184.09 487.768 1185 487.04 1185.69 486.144C1186.38 485.232 1186.83 484.24 1187.03 483.168C1187.27 482.368 1187.4 481.48 1187.42 480.504C1187.45 479.512 1187.47 478.752 1187.47 478.224L1188.95 478.872C1187.56 479.064 1186.19 479.248 1184.85 479.424C1183.51 479.6 1182.23 479.792 1181.03 480C1179.83 480.192 1178.75 480.424 1177.79 480.696C1177.09 480.92 1176.43 481.208 1175.8 481.56C1175.19 481.912 1174.7 482.368 1174.31 482.928C1173.95 483.472 1173.76 484.152 1173.76 484.968C1173.76 485.672 1173.94 486.344 1174.29 486.984C1174.66 487.624 1175.22 488.144 1175.97 488.544C1176.74 488.944 1177.74 489.144 1178.97 489.144ZM1220.03 496.8V492H1197.93V466.08H1202.2V487.944H1214.9V466.08H1219.17V488.112H1224.31V496.8H1220.03ZM1249.36 466.08V492H1245.23V472.896L1231.65 492H1228.12V466.08H1232.25V484.92L1245.85 466.08H1249.36ZM1272.09 492V482.616H1266.49C1265.84 482.616 1265.11 482.592 1264.31 482.544C1263.53 482.48 1262.79 482.392 1262.1 482.28C1260.23 481.928 1258.65 481.104 1257.35 479.808C1256.07 478.512 1255.43 476.72 1255.43 474.432C1255.43 472.208 1256.03 470.424 1257.23 469.08C1258.45 467.72 1259.94 466.84 1261.72 466.44C1262.52 466.248 1263.33 466.144 1264.14 466.128C1264.97 466.096 1265.68 466.08 1266.25 466.08H1276.36L1276.38 492H1272.09ZM1254.64 492L1261.53 481.44H1266.13L1259.25 492H1254.64ZM1266.18 479.088H1272.09V469.608H1266.18C1265.81 469.608 1265.33 469.624 1264.72 469.656C1264.13 469.688 1263.56 469.784 1263.01 469.944C1262.5 470.088 1262 470.352 1261.5 470.736C1261.02 471.12 1260.62 471.616 1260.3 472.224C1259.98 472.832 1259.82 473.552 1259.82 474.384C1259.82 475.584 1260.16 476.56 1260.83 477.312C1261.5 478.048 1262.32 478.544 1263.28 478.8C1263.81 478.928 1264.33 479.008 1264.84 479.04C1265.37 479.072 1265.81 479.088 1266.18 479.088Z" fill="#23374F"></path><circle cx="608" cy="596" r="44.5" fill="#FBF5EE" stroke="#23374F" stroke-width="3"></circle><path d="M606.564 621.864C604.281 621.864 602.137 621.437 600.132 620.584C598.126 619.709 596.388 618.472 594.916 616.872C593.465 615.272 592.409 613.384 591.748 611.208L598.212 609.416C598.83 611.4 599.908 612.925 601.444 613.992C602.98 615.037 604.686 615.549 606.564 615.528C608.249 615.507 609.732 615.112 611.012 614.344C612.292 613.576 613.294 612.541 614.02 611.24C614.745 609.917 615.108 608.403 615.108 606.696C615.108 604.136 614.308 602.024 612.708 600.36C611.129 598.696 609.06 597.864 606.5 597.864C605.774 597.864 605.028 597.971 604.26 598.184C603.513 598.397 602.809 598.675 602.148 599.016L599.012 593.736L615.268 579.368L615.972 581.288H593.572V574.92H621.284V581.288L607.78 594.28L607.716 592.104C610.617 592.104 613.134 592.755 615.268 594.056C617.401 595.336 619.044 597.085 620.196 599.304C621.369 601.501 621.956 603.965 621.956 606.696C621.956 609.64 621.262 612.253 619.876 614.536C618.51 616.819 616.665 618.611 614.34 619.912C612.036 621.213 609.444 621.864 606.564 621.864Z" fill="#23374F"></path><path d="M684.36 614V579.44H711.336V614H707.064V583.496H688.632V614H684.36ZM729.103 614.72C726.527 614.72 724.303 614.136 722.431 612.968C720.575 611.8 719.143 610.184 718.135 608.12C717.127 606.056 716.623 603.688 716.623 601.016C716.623 598.296 717.135 595.912 718.159 593.864C719.183 591.816 720.631 590.224 722.503 589.088C724.375 587.936 726.575 587.36 729.103 587.36C731.695 587.36 733.927 587.944 735.799 589.112C737.671 590.264 739.103 591.872 740.095 593.936C741.103 595.984 741.607 598.344 741.607 601.016C741.607 603.72 741.103 606.104 740.095 608.168C739.087 610.216 737.647 611.824 735.775 612.992C733.903 614.144 731.679 614.72 729.103 614.72ZM729.103 610.664C731.791 610.664 733.791 609.768 735.103 607.976C736.415 606.184 737.071 603.864 737.071 601.016C737.071 598.088 736.407 595.76 735.079 594.032C733.751 592.288 731.759 591.416 729.103 591.416C727.295 591.416 725.807 591.824 724.639 592.64C723.471 593.456 722.599 594.584 722.023 596.024C721.447 597.464 721.159 599.128 721.159 601.016C721.159 603.928 721.831 606.264 723.175 608.024C724.519 609.784 726.495 610.664 729.103 610.664ZM744.491 614V610.328C745.451 610.504 746.179 610.472 746.675 610.232C747.187 609.976 747.563 609.536 747.803 608.912C748.059 608.272 748.267 607.472 748.427 606.512C748.699 604.992 748.931 603.296 749.123 601.424C749.331 599.552 749.515 597.504 749.675 595.28C749.851 593.04 750.011 590.64 750.155 588.08H768.275V614H764.003V592.136H754.043C753.947 593.608 753.827 595.12 753.683 596.672C753.555 598.224 753.419 599.736 753.275 601.208C753.131 602.664 752.971 604.024 752.795 605.288C752.635 606.536 752.459 607.616 752.267 608.528C751.963 610.096 751.539 611.352 750.995 612.296C750.451 613.224 749.667 613.824 748.643 614.096C747.619 614.384 746.235 614.352 744.491 614ZM778.616 625.52L783.632 611.888L783.704 615.92L772.376 588.08H776.864L785.744 610.472H784.208L792.536 588.08H796.88L782.768 625.52H778.616ZM816.444 614V604.664C815.58 605.096 814.532 605.464 813.3 605.768C812.084 606.072 810.78 606.224 809.388 606.224C806.748 606.224 804.62 605.632 803.004 604.448C801.388 603.264 800.332 601.56 799.836 599.336C799.692 598.664 799.588 597.968 799.524 597.248C799.476 596.528 799.444 595.872 799.428 595.28C799.412 594.688 799.404 594.256 799.404 593.984V588.08H803.724V593.984C803.724 594.448 803.74 595.024 803.772 595.712C803.804 596.384 803.884 597.04 804.012 597.68C804.332 599.264 804.996 600.456 806.004 601.256C807.028 602.056 808.468 602.456 810.324 602.456C811.572 602.456 812.724 602.296 813.78 601.976C814.836 601.656 815.724 601.232 816.444 600.704V588.08H820.74V614H816.444ZM838.701 614.72C836.157 614.72 833.933 614.16 832.029 613.04C830.141 611.904 828.669 610.328 827.613 608.312C826.557 606.28 826.029 603.912 826.029 601.208C826.029 598.376 826.549 595.928 827.589 593.864C828.629 591.784 830.077 590.184 831.933 589.064C833.805 587.928 835.997 587.36 838.509 587.36C841.117 587.36 843.333 587.96 845.157 589.16C846.997 590.36 848.373 592.072 849.285 594.296C850.213 596.52 850.613 599.168 850.485 602.24H846.165V600.704C846.117 597.52 845.469 595.144 844.221 593.576C842.973 591.992 841.117 591.2 838.653 591.2C836.013 591.2 834.005 592.048 832.629 593.744C831.253 595.44 830.565 597.872 830.565 601.04C830.565 604.096 831.253 606.464 832.629 608.144C834.005 609.824 835.965 610.664 838.509 610.664C840.221 610.664 841.709 610.272 842.973 609.488C844.237 608.704 845.229 607.576 845.949 606.104L850.053 607.52C849.045 609.808 847.525 611.584 845.493 612.848C843.477 614.096 841.213 614.72 838.701 614.72ZM829.125 602.24V598.808H848.277V602.24H829.125ZM855.805 614V588.08H860.077V599H873.709V588.08H877.981V614H873.709V603.056H860.077V614H855.805ZM905.92 588.08V614H901.792V594.896L888.208 614H884.68V588.08H888.808V606.92L902.416 588.08H905.92ZM923.873 614.72C921.329 614.72 919.105 614.16 917.201 613.04C915.313 611.904 913.841 610.328 912.785 608.312C911.729 606.28 911.201 603.912 911.201 601.208C911.201 598.376 911.721 595.928 912.761 593.864C913.801 591.784 915.249 590.184 917.105 589.064C918.977 587.928 921.169 587.36 923.681 587.36C926.289 587.36 928.505 587.96 930.329 589.16C932.169 590.36 933.545 592.072 934.457 594.296C935.385 596.52 935.785 599.168 935.657 602.24H931.337V600.704C931.289 597.52 930.641 595.144 929.393 593.576C928.145 591.992 926.289 591.2 923.825 591.2C921.185 591.2 919.177 592.048 917.801 593.744C916.425 595.44 915.737 597.872 915.737 601.04C915.737 604.096 916.425 606.464 917.801 608.144C919.177 609.824 921.137 610.664 923.681 610.664C925.393 610.664 926.881 610.272 928.145 609.488C929.409 608.704 930.401 607.576 931.121 606.104L935.225 607.52C934.217 609.808 932.697 611.584 930.665 612.848C928.649 614.096 926.385 614.72 923.873 614.72ZM914.297 602.24V598.808H933.449V602.24H914.297ZM950.61 614V579.44H977.586V614H973.314V583.496H954.882V614H950.61ZM996.097 614V609.296C994.321 609.6 992.609 609.52 990.961 609.056C989.329 608.592 987.865 607.784 986.569 606.632C985.289 605.464 984.273 603.96 983.521 602.12C982.769 600.28 982.393 598.136 982.393 595.688C982.393 593.224 982.769 591.072 983.521 589.232C984.273 587.376 985.289 585.864 986.569 584.696C987.865 583.512 989.329 582.688 990.961 582.224C992.609 581.744 994.321 581.656 996.097 581.96V579.44H1000.35V581.96C1002.12 581.656 1003.83 581.744 1005.48 582.224C1007.13 582.688 1008.59 583.512 1009.87 584.696C1011.17 585.864 1012.19 587.376 1012.95 589.232C1013.7 591.072 1014.07 593.224 1014.07 595.688C1014.07 598.136 1013.7 600.28 1012.95 602.12C1012.19 603.96 1011.17 605.464 1009.87 606.632C1008.59 607.784 1007.13 608.592 1005.48 609.056C1003.83 609.52 1002.12 609.6 1000.35 609.296V614H996.097ZM996.097 605.288V585.896C994.625 585.672 993.305 585.776 992.137 586.208C990.985 586.624 990.009 587.296 989.209 588.224C988.425 589.136 987.825 590.232 987.409 591.512C986.993 592.792 986.785 594.184 986.785 595.688C986.785 597.176 986.993 598.552 987.409 599.816C987.825 601.08 988.425 602.16 989.209 603.056C990.009 603.952 990.985 604.6 992.137 605C993.305 605.4 994.625 605.496 996.097 605.288ZM1000.35 605.288C1001.83 605.496 1003.15 605.4 1004.31 605C1005.46 604.584 1006.43 603.936 1007.23 603.056C1008.03 602.176 1008.64 601.112 1009.06 599.864C1009.47 598.6 1009.68 597.24 1009.68 595.784C1009.68 594.312 1009.47 592.936 1009.06 591.656C1008.64 590.36 1008.03 589.248 1007.23 588.32C1006.43 587.376 1005.46 586.68 1004.31 586.232C1003.15 585.784 1001.83 585.672 1000.35 585.896V605.288Z" fill="#23374F"></path><circle cx="608" cy="718" r="44.5" fill="#FBF5EE" stroke="#23374F" stroke-width="3"></circle><path d="M612.219 743V734.968H591.419V728.632L606.395 696.92H614.043L599.067 728.632H612.219V716.152H619.003V728.632H623.579V734.968H619.003V743H612.219Z" fill="#23374F"></path><path d="M685.36 736V701.44H699.016C699.352 701.44 699.752 701.456 700.216 701.488C700.68 701.504 701.128 701.552 701.56 701.632C703.432 701.92 705 702.56 706.264 703.552C707.544 704.544 708.504 705.8 709.144 707.32C709.784 708.824 710.104 710.496 710.104 712.336C710.104 714.16 709.776 715.832 709.12 717.352C708.48 718.856 707.52 720.112 706.24 721.12C704.976 722.112 703.416 722.752 701.56 723.04C701.128 723.104 700.68 723.152 700.216 723.184C699.752 723.216 699.352 723.232 699.016 723.232H689.632V736H685.36ZM689.632 719.176H698.872C699.176 719.176 699.52 719.16 699.904 719.128C700.304 719.096 700.68 719.04 701.032 718.96C702.136 718.704 703.032 718.24 703.72 717.568C704.424 716.88 704.936 716.08 705.256 715.168C705.576 714.24 705.736 713.296 705.736 712.336C705.736 711.376 705.576 710.44 705.256 709.528C704.936 708.6 704.424 707.792 703.72 707.104C703.032 706.416 702.136 705.952 701.032 705.712C700.68 705.616 700.304 705.56 699.904 705.544C699.52 705.512 699.176 705.496 698.872 705.496H689.632V719.176ZM726.123 736.72C723.579 736.72 721.355 736.16 719.451 735.04C717.563 733.904 716.091 732.328 715.035 730.312C713.979 728.28 713.451 725.912 713.451 723.208C713.451 720.376 713.971 717.928 715.011 715.864C716.051 713.784 717.499 712.184 719.355 711.064C721.227 709.928 723.419 709.36 725.931 709.36C728.539 709.36 730.755 709.96 732.579 711.16C734.419 712.36 735.795 714.072 736.707 716.296C737.635 718.52 738.035 721.168 737.907 724.24H733.587V722.704C733.539 719.52 732.891 717.144 731.643 715.576C730.395 713.992 728.539 713.2 726.075 713.2C723.435 713.2 721.427 714.048 720.051 715.744C718.675 717.44 717.987 719.872 717.987 723.04C717.987 726.096 718.675 728.464 720.051 730.144C721.427 731.824 723.387 732.664 725.931 732.664C727.643 732.664 729.131 732.272 730.395 731.488C731.659 730.704 732.651 729.576 733.371 728.104L737.475 729.52C736.467 731.808 734.947 733.584 732.915 734.848C730.899 736.096 728.635 736.72 726.123 736.72ZM716.547 724.24V720.808H735.699V724.24H716.547ZM750.15 736.72C748.214 736.72 746.59 736.368 745.278 735.664C743.982 734.944 742.998 734 742.326 732.832C741.67 731.664 741.342 730.384 741.342 728.992C741.342 727.632 741.598 726.456 742.11 725.464C742.638 724.456 743.374 723.624 744.318 722.968C745.262 722.296 746.39 721.768 747.702 721.384C748.934 721.048 750.31 720.76 751.83 720.52C753.366 720.264 754.918 720.032 756.486 719.824C758.054 719.616 759.518 719.416 760.878 719.224L759.342 720.112C759.39 717.808 758.926 716.104 757.95 715C756.99 713.896 755.326 713.344 752.958 713.344C751.39 713.344 750.014 713.704 748.83 714.424C747.662 715.128 746.838 716.28 746.358 717.88L742.302 716.656C742.926 714.384 744.134 712.6 745.926 711.304C747.718 710.008 750.078 709.36 753.006 709.36C755.358 709.36 757.374 709.784 759.054 710.632C760.75 711.464 761.966 712.728 762.702 714.424C763.07 715.224 763.302 716.096 763.398 717.04C763.494 717.968 763.542 718.944 763.542 719.968V736H759.75V729.784L760.638 730.36C759.662 732.456 758.294 734.04 756.534 735.112C754.79 736.184 752.662 736.72 750.15 736.72ZM750.798 733.144C752.334 733.144 753.662 732.872 754.782 732.328C755.918 731.768 756.83 731.04 757.518 730.144C758.206 729.232 758.654 728.24 758.862 727.168C759.102 726.368 759.23 725.48 759.246 724.504C759.278 723.512 759.294 722.752 759.294 722.224L760.782 722.872C759.39 723.064 758.022 723.248 756.678 723.424C755.334 723.6 754.062 723.792 752.862 724C751.662 724.192 750.582 724.424 749.622 724.696C748.918 724.92 748.254 725.208 747.63 725.56C747.022 725.912 746.526 726.368 746.142 726.928C745.774 727.472 745.59 728.152 745.59 728.968C745.59 729.672 745.766 730.344 746.118 730.984C746.486 731.624 747.046 732.144 747.798 732.544C748.566 732.944 749.566 733.144 750.798 733.144ZM767.382 736V732.328C768.342 732.504 769.07 732.472 769.566 732.232C770.078 731.976 770.454 731.536 770.694 730.912C770.95 730.272 771.158 729.472 771.318 728.512C771.59 726.992 771.822 725.296 772.014 723.424C772.222 721.552 772.406 719.504 772.566 717.28C772.742 715.04 772.902 712.64 773.046 710.08H791.166V736H786.894V714.136H776.934C776.838 715.608 776.718 717.12 776.574 718.672C776.446 720.224 776.31 721.736 776.166 723.208C776.022 724.664 775.862 726.024 775.686 727.288C775.526 728.536 775.35 729.616 775.158 730.528C774.854 732.096 774.43 733.352 773.886 734.296C773.342 735.224 772.558 735.824 771.534 736.096C770.51 736.384 769.126 736.352 767.382 736ZM819.123 710.08V736H814.995V716.896L801.411 736H797.883V710.08H802.011V728.92L815.619 710.08H819.123ZM835.132 736.72C832.572 736.72 830.308 736.168 828.34 735.064C826.372 733.944 824.82 732.408 823.684 730.456L827.092 728.248C828.036 729.672 829.164 730.768 830.476 731.536C831.788 732.288 833.284 732.664 834.964 732.664C836.724 732.664 838.124 732.264 839.164 731.464C840.204 730.648 840.724 729.552 840.724 728.176C840.724 727.152 840.468 726.368 839.956 725.824C839.444 725.28 838.708 724.904 837.748 724.696C836.788 724.488 835.644 724.384 834.316 724.384H831.628V720.856H834.292C835.972 720.856 837.34 720.584 838.396 720.04C839.452 719.496 839.98 718.568 839.98 717.256C839.98 715.912 839.484 714.936 838.492 714.328C837.516 713.704 836.348 713.392 834.988 713.392C833.548 713.392 832.172 713.696 830.86 714.304C829.548 714.896 828.42 715.648 827.476 716.56L824.884 713.656C826.228 712.28 827.772 711.224 829.516 710.488C831.276 709.736 833.188 709.36 835.252 709.36C836.916 709.36 838.436 709.656 839.812 710.248C841.204 710.824 842.308 711.68 843.124 712.816C843.956 713.936 844.372 715.304 844.372 716.92C844.372 718.296 844.052 719.52 843.412 720.592C842.772 721.664 841.828 722.6 840.58 723.4L840.412 721.888C841.468 722.144 842.34 722.616 843.028 723.304C843.732 723.976 844.252 724.776 844.588 725.704C844.924 726.632 845.092 727.6 845.092 728.608C845.092 730.304 844.644 731.76 843.748 732.976C842.868 734.176 841.676 735.104 840.172 735.76C838.668 736.4 836.988 736.72 835.132 736.72ZM857.728 736.72C855.792 736.72 854.168 736.368 852.856 735.664C851.56 734.944 850.576 734 849.904 732.832C849.248 731.664 848.92 730.384 848.92 728.992C848.92 727.632 849.176 726.456 849.688 725.464C850.216 724.456 850.952 723.624 851.896 722.968C852.84 722.296 853.968 721.768 855.28 721.384C856.512 721.048 857.888 720.76 859.408 720.52C860.944 720.264 862.496 720.032 864.064 719.824C865.632 719.616 867.096 719.416 868.456 719.224L866.92 720.112C866.968 717.808 866.504 716.104 865.528 715C864.568 713.896 862.904 713.344 860.536 713.344C858.968 713.344 857.592 713.704 856.408 714.424C855.24 715.128 854.416 716.28 853.936 717.88L849.88 716.656C850.504 714.384 851.712 712.6 853.504 711.304C855.296 710.008 857.656 709.36 860.584 709.36C862.936 709.36 864.952 709.784 866.632 710.632C868.328 711.464 869.544 712.728 870.28 714.424C870.648 715.224 870.88 716.096 870.976 717.04C871.072 717.968 871.12 718.944 871.12 719.968V736H867.328V729.784L868.216 730.36C867.24 732.456 865.872 734.04 864.112 735.112C862.368 736.184 860.24 736.72 857.728 736.72ZM858.376 733.144C859.912 733.144 861.24 732.872 862.36 732.328C863.496 731.768 864.408 731.04 865.096 730.144C865.784 729.232 866.232 728.24 866.44 727.168C866.68 726.368 866.808 725.48 866.824 724.504C866.856 723.512 866.872 722.752 866.872 722.224L868.36 722.872C866.968 723.064 865.6 723.248 864.256 723.424C862.912 723.6 861.64 723.792 860.44 724C859.24 724.192 858.16 724.424 857.2 724.696C856.496 724.92 855.832 725.208 855.208 725.56C854.6 725.912 854.104 726.368 853.72 726.928C853.352 727.472 853.168 728.152 853.168 728.968C853.168 729.672 853.344 730.344 853.696 730.984C854.064 731.624 854.624 732.144 855.376 732.544C856.144 732.944 857.144 733.144 858.376 733.144ZM899.44 740.8V736H877.336V710.08H881.608V731.944H894.304V710.08H898.576V732.112H903.712V740.8H899.44ZM928.764 710.08V736H924.636V716.896L911.052 736H907.524V710.08H911.652V728.92L925.26 710.08H928.764ZM951.493 736V726.616H945.901C945.245 726.616 944.517 726.592 943.717 726.544C942.933 726.48 942.197 726.392 941.509 726.28C939.637 725.928 938.053 725.104 936.757 723.808C935.477 722.512 934.837 720.72 934.837 718.432C934.837 716.208 935.437 714.424 936.637 713.08C937.853 711.72 939.349 710.84 941.125 710.44C941.925 710.248 942.733 710.144 943.549 710.128C944.381 710.096 945.085 710.08 945.661 710.08H955.765L955.789 736H951.493ZM934.045 736L940.933 725.44H945.541L938.653 736H934.045ZM945.589 723.088H951.493V713.608H945.589C945.221 713.608 944.733 713.624 944.125 713.656C943.533 713.688 942.965 713.784 942.421 713.944C941.909 714.088 941.405 714.352 940.909 714.736C940.429 715.12 940.029 715.616 939.709 716.224C939.389 716.832 939.229 717.552 939.229 718.384C939.229 719.584 939.565 720.56 940.237 721.312C940.909 722.048 941.725 722.544 942.685 722.8C943.213 722.928 943.733 723.008 944.245 723.04C944.773 723.072 945.221 723.088 945.589 723.088ZM983.181 736.72C980.605 736.72 978.381 736.136 976.509 734.968C974.653 733.8 973.221 732.184 972.213 730.12C971.205 728.056 970.701 725.688 970.701 723.016C970.701 720.296 971.213 717.912 972.237 715.864C973.261 713.816 974.709 712.224 976.581 711.088C978.453 709.936 980.653 709.36 983.181 709.36C985.773 709.36 988.005 709.944 989.877 711.112C991.749 712.264 993.181 713.872 994.173 715.936C995.181 717.984 995.685 720.344 995.685 723.016C995.685 725.72 995.181 728.104 994.173 730.168C993.165 732.216 991.725 733.824 989.853 734.992C987.981 736.144 985.757 736.72 983.181 736.72ZM983.181 732.664C985.869 732.664 987.869 731.768 989.181 729.976C990.493 728.184 991.149 725.864 991.149 723.016C991.149 720.088 990.485 717.76 989.157 716.032C987.829 714.288 985.837 713.416 983.181 713.416C981.373 713.416 979.885 713.824 978.717 714.64C977.549 715.456 976.677 716.584 976.101 718.024C975.525 719.464 975.237 721.128 975.237 723.016C975.237 725.928 975.909 728.264 977.253 730.024C978.597 731.784 980.573 732.664 983.181 732.664ZM1011.51 736.744C1009.06 736.728 1006.97 736.2 1005.24 735.16C1003.51 734.104 1002.17 732.56 1001.21 730.528C1000.25 728.496 999.713 726.008 999.601 723.064C999.537 721.704 999.553 720.208 999.649 718.576C999.761 716.944 999.937 715.376 1000.18 713.872C1000.43 712.368 1000.75 711.128 1001.14 710.152C1001.57 708.984 1002.18 707.904 1002.96 706.912C1003.76 705.904 1004.66 705.072 1005.65 704.416C1006.66 703.728 1007.79 703.192 1009.03 702.808C1010.28 702.424 1011.59 702.128 1012.95 701.92C1014.32 701.696 1015.7 701.504 1017.07 701.344C1018.45 701.168 1019.76 700.96 1021.01 700.72L1021.44 704.56C1020.56 704.752 1019.52 704.92 1018.32 705.064C1017.12 705.192 1015.87 705.344 1014.58 705.52C1013.3 705.696 1012.07 705.944 1010.88 706.264C1009.71 706.568 1008.71 706.992 1007.86 707.536C1006.61 708.288 1005.65 709.416 1004.98 710.92C1004.32 712.408 1003.92 714.08 1003.78 715.936C1004.77 714.4 1006.06 713.272 1007.64 712.552C1009.23 711.832 1010.91 711.472 1012.71 711.472C1015.03 711.472 1017.03 712.016 1018.71 713.104C1020.39 714.176 1021.67 715.656 1022.57 717.544C1023.48 719.432 1023.94 721.584 1023.94 724C1023.94 726.56 1023.43 728.8 1022.4 730.72C1021.38 732.64 1019.93 734.128 1018.06 735.184C1016.2 736.24 1014.02 736.76 1011.51 736.744ZM1011.77 732.688C1014.28 732.688 1016.19 731.912 1017.48 730.36C1018.78 728.792 1019.43 726.712 1019.43 724.12C1019.43 721.464 1018.75 719.376 1017.41 717.856C1016.07 716.32 1014.18 715.552 1011.75 715.552C1009.28 715.552 1007.39 716.32 1006.08 717.856C1004.79 719.376 1004.14 721.464 1004.14 724.12C1004.14 726.792 1004.79 728.888 1006.11 730.408C1007.42 731.928 1009.31 732.688 1011.77 732.688ZM1030.46 736L1030.44 713.608H1026.84V710.08H1034.73V719.464H1040.32C1041.08 719.464 1041.84 719.48 1042.63 719.512C1043.41 719.544 1044.09 719.616 1044.67 719.728C1046.01 719.984 1047.19 720.432 1048.2 721.072C1049.2 721.712 1049.99 722.584 1050.55 723.688C1051.11 724.776 1051.39 726.128 1051.39 727.744C1051.39 729.984 1050.8 731.76 1049.64 733.072C1048.48 734.368 1046.97 735.232 1045.1 735.664C1044.46 735.808 1043.72 735.904 1042.89 735.952C1042.08 735.984 1041.3 736 1040.56 736H1030.46ZM1034.73 732.472H1040.64C1041.12 732.472 1041.65 732.456 1042.24 732.424C1042.84 732.392 1043.36 732.312 1043.83 732.184C1044.64 731.944 1045.37 731.472 1046.01 730.768C1046.67 730.064 1047 729.056 1047 727.744C1047 726.416 1046.68 725.392 1046.04 724.672C1045.41 723.952 1044.59 723.48 1043.56 723.256C1043.1 723.144 1042.61 723.072 1042.1 723.04C1041.59 723.008 1041.1 722.992 1040.64 722.992H1034.73V732.472ZM1067.89 736.72C1065.34 736.72 1063.12 736.16 1061.22 735.04C1059.33 733.904 1057.86 732.328 1056.8 730.312C1055.74 728.28 1055.22 725.912 1055.22 723.208C1055.22 720.376 1055.74 717.928 1056.78 715.864C1057.82 713.784 1059.26 712.184 1061.12 711.064C1062.99 709.928 1065.18 709.36 1067.7 709.36C1070.3 709.36 1072.52 709.96 1074.34 711.16C1076.18 712.36 1077.56 714.072 1078.47 716.296C1079.4 718.52 1079.8 721.168 1079.67 724.24H1075.35V722.704C1075.3 719.52 1074.66 717.144 1073.41 715.576C1072.16 713.992 1070.3 713.2 1067.84 713.2C1065.2 713.2 1063.19 714.048 1061.82 715.744C1060.44 717.44 1059.75 719.872 1059.75 723.04C1059.75 726.096 1060.44 728.464 1061.82 730.144C1063.19 731.824 1065.15 732.664 1067.7 732.664C1069.41 732.664 1070.9 732.272 1072.16 731.488C1073.42 730.704 1074.42 729.576 1075.14 728.104L1079.24 729.52C1078.23 731.808 1076.71 733.584 1074.68 734.848C1072.66 736.096 1070.4 736.72 1067.89 736.72ZM1058.31 724.24V720.808H1077.46V724.24H1058.31ZM1084.99 736L1085.02 710.08H1089.34V722.56L1100.21 710.08H1105.75L1094.3 723.04L1107.1 736H1101.12L1089.34 723.52V736H1084.99ZM1116.35 736V713.968H1107.33V710.08H1129.65V713.968H1120.62V736H1116.35ZM1140.71 736.72C1138.78 736.72 1137.15 736.368 1135.84 735.664C1134.54 734.944 1133.56 734 1132.89 732.832C1132.23 731.664 1131.9 730.384 1131.9 728.992C1131.9 727.632 1132.16 726.456 1132.67 725.464C1133.2 724.456 1133.94 723.624 1134.88 722.968C1135.82 722.296 1136.95 721.768 1138.26 721.384C1139.5 721.048 1140.87 720.76 1142.39 720.52C1143.93 720.264 1145.48 720.032 1147.05 719.824C1148.62 719.616 1150.08 719.416 1151.44 719.224L1149.9 720.112C1149.95 717.808 1149.49 716.104 1148.51 715C1147.55 713.896 1145.89 713.344 1143.52 713.344C1141.95 713.344 1140.58 713.704 1139.39 714.424C1138.22 715.128 1137.4 716.28 1136.92 717.88L1132.86 716.656C1133.49 714.384 1134.7 712.6 1136.49 711.304C1138.28 710.008 1140.64 709.36 1143.57 709.36C1145.92 709.36 1147.94 709.784 1149.62 710.632C1151.31 711.464 1152.53 712.728 1153.26 714.424C1153.63 715.224 1153.86 716.096 1153.96 717.04C1154.06 717.968 1154.1 718.944 1154.1 719.968V736H1150.31V729.784L1151.2 730.36C1150.22 732.456 1148.86 734.04 1147.1 735.112C1145.35 736.184 1143.22 736.72 1140.71 736.72ZM1141.36 733.144C1142.9 733.144 1144.22 732.872 1145.34 732.328C1146.48 731.768 1147.39 731.04 1148.08 730.144C1148.77 729.232 1149.22 728.24 1149.42 727.168C1149.66 726.368 1149.79 725.48 1149.81 724.504C1149.84 723.512 1149.86 722.752 1149.86 722.224L1151.34 722.872C1149.95 723.064 1148.58 723.248 1147.24 723.424C1145.9 723.6 1144.62 723.792 1143.42 724C1142.22 724.192 1141.14 724.424 1140.18 724.696C1139.48 724.92 1138.82 725.208 1138.19 725.56C1137.58 725.912 1137.09 726.368 1136.7 726.928C1136.34 727.472 1136.15 728.152 1136.15 728.968C1136.15 729.672 1136.33 730.344 1136.68 730.984C1137.05 731.624 1137.61 732.144 1138.36 732.544C1139.13 732.944 1140.13 733.144 1141.36 733.144Z" fill="#23374F"></path><circle cx="608" cy="840" r="44.5" fill="#FBF5EE" stroke="#23374F" stroke-width="3"></circle><path d="M606.488 865.96C604.12 865.96 601.912 865.48 599.864 864.52C597.837 863.539 596.098 862.195 594.648 860.488C593.197 858.76 592.162 856.776 591.544 854.536L597.976 852.808C598.338 854.173 598.957 855.357 599.832 856.36C600.728 857.363 601.773 858.141 602.968 858.696C604.162 859.229 605.4 859.496 606.68 859.496C608.365 859.496 609.89 859.091 611.256 858.28C612.642 857.469 613.73 856.381 614.52 855.016C615.33 853.651 615.736 852.147 615.736 850.504C615.736 848.819 615.32 847.293 614.488 845.928C613.677 844.563 612.578 843.485 611.192 842.696C609.826 841.885 608.322 841.48 606.68 841.48C604.802 841.48 603.213 841.853 601.912 842.6C600.61 843.347 599.597 844.211 598.872 845.192L593.048 843.144L594.456 818.92H619.32V825.224H597.88L600.6 822.696L599.48 840.84L598.168 839.144C599.384 837.928 600.834 837 602.52 836.36C604.205 835.72 605.88 835.4 607.544 835.4C610.402 835.4 612.952 836.061 615.192 837.384C617.453 838.707 619.234 840.509 620.536 842.792C621.837 845.053 622.488 847.624 622.488 850.504C622.488 853.363 621.752 855.965 620.28 858.312C618.808 860.637 616.856 862.493 614.424 863.88C611.992 865.267 609.346 865.96 606.488 865.96Z" fill="#23374F"></path><path d="M686.36 858V823.44H699.824C701.888 823.44 703.648 823.864 705.104 824.712C706.576 825.56 707.696 826.68 708.464 828.072C709.248 829.448 709.64 830.936 709.64 832.536C709.64 834.408 709.16 836.048 708.2 837.456C707.24 838.864 705.944 839.832 704.312 840.36L704.264 839.184C706.488 839.776 708.216 840.864 709.448 842.448C710.68 844.032 711.296 845.92 711.296 848.112C711.296 850.128 710.88 851.872 710.048 853.344C709.232 854.816 708.048 855.96 706.496 856.776C704.96 857.592 703.136 858 701.024 858H686.36ZM690.68 853.92H700.208C701.488 853.92 702.632 853.688 703.64 853.224C704.648 852.744 705.44 852.072 706.016 851.208C706.608 850.344 706.904 849.304 706.904 848.088C706.904 846.92 706.64 845.872 706.112 844.944C705.6 844.016 704.872 843.28 703.928 842.736C703 842.176 701.92 841.896 700.688 841.896H690.68V853.92ZM690.68 837.864H699.776C700.8 837.864 701.72 837.648 702.536 837.216C703.368 836.768 704.024 836.144 704.504 835.344C705 834.544 705.248 833.608 705.248 832.536C705.248 831.048 704.744 829.832 703.736 828.888C702.728 827.944 701.408 827.472 699.776 827.472H690.68V837.864ZM727.119 858.72C724.543 858.72 722.319 858.136 720.447 856.968C718.591 855.8 717.159 854.184 716.151 852.12C715.143 850.056 714.639 847.688 714.639 845.016C714.639 842.296 715.151 839.912 716.175 837.864C717.199 835.816 718.647 834.224 720.519 833.088C722.391 831.936 724.591 831.36 727.119 831.36C729.711 831.36 731.943 831.944 733.815 833.112C735.687 834.264 737.119 835.872 738.111 837.936C739.119 839.984 739.623 842.344 739.623 845.016C739.623 847.72 739.119 850.104 738.111 852.168C737.103 854.216 735.663 855.824 733.791 856.992C731.919 858.144 729.695 858.72 727.119 858.72ZM727.119 854.664C729.807 854.664 731.807 853.768 733.119 851.976C734.431 850.184 735.087 847.864 735.087 845.016C735.087 842.088 734.423 839.76 733.095 838.032C731.767 836.288 729.775 835.416 727.119 835.416C725.311 835.416 723.823 835.824 722.655 836.64C721.487 837.456 720.615 838.584 720.039 840.024C719.463 841.464 719.175 843.128 719.175 845.016C719.175 847.928 719.847 850.264 721.191 852.024C722.535 853.784 724.511 854.664 727.119 854.664ZM753.586 858.72C751.026 858.72 748.762 858.168 746.794 857.064C744.826 855.944 743.274 854.408 742.138 852.456L745.546 850.248C746.49 851.672 747.618 852.768 748.93 853.536C750.242 854.288 751.738 854.664 753.418 854.664C755.178 854.664 756.578 854.264 757.618 853.464C758.658 852.648 759.178 851.552 759.178 850.176C759.178 849.152 758.922 848.368 758.41 847.824C757.898 847.28 757.162 846.904 756.202 846.696C755.242 846.488 754.098 846.384 752.77 846.384H750.082V842.856H752.746C754.426 842.856 755.794 842.584 756.85 842.04C757.906 841.496 758.434 840.568 758.434 839.256C758.434 837.912 757.938 836.936 756.946 836.328C755.97 835.704 754.802 835.392 753.442 835.392C752.002 835.392 750.626 835.696 749.314 836.304C748.002 836.896 746.874 837.648 745.93 838.56L743.338 835.656C744.682 834.28 746.226 833.224 747.97 832.488C749.73 831.736 751.642 831.36 753.706 831.36C755.37 831.36 756.89 831.656 758.266 832.248C759.658 832.824 760.762 833.68 761.578 834.816C762.41 835.936 762.826 837.304 762.826 838.92C762.826 840.296 762.506 841.52 761.866 842.592C761.226 843.664 760.282 844.6 759.034 845.4L758.866 843.888C759.922 844.144 760.794 844.616 761.482 845.304C762.186 845.976 762.706 846.776 763.042 847.704C763.378 848.632 763.546 849.6 763.546 850.608C763.546 852.304 763.098 853.76 762.202 854.976C761.322 856.176 760.13 857.104 758.626 857.76C757.122 858.4 755.442 858.72 753.586 858.72ZM768.789 858V832.08H779.829C780.485 832.08 781.189 832.12 781.941 832.2C782.709 832.264 783.405 832.384 784.029 832.56C785.421 832.928 786.565 833.688 787.461 834.84C788.373 835.976 788.829 837.416 788.829 839.16C788.829 840.136 788.677 840.984 788.373 841.704C788.085 842.424 787.669 843.048 787.125 843.576C786.885 843.816 786.621 844.032 786.333 844.224C786.045 844.416 785.757 844.568 785.469 844.68C786.029 844.776 786.597 844.992 787.173 845.328C788.085 845.824 788.797 846.52 789.309 847.416C789.837 848.312 790.101 849.456 790.101 850.848C790.101 852.608 789.677 854.064 788.829 855.216C787.981 856.352 786.813 857.136 785.325 857.568C784.701 857.744 784.013 857.864 783.261 857.928C782.509 857.976 781.781 858 781.077 858H768.789ZM773.109 854.52H780.837C781.173 854.52 781.573 854.488 782.037 854.424C782.517 854.36 782.941 854.28 783.309 854.184C784.141 853.944 784.741 853.496 785.109 852.84C785.493 852.184 785.685 851.472 785.685 850.704C785.685 849.68 785.397 848.848 784.821 848.208C784.261 847.568 783.517 847.168 782.589 847.008C782.253 846.912 781.885 846.856 781.485 846.84C781.101 846.824 780.757 846.816 780.453 846.816H773.109V854.52ZM773.109 843.288H779.541C779.989 843.288 780.461 843.264 780.957 843.216C781.453 843.152 781.885 843.048 782.253 842.904C782.989 842.632 783.525 842.184 783.861 841.56C784.213 840.92 784.389 840.224 784.389 839.472C784.389 838.64 784.197 837.912 783.813 837.288C783.445 836.648 782.877 836.208 782.109 835.968C781.597 835.776 781.021 835.672 780.381 835.656C779.757 835.624 779.357 835.608 779.181 835.608H773.109V843.288ZM806.827 858.72C804.395 858.72 802.347 858.12 800.683 856.92C799.019 855.704 797.755 854.064 796.891 852C796.043 849.92 795.619 847.592 795.619 845.016C795.619 842.408 796.043 840.072 796.891 838.008C797.755 835.944 799.019 834.32 800.683 833.136C802.363 831.952 804.419 831.36 806.851 831.36C809.251 831.36 811.315 831.96 813.043 833.16C814.787 834.344 816.123 835.968 817.051 838.032C817.979 840.096 818.443 842.424 818.443 845.016C818.443 847.608 817.979 849.936 817.051 852C816.123 854.064 814.787 855.704 813.043 856.92C811.315 858.12 809.243 858.72 806.827 858.72ZM794.899 869.52V832.08H798.715V851.16H799.195V869.52H794.899ZM806.299 854.808C808.011 854.808 809.427 854.376 810.547 853.512C811.667 852.648 812.507 851.48 813.067 850.008C813.627 848.52 813.907 846.856 813.907 845.016C813.907 843.192 813.627 841.544 813.067 840.072C812.523 838.6 811.675 837.432 810.523 836.568C809.387 835.704 807.939 835.272 806.179 835.272C804.499 835.272 803.107 835.688 802.003 836.52C800.899 837.336 800.075 838.48 799.531 839.952C798.987 841.408 798.715 843.096 798.715 845.016C798.715 846.904 798.979 848.592 799.507 850.08C800.051 851.552 800.883 852.712 802.003 853.56C803.123 854.392 804.555 854.808 806.299 854.808ZM831.072 858.72C829.136 858.72 827.512 858.368 826.2 857.664C824.904 856.944 823.92 856 823.248 854.832C822.592 853.664 822.264 852.384 822.264 850.992C822.264 849.632 822.52 848.456 823.032 847.464C823.56 846.456 824.296 845.624 825.24 844.968C826.184 844.296 827.312 843.768 828.624 843.384C829.856 843.048 831.232 842.76 832.752 842.52C834.288 842.264 835.84 842.032 837.408 841.824C838.976 841.616 840.44 841.416 841.8 841.224L840.264 842.112C840.312 839.808 839.848 838.104 838.872 837C837.912 835.896 836.248 835.344 833.88 835.344C832.312 835.344 830.936 835.704 829.752 836.424C828.584 837.128 827.76 838.28 827.28 839.88L823.224 838.656C823.848 836.384 825.056 834.6 826.848 833.304C828.64 832.008 831 831.36 833.928 831.36C836.28 831.36 838.296 831.784 839.976 832.632C841.672 833.464 842.888 834.728 843.624 836.424C843.992 837.224 844.224 838.096 844.32 839.04C844.416 839.968 844.464 840.944 844.464 841.968V858H840.672V851.784L841.56 852.36C840.584 854.456 839.216 856.04 837.456 857.112C835.712 858.184 833.584 858.72 831.072 858.72ZM831.72 855.144C833.256 855.144 834.584 854.872 835.704 854.328C836.84 853.768 837.752 853.04 838.44 852.144C839.128 851.232 839.576 850.24 839.784 849.168C840.024 848.368 840.152 847.48 840.168 846.504C840.2 845.512 840.216 844.752 840.216 844.224L841.704 844.872C840.312 845.064 838.944 845.248 837.6 845.424C836.256 845.6 834.984 845.792 833.784 846C832.584 846.192 831.504 846.424 830.544 846.696C829.84 846.92 829.176 847.208 828.552 847.56C827.944 847.912 827.448 848.368 827.064 848.928C826.696 849.472 826.512 850.152 826.512 850.968C826.512 851.672 826.688 852.344 827.04 852.984C827.408 853.624 827.968 854.144 828.72 854.544C829.488 854.944 830.488 855.144 831.72 855.144ZM857.568 858V835.968H848.544V832.08H870.864V835.968H861.84V858H857.568ZM906.232 832.08V858H902.104V838.896L888.52 858H884.992V832.08H889.12V850.92L902.728 832.08H906.232ZM912.93 858V832.08H917.202V843H930.834V832.08H935.106V858H930.834V847.056H917.202V858H912.93ZM941.805 858V832.08H952.845C953.501 832.08 954.205 832.12 954.957 832.2C955.725 832.264 956.421 832.384 957.045 832.56C958.437 832.928 959.581 833.688 960.477 834.84C961.389 835.976 961.845 837.416 961.845 839.16C961.845 840.136 961.693 840.984 961.389 841.704C961.101 842.424 960.685 843.048 960.141 843.576C959.901 843.816 959.637 844.032 959.349 844.224C959.061 844.416 958.773 844.568 958.485 844.68C959.045 844.776 959.613 844.992 960.189 845.328C961.101 845.824 961.813 846.52 962.325 847.416C962.853 848.312 963.117 849.456 963.117 850.848C963.117 852.608 962.693 854.064 961.845 855.216C960.997 856.352 959.829 857.136 958.341 857.568C957.717 857.744 957.029 857.864 956.277 857.928C955.525 857.976 954.797 858 954.093 858H941.805ZM946.125 854.52H953.853C954.189 854.52 954.589 854.488 955.053 854.424C955.533 854.36 955.957 854.28 956.325 854.184C957.157 853.944 957.757 853.496 958.125 852.84C958.509 852.184 958.701 851.472 958.701 850.704C958.701 849.68 958.413 848.848 957.837 848.208C957.277 847.568 956.533 847.168 955.605 847.008C955.269 846.912 954.901 846.856 954.501 846.84C954.117 846.824 953.773 846.816 953.469 846.816H946.125V854.52ZM946.125 843.288H952.557C953.005 843.288 953.477 843.264 953.973 843.216C954.469 843.152 954.901 843.048 955.269 842.904C956.005 842.632 956.541 842.184 956.877 841.56C957.229 840.92 957.405 840.224 957.405 839.472C957.405 838.64 957.213 837.912 956.829 837.288C956.461 836.648 955.893 836.208 955.125 835.968C954.613 835.776 954.037 835.672 953.397 835.656C952.773 835.624 952.373 835.608 952.197 835.608H946.125V843.288ZM979.17 858.72C976.626 858.72 974.402 858.16 972.498 857.04C970.61 855.904 969.138 854.328 968.082 852.312C967.026 850.28 966.498 847.912 966.498 845.208C966.498 842.376 967.018 839.928 968.058 837.864C969.098 835.784 970.546 834.184 972.402 833.064C974.274 831.928 976.466 831.36 978.978 831.36C981.586 831.36 983.802 831.96 985.626 833.16C987.466 834.36 988.842 836.072 989.754 838.296C990.682 840.52 991.082 843.168 990.954 846.24H986.634V844.704C986.586 841.52 985.938 839.144 984.69 837.576C983.442 835.992 981.586 835.2 979.122 835.2C976.482 835.2 974.474 836.048 973.098 837.744C971.722 839.44 971.034 841.872 971.034 845.04C971.034 848.096 971.722 850.464 973.098 852.144C974.474 853.824 976.434 854.664 978.978 854.664C980.69 854.664 982.178 854.272 983.442 853.488C984.706 852.704 985.698 851.576 986.418 850.104L990.522 851.52C989.514 853.808 987.994 855.584 985.962 856.848C983.946 858.096 981.682 858.72 979.17 858.72ZM969.594 846.24V842.808H988.746V846.24H969.594ZM1007.22 858.72C1004.59 858.72 1002.36 858.136 1000.52 856.968C998.698 855.784 997.306 854.16 996.346 852.096C995.386 850.032 994.89 847.68 994.858 845.04C994.89 842.336 995.394 839.96 996.37 837.912C997.362 835.848 998.778 834.24 1000.62 833.088C1002.46 831.936 1004.67 831.36 1007.27 831.36C1010 831.36 1012.35 832.032 1014.32 833.376C1016.31 834.72 1017.63 836.56 1018.31 838.896L1014.08 840.168C1013.54 838.664 1012.65 837.496 1011.42 836.664C1010.2 835.832 1008.8 835.416 1007.22 835.416C1005.44 835.416 1003.98 835.832 1002.83 836.664C1001.67 837.48 1000.82 838.616 1000.26 840.072C999.698 841.512 999.41 843.168 999.394 845.04C999.426 847.92 1000.09 850.248 1001.39 852.024C1002.7 853.784 1004.64 854.664 1007.22 854.664C1008.91 854.664 1010.32 854.28 1011.44 853.512C1012.56 852.728 1013.41 851.6 1013.99 850.128L1018.31 851.256C1017.41 853.672 1016.01 855.52 1014.11 856.8C1012.2 858.08 1009.91 858.72 1007.22 858.72ZM1029.6 858V835.968H1020.58V832.08H1042.9V835.968H1033.87V858H1029.6ZM1068.65 832.08V858H1064.53V838.896L1050.94 858H1047.41V832.08H1051.54V850.92L1065.15 832.08H1068.65ZM1097.46 862.8V858H1075.35V832.08H1079.62V853.944H1092.32V832.08H1096.59V854.112H1101.73V862.8H1097.46ZM1126.78 832.08V858H1122.65V838.896L1109.07 858H1105.54V832.08H1109.67V850.92L1123.28 832.08H1126.78ZM1144.66 829.056C1143.46 829.056 1142.36 828.76 1141.37 828.168C1140.38 827.576 1139.59 826.792 1139 825.816C1138.4 824.824 1138.11 823.72 1138.11 822.504H1141.56C1141.56 823.352 1141.87 824.08 1142.48 824.688C1143.08 825.296 1143.81 825.6 1144.66 825.6C1145.52 825.6 1146.25 825.296 1146.84 824.688C1147.45 824.08 1147.76 823.352 1147.76 822.504H1151.21C1151.21 823.72 1150.92 824.824 1150.32 825.816C1149.75 826.792 1148.96 827.576 1147.95 828.168C1146.96 828.76 1145.86 829.056 1144.66 829.056ZM1154.72 832.08V858H1150.59V838.896L1137 858H1133.48V832.08H1137.6V850.92L1151.21 832.08H1154.72Z" fill="#23374F"></path><defs><clipPath id="clip0_803_4439"><rect width="55" height="60" fill="white" transform="translate(1815 970)"></rect></clipPath></defs></svg> 