<?xml version="1.0" encoding="UTF-8"?> <svg xmlns="http://www.w3.org/2000/svg" width="564" height="564" viewBox="0 0 564 564" fill="none"><rect width="564" height="564" rx="20" fill="#23374F"></rect><path d="M42.96 343L54.192 308.44H61.416L72.648 343H67.44L57.096 311.464H58.392L48.168 343H42.96ZM48.792 335.2V330.496H66.84V335.2H48.792ZM83.6498 343V321.592H74.7938V317.08H97.5218V321.592H88.6658V343H83.6498ZM102.055 343V317.08H106.255L115.831 336.088L125.383 317.08H129.607V343H124.759V327.352L116.959 343H114.679L106.879 327.352V343H102.055ZM147.6 343.72C145.008 343.72 142.76 343.136 140.856 341.968C138.952 340.8 137.48 339.192 136.44 337.144C135.416 335.08 134.904 332.704 134.904 330.016C134.904 327.312 135.432 324.936 136.488 322.888C137.544 320.824 139.024 319.224 140.928 318.088C142.832 316.936 145.056 316.36 147.6 316.36C150.192 316.36 152.44 316.944 154.344 318.112C156.248 319.28 157.72 320.888 158.76 322.936C159.8 324.984 160.32 327.344 160.32 330.016C160.32 332.72 159.792 335.104 158.736 337.168C157.696 339.216 156.224 340.824 154.32 341.992C152.416 343.144 150.176 343.72 147.6 343.72ZM147.6 338.992C150.08 338.992 151.928 338.16 153.144 336.496C154.376 334.816 154.992 332.656 154.992 330.016C154.992 327.312 154.368 325.152 153.12 323.536C151.888 321.904 150.048 321.088 147.6 321.088C145.92 321.088 144.536 321.472 143.448 322.24C142.36 322.992 141.552 324.04 141.024 325.384C140.496 326.712 140.232 328.256 140.232 330.016C140.232 332.736 140.856 334.912 142.104 336.544C143.352 338.176 145.184 338.992 147.6 338.992ZM176.682 343.72C174.026 343.72 171.77 343.128 169.914 341.944C168.058 340.76 166.634 339.136 165.642 337.072C164.666 335.008 164.17 332.664 164.154 330.04C164.17 327.368 164.682 325.008 165.69 322.96C166.698 320.896 168.138 319.28 170.01 318.112C171.882 316.944 174.13 316.36 176.754 316.36C179.586 316.36 182.002 317.064 184.002 318.472C186.018 319.88 187.346 321.808 187.986 324.256L182.994 325.696C182.498 324.24 181.682 323.112 180.546 322.312C179.426 321.496 178.138 321.088 176.682 321.088C175.034 321.088 173.682 321.48 172.626 322.264C171.57 323.032 170.786 324.088 170.274 325.432C169.762 326.776 169.498 328.312 169.482 330.04C169.498 332.712 170.106 334.872 171.306 336.52C172.522 338.168 174.314 338.992 176.682 338.992C178.298 338.992 179.602 338.624 180.594 337.888C181.602 337.136 182.37 336.064 182.898 334.672L187.986 335.872C187.138 338.4 185.738 340.344 183.786 341.704C181.834 343.048 179.466 343.72 176.682 343.72ZM204.365 353.8V343.456C201.837 343.856 199.541 343.584 197.477 342.64C195.413 341.696 193.773 340.16 192.557 338.032C191.341 335.904 190.733 333.248 190.733 330.064C190.733 326.88 191.341 324.216 192.557 322.072C193.773 319.928 195.413 318.384 197.477 317.44C199.541 316.496 201.837 316.224 204.365 316.624V308.776H208.877V316.624C211.405 316.224 213.701 316.496 215.765 317.44C217.829 318.384 219.469 319.928 220.685 322.072C221.901 324.216 222.509 326.88 222.509 330.064C222.509 333.248 221.901 335.904 220.685 338.032C219.469 340.16 217.829 341.696 215.765 342.64C213.701 343.584 211.405 343.856 208.877 343.456V353.8H204.365ZM204.365 338.92V321.184C203.069 320.96 201.893 321 200.837 321.304C199.797 321.608 198.909 322.144 198.173 322.912C197.437 323.664 196.869 324.648 196.469 325.864C196.069 327.064 195.868 328.464 195.868 330.064C195.868 331.664 196.069 333.064 196.469 334.264C196.885 335.464 197.469 336.448 198.221 337.216C198.989 337.968 199.893 338.496 200.932 338.8C201.973 339.088 203.117 339.128 204.365 338.92ZM208.877 338.92C210.125 339.128 211.269 339.088 212.309 338.8C213.349 338.512 214.245 337.992 214.997 337.24C215.765 336.488 216.349 335.512 216.749 334.312C217.165 333.096 217.373 331.68 217.373 330.064C217.373 328.432 217.173 327.016 216.773 325.816C216.373 324.6 215.805 323.616 215.069 322.864C214.333 322.096 213.437 321.568 212.381 321.28C211.341 320.992 210.173 320.96 208.877 321.184V338.92ZM239.294 343.72C236.718 343.72 234.454 343.16 232.502 342.04C230.566 340.904 229.054 339.328 227.965 337.312C226.894 335.28 226.358 332.928 226.358 330.256C226.358 327.424 226.886 324.968 227.942 322.888C229.014 320.808 230.502 319.2 232.406 318.064C234.31 316.928 236.526 316.36 239.054 316.36C241.694 316.36 243.942 316.976 245.798 318.208C247.654 319.424 249.038 321.16 249.95 323.416C250.878 325.672 251.246 328.352 251.054 331.456H246.038V329.632C246.006 326.624 245.43 324.4 244.31 322.96C243.206 321.52 241.518 320.8 239.246 320.8C236.734 320.8 234.846 321.592 233.582 323.176C232.318 324.76 231.686 327.048 231.686 330.04C231.686 332.888 232.318 335.096 233.582 336.664C234.846 338.216 236.67 338.992 239.054 338.992C240.622 338.992 241.974 338.64 243.11 337.936C244.262 337.216 245.158 336.192 245.798 334.864L250.718 336.424C249.71 338.744 248.182 340.544 246.134 341.824C244.086 343.088 241.806 343.72 239.294 343.72ZM230.054 331.456V327.544H248.557V331.456H230.054ZM268.606 343.72C266.126 343.72 264.046 343.12 262.366 341.92C260.686 340.704 259.414 339.064 258.55 337C257.686 334.936 257.254 332.608 257.254 330.016C257.254 327.424 257.678 325.096 258.526 323.032C259.39 320.968 260.654 319.344 262.318 318.16C263.998 316.96 266.062 316.36 268.51 316.36C270.942 316.36 273.038 316.96 274.798 318.16C276.574 319.344 277.942 320.968 278.902 323.032C279.862 325.08 280.342 327.408 280.342 330.016C280.342 332.608 279.862 334.944 278.902 337.024C277.958 339.088 276.606 340.72 274.846 341.92C273.102 343.12 271.022 343.72 268.606 343.72ZM256.414 354.52V317.08H260.878V335.728H261.454V354.52H256.414ZM267.91 339.184C269.51 339.184 270.83 338.776 271.87 337.96C272.926 337.144 273.71 336.048 274.222 334.672C274.75 333.28 275.014 331.728 275.014 330.016C275.014 328.32 274.75 326.784 274.222 325.408C273.71 324.032 272.918 322.936 271.846 322.12C270.774 321.304 269.406 320.896 267.742 320.896C266.174 320.896 264.878 321.28 263.854 322.048C262.846 322.816 262.094 323.888 261.598 325.264C261.118 326.64 260.878 328.224 260.878 330.016C260.878 331.808 261.118 333.392 261.598 334.768C262.078 336.144 262.838 337.224 263.878 338.008C264.918 338.792 266.262 339.184 267.91 339.184ZM292.961 343.72C291.041 343.72 289.433 343.368 288.137 342.664C286.841 341.944 285.857 341 285.185 339.832C284.529 338.648 284.201 337.352 284.201 335.944C284.201 334.632 284.433 333.48 284.897 332.488C285.361 331.496 286.049 330.656 286.961 329.968C287.873 329.264 288.993 328.696 290.321 328.264C291.473 327.928 292.777 327.632 294.233 327.376C295.689 327.12 297.217 326.88 298.817 326.656C300.433 326.432 302.033 326.208 303.617 325.984L301.793 326.992C301.825 324.96 301.393 323.456 300.497 322.48C299.617 321.488 298.097 320.992 295.937 320.992C294.577 320.992 293.329 321.312 292.193 321.952C291.057 322.576 290.265 323.616 289.817 325.072L285.137 323.632C285.777 321.408 286.993 319.64 288.785 318.328C290.593 317.016 292.993 316.36 295.985 316.36C298.305 316.36 300.321 316.76 302.033 317.56C303.761 318.344 305.025 319.592 305.825 321.304C306.241 322.152 306.497 323.048 306.593 323.992C306.689 324.936 306.737 325.952 306.737 327.04V343H302.297V337.072L303.161 337.84C302.089 339.824 300.721 341.304 299.057 342.28C297.409 343.24 295.377 343.72 292.961 343.72ZM293.849 339.616C295.273 339.616 296.497 339.368 297.521 338.872C298.545 338.36 299.369 337.712 299.993 336.928C300.617 336.144 301.025 335.328 301.217 334.48C301.489 333.712 301.641 332.848 301.673 331.888C301.721 330.928 301.745 330.16 301.745 329.584L303.377 330.184C301.793 330.424 300.353 330.64 299.057 330.832C297.761 331.024 296.585 331.216 295.529 331.408C294.489 331.584 293.561 331.8 292.745 332.056C292.057 332.296 291.441 332.584 290.897 332.92C290.369 333.256 289.945 333.664 289.625 334.144C289.321 334.624 289.169 335.208 289.169 335.896C289.169 336.568 289.337 337.192 289.673 337.768C290.009 338.328 290.521 338.776 291.209 339.112C291.897 339.448 292.777 339.616 293.849 339.616ZM48.894 383L51.81 376.862L42.594 357.08H45.528L53.196 374.018L61.008 357.08H63.834L51.774 383H48.894ZM66.334 383V363.56H81.796V383H79.15V366.098H68.98V383H66.334ZM95.5781 383.54C93.7901 383.54 92.2781 383.09 91.0421 382.19C89.8061 381.278 88.8701 380.048 88.2341 378.5C87.5981 376.94 87.2801 375.194 87.2801 373.262C87.2801 371.294 87.5981 369.542 88.2341 368.006C88.8821 366.458 89.8301 365.24 91.0781 364.352C92.3261 363.464 93.8621 363.02 95.6861 363.02C97.4621 363.02 98.9861 363.47 100.258 364.37C101.53 365.27 102.502 366.494 103.174 368.042C103.858 369.59 104.2 371.33 104.2 373.262C104.2 375.206 103.858 376.952 103.174 378.5C102.49 380.048 101.506 381.278 100.222 382.19C98.9381 383.09 97.3901 383.54 95.5781 383.54ZM86.8301 391.64V363.56H89.2061V378.194H89.4941V391.64H86.8301ZM95.3081 381.074C96.6641 381.074 97.7921 380.732 98.6921 380.048C99.5921 379.364 100.264 378.434 100.708 377.258C101.164 376.07 101.392 374.738 101.392 373.262C101.392 371.798 101.17 370.478 100.726 369.302C100.282 368.126 99.6041 367.196 98.6921 366.512C97.7921 365.828 96.6461 365.486 95.2541 365.486C93.8981 365.486 92.7701 365.816 91.8701 366.476C90.9821 367.136 90.3161 368.054 89.8721 369.23C89.4281 370.394 89.2061 371.738 89.2061 373.262C89.2061 374.762 89.4281 376.106 89.8721 377.294C90.3161 378.47 90.9881 379.394 91.8881 380.066C92.7881 380.738 93.9281 381.074 95.3081 381.074ZM113.715 383.54C112.251 383.54 111.021 383.276 110.025 382.748C109.041 382.22 108.303 381.518 107.811 380.642C107.319 379.766 107.073 378.812 107.073 377.78C107.073 376.724 107.283 375.824 107.703 375.08C108.135 374.324 108.717 373.706 109.449 373.226C110.193 372.746 111.051 372.38 112.023 372.128C113.007 371.888 114.093 371.678 115.281 371.498C116.481 371.306 117.651 371.144 118.791 371.012C119.943 370.868 120.951 370.73 121.815 370.598L120.879 371.174C120.915 369.254 120.543 367.832 119.763 366.908C118.983 365.984 117.627 365.522 115.695 365.522C114.363 365.522 113.235 365.822 112.311 366.422C111.399 367.022 110.757 367.97 110.385 369.266L107.811 368.51C108.255 366.77 109.149 365.42 110.493 364.46C111.837 363.5 113.583 363.02 115.731 363.02C117.507 363.02 119.013 363.356 120.249 364.028C121.497 364.688 122.379 365.648 122.895 366.908C123.135 367.472 123.291 368.102 123.363 368.798C123.435 369.494 123.471 370.202 123.471 370.922V383H121.113V378.122L121.797 378.41C121.137 380.078 120.111 381.35 118.719 382.226C117.327 383.102 115.659 383.54 113.715 383.54ZM114.021 381.254C115.257 381.254 116.337 381.032 117.261 380.588C118.185 380.144 118.929 379.538 119.493 378.77C120.057 377.99 120.423 377.114 120.591 376.142C120.735 375.518 120.813 374.834 120.825 374.09C120.837 373.334 120.843 372.77 120.843 372.398L121.851 372.92C120.951 373.04 119.973 373.16 118.917 373.28C117.873 373.4 116.841 373.538 115.821 373.694C114.813 373.85 113.901 374.036 113.085 374.252C112.533 374.408 111.999 374.63 111.483 374.918C110.967 375.194 110.541 375.566 110.205 376.034C109.881 376.502 109.719 377.084 109.719 377.78C109.719 378.344 109.857 378.89 110.133 379.418C110.421 379.946 110.877 380.384 111.501 380.732C112.137 381.08 112.977 381.254 114.021 381.254ZM128.139 383V363.56H136.149C136.557 363.56 137.049 363.584 137.625 363.632C138.213 363.68 138.759 363.77 139.263 363.902C140.355 364.19 141.231 364.778 141.891 365.666C142.563 366.554 142.899 367.622 142.899 368.87C142.899 369.566 142.791 370.19 142.575 370.742C142.371 371.282 142.077 371.75 141.693 372.146C141.513 372.35 141.315 372.53 141.099 372.686C140.883 372.83 140.673 372.95 140.469 373.046C140.853 373.118 141.267 373.286 141.711 373.55C142.407 373.958 142.935 374.51 143.295 375.206C143.655 375.89 143.835 376.724 143.835 377.708C143.835 379.04 143.517 380.126 142.881 380.966C142.245 381.806 141.393 382.382 140.325 382.694C139.845 382.826 139.323 382.91 138.759 382.946C138.207 382.982 137.685 383 137.193 383H128.139ZM130.803 380.75H137.067C137.319 380.75 137.637 380.732 138.021 380.696C138.405 380.648 138.747 380.588 139.047 380.516C139.755 380.336 140.271 379.976 140.595 379.436C140.931 378.884 141.099 378.284 141.099 377.636C141.099 376.784 140.847 376.088 140.343 375.548C139.851 374.996 139.191 374.66 138.363 374.54C138.087 374.48 137.799 374.444 137.499 374.432C137.199 374.42 136.929 374.414 136.689 374.414H130.803V380.75ZM130.803 372.146H136.239C136.551 372.146 136.899 372.128 137.283 372.092C137.679 372.044 138.021 371.966 138.309 371.858C138.933 371.642 139.389 371.27 139.677 370.742C139.977 370.214 140.127 369.638 140.127 369.014C140.127 368.33 139.965 367.73 139.641 367.214C139.329 366.698 138.855 366.338 138.219 366.134C137.787 365.978 137.319 365.888 136.815 365.864C136.323 365.84 136.011 365.828 135.879 365.828H130.803V372.146ZM145.622 383V380.678C146.342 380.81 146.888 380.78 147.26 380.588C147.644 380.384 147.926 380.048 148.106 379.58C148.286 379.1 148.436 378.506 148.556 377.798C148.748 376.622 148.922 375.326 149.078 373.91C149.234 372.494 149.372 370.934 149.492 369.23C149.624 367.514 149.756 365.624 149.888 363.56H163.1V383H160.472V366.098H152.336C152.252 367.37 152.156 368.636 152.048 369.896C151.94 371.156 151.826 372.368 151.706 373.532C151.598 374.684 151.478 375.746 151.346 376.718C151.214 377.69 151.076 378.53 150.932 379.238C150.716 380.306 150.428 381.158 150.068 381.794C149.72 382.43 149.198 382.85 148.502 383.054C147.806 383.258 146.846 383.24 145.622 383ZM180.315 383V375.674H175.779C175.251 375.674 174.705 375.656 174.141 375.62C173.589 375.572 173.073 375.506 172.593 375.422C171.225 375.158 170.061 374.558 169.101 373.622C168.153 372.674 167.679 371.366 167.679 369.698C167.679 368.066 168.123 366.758 169.011 365.774C169.899 364.778 170.973 364.13 172.233 363.83C172.809 363.698 173.391 363.62 173.979 363.596C174.579 363.572 175.095 363.56 175.527 363.56H182.961L182.979 383H180.315ZM167.049 383L172.467 374.846H175.401L169.947 383H167.049ZM175.635 373.406H180.315V365.828H175.635C175.347 365.828 174.945 365.84 174.429 365.864C173.913 365.888 173.427 365.966 172.971 366.098C172.575 366.218 172.179 366.428 171.783 366.728C171.399 367.016 171.075 367.406 170.811 367.898C170.547 368.378 170.415 368.966 170.415 369.662C170.415 370.634 170.679 371.414 171.207 372.002C171.747 372.578 172.419 372.974 173.223 373.19C173.655 373.286 174.087 373.346 174.519 373.37C174.951 373.394 175.323 373.406 175.635 373.406ZM203.328 383.54C201.612 383.54 200.118 383.174 198.846 382.442C197.574 381.698 196.56 380.66 195.804 379.328C195.06 377.984 194.61 376.406 194.454 374.594H190.656V383H188.01V363.56H190.656V371.966H194.436C194.592 370.13 195.048 368.546 195.804 367.214C196.572 365.87 197.592 364.838 198.864 364.118C200.148 363.386 201.642 363.02 203.346 363.02C205.278 363.02 206.928 363.458 208.296 364.334C209.676 365.21 210.726 366.416 211.446 367.952C212.178 369.488 212.544 371.252 212.544 373.244C212.544 375.284 212.172 377.078 211.428 378.626C210.696 380.174 209.64 381.38 208.26 382.244C206.892 383.108 205.248 383.54 203.328 383.54ZM203.274 381.002C205.458 381.002 207.078 380.294 208.134 378.878C209.202 377.45 209.736 375.578 209.736 373.262C209.736 370.898 209.196 369.026 208.116 367.646C207.048 366.254 205.44 365.558 203.292 365.558C201.24 365.558 199.668 366.242 198.576 367.61C197.484 368.966 196.938 370.844 196.938 373.244C196.938 375.596 197.472 377.48 198.54 378.896C199.62 380.3 201.198 381.002 203.274 381.002ZM238.662 386.366V383H216.486V363.56H219.06V380.552H226.35V363.56H228.924V380.552H236.196V363.56H238.77V380.552H241.308V386.366H238.662ZM249.734 383.54C248.27 383.54 247.04 383.276 246.044 382.748C245.06 382.22 244.322 381.518 243.83 380.642C243.338 379.766 243.092 378.812 243.092 377.78C243.092 376.724 243.302 375.824 243.722 375.08C244.154 374.324 244.736 373.706 245.468 373.226C246.212 372.746 247.07 372.38 248.042 372.128C249.026 371.888 250.112 371.678 251.3 371.498C252.5 371.306 253.67 371.144 254.81 371.012C255.962 370.868 256.97 370.73 257.834 370.598L256.898 371.174C256.934 369.254 256.562 367.832 255.782 366.908C255.002 365.984 253.646 365.522 251.714 365.522C250.382 365.522 249.254 365.822 248.33 366.422C247.418 367.022 246.776 367.97 246.404 369.266L243.83 368.51C244.274 366.77 245.168 365.42 246.512 364.46C247.856 363.5 249.602 363.02 251.75 363.02C253.526 363.02 255.032 363.356 256.268 364.028C257.516 364.688 258.398 365.648 258.914 366.908C259.154 367.472 259.31 368.102 259.382 368.798C259.454 369.494 259.49 370.202 259.49 370.922V383H257.132V378.122L257.816 378.41C257.156 380.078 256.13 381.35 254.738 382.226C253.346 383.102 251.678 383.54 249.734 383.54ZM250.04 381.254C251.276 381.254 252.356 381.032 253.28 380.588C254.204 380.144 254.948 379.538 255.512 378.77C256.076 377.99 256.442 377.114 256.61 376.142C256.754 375.518 256.832 374.834 256.844 374.09C256.856 373.334 256.862 372.77 256.862 372.398L257.87 372.92C256.97 373.04 255.992 373.16 254.936 373.28C253.892 373.4 252.86 373.538 251.84 373.694C250.832 373.85 249.92 374.036 249.104 374.252C248.552 374.408 248.018 374.63 247.502 374.918C246.986 375.194 246.56 375.566 246.224 376.034C245.9 376.502 245.738 377.084 245.738 377.78C245.738 378.344 245.876 378.89 246.152 379.418C246.44 379.946 246.896 380.384 247.52 380.732C248.156 381.08 248.996 381.254 250.04 381.254ZM276.362 383V375.674H271.826C271.298 375.674 270.752 375.656 270.188 375.62C269.636 375.572 269.12 375.506 268.64 375.422C267.272 375.158 266.108 374.558 265.148 373.622C264.2 372.674 263.726 371.366 263.726 369.698C263.726 368.066 264.17 366.758 265.058 365.774C265.946 364.778 267.02 364.13 268.28 363.83C268.856 363.698 269.438 363.62 270.026 363.596C270.626 363.572 271.142 363.56 271.574 363.56H279.008L279.026 383H276.362ZM263.096 383L268.514 374.846H271.448L265.994 383H263.096ZM271.682 373.406H276.362V365.828H271.682C271.394 365.828 270.992 365.84 270.476 365.864C269.96 365.888 269.474 365.966 269.018 366.098C268.622 366.218 268.226 366.428 267.83 366.728C267.446 367.016 267.122 367.406 266.858 367.898C266.594 368.378 266.462 368.966 266.462 369.662C266.462 370.634 266.726 371.414 267.254 372.002C267.794 372.578 268.466 372.974 269.27 373.19C269.702 373.286 270.134 373.346 270.566 373.37C270.998 373.394 271.37 373.406 271.682 373.406ZM291.264 383L291.282 363.56H293.946V372.92L302.622 363.56H306.15L297.042 373.28L307.338 383H303.486L293.946 373.64V383H291.264ZM316.908 383.54C314.976 383.54 313.326 383.102 311.958 382.226C310.59 381.35 309.54 380.138 308.808 378.59C308.076 377.042 307.71 375.266 307.71 373.262C307.71 371.222 308.082 369.434 308.826 367.898C309.57 366.362 310.626 365.168 311.994 364.316C313.374 363.452 315.012 363.02 316.908 363.02C318.852 363.02 320.508 363.458 321.876 364.334C323.256 365.198 324.306 366.404 325.026 367.952C325.758 369.488 326.124 371.258 326.124 373.262C326.124 375.302 325.758 377.096 325.026 378.644C324.294 380.18 323.238 381.38 321.858 382.244C320.478 383.108 318.828 383.54 316.908 383.54ZM316.908 381.002C319.068 381.002 320.676 380.288 321.732 378.86C322.788 377.42 323.316 375.554 323.316 373.262C323.316 370.91 322.782 369.038 321.714 367.646C320.658 366.254 319.056 365.558 316.908 365.558C315.456 365.558 314.256 365.888 313.308 366.548C312.372 367.196 311.67 368.102 311.202 369.266C310.746 370.418 310.518 371.75 310.518 373.262C310.518 375.602 311.058 377.48 312.138 378.896C313.218 380.3 314.808 381.002 316.908 381.002ZM330.076 383V363.56H332.434L340.012 379.472L347.608 363.56H349.948V383H347.392V369.212L340.858 383H339.184L332.65 369.212V383H330.076ZM354.967 383V363.56H370.429V383H367.783V366.098H357.613V383H354.967ZM381.043 383.54C379.579 383.54 378.349 383.276 377.353 382.748C376.369 382.22 375.631 381.518 375.139 380.642C374.647 379.766 374.401 378.812 374.401 377.78C374.401 376.724 374.611 375.824 375.031 375.08C375.463 374.324 376.045 373.706 376.777 373.226C377.521 372.746 378.379 372.38 379.351 372.128C380.335 371.888 381.421 371.678 382.609 371.498C383.809 371.306 384.979 371.144 386.119 371.012C387.271 370.868 388.279 370.73 389.143 370.598L388.207 371.174C388.243 369.254 387.871 367.832 387.091 366.908C386.311 365.984 384.955 365.522 383.023 365.522C381.691 365.522 380.563 365.822 379.639 366.422C378.727 367.022 378.085 367.97 377.713 369.266L375.139 368.51C375.583 366.77 376.477 365.42 377.821 364.46C379.165 363.5 380.911 363.02 383.059 363.02C384.835 363.02 386.341 363.356 387.577 364.028C388.825 364.688 389.707 365.648 390.223 366.908C390.463 367.472 390.619 368.102 390.691 368.798C390.763 369.494 390.799 370.202 390.799 370.922V383H388.441V378.122L389.125 378.41C388.465 380.078 387.439 381.35 386.047 382.226C384.655 383.102 382.987 383.54 381.043 383.54ZM381.349 381.254C382.585 381.254 383.665 381.032 384.589 380.588C385.513 380.144 386.257 379.538 386.821 378.77C387.385 377.99 387.751 377.114 387.919 376.142C388.063 375.518 388.141 374.834 388.153 374.09C388.165 373.334 388.171 372.77 388.171 372.398L389.179 372.92C388.279 373.04 387.301 373.16 386.245 373.28C385.201 373.4 384.169 373.538 383.149 373.694C382.141 373.85 381.229 374.036 380.413 374.252C379.861 374.408 379.327 374.63 378.811 374.918C378.295 375.194 377.869 375.566 377.533 376.034C377.209 376.502 377.047 377.084 377.047 377.78C377.047 378.344 377.185 378.89 377.461 379.418C377.749 379.946 378.205 380.384 378.829 380.732C379.465 381.08 380.305 381.254 381.349 381.254ZM395.467 383V363.56H398.113V372.002H409.075V363.56H411.721V383H409.075V374.54H398.113V383H395.467ZM432.198 363.56V383H429.624V367.862L418.968 383H416.736V363.56H419.31V378.572L429.984 363.56H432.198ZM449.436 383V375.674H444.9C444.372 375.674 443.826 375.656 443.262 375.62C442.71 375.572 442.194 375.506 441.714 375.422C440.346 375.158 439.182 374.558 438.222 373.622C437.274 372.674 436.8 371.366 436.8 369.698C436.8 368.066 437.244 366.758 438.132 365.774C439.02 364.778 440.094 364.13 441.354 363.83C441.93 363.698 442.512 363.62 443.1 363.596C443.7 363.572 444.216 363.56 444.648 363.56H452.082L452.1 383H449.436ZM436.17 383L441.588 374.846H444.522L439.068 383H436.17ZM444.756 373.406H449.436V365.828H444.756C444.468 365.828 444.066 365.84 443.55 365.864C443.034 365.888 442.548 365.966 442.092 366.098C441.696 366.218 441.3 366.428 440.904 366.728C440.52 367.016 440.196 367.406 439.932 367.898C439.668 368.378 439.536 368.966 439.536 369.662C439.536 370.634 439.8 371.414 440.328 372.002C440.868 372.578 441.54 372.974 442.344 373.19C442.776 373.286 443.208 373.346 443.64 373.37C444.072 373.394 444.444 373.406 444.756 373.406Z" fill="#FEFEFE"></path><path d="M43.12 423V411.48H52.112V423H50.688V412.832H44.544V423H43.12ZM58.0344 423.24C57.1757 423.24 56.4344 423.045 55.8104 422.656C55.1917 422.267 54.7144 421.728 54.3784 421.04C54.0424 420.352 53.8744 419.563 53.8744 418.672C53.8744 417.765 54.045 416.971 54.3864 416.288C54.7277 415.605 55.2104 415.075 55.8344 414.696C56.4584 414.312 57.1917 414.12 58.0344 414.12C58.8984 414.12 59.6424 414.315 60.2664 414.704C60.8904 415.088 61.3677 415.624 61.6984 416.312C62.0344 416.995 62.2024 417.781 62.2024 418.672C62.2024 419.573 62.0344 420.368 61.6984 421.056C61.3624 421.739 60.8824 422.275 60.2584 422.664C59.6344 423.048 58.893 423.24 58.0344 423.24ZM58.0344 421.888C58.9304 421.888 59.597 421.589 60.0344 420.992C60.4717 420.395 60.6904 419.621 60.6904 418.672C60.6904 417.696 60.469 416.92 60.0264 416.344C59.5837 415.763 58.9197 415.472 58.0344 415.472C57.4317 415.472 56.9357 415.608 56.5464 415.88C56.157 416.152 55.8664 416.528 55.6744 417.008C55.4824 417.488 55.3864 418.043 55.3864 418.672C55.3864 419.643 55.6104 420.421 56.0584 421.008C56.5064 421.595 57.165 421.888 58.0344 421.888ZM63.1638 423V421.776C63.4838 421.835 63.7264 421.824 63.8918 421.744C64.0624 421.659 64.1878 421.512 64.2678 421.304C64.3531 421.091 64.4224 420.824 64.4758 420.504C64.5664 419.997 64.6438 419.432 64.7078 418.808C64.7771 418.184 64.8384 417.501 64.8918 416.76C64.9504 416.013 65.0038 415.213 65.0518 414.36H71.0918V423H69.6678V415.712H66.3478C66.3158 416.203 66.2758 416.707 66.2278 417.224C66.1851 417.741 66.1398 418.245 66.0918 418.736C66.0438 419.221 65.9904 419.675 65.9318 420.096C65.8784 420.512 65.8198 420.872 65.7558 421.176C65.6544 421.699 65.5131 422.117 65.3318 422.432C65.1504 422.741 64.8891 422.941 64.5478 423.032C64.2064 423.128 63.7451 423.117 63.1638 423ZM73.3308 423V414.36H74.7548V418H79.2988V414.36H80.7228V423H79.2988V419.352H74.7548V423H73.3308ZM82.9638 423L82.9558 414.36H84.3878V417.488H85.7078C85.9584 417.488 86.2144 417.493 86.4758 417.504C86.7371 417.515 86.9638 417.539 87.1558 417.576C87.6038 417.667 87.9958 417.819 88.3318 418.032C88.6678 418.245 88.9291 418.533 89.1158 418.896C89.3024 419.259 89.3958 419.709 89.3958 420.248C89.3958 420.995 89.2011 421.587 88.8118 422.024C88.4278 422.456 87.9238 422.744 87.2998 422.888C87.0864 422.936 86.8411 422.968 86.5638 422.984C86.2918 422.995 86.0331 423 85.7878 423H82.9638ZM84.3878 421.824H85.8118C85.9718 421.824 86.1504 421.819 86.3478 421.808C86.5451 421.797 86.7211 421.771 86.8758 421.728C87.1478 421.648 87.3904 421.491 87.6038 421.256C87.8224 421.021 87.9318 420.685 87.9318 420.248C87.9318 419.805 87.8251 419.464 87.6118 419.224C87.4038 418.984 87.1291 418.827 86.7878 418.752C86.6331 418.715 86.4704 418.691 86.2998 418.68C86.1291 418.669 85.9664 418.664 85.8118 418.664H84.3878V421.824ZM90.3878 423V414.36H91.8118V423H90.3878ZM97.7775 413.352C97.3775 413.352 97.0122 413.253 96.6815 413.056C96.3508 412.859 96.0868 412.597 95.8895 412.272C95.6922 411.941 95.5935 411.573 95.5935 411.168H96.7455C96.7455 411.451 96.8468 411.693 97.0495 411.896C97.2522 412.099 97.4948 412.2 97.7775 412.2C98.0655 412.2 98.3082 412.099 98.5055 411.896C98.7082 411.693 98.8095 411.451 98.8095 411.168H99.9615C99.9615 411.573 99.8628 411.941 99.6655 412.272C99.4735 412.597 99.2095 412.859 98.8735 413.056C98.5428 413.253 98.1775 413.352 97.7775 413.352ZM101.13 414.36V423H99.7535V416.632L95.2255 423H94.0495V414.36H95.4255V420.64L99.9615 414.36H101.13ZM110.213 423.24C109.338 423.24 108.594 423.045 107.981 422.656C107.373 422.261 106.909 421.72 106.589 421.032C106.269 420.344 106.104 419.56 106.093 418.68C106.104 417.779 106.272 416.987 106.597 416.304C106.928 415.616 107.4 415.08 108.013 414.696C108.626 414.312 109.365 414.12 110.229 414.12C111.141 414.12 111.925 414.344 112.581 414.792C113.242 415.24 113.685 415.853 113.909 416.632L112.501 417.056C112.32 416.555 112.024 416.165 111.613 415.888C111.208 415.611 110.741 415.472 110.213 415.472C109.621 415.472 109.133 415.611 108.749 415.888C108.365 416.16 108.08 416.539 107.893 417.024C107.706 417.504 107.61 418.056 107.605 418.68C107.616 419.64 107.837 420.416 108.269 421.008C108.706 421.595 109.354 421.888 110.213 421.888C110.778 421.888 111.248 421.76 111.621 421.504C111.994 421.243 112.277 420.867 112.469 420.376L113.909 420.752C113.61 421.557 113.144 422.173 112.509 422.6C111.874 423.027 111.109 423.24 110.213 423.24ZM119.286 423.24C118.438 423.24 117.697 423.053 117.062 422.68C116.433 422.301 115.942 421.776 115.59 421.104C115.238 420.427 115.062 419.637 115.062 418.736C115.062 417.792 115.235 416.976 115.582 416.288C115.929 415.595 116.411 415.061 117.03 414.688C117.654 414.309 118.385 414.12 119.222 414.12C120.091 414.12 120.83 414.32 121.438 414.72C122.051 415.12 122.51 415.691 122.814 416.432C123.123 417.173 123.257 418.056 123.214 419.08H121.774V418.568C121.758 417.507 121.542 416.715 121.126 416.192C120.71 415.664 120.091 415.4 119.27 415.4C118.39 415.4 117.721 415.683 117.262 416.248C116.803 416.813 116.574 417.624 116.574 418.68C116.574 419.699 116.803 420.488 117.262 421.048C117.721 421.608 118.374 421.888 119.222 421.888C119.793 421.888 120.289 421.757 120.71 421.496C121.131 421.235 121.462 420.859 121.702 420.368L123.07 420.84C122.734 421.603 122.227 422.195 121.55 422.616C120.878 423.032 120.123 423.24 119.286 423.24ZM116.094 419.08V417.936H122.478V419.08H116.094ZM128.963 423.24C128.152 423.24 127.47 423.04 126.915 422.64C126.36 422.235 125.939 421.688 125.651 421C125.368 420.307 125.227 419.531 125.227 418.672C125.227 417.803 125.368 417.024 125.651 416.336C125.939 415.648 126.36 415.107 126.915 414.712C127.475 414.317 128.16 414.12 128.971 414.12C129.771 414.12 130.459 414.32 131.035 414.72C131.616 415.115 132.062 415.656 132.371 416.344C132.68 417.032 132.835 417.808 132.835 418.672C132.835 419.536 132.68 420.312 132.371 421C132.062 421.688 131.616 422.235 131.035 422.64C130.459 423.04 129.768 423.24 128.963 423.24ZM124.987 426.84V414.36H126.259V420.72H126.419V426.84H124.987ZM128.787 421.936C129.358 421.936 129.83 421.792 130.203 421.504C130.576 421.216 130.856 420.827 131.043 420.336C131.23 419.84 131.323 419.285 131.323 418.672C131.323 418.064 131.23 417.515 131.043 417.024C130.862 416.533 130.579 416.144 130.195 415.856C129.816 415.568 129.334 415.424 128.747 415.424C128.187 415.424 127.723 415.563 127.355 415.84C126.987 416.112 126.712 416.493 126.531 416.984C126.35 417.469 126.259 418.032 126.259 418.672C126.259 419.301 126.347 419.864 126.523 420.36C126.704 420.851 126.982 421.237 127.355 421.52C127.728 421.797 128.206 421.936 128.787 421.936ZM134.581 423V414.36H138.261C138.479 414.36 138.714 414.373 138.965 414.4C139.221 414.421 139.453 414.461 139.661 414.52C140.125 414.643 140.506 414.896 140.805 415.28C141.109 415.659 141.261 416.139 141.261 416.72C141.261 417.045 141.21 417.328 141.109 417.568C141.013 417.808 140.874 418.016 140.693 418.192C140.613 418.272 140.525 418.344 140.429 418.408C140.333 418.472 140.237 418.523 140.141 418.56C140.327 418.592 140.517 418.664 140.709 418.776C141.013 418.941 141.25 419.173 141.421 419.472C141.597 419.771 141.685 420.152 141.685 420.616C141.685 421.203 141.543 421.688 141.261 422.072C140.978 422.451 140.589 422.712 140.093 422.856C139.885 422.915 139.655 422.955 139.405 422.976C139.154 422.992 138.911 423 138.677 423H134.581ZM136.021 421.84H138.597C138.709 421.84 138.842 421.829 138.997 421.808C139.157 421.787 139.298 421.76 139.421 421.728C139.698 421.648 139.898 421.499 140.021 421.28C140.149 421.061 140.213 420.824 140.213 420.568C140.213 420.227 140.117 419.949 139.925 419.736C139.738 419.523 139.49 419.389 139.181 419.336C139.069 419.304 138.946 419.285 138.813 419.28C138.685 419.275 138.57 419.272 138.469 419.272H136.021V421.84ZM136.021 418.096H138.165C138.314 418.096 138.471 418.088 138.637 418.072C138.802 418.051 138.946 418.016 139.069 417.968C139.314 417.877 139.493 417.728 139.605 417.52C139.722 417.307 139.781 417.075 139.781 416.824C139.781 416.547 139.717 416.304 139.589 416.096C139.466 415.883 139.277 415.736 139.021 415.656C138.85 415.592 138.658 415.557 138.445 415.552C138.237 415.541 138.103 415.536 138.045 415.536H136.021V418.096ZM150.364 414.36V423H148.988V416.632L144.46 423H143.284V414.36H144.66V420.64L149.196 414.36H150.364ZM156.244 423.24C155.37 423.24 154.626 423.045 154.012 422.656C153.404 422.261 152.94 421.72 152.62 421.032C152.3 420.344 152.135 419.56 152.124 418.68C152.135 417.779 152.303 416.987 152.628 416.304C152.959 415.616 153.431 415.08 154.044 414.696C154.658 414.312 155.396 414.12 156.26 414.12C157.172 414.12 157.956 414.344 158.612 414.792C159.274 415.24 159.716 415.853 159.94 416.632L158.532 417.056C158.351 416.555 158.055 416.165 157.644 415.888C157.239 415.611 156.772 415.472 156.244 415.472C155.652 415.472 155.164 415.611 154.78 415.888C154.396 416.16 154.111 416.539 153.924 417.024C153.738 417.504 153.642 418.056 153.636 418.68C153.647 419.64 153.868 420.416 154.3 421.008C154.738 421.595 155.386 421.888 156.244 421.888C156.81 421.888 157.279 421.76 157.652 421.504C158.026 421.243 158.308 420.867 158.5 420.376L159.94 420.752C159.642 421.557 159.175 422.173 158.54 422.6C157.906 423.027 157.14 423.24 156.244 423.24ZM165.976 426.84L167.648 422.296L167.672 423.64L163.896 414.36H165.392L168.352 421.824H167.84L170.616 414.36H172.064L167.36 426.84H165.976ZM173.378 423V414.36H180.458V423H179.034V415.712H174.802V423H173.378ZM186.666 423.24C185.855 423.24 185.173 423.04 184.618 422.64C184.063 422.235 183.642 421.688 183.354 421C183.071 420.307 182.93 419.531 182.93 418.672C182.93 417.803 183.071 417.024 183.354 416.336C183.642 415.648 184.063 415.107 184.618 414.712C185.178 414.317 185.863 414.12 186.674 414.12C187.474 414.12 188.162 414.32 188.738 414.72C189.319 415.115 189.765 415.656 190.074 416.344C190.383 417.032 190.538 417.808 190.538 418.672C190.538 419.536 190.383 420.312 190.074 421C189.765 421.688 189.319 422.235 188.738 422.64C188.162 423.04 187.471 423.24 186.666 423.24ZM182.69 426.84V414.36H183.962V420.72H184.122V426.84H182.69ZM186.49 421.936C187.061 421.936 187.533 421.792 187.906 421.504C188.279 421.216 188.559 420.827 188.746 420.336C188.933 419.84 189.026 419.285 189.026 418.672C189.026 418.064 188.933 417.515 188.746 417.024C188.565 416.533 188.282 416.144 187.898 415.856C187.519 415.568 187.037 415.424 186.45 415.424C185.89 415.424 185.426 415.563 185.058 415.84C184.69 416.112 184.415 416.493 184.234 416.984C184.053 417.469 183.962 418.032 183.962 418.672C183.962 419.301 184.05 419.864 184.226 420.36C184.407 420.851 184.685 421.237 185.058 421.52C185.431 421.797 185.909 421.936 186.49 421.936ZM194.748 423.24C194.103 423.24 193.561 423.123 193.124 422.888C192.692 422.648 192.364 422.333 192.14 421.944C191.921 421.555 191.812 421.128 191.812 420.664C191.812 420.211 191.897 419.819 192.068 419.488C192.244 419.152 192.489 418.875 192.804 418.656C193.119 418.432 193.495 418.256 193.932 418.128C194.343 418.016 194.801 417.92 195.308 417.84C195.82 417.755 196.337 417.677 196.86 417.608C197.383 417.539 197.871 417.472 198.324 417.408L197.812 417.704C197.828 416.936 197.673 416.368 197.348 416C197.028 415.632 196.473 415.448 195.684 415.448C195.161 415.448 194.703 415.568 194.308 415.808C193.919 416.043 193.644 416.427 193.484 416.96L192.132 416.552C192.34 415.795 192.743 415.2 193.34 414.768C193.937 414.336 194.724 414.12 195.7 414.12C196.484 414.12 197.156 414.261 197.716 414.544C198.281 414.821 198.687 415.243 198.932 415.808C199.055 416.075 199.132 416.365 199.164 416.68C199.196 416.989 199.212 417.315 199.212 417.656V423H197.948V420.928L198.244 421.12C197.919 421.819 197.463 422.347 196.876 422.704C196.295 423.061 195.585 423.24 194.748 423.24ZM194.964 422.048C195.476 422.048 195.919 421.957 196.292 421.776C196.671 421.589 196.975 421.347 197.204 421.048C197.433 420.744 197.583 420.413 197.652 420.056C197.732 419.789 197.775 419.493 197.78 419.168C197.791 418.837 197.796 418.584 197.796 418.408L198.292 418.624C197.828 418.688 197.372 418.749 196.924 418.808C196.476 418.867 196.052 418.931 195.652 419C195.252 419.064 194.892 419.141 194.572 419.232C194.337 419.307 194.116 419.403 193.908 419.52C193.705 419.637 193.54 419.789 193.412 419.976C193.289 420.157 193.228 420.384 193.228 420.656C193.228 420.891 193.287 421.115 193.404 421.328C193.527 421.541 193.713 421.715 193.964 421.848C194.22 421.981 194.553 422.048 194.964 422.048ZM201.284 423V414.36H204.964C205.183 414.36 205.417 414.373 205.668 414.4C205.924 414.421 206.156 414.461 206.364 414.52C206.828 414.643 207.209 414.896 207.508 415.28C207.812 415.659 207.964 416.139 207.964 416.72C207.964 417.045 207.913 417.328 207.812 417.568C207.716 417.808 207.577 418.016 207.396 418.192C207.316 418.272 207.228 418.344 207.132 418.408C207.036 418.472 206.94 418.523 206.844 418.56C207.031 418.592 207.22 418.664 207.412 418.776C207.716 418.941 207.953 419.173 208.124 419.472C208.3 419.771 208.388 420.152 208.388 420.616C208.388 421.203 208.247 421.688 207.964 422.072C207.681 422.451 207.292 422.712 206.796 422.856C206.588 422.915 206.359 422.955 206.108 422.976C205.857 422.992 205.615 423 205.38 423H201.284ZM202.724 421.84H205.3C205.412 421.84 205.545 421.829 205.7 421.808C205.86 421.787 206.001 421.76 206.124 421.728C206.401 421.648 206.601 421.499 206.724 421.28C206.852 421.061 206.916 420.824 206.916 420.568C206.916 420.227 206.82 419.949 206.628 419.736C206.441 419.523 206.193 419.389 205.884 419.336C205.772 419.304 205.649 419.285 205.516 419.28C205.388 419.275 205.273 419.272 205.172 419.272H202.724V421.84ZM202.724 418.096H204.868C205.017 418.096 205.175 418.088 205.34 418.072C205.505 418.051 205.649 418.016 205.772 417.968C206.017 417.877 206.196 417.728 206.308 417.52C206.425 417.307 206.484 417.075 206.484 416.824C206.484 416.547 206.42 416.304 206.292 416.096C206.169 415.883 205.98 415.736 205.724 415.656C205.553 415.592 205.361 415.557 205.148 415.552C204.94 415.541 204.807 415.536 204.748 415.536H202.724V418.096ZM209.195 423V421.776C209.515 421.835 209.758 421.824 209.923 421.744C210.094 421.659 210.219 421.512 210.299 421.304C210.384 421.091 210.454 420.824 210.507 420.504C210.598 419.997 210.675 419.432 210.739 418.808C210.808 418.184 210.87 417.501 210.923 416.76C210.982 416.013 211.035 415.213 211.083 414.36H217.123V423H215.699V415.712H212.379C212.347 416.203 212.307 416.707 212.259 417.224C212.216 417.741 212.171 418.245 212.123 418.736C212.075 419.221 212.022 419.675 211.963 420.096C211.91 420.512 211.851 420.872 211.787 421.176C211.686 421.699 211.544 422.117 211.363 422.432C211.182 422.741 210.92 422.941 210.579 423.032C210.238 423.128 209.776 423.117 209.195 423ZM223.114 423.24C222.266 423.24 221.525 423.053 220.89 422.68C220.261 422.301 219.77 421.776 219.418 421.104C219.066 420.427 218.89 419.637 218.89 418.736C218.89 417.792 219.063 416.976 219.41 416.288C219.757 415.595 220.239 415.061 220.858 414.688C221.482 414.309 222.213 414.12 223.05 414.12C223.919 414.12 224.658 414.32 225.266 414.72C225.879 415.12 226.338 415.691 226.642 416.432C226.951 417.173 227.085 418.056 227.042 419.08H225.602V418.568C225.586 417.507 225.37 416.715 224.954 416.192C224.538 415.664 223.919 415.4 223.098 415.4C222.218 415.4 221.549 415.683 221.09 416.248C220.631 416.813 220.402 417.624 220.402 418.68C220.402 419.699 220.631 420.488 221.09 421.048C221.549 421.608 222.202 421.888 223.05 421.888C223.621 421.888 224.117 421.757 224.538 421.496C224.959 421.235 225.29 420.859 225.53 420.368L226.898 420.84C226.562 421.603 226.055 422.195 225.378 422.616C224.706 423.032 223.951 423.24 223.114 423.24ZM219.922 419.08V417.936H226.306V419.08H219.922ZM228.815 423V414.36H230.239V418H234.783V414.36H236.207V423H234.783V419.352H230.239V423H228.815ZM245.52 414.36V423H244.144V416.632L239.616 423H238.44V414.36H239.816V420.64L244.352 414.36H245.52ZM253.097 423V419.872H251.233C251.014 419.872 250.771 419.864 250.505 419.848C250.243 419.827 249.998 419.797 249.769 419.76C249.145 419.643 248.617 419.368 248.185 418.936C247.758 418.504 247.545 417.907 247.545 417.144C247.545 416.403 247.745 415.808 248.145 415.36C248.55 414.907 249.049 414.613 249.641 414.48C249.907 414.416 250.177 414.381 250.449 414.376C250.726 414.365 250.961 414.36 251.153 414.36H254.521L254.529 423H253.097ZM247.281 423L249.577 419.48H251.113L248.817 423H247.281ZM251.129 418.696H253.097V415.536H251.129C251.006 415.536 250.843 415.541 250.641 415.552C250.443 415.563 250.254 415.595 250.073 415.648C249.902 415.696 249.734 415.784 249.569 415.912C249.409 416.04 249.275 416.205 249.169 416.408C249.062 416.611 249.009 416.851 249.009 417.128C249.009 417.528 249.121 417.853 249.345 418.104C249.569 418.349 249.841 418.515 250.161 418.6C250.337 418.643 250.51 418.669 250.681 418.68C250.857 418.691 251.006 418.696 251.129 418.696ZM43.112 445V436.36H44.536V440H49.08V436.36H50.504V445H49.08V441.352H44.536V445H43.112ZM56.489 445.24C55.641 445.24 54.8997 445.053 54.265 444.68C53.6357 444.301 53.145 443.776 52.793 443.104C52.441 442.427 52.265 441.637 52.265 440.736C52.265 439.792 52.4383 438.976 52.785 438.288C53.1317 437.595 53.6143 437.061 54.233 436.688C54.857 436.309 55.5877 436.12 56.425 436.12C57.2943 436.12 58.033 436.32 58.641 436.72C59.2543 437.12 59.713 437.691 60.017 438.432C60.3263 439.173 60.4597 440.056 60.417 441.08H58.977V440.568C58.961 439.507 58.745 438.715 58.329 438.192C57.913 437.664 57.2943 437.4 56.473 437.4C55.593 437.4 54.9237 437.683 54.465 438.248C54.0063 438.813 53.777 439.624 53.777 440.68C53.777 441.699 54.0063 442.488 54.465 443.048C54.9237 443.608 55.577 443.888 56.425 443.888C56.9957 443.888 57.4917 443.757 57.913 443.496C58.3343 443.235 58.665 442.859 58.905 442.368L60.273 442.84C59.937 443.603 59.4303 444.195 58.753 444.616C58.081 445.032 57.3263 445.24 56.489 445.24ZM53.297 441.08V439.936H59.681V441.08H53.297ZM61.5581 446.92V443.824C62.0435 443.824 62.3901 443.667 62.5981 443.352C62.8061 443.032 62.9741 442.507 63.1021 441.776C63.1875 441.317 63.2568 440.827 63.3101 440.304C63.3635 439.781 63.4088 439.2 63.4461 438.56C63.4888 437.915 63.5288 437.181 63.5661 436.36H69.5181V443.824H70.3581V446.92H68.9981V445H62.9181V446.92H61.5581ZM63.7501 443.824H68.0941V437.536H64.8541C64.8381 437.915 64.8168 438.312 64.7901 438.728C64.7635 439.139 64.7315 439.549 64.6941 439.96C64.6621 440.371 64.6221 440.76 64.5741 441.128C64.5315 441.491 64.4808 441.816 64.4221 442.104C64.3528 442.504 64.2728 442.843 64.1821 443.12C64.0915 443.397 63.9475 443.632 63.7501 443.824ZM71.9558 445V436.36H75.6358C75.8544 436.36 76.0891 436.373 76.3398 436.4C76.5958 436.421 76.8278 436.461 77.0358 436.52C77.4998 436.643 77.8811 436.896 78.1798 437.28C78.4838 437.659 78.6358 438.139 78.6358 438.72C78.6358 439.045 78.5851 439.328 78.4838 439.568C78.3878 439.808 78.2491 440.016 78.0678 440.192C77.9878 440.272 77.8998 440.344 77.8038 440.408C77.7078 440.472 77.6118 440.523 77.5158 440.56C77.7024 440.592 77.8918 440.664 78.0838 440.776C78.3878 440.941 78.6251 441.173 78.7958 441.472C78.9718 441.771 79.0598 442.152 79.0598 442.616C79.0598 443.203 78.9184 443.688 78.6358 444.072C78.3531 444.451 77.9638 444.712 77.4678 444.856C77.2598 444.915 77.0304 444.955 76.7798 444.976C76.5291 444.992 76.2864 445 76.0518 445H71.9558ZM73.3958 443.84H75.9718C76.0838 443.84 76.2171 443.829 76.3718 443.808C76.5318 443.787 76.6731 443.76 76.7958 443.728C77.0731 443.648 77.2731 443.499 77.3958 443.28C77.5238 443.061 77.5878 442.824 77.5878 442.568C77.5878 442.227 77.4918 441.949 77.2998 441.736C77.1131 441.523 76.8651 441.389 76.5558 441.336C76.4438 441.304 76.3211 441.285 76.1878 441.28C76.0598 441.275 75.9451 441.272 75.8438 441.272H73.3958V443.84ZM73.3958 440.096H75.5398C75.6891 440.096 75.8464 440.088 76.0118 440.072C76.1771 440.051 76.3211 440.016 76.4438 439.968C76.6891 439.877 76.8678 439.728 76.9798 439.52C77.0971 439.307 77.1558 439.075 77.1558 438.824C77.1558 438.547 77.0918 438.304 76.9638 438.096C76.8411 437.883 76.6518 437.736 76.3958 437.656C76.2251 437.592 76.0331 437.557 75.8198 437.552C75.6118 437.541 75.4784 437.536 75.4198 437.536H73.3958V440.096ZM87.7389 436.36V445H86.3629V438.632L81.8349 445H80.6589V436.36H82.0349V442.64L86.5709 436.36H87.7389ZM89.0194 445L92.5074 440.68L89.1874 436.36H90.7714L93.9794 440.6V436.36H95.2754V440.6L98.4834 436.36H100.067L96.7474 440.68L100.235 445H98.5794L95.2754 440.76V445H93.9794V440.76L90.6754 445H89.0194ZM108.583 436.36V445H107.207V438.632L102.679 445H101.503V436.36H102.879V442.64L107.415 436.36H108.583ZM110.815 445V436.36H112.039L115.319 443.064L118.599 436.36H119.823V445H118.447V439.328L115.695 445H114.943L112.191 439.328V445H110.815ZM125.738 445.24C124.879 445.24 124.138 445.045 123.514 444.656C122.895 444.267 122.418 443.728 122.082 443.04C121.746 442.352 121.578 441.563 121.578 440.672C121.578 439.765 121.748 438.971 122.09 438.288C122.431 437.605 122.914 437.075 123.538 436.696C124.162 436.312 124.895 436.12 125.738 436.12C126.602 436.12 127.346 436.315 127.97 436.704C128.594 437.088 129.071 437.624 129.402 438.312C129.738 438.995 129.906 439.781 129.906 440.672C129.906 441.573 129.738 442.368 129.402 443.056C129.066 443.739 128.586 444.275 127.962 444.664C127.338 445.048 126.596 445.24 125.738 445.24ZM125.738 443.888C126.634 443.888 127.3 443.589 127.738 442.992C128.175 442.395 128.394 441.621 128.394 440.672C128.394 439.696 128.172 438.92 127.73 438.344C127.287 437.763 126.623 437.472 125.738 437.472C125.135 437.472 124.639 437.608 124.25 437.88C123.86 438.152 123.57 438.528 123.378 439.008C123.186 439.488 123.09 440.043 123.09 440.672C123.09 441.643 123.314 442.421 123.762 443.008C124.21 443.595 124.868 443.888 125.738 443.888ZM135.307 445.24C134.432 445.24 133.688 445.045 133.075 444.656C132.467 444.261 132.003 443.72 131.683 443.032C131.363 442.344 131.198 441.56 131.187 440.68C131.198 439.779 131.366 438.987 131.691 438.304C132.022 437.616 132.494 437.08 133.107 436.696C133.72 436.312 134.459 436.12 135.323 436.12C136.235 436.12 137.019 436.344 137.675 436.792C138.336 437.24 138.779 437.853 139.003 438.632L137.595 439.056C137.414 438.555 137.118 438.165 136.707 437.888C136.302 437.611 135.835 437.472 135.307 437.472C134.715 437.472 134.227 437.611 133.843 437.888C133.459 438.16 133.174 438.539 132.987 439.024C132.8 439.504 132.704 440.056 132.699 440.68C132.71 441.64 132.931 442.416 133.363 443.008C133.8 443.595 134.448 443.888 135.307 443.888C135.872 443.888 136.342 443.76 136.715 443.504C137.088 443.243 137.371 442.867 137.563 442.376L139.003 442.752C138.704 443.557 138.238 444.173 137.603 444.6C136.968 445.027 136.203 445.24 135.307 445.24ZM142.767 445V437.656H139.759V436.36H147.199V437.656H144.191V445H142.767ZM148.714 445L148.706 436.36H150.138V439.488H152.002C152.252 439.488 152.508 439.493 152.77 439.504C153.031 439.515 153.258 439.539 153.45 439.576C153.898 439.661 154.29 439.811 154.626 440.024C154.962 440.237 155.223 440.528 155.41 440.896C155.596 441.259 155.69 441.709 155.69 442.248C155.69 442.995 155.495 443.587 155.106 444.024C154.722 444.456 154.218 444.744 153.594 444.888C153.38 444.936 153.135 444.968 152.858 444.984C152.586 444.995 152.327 445 152.082 445H148.714ZM150.138 443.824H152.106C152.266 443.824 152.444 443.819 152.642 443.808C152.839 443.797 153.015 443.771 153.17 443.728C153.442 443.648 153.684 443.491 153.898 443.256C154.116 443.021 154.226 442.685 154.226 442.248C154.226 441.805 154.119 441.464 153.906 441.224C153.698 440.984 153.423 440.827 153.082 440.752C152.927 440.715 152.764 440.691 152.594 440.68C152.423 440.669 152.26 440.664 152.106 440.664H150.138V443.824ZM164.262 445.24C163.526 445.24 162.875 445.083 162.31 444.768C161.75 444.453 161.299 444.008 160.958 443.432C160.616 442.856 160.403 442.176 160.318 441.392H158.63V445H157.206V436.36H158.63V439.968H160.31C160.395 439.168 160.611 438.48 160.958 437.904C161.304 437.328 161.76 436.888 162.326 436.584C162.891 436.275 163.542 436.12 164.278 436.12C165.136 436.12 165.875 436.315 166.494 436.704C167.118 437.093 167.595 437.629 167.926 438.312C168.262 438.995 168.43 439.779 168.43 440.664C168.43 441.565 168.259 442.36 167.918 443.048C167.582 443.736 167.102 444.275 166.478 444.664C165.859 445.048 165.12 445.24 164.262 445.24ZM164.238 443.888C165.144 443.888 165.816 443.592 166.254 443C166.696 442.403 166.918 441.627 166.918 440.672C166.918 439.691 166.694 438.912 166.246 438.336C165.803 437.76 165.136 437.472 164.246 437.472C163.387 437.472 162.734 437.757 162.286 438.328C161.838 438.899 161.614 439.677 161.614 440.664C161.614 441.64 161.835 442.421 162.278 443.008C162.726 443.595 163.379 443.888 164.238 443.888Z" fill="#FEFEFE"></path><rect x="32" y="32" width="216" height="35" rx="17.5" fill="white"></rect><path d="M42.877 54.993L43.689 51.962H40.84L41.099 50.975H43.955L44.55 48.728H41.701L41.967 47.741H44.823L45.572 44.92H46.601L45.838 47.741H48.183L48.932 44.92H49.961L49.198 47.741H52.047L51.781 48.728H48.939L48.33 50.975H51.179L50.913 51.962H48.071L47.259 54.993H46.237L47.042 51.962H44.711L43.899 54.993H42.877ZM44.977 50.975H47.315L47.91 48.728H45.579L44.977 50.975ZM53.3126 56.68V54.118C53.7419 54.118 54.0499 53.9803 54.2366 53.705C54.4232 53.425 54.5749 52.9793 54.6916 52.368C54.7709 51.9713 54.8362 51.5443 54.8876 51.087C54.9389 50.6297 54.9832 50.107 55.0206 49.519C55.0579 48.9263 55.0929 48.2333 55.1256 47.44H60.1236V54.118H60.8516V56.68H59.8576V55H54.2996V56.68H53.3126ZM55.0556 54.118H59.1016V48.322H56.0776C56.0636 48.6767 56.0426 49.0523 56.0146 49.449C55.9912 49.8457 55.9609 50.2423 55.9236 50.639C55.8909 51.0357 55.8512 51.409 55.8046 51.759C55.7626 52.1043 55.7112 52.4077 55.6506 52.669C55.5806 53.005 55.5036 53.292 55.4196 53.53C55.3402 53.768 55.2189 53.964 55.0556 54.118ZM65.4104 55.21C64.6591 55.21 64.0174 55.0397 63.4854 54.699C62.9534 54.3583 62.5451 53.887 62.2604 53.285C61.9758 52.683 61.8334 51.9923 61.8334 51.213C61.8334 50.4197 61.9781 49.7243 62.2674 49.127C62.5568 48.5297 62.9674 48.0653 63.4994 47.734C64.0361 47.398 64.6731 47.23 65.4104 47.23C66.1664 47.23 66.8104 47.4003 67.3424 47.741C67.8791 48.077 68.2874 48.546 68.5674 49.148C68.8521 49.7453 68.9944 50.4337 68.9944 51.213C68.9944 52.0063 68.8521 52.704 68.5674 53.306C68.2828 53.9033 67.8721 54.37 67.3354 54.706C66.7988 55.042 66.1571 55.21 65.4104 55.21ZM65.4104 54.223C66.2504 54.223 66.8758 53.9453 67.2864 53.39C67.6971 52.83 67.9024 52.1043 67.9024 51.213C67.9024 50.2983 67.6948 49.5703 67.2794 49.029C66.8688 48.4877 66.2458 48.217 65.4104 48.217C64.8458 48.217 64.3791 48.3453 64.0104 48.602C63.6464 48.854 63.3734 49.2063 63.1914 49.659C63.0141 50.107 62.9254 50.625 62.9254 51.213C62.9254 52.123 63.1354 52.8533 63.5554 53.404C63.9754 53.95 64.5938 54.223 65.4104 54.223ZM70.5316 55V47.44H73.6466C73.8053 47.44 73.9966 47.4493 74.2206 47.468C74.4493 47.4867 74.6616 47.5217 74.8576 47.573C75.2823 47.685 75.6229 47.9137 75.8796 48.259C76.1409 48.6043 76.2716 49.0197 76.2716 49.505C76.2716 49.7757 76.2296 50.0183 76.1456 50.233C76.0663 50.443 75.9519 50.625 75.8026 50.779C75.7326 50.8583 75.6556 50.9283 75.5716 50.989C75.4876 51.045 75.4059 51.0917 75.3266 51.129C75.4759 51.157 75.6369 51.2223 75.8096 51.325C76.0803 51.4837 76.2856 51.6983 76.4256 51.969C76.5656 52.235 76.6356 52.5593 76.6356 52.942C76.6356 53.46 76.5119 53.8823 76.2646 54.209C76.0173 54.5357 75.6859 54.7597 75.2706 54.881C75.0839 54.9323 74.8809 54.965 74.6616 54.979C74.4469 54.993 74.2439 55 74.0526 55H70.5316ZM71.5676 54.125H74.0036C74.1016 54.125 74.2253 54.118 74.3746 54.104C74.5239 54.0853 74.6569 54.062 74.7736 54.034C75.0489 53.964 75.2496 53.824 75.3756 53.614C75.5063 53.3993 75.5716 53.166 75.5716 52.914C75.5716 52.5827 75.4736 52.312 75.2776 52.102C75.0863 51.8873 74.8296 51.7567 74.5076 51.71C74.4003 51.6867 74.2883 51.6727 74.1716 51.668C74.0549 51.6633 73.9499 51.661 73.8566 51.661H71.5676V54.125ZM71.5676 50.779H73.6816C73.8029 50.779 73.9383 50.772 74.0876 50.758C74.2416 50.7393 74.3746 50.709 74.4866 50.667C74.7293 50.583 74.9066 50.4383 75.0186 50.233C75.1353 50.0277 75.1936 49.8037 75.1936 49.561C75.1936 49.295 75.1306 49.0617 75.0046 48.861C74.8833 48.6603 74.6989 48.5203 74.4516 48.441C74.2836 48.3803 74.1016 48.3453 73.9056 48.336C73.7143 48.3267 73.5929 48.322 73.5416 48.322H71.5676V50.779ZM81.2298 55.21C80.4924 55.21 79.8531 55.0467 79.3118 54.72C78.7751 54.3933 78.3574 53.9337 78.0588 53.341C77.7601 52.7483 77.6108 52.053 77.6108 51.255C77.6108 50.429 77.7578 49.715 78.0518 49.113C78.3458 48.511 78.7588 48.0467 79.2908 47.72C79.8274 47.3933 80.4598 47.23 81.1878 47.23C81.9344 47.23 82.5714 47.4027 83.0988 47.748C83.6261 48.0887 84.0251 48.5787 84.2958 49.218C84.5664 49.8573 84.6901 50.6203 84.6668 51.507H83.6168V51.143C83.5981 50.163 83.3858 49.4233 82.9798 48.924C82.5784 48.4247 81.9904 48.175 81.2158 48.175C80.4038 48.175 79.7808 48.4387 79.3468 48.966C78.9174 49.4933 78.7028 50.2447 78.7028 51.22C78.7028 52.172 78.9174 52.9117 79.3468 53.439C79.7808 53.9617 80.3944 54.223 81.1878 54.223C81.7291 54.223 82.2004 54.0993 82.6018 53.852C83.0078 53.6 83.3274 53.2383 83.5608 52.767L84.5198 53.138C84.2211 53.796 83.7801 54.307 83.1968 54.671C82.6181 55.0303 81.9624 55.21 81.2298 55.21ZM78.3388 51.507V50.646H84.1138V51.507H78.3388ZM89.6152 55.21C88.9199 55.21 88.3319 55.035 87.8512 54.685C87.3706 54.3303 87.0066 53.852 86.7592 53.25C86.5119 52.6433 86.3882 51.9643 86.3882 51.213C86.3882 50.4477 86.5119 49.7663 86.7592 49.169C87.0112 48.567 87.3799 48.0933 87.8652 47.748C88.3506 47.4027 88.9479 47.23 89.6572 47.23C90.3479 47.23 90.9406 47.405 91.4352 47.755C91.9299 48.105 92.3079 48.581 92.5692 49.183C92.8352 49.785 92.9682 50.4617 92.9682 51.213C92.9682 51.969 92.8352 52.648 92.5692 53.25C92.3032 53.852 91.9206 54.3303 91.4212 54.685C90.9219 55.035 90.3199 55.21 89.6152 55.21ZM86.2132 58.36V47.44H87.1372V53.131H87.2492V58.36H86.2132ZM89.5102 54.251C90.0376 54.251 90.4762 54.118 90.8262 53.852C91.1762 53.586 91.4376 53.2243 91.6102 52.767C91.7876 52.305 91.8762 51.787 91.8762 51.213C91.8762 50.6437 91.7899 50.1303 91.6172 49.673C91.4446 49.2157 91.1809 48.854 90.8262 48.588C90.4762 48.322 90.0306 48.189 89.4892 48.189C88.9619 48.189 88.5232 48.3173 88.1732 48.574C87.8279 48.8307 87.5689 49.1877 87.3962 49.645C87.2236 50.0977 87.1372 50.6203 87.1372 51.213C87.1372 51.7963 87.2236 52.319 87.3962 52.781C87.5689 53.2383 87.8302 53.5977 88.1802 53.859C88.5302 54.1203 88.9736 54.251 89.5102 54.251ZM100.511 47.44V55H99.5104V49.113L95.3664 55H94.4984V47.44H95.4994V53.278L99.6504 47.44H100.511ZM104.527 55V48.392H101.846V47.44H108.237V48.392H105.556V55H104.527ZM112.771 55.21C112.033 55.21 111.394 55.0467 110.853 54.72C110.316 54.3933 109.898 53.9337 109.6 53.341C109.301 52.7483 109.152 52.053 109.152 51.255C109.152 50.429 109.299 49.715 109.593 49.113C109.887 48.511 110.3 48.0467 110.832 47.72C111.368 47.3933 112.001 47.23 112.729 47.23C113.475 47.23 114.112 47.4027 114.64 47.748C115.167 48.0887 115.566 48.5787 115.837 49.218C116.107 49.8573 116.231 50.6203 116.208 51.507H115.158V51.143C115.139 50.163 114.927 49.4233 114.521 48.924C114.119 48.4247 113.531 48.175 112.757 48.175C111.945 48.175 111.322 48.4387 110.888 48.966C110.458 49.4933 110.244 50.2447 110.244 51.22C110.244 52.172 110.458 52.9117 110.888 53.439C111.322 53.9617 111.935 54.223 112.729 54.223C113.27 54.223 113.741 54.0993 114.143 53.852C114.549 53.6 114.868 53.2383 115.102 52.767L116.061 53.138C115.762 53.796 115.321 54.307 114.738 54.671C114.159 55.0303 113.503 55.21 112.771 55.21ZM109.88 51.507V50.646H115.655V51.507H109.88ZM117.061 55V54.097C117.341 54.1483 117.554 54.1367 117.698 54.062C117.848 53.9827 117.957 53.852 118.027 53.67C118.097 53.4833 118.156 53.2523 118.202 52.977C118.277 52.5197 118.345 52.0157 118.405 51.465C118.466 50.9143 118.52 50.3077 118.566 49.645C118.618 48.9777 118.669 48.2427 118.72 47.44H123.858V55H122.836V48.427H119.672C119.64 48.9217 119.602 49.414 119.56 49.904C119.518 50.394 119.474 50.8653 119.427 51.318C119.385 51.766 119.339 52.179 119.287 52.557C119.236 52.935 119.182 53.2617 119.126 53.537C119.042 53.9523 118.93 54.2837 118.79 54.531C118.655 54.7783 118.452 54.9417 118.181 55.021C117.911 55.1003 117.537 55.0933 117.061 55ZM125.821 55L125.807 47.44H126.843V50.289H128.614C128.833 50.289 129.048 50.2937 129.258 50.303C129.473 50.3123 129.662 50.331 129.825 50.359C130.198 50.429 130.53 50.5527 130.819 50.73C131.113 50.9073 131.342 51.1523 131.505 51.465C131.673 51.7777 131.757 52.1697 131.757 52.641C131.757 53.2897 131.589 53.8007 131.253 54.174C130.922 54.5473 130.502 54.79 129.993 54.902C129.802 54.944 129.594 54.972 129.37 54.986C129.146 54.9953 128.924 55 128.705 55H125.821ZM126.843 54.118H128.663C128.822 54.118 128.999 54.1133 129.195 54.104C129.391 54.0947 129.564 54.069 129.713 54.027C129.96 53.957 130.184 53.817 130.385 53.607C130.59 53.3923 130.693 53.0703 130.693 52.641C130.693 52.2163 130.595 51.8967 130.399 51.682C130.203 51.4627 129.942 51.318 129.615 51.248C129.47 51.2153 129.314 51.1943 129.146 51.185C128.978 51.1757 128.817 51.171 128.663 51.171H126.843V54.118ZM133.08 55V47.44H134.109V50.723H138.372V47.44H139.401V55H138.372V51.71H134.109V55H133.08ZM144.516 55.21C143.765 55.21 143.123 55.0397 142.591 54.699C142.059 54.3583 141.651 53.887 141.366 53.285C141.081 52.683 140.939 51.9923 140.939 51.213C140.939 50.4197 141.084 49.7243 141.373 49.127C141.662 48.5297 142.073 48.0653 142.605 47.734C143.142 47.398 143.779 47.23 144.516 47.23C145.272 47.23 145.916 47.4003 146.448 47.741C146.985 48.077 147.393 48.546 147.673 49.148C147.958 49.7453 148.1 50.4337 148.1 51.213C148.1 52.0063 147.958 52.704 147.673 53.306C147.388 53.9033 146.978 54.37 146.441 54.706C145.904 55.042 145.263 55.21 144.516 55.21ZM144.516 54.223C145.356 54.223 145.981 53.9453 146.392 53.39C146.803 52.83 147.008 52.1043 147.008 51.213C147.008 50.2983 146.8 49.5703 146.385 49.029C145.974 48.4877 145.351 48.217 144.516 48.217C143.951 48.217 143.485 48.3453 143.116 48.602C142.752 48.854 142.479 49.2063 142.297 49.659C142.12 50.107 142.031 50.625 142.031 51.213C142.031 52.123 142.241 52.8533 142.661 53.404C143.081 53.95 143.699 54.223 144.516 54.223ZM152.843 55.21C152.106 55.21 151.466 55.0467 150.925 54.72C150.388 54.3933 149.971 53.9337 149.672 53.341C149.373 52.7483 149.224 52.053 149.224 51.255C149.224 50.429 149.371 49.715 149.665 49.113C149.959 48.511 150.372 48.0467 150.904 47.72C151.441 47.3933 152.073 47.23 152.801 47.23C153.548 47.23 154.185 47.4027 154.712 47.748C155.239 48.0887 155.638 48.5787 155.909 49.218C156.18 49.8573 156.303 50.6203 156.28 51.507H155.23V51.143C155.211 50.163 154.999 49.4233 154.593 48.924C154.192 48.4247 153.604 48.175 152.829 48.175C152.017 48.175 151.394 48.4387 150.96 48.966C150.531 49.4933 150.316 50.2447 150.316 51.22C150.316 52.172 150.531 52.9117 150.96 53.439C151.394 53.9617 152.008 54.223 152.801 54.223C153.342 54.223 153.814 54.0993 154.215 53.852C154.621 53.6 154.941 53.2383 155.174 52.767L156.133 53.138C155.834 53.796 155.393 54.307 154.81 54.671C154.231 55.0303 153.576 55.21 152.843 55.21ZM149.952 51.507V50.646H155.727V51.507H149.952ZM161.714 58.36L163.177 54.391L163.198 55.567L159.887 47.44H160.979L163.695 54.237H163.247L165.753 47.44H166.803L162.743 58.36H161.714ZM168.012 55V47.44H174.025V55H172.996V48.427H169.041V55H168.012ZM179.385 55.21C178.689 55.21 178.101 55.035 177.621 54.685C177.14 54.3303 176.776 53.852 176.529 53.25C176.281 52.6433 176.158 51.9643 176.158 51.213C176.158 50.4477 176.281 49.7663 176.529 49.169C176.781 48.567 177.149 48.0933 177.635 47.748C178.12 47.4027 178.717 47.23 179.427 47.23C180.117 47.23 180.71 47.405 181.205 47.755C181.699 48.105 182.077 48.581 182.339 49.183C182.605 49.785 182.738 50.4617 182.738 51.213C182.738 51.969 182.605 52.648 182.339 53.25C182.073 53.852 181.69 54.3303 181.191 54.685C180.691 55.035 180.089 55.21 179.385 55.21ZM175.983 58.36V47.44H176.907V53.131H177.019V58.36H175.983ZM179.28 54.251C179.807 54.251 180.246 54.118 180.596 53.852C180.946 53.586 181.207 53.2243 181.38 52.767C181.557 52.305 181.646 51.787 181.646 51.213C181.646 50.6437 181.559 50.1303 181.387 49.673C181.214 49.2157 180.95 48.854 180.596 48.588C180.246 48.322 179.8 48.189 179.259 48.189C178.731 48.189 178.293 48.3173 177.943 48.574C177.597 48.8307 177.338 49.1877 177.166 49.645C176.993 50.0977 176.907 50.6203 176.907 51.213C176.907 51.7963 176.993 52.319 177.166 52.781C177.338 53.2383 177.6 53.5977 177.95 53.859C178.3 54.1203 178.743 54.251 179.28 54.251ZM186.438 55.21C185.869 55.21 185.39 55.1073 185.003 54.902C184.62 54.6967 184.333 54.4237 184.142 54.083C183.951 53.7423 183.855 53.3713 183.855 52.97C183.855 52.5593 183.937 52.2093 184.1 51.92C184.268 51.626 184.494 51.3857 184.779 51.199C185.068 51.0123 185.402 50.87 185.78 50.772C186.163 50.6787 186.585 50.597 187.047 50.527C187.514 50.4523 187.969 50.3893 188.412 50.338C188.86 50.282 189.252 50.2283 189.588 50.177L189.224 50.401C189.238 49.6543 189.093 49.1013 188.79 48.742C188.487 48.3827 187.959 48.203 187.208 48.203C186.69 48.203 186.251 48.3197 185.892 48.553C185.537 48.7863 185.288 49.155 185.143 49.659L184.142 49.365C184.315 48.6883 184.662 48.1633 185.185 47.79C185.708 47.4167 186.387 47.23 187.222 47.23C187.913 47.23 188.498 47.3607 188.979 47.622C189.464 47.8787 189.807 48.252 190.008 48.742C190.101 48.9613 190.162 49.2063 190.19 49.477C190.218 49.7477 190.232 50.023 190.232 50.303V55H189.315V53.103L189.581 53.215C189.324 53.8637 188.925 54.3583 188.384 54.699C187.843 55.0397 187.194 55.21 186.438 55.21ZM186.557 54.321C187.038 54.321 187.458 54.2347 187.817 54.062C188.176 53.8893 188.466 53.6537 188.685 53.355C188.904 53.0517 189.047 52.711 189.112 52.333C189.168 52.0903 189.198 51.8243 189.203 51.535C189.208 51.241 189.21 51.0217 189.21 50.877L189.602 51.08C189.252 51.1267 188.872 51.1733 188.461 51.22C188.055 51.2667 187.654 51.3203 187.257 51.381C186.865 51.4417 186.51 51.514 186.193 51.598C185.978 51.6587 185.771 51.745 185.57 51.857C185.369 51.9643 185.204 52.109 185.073 52.291C184.947 52.473 184.884 52.6993 184.884 52.97C184.884 53.1893 184.938 53.4017 185.045 53.607C185.157 53.8123 185.334 53.9827 185.577 54.118C185.824 54.2533 186.151 54.321 186.557 54.321ZM192.047 55V47.44H195.162C195.321 47.44 195.512 47.4493 195.736 47.468C195.965 47.4867 196.177 47.5217 196.373 47.573C196.798 47.685 197.139 47.9137 197.395 48.259C197.657 48.6043 197.787 49.0197 197.787 49.505C197.787 49.7757 197.745 50.0183 197.661 50.233C197.582 50.443 197.468 50.625 197.318 50.779C197.248 50.8583 197.171 50.9283 197.087 50.989C197.003 51.045 196.922 51.0917 196.842 51.129C196.992 51.157 197.153 51.2223 197.325 51.325C197.596 51.4837 197.801 51.6983 197.941 51.969C198.081 52.235 198.151 52.5593 198.151 52.942C198.151 53.46 198.028 53.8823 197.78 54.209C197.533 54.5357 197.202 54.7597 196.786 54.881C196.6 54.9323 196.397 54.965 196.177 54.979C195.963 54.993 195.76 55 195.568 55H192.047ZM193.083 54.125H195.519C195.617 54.125 195.741 54.118 195.89 54.104C196.04 54.0853 196.173 54.062 196.289 54.034C196.565 53.964 196.765 53.824 196.891 53.614C197.022 53.3993 197.087 53.166 197.087 52.914C197.087 52.5827 196.989 52.312 196.793 52.102C196.602 51.8873 196.345 51.7567 196.023 51.71C195.916 51.6867 195.804 51.6727 195.687 51.668C195.571 51.6633 195.466 51.661 195.372 51.661H193.083V54.125ZM193.083 50.779H195.197C195.319 50.779 195.454 50.772 195.603 50.758C195.757 50.7393 195.89 50.709 196.002 50.667C196.245 50.583 196.422 50.4383 196.534 50.233C196.651 50.0277 196.709 49.8037 196.709 49.561C196.709 49.295 196.646 49.0617 196.52 48.861C196.399 48.6603 196.215 48.5203 195.967 48.441C195.799 48.3803 195.617 48.3453 195.421 48.336C195.23 48.3267 195.109 48.322 195.057 48.322H193.083V50.779ZM198.846 55V54.097C199.126 54.1483 199.339 54.1367 199.483 54.062C199.633 53.9827 199.742 53.852 199.812 53.67C199.882 53.4833 199.941 53.2523 199.987 52.977C200.062 52.5197 200.13 52.0157 200.19 51.465C200.251 50.9143 200.305 50.3077 200.351 49.645C200.403 48.9777 200.454 48.2427 200.505 47.44H205.643V55H204.621V48.427H201.457C201.425 48.9217 201.387 49.414 201.345 49.904C201.303 50.394 201.259 50.8653 201.212 51.318C201.17 51.766 201.124 52.179 201.072 52.557C201.021 52.935 200.967 53.2617 200.911 53.537C200.827 53.9523 200.715 54.2837 200.575 54.531C200.44 54.7783 200.237 54.9417 199.966 55.021C199.696 55.1003 199.322 55.0933 198.846 55ZM210.798 55.21C210.061 55.21 209.421 55.0467 208.88 54.72C208.343 54.3933 207.926 53.9337 207.627 53.341C207.328 52.7483 207.179 52.053 207.179 51.255C207.179 50.429 207.326 49.715 207.62 49.113C207.914 48.511 208.327 48.0467 208.859 47.72C209.396 47.3933 210.028 47.23 210.756 47.23C211.503 47.23 212.14 47.4027 212.667 47.748C213.194 48.0887 213.593 48.5787 213.864 49.218C214.135 49.8573 214.258 50.6203 214.235 51.507H213.185V51.143C213.166 50.163 212.954 49.4233 212.548 48.924C212.147 48.4247 211.559 48.175 210.784 48.175C209.972 48.175 209.349 48.4387 208.915 48.966C208.486 49.4933 208.271 50.2447 208.271 51.22C208.271 52.172 208.486 52.9117 208.915 53.439C209.349 53.9617 209.963 54.223 210.756 54.223C211.297 54.223 211.769 54.0993 212.17 53.852C212.576 53.6 212.896 53.2383 213.129 52.767L214.088 53.138C213.789 53.796 213.348 54.307 212.765 54.671C212.186 55.0303 211.531 55.21 210.798 55.21ZM207.907 51.507V50.646H213.682V51.507H207.907ZM215.782 55V47.44H216.811V50.723H221.074V47.44H222.103V55H221.074V51.71H216.811V55H215.782ZM230.066 47.44V55H229.065V49.113L224.921 55H224.053V47.44H225.054V53.278L229.205 47.44H230.066ZM235.23 55.21C234.492 55.21 233.853 55.0467 233.312 54.72C232.775 54.3933 232.357 53.9337 232.059 53.341C231.76 52.7483 231.611 52.053 231.611 51.255C231.611 50.429 231.758 49.715 232.052 49.113C232.346 48.511 232.759 48.0467 233.291 47.72C233.827 47.3933 234.46 47.23 235.188 47.23C235.934 47.23 236.571 47.4027 237.099 47.748C237.626 48.0887 238.025 48.5787 238.296 49.218C238.566 49.8573 238.69 50.6203 238.667 51.507H237.617V51.143C237.598 50.163 237.386 49.4233 236.98 48.924C236.578 48.4247 235.99 48.175 235.216 48.175C234.404 48.175 233.781 48.4387 233.347 48.966C232.917 49.4933 232.703 50.2447 232.703 51.22C232.703 52.172 232.917 52.9117 233.347 53.439C233.781 53.9617 234.394 54.223 235.188 54.223C235.729 54.223 236.2 54.0993 236.602 53.852C237.008 53.6 237.327 53.2383 237.561 52.767L238.52 53.138C238.221 53.796 237.78 54.307 237.197 54.671C236.618 55.0303 235.962 55.21 235.23 55.21ZM232.339 51.507V50.646H238.114V51.507H232.339Z" fill="#121212"></path><rect x="256" y="32" width="79" height="35" rx="17.5" fill="white"></rect><path d="M266.877 54.993L267.689 51.962H264.84L265.099 50.975H267.955L268.55 48.728H265.701L265.967 47.741H268.823L269.572 44.92H270.601L269.838 47.741H272.183L272.932 44.92H273.961L273.198 47.741H276.047L275.781 48.728H272.939L272.33 50.975H275.179L274.913 51.962H272.071L271.259 54.993H270.237L271.042 51.962H268.711L267.899 54.993H266.877ZM268.977 50.975H271.315L271.91 48.728H269.579L268.977 50.975ZM281.268 55.21C280.572 55.21 279.984 55.035 279.504 54.685C279.023 54.3303 278.659 53.852 278.412 53.25C278.164 52.6433 278.041 51.9643 278.041 51.213C278.041 50.4477 278.164 49.7663 278.412 49.169C278.664 48.567 279.032 48.0933 279.518 47.748C280.003 47.4027 280.6 47.23 281.31 47.23C282 47.23 282.593 47.405 283.088 47.755C283.582 48.105 283.96 48.581 284.222 49.183C284.488 49.785 284.621 50.4617 284.621 51.213C284.621 51.969 284.488 52.648 284.222 53.25C283.956 53.852 283.573 54.3303 283.074 54.685C282.574 55.035 281.972 55.21 281.268 55.21ZM277.866 58.36V47.44H278.79V53.131H278.902V58.36H277.866ZM281.163 54.251C281.69 54.251 282.129 54.118 282.479 53.852C282.829 53.586 283.09 53.2243 283.263 52.767C283.44 52.305 283.529 51.787 283.529 51.213C283.529 50.6437 283.442 50.1303 283.27 49.673C283.097 49.2157 282.833 48.854 282.479 48.588C282.129 48.322 281.683 48.189 281.142 48.189C280.614 48.189 280.176 48.3173 279.826 48.574C279.48 48.8307 279.221 49.1877 279.049 49.645C278.876 50.0977 278.79 50.6203 278.79 51.213C278.79 51.7963 278.876 52.319 279.049 52.781C279.221 53.2383 279.483 53.5977 279.833 53.859C280.183 54.1203 280.626 54.251 281.163 54.251ZM289.357 55.21C288.619 55.21 287.98 55.0467 287.439 54.72C286.902 54.3933 286.484 53.9337 286.186 53.341C285.887 52.7483 285.738 52.053 285.738 51.255C285.738 50.429 285.885 49.715 286.179 49.113C286.473 48.511 286.886 48.0467 287.418 47.72C287.954 47.3933 288.587 47.23 289.315 47.23C290.061 47.23 290.698 47.4027 291.226 47.748C291.753 48.0887 292.152 48.5787 292.423 49.218C292.693 49.8573 292.817 50.6203 292.794 51.507H291.744V51.143C291.725 50.163 291.513 49.4233 291.107 48.924C290.705 48.4247 290.117 48.175 289.343 48.175C288.531 48.175 287.908 48.4387 287.474 48.966C287.044 49.4933 286.83 50.2447 286.83 51.22C286.83 52.172 287.044 52.9117 287.474 53.439C287.908 53.9617 288.521 54.223 289.315 54.223C289.856 54.223 290.327 54.0993 290.729 53.852C291.135 53.6 291.454 53.2383 291.688 52.767L292.647 53.138C292.348 53.796 291.907 54.307 291.324 54.671C290.745 55.0303 290.089 55.21 289.357 55.21ZM286.466 51.507V50.646H292.241V51.507H286.466ZM294.135 55V47.44H295.052L297.999 53.628L300.953 47.44H301.863V55H300.869V49.638L298.328 55H297.677L295.136 49.638V55H294.135ZM306.979 55.21C306.227 55.21 305.586 55.0397 305.054 54.699C304.522 54.3583 304.113 53.887 303.829 53.285C303.544 52.683 303.402 51.9923 303.402 51.213C303.402 50.4197 303.546 49.7243 303.836 49.127C304.125 48.5297 304.536 48.0653 305.068 47.734C305.604 47.398 306.241 47.23 306.979 47.23C307.735 47.23 308.379 47.4003 308.911 47.741C309.447 48.077 309.856 48.546 310.136 49.148C310.42 49.7453 310.563 50.4337 310.563 51.213C310.563 52.0063 310.42 52.704 310.136 53.306C309.851 53.9033 309.44 54.37 308.904 54.706C308.367 55.042 307.725 55.21 306.979 55.21ZM306.979 54.223C307.819 54.223 308.444 53.9453 308.855 53.39C309.265 52.83 309.471 52.1043 309.471 51.213C309.471 50.2983 309.263 49.5703 308.848 49.029C308.437 48.4877 307.814 48.217 306.979 48.217C306.414 48.217 305.947 48.3453 305.579 48.602C305.215 48.854 304.942 49.2063 304.76 49.659C304.582 50.107 304.494 50.625 304.494 51.213C304.494 52.123 304.704 52.8533 305.124 53.404C305.544 53.95 306.162 54.223 306.979 54.223ZM312.1 55V47.44H313.129V50.723H317.392V47.44H318.421V55H317.392V51.71H313.129V55H312.1ZM322.429 55V48.392H319.748V47.44H326.139V48.392H323.458V55H322.429Z" fill="#121212"></path><rect x="32" y="75" width="110" height="35" rx="17.5" fill="white"></rect><path d="M42.877 97.993L43.689 94.962H40.84L41.099 93.975H43.955L44.55 91.728H41.701L41.967 90.741H44.823L45.572 87.92H46.601L45.838 90.741H48.183L48.932 87.92H49.961L49.198 90.741H52.047L51.781 91.728H48.939L48.33 93.975H51.179L50.913 94.962H48.071L47.259 97.993H46.237L47.042 94.962H44.711L43.899 97.993H42.877ZM44.977 93.975H47.315L47.91 91.728H45.579L44.977 93.975ZM53.8656 98V90.44H54.7826L57.7296 96.628L60.6836 90.44H61.5936V98H60.5996V92.638L58.0586 98H57.4076L54.8666 92.638V98H53.8656ZM66.7513 98.21C66.0139 98.21 65.3746 98.0467 64.8333 97.72C64.2966 97.3933 63.8789 96.9337 63.5803 96.341C63.2816 95.7483 63.1323 95.053 63.1323 94.255C63.1323 93.429 63.2793 92.715 63.5733 92.113C63.8673 91.511 64.2803 91.0467 64.8123 90.72C65.3489 90.3933 65.9813 90.23 66.7093 90.23C67.4559 90.23 68.0929 90.4027 68.6203 90.748C69.1476 91.0887 69.5466 91.5787 69.8173 92.218C70.0879 92.8573 70.2116 93.6203 70.1883 94.507H69.1383V94.143C69.1196 93.163 68.9073 92.4233 68.5013 91.924C68.0999 91.4247 67.5119 91.175 66.7373 91.175C65.9253 91.175 65.3023 91.4387 64.8683 91.966C64.4389 92.4933 64.2243 93.2447 64.2243 94.22C64.2243 95.172 64.4389 95.9117 64.8683 96.439C65.3023 96.9617 65.9159 97.223 66.7093 97.223C67.2506 97.223 67.7219 97.0993 68.1233 96.852C68.5293 96.6 68.8489 96.2383 69.0823 95.767L70.0413 96.138C69.7426 96.796 69.3016 97.307 68.7183 97.671C68.1396 98.0303 67.4839 98.21 66.7513 98.21ZM63.8603 94.507V93.646H69.6353V94.507H63.8603ZM74.7727 98.217C74.0681 98.2123 73.4637 98.0583 72.9597 97.755C72.4557 97.4517 72.0637 96.999 71.7837 96.397C71.5084 95.795 71.3591 95.0437 71.3357 94.143C71.3217 93.7463 71.3311 93.3147 71.3637 92.848C71.3964 92.3767 71.4477 91.9287 71.5177 91.504C71.5877 91.0793 71.6717 90.734 71.7697 90.468C71.8911 90.1227 72.0637 89.8007 72.2877 89.502C72.5164 89.1987 72.7801 88.9513 73.0787 88.76C73.3681 88.564 73.6947 88.4123 74.0587 88.305C74.4274 88.193 74.8101 88.1067 75.2067 88.046C75.6081 87.9853 76.0047 87.9317 76.3967 87.885C76.7934 87.8383 77.1597 87.78 77.4957 87.71L77.6077 88.641C77.3511 88.6923 77.0477 88.739 76.6977 88.781C76.3477 88.823 75.9814 88.8743 75.5987 88.935C75.2161 88.991 74.8497 89.068 74.4997 89.166C74.1497 89.264 73.8511 89.3923 73.6037 89.551C73.2257 89.7797 72.9341 90.125 72.7287 90.587C72.5281 91.049 72.4044 91.5787 72.3577 92.176C72.6471 91.7233 73.0297 91.3827 73.5057 91.154C73.9864 90.9253 74.5067 90.811 75.0667 90.811C75.7481 90.811 76.3337 90.9673 76.8237 91.28C77.3184 91.5927 77.6987 92.0267 77.9647 92.582C78.2307 93.1373 78.3637 93.7743 78.3637 94.493C78.3637 95.2443 78.2167 95.9 77.9227 96.46C77.6334 97.02 77.2204 97.454 76.6837 97.762C76.1471 98.0653 75.5101 98.217 74.7727 98.217ZM74.8497 97.23C75.6431 97.23 76.2451 96.9827 76.6557 96.488C77.0711 95.9933 77.2787 95.3353 77.2787 94.514C77.2787 93.674 77.0641 93.0113 76.6347 92.526C76.2101 92.0407 75.6104 91.798 74.8357 91.798C74.0611 91.798 73.4661 92.0407 73.0507 92.526C72.6354 93.0113 72.4277 93.674 72.4277 94.514C72.4277 95.354 72.6354 96.0167 73.0507 96.502C73.4661 96.9873 74.0657 97.23 74.8497 97.23ZM79.2038 98V97.097C79.4838 97.1483 79.6962 97.1367 79.8408 97.062C79.9902 96.9827 80.0998 96.852 80.1698 96.67C80.2398 96.4833 80.2982 96.2523 80.3448 95.977C80.4195 95.5197 80.4872 95.0157 80.5478 94.465C80.6085 93.9143 80.6622 93.3077 80.7088 92.645C80.7602 91.9777 80.8115 91.2427 80.8628 90.44H86.0008V98H84.9788V91.427H81.8148C81.7822 91.9217 81.7448 92.414 81.7028 92.904C81.6608 93.394 81.6165 93.8653 81.5698 94.318C81.5278 94.766 81.4812 95.179 81.4298 95.557C81.3785 95.935 81.3248 96.2617 81.2688 96.537C81.1848 96.9523 81.0728 97.2837 80.9328 97.531C80.7975 97.7783 80.5945 97.9417 80.3238 98.021C80.0532 98.1003 79.6798 98.0933 79.2038 98ZM93.9626 90.44V98H92.9616V92.113L88.8176 98H87.9496V90.44H88.9506V96.278L93.1016 90.44H93.9626ZM99.3223 98.21C98.6269 98.21 98.0389 98.035 97.5583 97.685C97.0776 97.3303 96.7136 96.852 96.4663 96.25C96.2189 95.6433 96.0953 94.9643 96.0953 94.213C96.0953 93.4477 96.2189 92.7663 96.4663 92.169C96.7183 91.567 97.0869 91.0933 97.5723 90.748C98.0576 90.4027 98.6549 90.23 99.3643 90.23C100.055 90.23 100.648 90.405 101.142 90.755C101.637 91.105 102.015 91.581 102.276 92.183C102.542 92.785 102.675 93.4617 102.675 94.213C102.675 94.969 102.542 95.648 102.276 96.25C102.01 96.852 101.628 97.3303 101.128 97.685C100.629 98.035 100.027 98.21 99.3223 98.21ZM95.9203 101.36V90.44H96.8443V96.131H96.9563V101.36H95.9203ZM99.2173 97.251C99.7446 97.251 100.183 97.118 100.533 96.852C100.883 96.586 101.145 96.2243 101.317 95.767C101.495 95.305 101.583 94.787 101.583 94.213C101.583 93.6437 101.497 93.1303 101.324 92.673C101.152 92.2157 100.888 91.854 100.533 91.588C100.183 91.322 99.7376 91.189 99.1963 91.189C98.6689 91.189 98.2303 91.3173 97.8803 91.574C97.5349 91.8307 97.2759 92.1877 97.1033 92.645C96.9306 93.0977 96.8443 93.6203 96.8443 94.213C96.8443 94.7963 96.9306 95.319 97.1033 95.781C97.2759 96.2383 97.5373 96.5977 97.8873 96.859C98.2373 97.1203 98.6806 97.251 99.2173 97.251ZM107.369 98.21C106.618 98.21 105.976 98.0397 105.444 97.699C104.912 97.3583 104.504 96.887 104.219 96.285C103.935 95.683 103.792 94.9923 103.792 94.213C103.792 93.4197 103.937 92.7243 104.226 92.127C104.516 91.5297 104.926 91.0653 105.458 90.734C105.995 90.398 106.632 90.23 107.369 90.23C108.125 90.23 108.769 90.4003 109.301 90.741C109.838 91.077 110.246 91.546 110.526 92.148C110.811 92.7453 110.953 93.4337 110.953 94.213C110.953 95.0063 110.811 95.704 110.526 96.306C110.242 96.9033 109.831 97.37 109.294 97.706C108.758 98.042 108.116 98.21 107.369 98.21ZM107.369 97.223C108.209 97.223 108.835 96.9453 109.245 96.39C109.656 95.83 109.861 95.1043 109.861 94.213C109.861 93.2983 109.654 92.5703 109.238 92.029C108.828 91.4877 108.205 91.217 107.369 91.217C106.805 91.217 106.338 91.3453 105.969 91.602C105.605 91.854 105.332 92.2063 105.15 92.659C104.973 93.107 104.884 93.625 104.884 94.213C104.884 95.123 105.094 95.8533 105.514 96.404C105.934 96.95 106.553 97.223 107.369 97.223ZM112.491 98V90.44H115.606C115.764 90.44 115.956 90.4493 116.18 90.468C116.408 90.4867 116.621 90.5217 116.817 90.573C117.241 90.685 117.582 90.9137 117.839 91.259C118.1 91.6043 118.231 92.0197 118.231 92.505C118.231 92.7757 118.189 93.0183 118.105 93.233C118.025 93.443 117.911 93.625 117.762 93.779C117.692 93.8583 117.615 93.9283 117.531 93.989C117.447 94.045 117.365 94.0917 117.286 94.129C117.435 94.157 117.596 94.2223 117.769 94.325C118.039 94.4837 118.245 94.6983 118.385 94.969C118.525 95.235 118.595 95.5593 118.595 95.942C118.595 96.46 118.471 96.8823 118.224 97.209C117.976 97.5357 117.645 97.7597 117.23 97.881C117.043 97.9323 116.84 97.965 116.621 97.979C116.406 97.993 116.203 98 116.012 98H112.491ZM113.527 97.125H115.963C116.061 97.125 116.184 97.118 116.334 97.104C116.483 97.0853 116.616 97.062 116.733 97.034C117.008 96.964 117.209 96.824 117.335 96.614C117.465 96.3993 117.531 96.166 117.531 95.914C117.531 95.5827 117.433 95.312 117.237 95.102C117.045 94.8873 116.789 94.7567 116.467 94.71C116.359 94.6867 116.247 94.6727 116.131 94.668C116.014 94.6633 115.909 94.661 115.816 94.661H113.527V97.125ZM113.527 93.779H115.641C115.762 93.779 115.897 93.772 116.047 93.758C116.201 93.7393 116.334 93.709 116.446 93.667C116.688 93.583 116.866 93.4383 116.978 93.233C117.094 93.0277 117.153 92.8037 117.153 92.561C117.153 92.295 117.09 92.0617 116.964 91.861C116.842 91.6603 116.658 91.5203 116.411 91.441C116.243 91.3803 116.061 91.3453 115.865 91.336C115.673 91.3267 115.552 91.322 115.501 91.322H113.527V93.779ZM119.983 98L119.99 90.44H121.026V94.08L124.4 90.44H125.772L122.23 94.22L126.234 98H124.736L121.026 94.36V98H119.983ZM129.098 98.21C128.529 98.21 128.05 98.1073 127.663 97.902C127.28 97.6967 126.993 97.4237 126.802 97.083C126.611 96.7423 126.515 96.3713 126.515 95.97C126.515 95.5593 126.597 95.2093 126.76 94.92C126.928 94.626 127.154 94.3857 127.439 94.199C127.728 94.0123 128.062 93.87 128.44 93.772C128.823 93.6787 129.245 93.597 129.707 93.527C130.174 93.4523 130.629 93.3893 131.072 93.338C131.52 93.282 131.912 93.2283 132.248 93.177L131.884 93.401C131.898 92.6543 131.753 92.1013 131.45 91.742C131.147 91.3827 130.619 91.203 129.868 91.203C129.35 91.203 128.911 91.3197 128.552 91.553C128.197 91.7863 127.948 92.155 127.803 92.659L126.802 92.365C126.975 91.6883 127.322 91.1633 127.845 90.79C128.368 90.4167 129.047 90.23 129.882 90.23C130.573 90.23 131.158 90.3607 131.639 90.622C132.124 90.8787 132.467 91.252 132.668 91.742C132.761 91.9613 132.822 92.2063 132.85 92.477C132.878 92.7477 132.892 93.023 132.892 93.303V98H131.975V96.103L132.241 96.215C131.984 96.8637 131.585 97.3583 131.044 97.699C130.503 98.0397 129.854 98.21 129.098 98.21ZM129.217 97.321C129.698 97.321 130.118 97.2347 130.477 97.062C130.836 96.8893 131.126 96.6537 131.345 96.355C131.564 96.0517 131.707 95.711 131.772 95.333C131.828 95.0903 131.858 94.8243 131.863 94.535C131.868 94.241 131.87 94.0217 131.87 93.877L132.262 94.08C131.912 94.1267 131.532 94.1733 131.121 94.22C130.715 94.2667 130.314 94.3203 129.917 94.381C129.525 94.4417 129.17 94.514 128.853 94.598C128.638 94.6587 128.431 94.745 128.23 94.857C128.029 94.9643 127.864 95.109 127.733 95.291C127.607 95.473 127.544 95.6993 127.544 95.97C127.544 96.1893 127.598 96.4017 127.705 96.607C127.817 96.8123 127.994 96.9827 128.237 97.118C128.484 97.2533 128.811 97.321 129.217 97.321Z" fill="#121212"></path><rect x="150" y="75" width="183" height="35" rx="17.5" fill="white"></rect><path d="M160.877 97.993L161.689 94.962H158.84L159.099 93.975H161.955L162.55 91.728H159.701L159.967 90.741H162.823L163.572 87.92H164.601L163.838 90.741H166.183L166.932 87.92H167.961L167.198 90.741H170.047L169.781 91.728H166.939L166.33 93.975H169.179L168.913 94.962H166.071L165.259 97.993H164.237L165.042 94.962H162.711L161.899 97.993H160.877ZM162.977 93.975H165.315L165.91 91.728H163.579L162.977 93.975ZM171.866 98V90.44H177.879V98H176.85V91.427H172.895V98H171.866ZM183.238 98.21C182.543 98.21 181.955 98.035 181.474 97.685C180.994 97.3303 180.63 96.852 180.382 96.25C180.135 95.6433 180.011 94.9643 180.011 94.213C180.011 93.4477 180.135 92.7663 180.382 92.169C180.634 91.567 181.003 91.0933 181.488 90.748C181.974 90.4027 182.571 90.23 183.28 90.23C183.971 90.23 184.564 90.405 185.058 90.755C185.553 91.105 185.931 91.581 186.192 92.183C186.458 92.785 186.591 93.4617 186.591 94.213C186.591 94.969 186.458 95.648 186.192 96.25C185.926 96.852 185.544 97.3303 185.044 97.685C184.545 98.035 183.943 98.21 183.238 98.21ZM179.836 101.36V90.44H180.76V96.131H180.872V101.36H179.836ZM183.133 97.251C183.661 97.251 184.099 97.118 184.449 96.852C184.799 96.586 185.061 96.2243 185.233 95.767C185.411 95.305 185.499 94.787 185.499 94.213C185.499 93.6437 185.413 93.1303 185.24 92.673C185.068 92.2157 184.804 91.854 184.449 91.588C184.099 91.322 183.654 91.189 183.112 91.189C182.585 91.189 182.146 91.3173 181.796 91.574C181.451 91.8307 181.192 92.1877 181.019 92.645C180.847 93.0977 180.76 93.6203 180.76 94.213C180.76 94.7963 180.847 95.319 181.019 95.781C181.192 96.2383 181.453 96.5977 181.803 96.859C182.153 97.1203 182.597 97.251 183.133 97.251ZM191.285 98.21C190.534 98.21 189.892 98.0397 189.36 97.699C188.828 97.3583 188.42 96.887 188.135 96.285C187.851 95.683 187.708 94.9923 187.708 94.213C187.708 93.4197 187.853 92.7243 188.142 92.127C188.432 91.5297 188.842 91.0653 189.374 90.734C189.911 90.398 190.548 90.23 191.285 90.23C192.041 90.23 192.685 90.4003 193.217 90.741C193.754 91.077 194.162 91.546 194.442 92.148C194.727 92.7453 194.869 93.4337 194.869 94.213C194.869 95.0063 194.727 95.704 194.442 96.306C194.158 96.9033 193.747 97.37 193.21 97.706C192.674 98.042 192.032 98.21 191.285 98.21ZM191.285 97.223C192.125 97.223 192.751 96.9453 193.161 96.39C193.572 95.83 193.777 95.1043 193.777 94.213C193.777 93.2983 193.57 92.5703 193.154 92.029C192.744 91.4877 192.121 91.217 191.285 91.217C190.721 91.217 190.254 91.3453 189.885 91.602C189.521 91.854 189.248 92.2063 189.066 92.659C188.889 93.107 188.8 93.625 188.8 94.213C188.8 95.123 189.01 95.8533 189.43 96.404C189.85 96.95 190.469 97.223 191.285 97.223ZM196.407 98V90.44H199.522C199.68 90.44 199.872 90.4493 200.096 90.468C200.324 90.4867 200.537 90.5217 200.733 90.573C201.157 90.685 201.498 90.9137 201.755 91.259C202.016 91.6043 202.147 92.0197 202.147 92.505C202.147 92.7757 202.105 93.0183 202.021 93.233C201.941 93.443 201.827 93.625 201.678 93.779C201.608 93.8583 201.531 93.9283 201.447 93.989C201.363 94.045 201.281 94.0917 201.202 94.129C201.351 94.157 201.512 94.2223 201.685 94.325C201.955 94.4837 202.161 94.6983 202.301 94.969C202.441 95.235 202.511 95.5593 202.511 95.942C202.511 96.46 202.387 96.8823 202.14 97.209C201.892 97.5357 201.561 97.7597 201.146 97.881C200.959 97.9323 200.756 97.965 200.537 97.979C200.322 97.993 200.119 98 199.928 98H196.407ZM197.443 97.125H199.879C199.977 97.125 200.1 97.118 200.25 97.104C200.399 97.0853 200.532 97.062 200.649 97.034C200.924 96.964 201.125 96.824 201.251 96.614C201.381 96.3993 201.447 96.166 201.447 95.914C201.447 95.5827 201.349 95.312 201.153 95.102C200.961 94.8873 200.705 94.7567 200.383 94.71C200.275 94.6867 200.163 94.6727 200.047 94.668C199.93 94.6633 199.825 94.661 199.732 94.661H197.443V97.125ZM197.443 93.779H199.557C199.678 93.779 199.813 93.772 199.963 93.758C200.117 93.7393 200.25 93.709 200.362 93.667C200.604 93.583 200.782 93.4383 200.894 93.233C201.01 93.0277 201.069 92.8037 201.069 92.561C201.069 92.295 201.006 92.0617 200.88 91.861C200.758 91.6603 200.574 91.5203 200.327 91.441C200.159 91.3803 199.977 91.3453 199.781 91.336C199.589 91.3267 199.468 91.322 199.417 91.322H197.443V93.779ZM207.105 98.21C206.367 98.21 205.728 98.0467 205.187 97.72C204.65 97.3933 204.232 96.9337 203.934 96.341C203.635 95.7483 203.486 95.053 203.486 94.255C203.486 93.429 203.633 92.715 203.927 92.113C204.221 91.511 204.634 91.0467 205.166 90.72C205.702 90.3933 206.335 90.23 207.063 90.23C207.809 90.23 208.446 90.4027 208.974 90.748C209.501 91.0887 209.9 91.5787 210.171 92.218C210.441 92.8573 210.565 93.6203 210.542 94.507H209.492V94.143C209.473 93.163 209.261 92.4233 208.855 91.924C208.453 91.4247 207.865 91.175 207.091 91.175C206.279 91.175 205.656 91.4387 205.222 91.966C204.792 92.4933 204.578 93.2447 204.578 94.22C204.578 95.172 204.792 95.9117 205.222 96.439C205.656 96.9617 206.269 97.223 207.063 97.223C207.604 97.223 208.075 97.0993 208.477 96.852C208.883 96.6 209.202 96.2383 209.436 95.767L210.395 96.138C210.096 96.796 209.655 97.307 209.072 97.671C208.493 98.0303 207.837 98.21 207.105 98.21ZM204.214 94.507V93.646H209.989V94.507H204.214ZM215.49 98.21C214.795 98.21 214.207 98.035 213.726 97.685C213.246 97.3303 212.882 96.852 212.634 96.25C212.387 95.6433 212.263 94.9643 212.263 94.213C212.263 93.4477 212.387 92.7663 212.634 92.169C212.886 91.567 213.255 91.0933 213.74 90.748C214.226 90.4027 214.823 90.23 215.532 90.23C216.223 90.23 216.816 90.405 217.31 90.755C217.805 91.105 218.183 91.581 218.444 92.183C218.71 92.785 218.843 93.4617 218.843 94.213C218.843 94.969 218.71 95.648 218.444 96.25C218.178 96.852 217.796 97.3303 217.296 97.685C216.797 98.035 216.195 98.21 215.49 98.21ZM212.088 101.36V90.44H213.012V96.131H213.124V101.36H212.088ZM215.385 97.251C215.913 97.251 216.351 97.118 216.701 96.852C217.051 96.586 217.313 96.2243 217.485 95.767C217.663 95.305 217.751 94.787 217.751 94.213C217.751 93.6437 217.665 93.1303 217.492 92.673C217.32 92.2157 217.056 91.854 216.701 91.588C216.351 91.322 215.906 91.189 215.364 91.189C214.837 91.189 214.398 91.3173 214.048 91.574C213.703 91.8307 213.444 92.1877 213.271 92.645C213.099 93.0977 213.012 93.6203 213.012 94.213C213.012 94.7963 213.099 95.319 213.271 95.781C213.444 96.2383 213.705 96.5977 214.055 96.859C214.405 97.1203 214.849 97.251 215.385 97.251ZM220.373 98L220.38 90.44H221.416V94.08L224.79 90.44H226.162L222.62 94.22L226.624 98H225.126L221.416 94.36V98H220.373ZM229.489 98.21C228.919 98.21 228.441 98.1073 228.054 97.902C227.671 97.6967 227.384 97.4237 227.193 97.083C227.001 96.7423 226.906 96.3713 226.906 95.97C226.906 95.5593 226.987 95.2093 227.151 94.92C227.319 94.626 227.545 94.3857 227.83 94.199C228.119 94.0123 228.453 93.87 228.831 93.772C229.213 93.6787 229.636 93.597 230.098 93.527C230.564 93.4523 231.019 93.3893 231.463 93.338C231.911 93.282 232.303 93.2283 232.639 93.177L232.275 93.401C232.289 92.6543 232.144 92.1013 231.841 91.742C231.537 91.3827 231.01 91.203 230.259 91.203C229.741 91.203 229.302 91.3197 228.943 91.553C228.588 91.7863 228.338 92.155 228.194 92.659L227.193 92.365C227.365 91.6883 227.713 91.1633 228.236 90.79C228.758 90.4167 229.437 90.23 230.273 90.23C230.963 90.23 231.549 90.3607 232.03 90.622C232.515 90.8787 232.858 91.252 233.059 91.742C233.152 91.9613 233.213 92.2063 233.241 92.477C233.269 92.7477 233.283 93.023 233.283 93.303V98H232.366V96.103L232.632 96.215C232.375 96.8637 231.976 97.3583 231.435 97.699C230.893 98.0397 230.245 98.21 229.489 98.21ZM229.608 97.321C230.088 97.321 230.508 97.2347 230.868 97.062C231.227 96.8893 231.516 96.6537 231.736 96.355C231.955 96.0517 232.097 95.711 232.163 95.333C232.219 95.0903 232.249 94.8243 232.254 94.535C232.258 94.241 232.261 94.0217 232.261 93.877L232.653 94.08C232.303 94.1267 231.922 94.1733 231.512 94.22C231.106 94.2667 230.704 94.3203 230.308 94.381C229.916 94.4417 229.561 94.514 229.244 94.598C229.029 94.6587 228.821 94.745 228.621 94.857C228.42 94.9643 228.254 95.109 228.124 95.291C227.998 95.473 227.935 95.6993 227.935 95.97C227.935 96.1893 227.988 96.4017 228.096 96.607C228.208 96.8123 228.385 96.9827 228.628 97.118C228.875 97.2533 229.202 97.321 229.608 97.321ZM240.071 98.21C239.501 98.21 239.023 98.1073 238.636 97.902C238.253 97.6967 237.966 97.4237 237.775 97.083C237.583 96.7423 237.488 96.3713 237.488 95.97C237.488 95.5593 237.569 95.2093 237.733 94.92C237.901 94.626 238.127 94.3857 238.412 94.199C238.701 94.0123 239.035 93.87 239.413 93.772C239.795 93.6787 240.218 93.597 240.68 93.527C241.146 93.4523 241.601 93.3893 242.045 93.338C242.493 93.282 242.885 93.2283 243.221 93.177L242.857 93.401C242.871 92.6543 242.726 92.1013 242.423 91.742C242.119 91.3827 241.592 91.203 240.841 91.203C240.323 91.203 239.884 91.3197 239.525 91.553C239.17 91.7863 238.92 92.155 238.776 92.659L237.775 92.365C237.947 91.6883 238.295 91.1633 238.818 90.79C239.34 90.4167 240.019 90.23 240.855 90.23C241.545 90.23 242.131 90.3607 242.612 90.622C243.097 90.8787 243.44 91.252 243.641 91.742C243.734 91.9613 243.795 92.2063 243.823 92.477C243.851 92.7477 243.865 93.023 243.865 93.303V98H242.948V96.103L243.214 96.215C242.957 96.8637 242.558 97.3583 242.017 97.699C241.475 98.0397 240.827 98.21 240.071 98.21ZM240.19 97.321C240.67 97.321 241.09 97.2347 241.45 97.062C241.809 96.8893 242.098 96.6537 242.318 96.355C242.537 96.0517 242.679 95.711 242.745 95.333C242.801 95.0903 242.831 94.8243 242.836 94.535C242.84 94.241 242.843 94.0217 242.843 93.877L243.235 94.08C242.885 94.1267 242.504 94.1733 242.094 94.22C241.688 94.2667 241.286 94.3203 240.89 94.381C240.498 94.4417 240.143 94.514 239.826 94.598C239.611 94.6587 239.403 94.745 239.203 94.857C239.002 94.9643 238.836 95.109 238.706 95.291C238.58 95.473 238.517 95.6993 238.517 95.97C238.517 96.1893 238.57 96.4017 238.678 96.607C238.79 96.8123 238.967 96.9827 239.21 97.118C239.457 97.2533 239.784 97.321 240.19 97.321ZM249.082 98.21C248.387 98.21 247.799 98.035 247.318 97.685C246.837 97.3303 246.473 96.852 246.226 96.25C245.979 95.6433 245.855 94.9643 245.855 94.213C245.855 93.4477 245.979 92.7663 246.226 92.169C246.478 91.567 246.847 91.0933 247.332 90.748C247.817 90.4027 248.415 90.23 249.124 90.23C249.815 90.23 250.407 90.405 250.902 90.755C251.397 91.105 251.775 91.581 252.036 92.183C252.302 92.785 252.435 93.4617 252.435 94.213C252.435 94.969 252.302 95.648 252.036 96.25C251.77 96.852 251.387 97.3303 250.888 97.685C250.389 98.035 249.787 98.21 249.082 98.21ZM245.68 101.36V90.44H246.604V96.131H246.716V101.36H245.68ZM248.977 97.251C249.504 97.251 249.943 97.118 250.293 96.852C250.643 96.586 250.904 96.2243 251.077 95.767C251.254 95.305 251.343 94.787 251.343 94.213C251.343 93.6437 251.257 93.1303 251.084 92.673C250.911 92.2157 250.648 91.854 250.293 91.588C249.943 91.322 249.497 91.189 248.956 91.189C248.429 91.189 247.99 91.3173 247.64 91.574C247.295 91.8307 247.036 92.1877 246.863 92.645C246.69 93.0977 246.604 93.6203 246.604 94.213C246.604 94.7963 246.69 95.319 246.863 95.781C247.036 96.2383 247.297 96.5977 247.647 96.859C247.997 97.1203 248.44 97.251 248.977 97.251ZM257.171 98.21C256.434 98.21 255.795 98.0467 255.253 97.72C254.717 97.3933 254.299 96.9337 254 96.341C253.702 95.7483 253.552 95.053 253.552 94.255C253.552 93.429 253.699 92.715 253.993 92.113C254.287 91.511 254.7 91.0467 255.232 90.72C255.769 90.3933 256.401 90.23 257.129 90.23C257.876 90.23 258.513 90.4027 259.04 90.748C259.568 91.0887 259.967 91.5787 260.237 92.218C260.508 92.8573 260.632 93.6203 260.608 94.507H259.558V94.143C259.54 93.163 259.327 92.4233 258.921 91.924C258.52 91.4247 257.932 91.175 257.157 91.175C256.345 91.175 255.722 91.4387 255.288 91.966C254.859 92.4933 254.644 93.2447 254.644 94.22C254.644 95.172 254.859 95.9117 255.288 96.439C255.722 96.9617 256.336 97.223 257.129 97.223C257.671 97.223 258.142 97.0993 258.543 96.852C258.949 96.6 259.269 96.2383 259.502 95.767L260.461 96.138C260.163 96.796 259.722 97.307 259.138 97.671C258.56 98.0303 257.904 98.21 257.171 98.21ZM254.28 94.507V93.646H260.055V94.507H254.28ZM262.155 98V90.44H263.184V93.723H267.447V90.44H268.476V98H267.447V94.71H263.184V98H262.155ZM269.873 99.68V97.118C270.302 97.118 270.61 96.9803 270.797 96.705C270.984 96.425 271.135 95.9793 271.252 95.368C271.331 94.9713 271.397 94.5443 271.448 94.087C271.499 93.6297 271.544 93.107 271.581 92.519C271.618 91.9263 271.653 91.2333 271.686 90.44H276.684V97.118H277.412V99.68H276.418V98H270.86V99.68H269.873ZM271.616 97.118H275.662V91.322H272.638C272.624 91.6767 272.603 92.0523 272.575 92.449C272.552 92.8457 272.521 93.2423 272.484 93.639C272.451 94.0357 272.412 94.409 272.365 94.759C272.323 95.1043 272.272 95.4077 272.211 95.669C272.141 96.005 272.064 96.292 271.98 96.53C271.901 96.768 271.779 96.964 271.616 97.118ZM280.977 98.21C280.408 98.21 279.929 98.1073 279.542 97.902C279.159 97.6967 278.872 97.4237 278.681 97.083C278.49 96.7423 278.394 96.3713 278.394 95.97C278.394 95.5593 278.476 95.2093 278.639 94.92C278.807 94.626 279.033 94.3857 279.318 94.199C279.607 94.0123 279.941 93.87 280.319 93.772C280.702 93.6787 281.124 93.597 281.586 93.527C282.053 93.4523 282.508 93.3893 282.951 93.338C283.399 93.282 283.791 93.2283 284.127 93.177L283.763 93.401C283.777 92.6543 283.632 92.1013 283.329 91.742C283.026 91.3827 282.498 91.203 281.747 91.203C281.229 91.203 280.79 91.3197 280.431 91.553C280.076 91.7863 279.827 92.155 279.682 92.659L278.681 92.365C278.854 91.6883 279.201 91.1633 279.724 90.79C280.247 90.4167 280.926 90.23 281.761 90.23C282.452 90.23 283.037 90.3607 283.518 90.622C284.003 90.8787 284.346 91.252 284.547 91.742C284.64 91.9613 284.701 92.2063 284.729 92.477C284.757 92.7477 284.771 93.023 284.771 93.303V98H283.854V96.103L284.12 96.215C283.863 96.8637 283.464 97.3583 282.923 97.699C282.382 98.0397 281.733 98.21 280.977 98.21ZM281.096 97.321C281.577 97.321 281.997 97.2347 282.356 97.062C282.715 96.8893 283.005 96.6537 283.224 96.355C283.443 96.0517 283.586 95.711 283.651 95.333C283.707 95.0903 283.737 94.8243 283.742 94.535C283.747 94.241 283.749 94.0217 283.749 93.877L284.141 94.08C283.791 94.1267 283.411 94.1733 283 94.22C282.594 94.2667 282.193 94.3203 281.796 94.381C281.404 94.4417 281.049 94.514 280.732 94.598C280.517 94.6587 280.31 94.745 280.109 94.857C279.908 94.9643 279.743 95.109 279.612 95.291C279.486 95.473 279.423 95.6993 279.423 95.97C279.423 96.1893 279.477 96.4017 279.584 96.607C279.696 96.8123 279.873 96.9827 280.116 97.118C280.363 97.2533 280.69 97.321 281.096 97.321ZM288.644 98V91.392H285.963V90.44H292.354V91.392H289.673V98H288.644ZM296.709 98.21C295.958 98.21 295.316 98.0397 294.784 97.699C294.252 97.3583 293.844 96.887 293.559 96.285C293.275 95.683 293.132 94.9923 293.132 94.213C293.132 93.4197 293.277 92.7243 293.566 92.127C293.856 91.5297 294.266 91.0653 294.798 90.734C295.335 90.398 295.972 90.23 296.709 90.23C297.465 90.23 298.109 90.4003 298.641 90.741C299.178 91.077 299.586 91.546 299.866 92.148C300.151 92.7453 300.293 93.4337 300.293 94.213C300.293 95.0063 300.151 95.704 299.866 96.306C299.582 96.9033 299.171 97.37 298.634 97.706C298.098 98.042 297.456 98.21 296.709 98.21ZM296.709 97.223C297.549 97.223 298.175 96.9453 298.585 96.39C298.996 95.83 299.201 95.1043 299.201 94.213C299.201 93.2983 298.994 92.5703 298.578 92.029C298.168 91.4877 297.545 91.217 296.709 91.217C296.145 91.217 295.678 91.3453 295.309 91.602C294.945 91.854 294.672 92.2063 294.49 92.659C294.313 93.107 294.224 93.625 294.224 94.213C294.224 95.123 294.434 95.8533 294.854 96.404C295.274 96.95 295.893 97.223 296.709 97.223ZM305.232 98.21C304.537 98.21 303.949 98.035 303.468 97.685C302.988 97.3303 302.624 96.852 302.376 96.25C302.129 95.6433 302.005 94.9643 302.005 94.213C302.005 93.4477 302.129 92.7663 302.376 92.169C302.628 91.567 302.997 91.0933 303.482 90.748C303.968 90.4027 304.565 90.23 305.274 90.23C305.965 90.23 306.558 90.405 307.052 90.755C307.547 91.105 307.925 91.581 308.186 92.183C308.452 92.785 308.585 93.4617 308.585 94.213C308.585 94.969 308.452 95.648 308.186 96.25C307.92 96.852 307.538 97.3303 307.038 97.685C306.539 98.035 305.937 98.21 305.232 98.21ZM301.83 101.36V90.44H302.754V96.131H302.866V101.36H301.83ZM305.127 97.251C305.655 97.251 306.093 97.118 306.443 96.852C306.793 96.586 307.055 96.2243 307.227 95.767C307.405 95.305 307.493 94.787 307.493 94.213C307.493 93.6437 307.407 93.1303 307.234 92.673C307.062 92.2157 306.798 91.854 306.443 91.588C306.093 91.322 305.648 91.189 305.106 91.189C304.579 91.189 304.14 91.3173 303.79 91.574C303.445 91.8307 303.186 92.1877 303.013 92.645C302.841 93.0977 302.754 93.6203 302.754 94.213C302.754 94.7963 302.841 95.319 303.013 95.781C303.186 96.2383 303.447 96.5977 303.797 96.859C304.147 97.1203 304.591 97.251 305.127 97.251ZM313.28 98.21C312.528 98.21 311.887 98.0397 311.355 97.699C310.823 97.3583 310.414 96.887 310.13 96.285C309.845 95.683 309.703 94.9923 309.703 94.213C309.703 93.4197 309.847 92.7243 310.137 92.127C310.426 91.5297 310.837 91.0653 311.369 90.734C311.905 90.398 312.542 90.23 313.28 90.23C314.036 90.23 314.68 90.4003 315.212 90.741C315.748 91.077 316.157 91.546 316.437 92.148C316.721 92.7453 316.864 93.4337 316.864 94.213C316.864 95.0063 316.721 95.704 316.437 96.306C316.152 96.9033 315.741 97.37 315.205 97.706C314.668 98.042 314.026 98.21 313.28 98.21ZM313.28 97.223C314.12 97.223 314.745 96.9453 315.156 96.39C315.566 95.83 315.772 95.1043 315.772 94.213C315.772 93.2983 315.564 92.5703 315.149 92.029C314.738 91.4877 314.115 91.217 313.28 91.217C312.715 91.217 312.248 91.3453 311.88 91.602C311.516 91.854 311.243 92.2063 311.061 92.659C310.883 93.107 310.795 93.625 310.795 94.213C310.795 95.123 311.005 95.8533 311.425 96.404C311.845 96.95 312.463 97.223 313.28 97.223ZM318.401 98V90.44H321.516C321.674 90.44 321.866 90.4493 322.09 90.468C322.318 90.4867 322.531 90.5217 322.727 90.573C323.151 90.685 323.492 90.9137 323.749 91.259C324.01 91.6043 324.141 92.0197 324.141 92.505C324.141 92.7757 324.099 93.0183 324.015 93.233C323.935 93.443 323.821 93.625 323.672 93.779C323.602 93.8583 323.525 93.9283 323.441 93.989C323.357 94.045 323.275 94.0917 323.196 94.129C323.345 94.157 323.506 94.2223 323.679 94.325C323.949 94.4837 324.155 94.6983 324.295 94.969C324.435 95.235 324.505 95.5593 324.505 95.942C324.505 96.46 324.381 96.8823 324.134 97.209C323.886 97.5357 323.555 97.7597 323.14 97.881C322.953 97.9323 322.75 97.965 322.531 97.979C322.316 97.993 322.113 98 321.922 98H318.401ZM319.437 97.125H321.873C321.971 97.125 322.094 97.118 322.244 97.104C322.393 97.0853 322.526 97.062 322.643 97.034C322.918 96.964 323.119 96.824 323.245 96.614C323.375 96.3993 323.441 96.166 323.441 95.914C323.441 95.5827 323.343 95.312 323.147 95.102C322.955 94.8873 322.699 94.7567 322.377 94.71C322.269 94.6867 322.157 94.6727 322.041 94.668C321.924 94.6633 321.819 94.661 321.726 94.661H319.437V97.125ZM319.437 93.779H321.551C321.672 93.779 321.807 93.772 321.957 93.758C322.111 93.7393 322.244 93.709 322.356 93.667C322.598 93.583 322.776 93.4383 322.888 93.233C323.004 93.0277 323.063 92.8037 323.063 92.561C323.063 92.295 323 92.0617 322.874 91.861C322.752 91.6603 322.568 91.5203 322.321 91.441C322.153 91.3803 321.971 91.3453 321.775 91.336C321.583 91.3267 321.462 91.322 321.411 91.322H319.437V93.779Z" fill="#121212"></path></svg> 