<?xml version="1.0" encoding="UTF-8"?> <svg xmlns="http://www.w3.org/2000/svg" width="1920" height="1080" viewBox="0 0 1920 1080" fill="none"><rect width="1920" height="1080" fill="#FBF5EE"></rect><path d="M895.022 610.36V605.026C895.806 605.026 896.436 604.83 896.912 604.438C897.388 604.037 897.752 603.505 898.004 602.842C898.256 602.179 898.447 601.437 898.578 600.616C898.709 599.785 898.821 598.945 898.914 598.096C899.045 596.855 899.147 595.655 899.222 594.498C899.306 593.341 899.376 592.141 899.432 590.9C899.497 589.659 899.572 588.301 899.656 586.826L912.088 586.84V605.026H913.53V610.36H911.486V607H897.08V610.36H895.022ZM898.956 605.026H910.03V588.814L901.574 588.8C901.518 589.939 901.462 591.04 901.406 592.104C901.35 593.168 901.285 594.241 901.21 595.324C901.135 596.407 901.037 597.536 900.916 598.712C900.813 599.785 900.692 600.723 900.552 601.526C900.412 602.329 900.216 603.015 899.964 603.584C899.721 604.153 899.385 604.634 898.956 605.026ZM922.919 607.42C921.416 607.42 920.133 607.079 919.069 606.398C918.005 605.717 917.188 604.774 916.619 603.57C916.049 602.366 915.765 600.985 915.765 599.426C915.765 597.839 916.054 596.449 916.633 595.254C917.211 594.059 918.033 593.131 919.097 592.468C920.17 591.796 921.444 591.46 922.919 591.46C924.431 591.46 925.719 591.801 926.783 592.482C927.856 593.154 928.673 594.092 929.233 595.296C929.802 596.491 930.087 597.867 930.087 599.426C930.087 601.013 929.802 602.408 929.233 603.612C928.663 604.807 927.842 605.74 926.769 606.412C925.695 607.084 924.412 607.42 922.919 607.42ZM922.919 605.446C924.599 605.446 925.849 604.891 926.671 603.78C927.492 602.66 927.903 601.209 927.903 599.426C927.903 597.597 927.487 596.141 926.657 595.058C925.835 593.975 924.589 593.434 922.919 593.434C921.789 593.434 920.856 593.691 920.119 594.204C919.391 594.708 918.845 595.413 918.481 596.318C918.126 597.214 917.949 598.25 917.949 599.426C917.949 601.246 918.369 602.707 919.209 603.808C920.049 604.9 921.285 605.446 922.919 605.446ZM931.221 607L937.129 599.356L931.347 591.88H933.811L938.333 597.774L942.813 591.88H945.277L939.495 599.356L945.417 607H942.939L938.333 600.938L933.699 607H931.221ZM953.434 607.42C951.931 607.42 950.648 607.079 949.584 606.398C948.52 605.717 947.703 604.774 947.134 603.57C946.565 602.366 946.28 600.985 946.28 599.426C946.28 597.839 946.569 596.449 947.148 595.254C947.727 594.059 948.548 593.131 949.612 592.468C950.685 591.796 951.959 591.46 953.434 591.46C954.946 591.46 956.234 591.801 957.298 592.482C958.371 593.154 959.188 594.092 959.748 595.296C960.317 596.491 960.602 597.867 960.602 599.426C960.602 601.013 960.317 602.408 959.748 603.612C959.179 604.807 958.357 605.74 957.284 606.412C956.211 607.084 954.927 607.42 953.434 607.42ZM953.434 605.446C955.114 605.446 956.365 604.891 957.186 603.78C958.007 602.66 958.418 601.209 958.418 599.426C958.418 597.597 958.003 596.141 957.172 595.058C956.351 593.975 955.105 593.434 953.434 593.434C952.305 593.434 951.371 593.691 950.634 594.204C949.906 594.708 949.36 595.413 948.996 596.318C948.641 597.214 948.464 598.25 948.464 599.426C948.464 601.246 948.884 602.707 949.724 603.808C950.564 604.9 951.801 605.446 953.434 605.446ZM962.57 610.36V605.236C963.429 605.236 964.045 604.961 964.418 604.41C964.792 603.85 965.095 602.959 965.328 601.736C965.487 600.943 965.618 600.089 965.72 599.174C965.823 598.259 965.912 597.214 965.986 596.038C966.061 594.853 966.131 593.467 966.196 591.88H976.192V605.236H977.648V610.36H975.66V607H964.544V610.36H962.57ZM966.056 605.236H974.148V593.644H968.1C968.072 594.353 968.03 595.105 967.974 595.898C967.928 596.691 967.867 597.485 967.792 598.278C967.727 599.071 967.648 599.818 967.554 600.518C967.47 601.209 967.368 601.815 967.246 602.338C967.106 603.01 966.952 603.584 966.784 604.06C966.626 604.536 966.383 604.928 966.056 605.236ZM980.438 607V591.88H982.496V598.446H991.022V591.88H993.08V607H991.022V600.42H982.496V607H980.438ZM1001.32 607.42C1000.18 607.42 999.226 607.215 998.451 606.804C997.686 606.393 997.112 605.847 996.729 605.166C996.346 604.485 996.155 603.743 996.155 602.94C996.155 602.119 996.318 601.419 996.645 600.84C996.981 600.252 997.434 599.771 998.003 599.398C998.582 599.025 999.249 598.74 1000.01 598.544C1000.77 598.357 1001.62 598.194 1002.54 598.054C1003.47 597.905 1004.38 597.779 1005.27 597.676C1006.17 597.564 1006.95 597.457 1007.62 597.354L1006.89 597.802C1006.92 596.309 1006.63 595.203 1006.03 594.484C1005.42 593.765 1004.36 593.406 1002.86 593.406C1001.83 593.406 1000.95 593.639 1000.23 594.106C999.52 594.573 999.02 595.31 998.731 596.318L996.729 595.73C997.074 594.377 997.77 593.327 998.815 592.58C999.86 591.833 1001.22 591.46 1002.89 591.46C1004.27 591.46 1005.44 591.721 1006.4 592.244C1007.37 592.757 1008.06 593.504 1008.46 594.484C1008.65 594.923 1008.77 595.413 1008.83 595.954C1008.88 596.495 1008.91 597.046 1008.91 597.606V607H1007.08V603.206L1007.61 603.43C1007.09 604.727 1006.3 605.717 1005.21 606.398C1004.13 607.079 1002.83 607.42 1001.32 607.42ZM1001.56 605.642C1002.52 605.642 1003.36 605.469 1004.08 605.124C1004.8 604.779 1005.38 604.307 1005.82 603.71C1006.25 603.103 1006.54 602.422 1006.67 601.666C1006.78 601.181 1006.84 600.649 1006.85 600.07C1006.86 599.482 1006.87 599.043 1006.87 598.754L1007.65 599.16C1006.95 599.253 1006.19 599.347 1005.37 599.44C1004.56 599.533 1003.75 599.641 1002.96 599.762C1002.18 599.883 1001.47 600.028 1000.83 600.196C1000.4 600.317 999.986 600.49 999.585 600.714C999.184 600.929 998.852 601.218 998.591 601.582C998.339 601.946 998.213 602.399 998.213 602.94C998.213 603.379 998.32 603.803 998.535 604.214C998.759 604.625 999.114 604.965 999.599 605.236C1000.09 605.507 1000.75 605.642 1001.56 605.642ZM1022.03 607V601.302H1018.5C1018.09 601.302 1017.67 601.288 1017.23 601.26C1016.8 601.223 1016.4 601.171 1016.03 601.106C1014.96 600.901 1014.06 600.434 1013.31 599.706C1012.57 598.969 1012.2 597.951 1012.2 596.654C1012.2 595.385 1012.55 594.367 1013.24 593.602C1013.93 592.827 1014.77 592.323 1015.75 592.09C1016.19 591.987 1016.65 591.927 1017.1 591.908C1017.57 591.889 1017.97 591.88 1018.31 591.88H1024.09L1024.1 607H1022.03ZM1011.71 607L1015.93 600.658H1018.21L1013.97 607H1011.71ZM1018.39 599.538H1022.03V593.644H1018.39C1018.17 593.644 1017.86 593.653 1017.45 593.672C1017.05 593.691 1016.67 593.751 1016.32 593.854C1016.01 593.947 1015.7 594.111 1015.4 594.344C1015.1 594.568 1014.85 594.871 1014.64 595.254C1014.43 595.627 1014.33 596.085 1014.33 596.626C1014.33 597.382 1014.54 597.989 1014.95 598.446C1015.37 598.894 1015.89 599.202 1016.52 599.37C1016.85 599.445 1017.19 599.491 1017.52 599.51C1017.86 599.529 1018.15 599.538 1018.39 599.538ZM1033.62 607V591.88H1035.68V598.446H1044.21V591.88H1046.26V607H1044.21V600.42H1035.68V607H1033.62ZM1056.58 607.42C1055.1 607.42 1053.82 607.093 1052.74 606.44C1051.67 605.787 1050.83 604.867 1050.23 603.682C1049.64 602.497 1049.34 601.106 1049.34 599.51C1049.34 597.858 1049.63 596.43 1050.22 595.226C1050.81 594.022 1051.63 593.093 1052.7 592.44C1053.77 591.787 1055.04 591.46 1056.49 591.46C1057.99 591.46 1059.26 591.805 1060.31 592.496C1061.37 593.177 1062.17 594.157 1062.71 595.436C1063.25 596.715 1063.5 598.241 1063.45 600.014H1061.35V599.286C1061.31 597.326 1060.89 595.847 1060.08 594.848C1059.27 593.849 1058.1 593.35 1056.55 593.35C1054.92 593.35 1053.68 593.877 1052.81 594.932C1051.95 595.987 1051.52 597.489 1051.52 599.44C1051.52 601.344 1051.95 602.823 1052.81 603.878C1053.68 604.923 1054.91 605.446 1056.49 605.446C1057.58 605.446 1058.52 605.199 1059.32 604.704C1060.13 604.2 1060.77 603.477 1061.24 602.534L1063.16 603.276C1062.56 604.592 1061.68 605.614 1060.51 606.342C1059.35 607.061 1058.04 607.42 1056.58 607.42ZM1050.79 600.014V598.292H1062.34V600.014H1050.79ZM1065.44 610.36V605.236C1066.3 605.236 1066.91 604.961 1067.29 604.41C1067.66 603.85 1067.96 602.959 1068.2 601.736C1068.35 600.943 1068.48 600.089 1068.59 599.174C1068.69 598.259 1068.78 597.214 1068.85 596.038C1068.93 594.853 1069 593.467 1069.06 591.88H1079.06V605.236H1080.52V610.36H1078.53V607H1067.41V610.36H1065.44ZM1068.92 605.236H1077.02V593.644H1070.97C1070.94 594.353 1070.9 595.105 1070.84 595.898C1070.79 596.691 1070.73 597.485 1070.66 598.278C1070.59 599.071 1070.51 599.818 1070.42 600.518C1070.34 601.209 1070.23 601.815 1070.11 602.338C1069.97 603.01 1069.82 603.584 1069.65 604.06C1069.49 604.536 1069.25 604.928 1068.92 605.236ZM1083.31 607V591.88H1089.54C1089.85 591.88 1090.24 591.899 1090.68 591.936C1091.14 591.973 1091.57 592.043 1091.96 592.146C1092.81 592.37 1093.49 592.827 1094 593.518C1094.52 594.209 1094.79 595.039 1094.79 596.01C1094.79 596.551 1094.7 597.037 1094.53 597.466C1094.37 597.886 1094.15 598.25 1093.85 598.558C1093.71 598.717 1093.55 598.857 1093.39 598.978C1093.22 599.09 1093.05 599.183 1092.9 599.258C1093.19 599.314 1093.52 599.445 1093.86 599.65C1094.4 599.967 1094.81 600.397 1095.09 600.938C1095.37 601.47 1095.51 602.119 1095.51 602.884C1095.51 603.92 1095.27 604.765 1094.77 605.418C1094.28 606.071 1093.61 606.519 1092.78 606.762C1092.41 606.865 1092 606.93 1091.57 606.958C1091.14 606.986 1090.73 607 1090.35 607H1083.31ZM1085.38 605.25H1090.25C1090.45 605.25 1090.69 605.236 1090.99 605.208C1091.29 605.171 1091.56 605.124 1091.79 605.068C1092.34 604.928 1092.74 604.648 1092.99 604.228C1093.25 603.799 1093.39 603.332 1093.39 602.828C1093.39 602.165 1093.19 601.624 1092.8 601.204C1092.41 600.775 1091.9 600.513 1091.26 600.42C1091.04 600.373 1090.82 600.345 1090.59 600.336C1090.35 600.327 1090.14 600.322 1089.96 600.322H1085.38V605.25ZM1085.38 598.558H1089.61C1089.85 598.558 1090.12 598.544 1090.42 598.516C1090.73 598.479 1090.99 598.418 1091.22 598.334C1091.7 598.166 1092.06 597.877 1092.28 597.466C1092.51 597.055 1092.63 596.607 1092.63 596.122C1092.63 595.59 1092.5 595.123 1092.25 594.722C1092.01 594.321 1091.64 594.041 1091.15 593.882C1090.81 593.761 1090.45 593.691 1090.05 593.672C1089.67 593.653 1089.43 593.644 1089.33 593.644H1085.38V598.558ZM1110.32 591.88V607H1108.31V595.226L1100.03 607H1098.29V591.88H1100.29V603.556L1108.59 591.88H1110.32ZM1112.57 607L1118.95 599.44L1112.83 591.88H1115.16L1121.12 599.342V591.88H1123.02V599.342L1128.99 591.88H1131.3L1125.18 599.44L1131.56 607H1129.17L1123.02 599.538V607H1121.12V599.538L1114.96 607H1112.57ZM1145.81 591.88V607H1143.81V595.226L1135.52 607H1133.78V591.88H1135.78V603.556L1144.09 591.88H1145.81ZM1149.72 607V591.88H1151.56L1157.45 604.256L1163.36 591.88H1165.18V607H1163.19V596.276L1158.11 607H1156.81L1151.73 596.276V607H1149.72ZM1175.41 607.42C1173.91 607.42 1172.62 607.079 1171.56 606.398C1170.5 605.717 1169.68 604.774 1169.11 603.57C1168.54 602.366 1168.26 600.985 1168.26 599.426C1168.26 597.839 1168.55 596.449 1169.12 595.254C1169.7 594.059 1170.52 593.131 1171.59 592.468C1172.66 591.796 1173.94 591.46 1175.41 591.46C1176.92 591.46 1178.21 591.801 1179.27 592.482C1180.35 593.154 1181.16 594.092 1181.72 595.296C1182.29 596.491 1182.58 597.867 1182.58 599.426C1182.58 601.013 1182.29 602.408 1181.72 603.612C1181.16 604.807 1180.33 605.74 1179.26 606.412C1178.19 607.084 1176.9 607.42 1175.41 607.42ZM1175.41 605.446C1177.09 605.446 1178.34 604.891 1179.16 603.78C1179.98 602.66 1180.39 601.209 1180.39 599.426C1180.39 597.597 1179.98 596.141 1179.15 595.058C1178.33 593.975 1177.08 593.434 1175.41 593.434C1174.28 593.434 1173.35 593.691 1172.61 594.204C1171.88 594.708 1171.34 595.413 1170.97 596.318C1170.62 597.214 1170.44 598.25 1170.44 599.426C1170.44 601.246 1170.86 602.707 1171.7 603.808C1172.54 604.9 1173.78 605.446 1175.41 605.446ZM1191.94 607.42C1190.42 607.42 1189.13 607.079 1188.08 606.398C1187.02 605.717 1186.22 604.779 1185.67 603.584C1185.13 602.38 1184.85 600.999 1184.83 599.44C1184.85 597.853 1185.14 596.463 1185.7 595.268C1186.26 594.064 1187.06 593.131 1188.12 592.468C1189.17 591.796 1190.45 591.46 1191.95 591.46C1193.48 591.46 1194.81 591.833 1195.94 592.58C1197.08 593.327 1197.86 594.349 1198.28 595.646L1196.27 596.29C1195.91 595.385 1195.35 594.685 1194.57 594.19C1193.81 593.686 1192.93 593.434 1191.94 593.434C1190.83 593.434 1189.91 593.691 1189.18 594.204C1188.45 594.708 1187.91 595.413 1187.56 596.318C1187.2 597.223 1187.02 598.264 1187.01 599.44C1187.03 601.251 1187.45 602.707 1188.27 603.808C1189.09 604.9 1190.32 605.446 1191.94 605.446C1192.97 605.446 1193.84 605.213 1194.56 604.746C1195.29 604.27 1195.84 603.579 1196.21 602.674L1198.28 603.29C1197.72 604.634 1196.9 605.661 1195.82 606.37C1194.73 607.07 1193.44 607.42 1191.94 607.42ZM1204.92 607V593.784H1199.56V591.88H1212.34V593.784H1206.98V607H1204.92ZM1215.02 607L1214.99 591.88H1217.06V597.578H1220.61C1221.05 597.578 1221.47 597.587 1221.89 597.606C1222.32 597.625 1222.7 597.662 1223.03 597.718C1223.78 597.858 1224.44 598.105 1225.02 598.46C1225.6 598.815 1226.06 599.305 1226.39 599.93C1226.72 600.555 1226.89 601.339 1226.89 602.282C1226.89 603.579 1226.56 604.601 1225.88 605.348C1225.22 606.095 1224.38 606.58 1223.36 606.804C1222.98 606.888 1222.57 606.944 1222.12 606.972C1221.67 606.991 1221.23 607 1220.79 607H1215.02ZM1217.06 605.236H1220.7C1221.02 605.236 1221.38 605.227 1221.77 605.208C1222.16 605.189 1222.51 605.138 1222.8 605.054C1223.3 604.914 1223.75 604.634 1224.15 604.214C1224.56 603.785 1224.76 603.141 1224.76 602.282C1224.76 601.433 1224.57 600.793 1224.18 600.364C1223.78 599.925 1223.26 599.636 1222.61 599.496C1222.32 599.431 1222.01 599.389 1221.67 599.37C1221.33 599.351 1221.01 599.342 1220.7 599.342H1217.06V605.236ZM1241.84 607.42C1240.32 607.42 1239.03 607.079 1237.98 606.398C1236.92 605.717 1236.12 604.779 1235.57 603.584C1235.03 602.38 1234.75 600.999 1234.73 599.44C1234.75 597.853 1235.04 596.463 1235.6 595.268C1236.16 594.064 1236.96 593.131 1238.02 592.468C1239.07 591.796 1240.35 591.46 1241.86 591.46C1243.39 591.46 1244.72 591.833 1245.85 592.58C1246.98 593.327 1247.76 594.349 1248.18 595.646L1246.17 596.29C1245.81 595.385 1245.25 594.685 1244.47 594.19C1243.71 593.686 1242.83 593.434 1241.84 593.434C1240.73 593.434 1239.81 593.691 1239.08 594.204C1238.36 594.708 1237.81 595.413 1237.46 596.318C1237.1 597.223 1236.92 598.264 1236.91 599.44C1236.93 601.251 1237.35 602.707 1238.17 603.808C1238.99 604.9 1240.22 605.446 1241.84 605.446C1242.87 605.446 1243.74 605.213 1244.46 604.746C1245.19 604.27 1245.74 603.579 1246.11 602.674L1248.18 603.29C1247.62 604.634 1246.8 605.661 1245.72 606.37C1244.64 607.07 1243.34 607.42 1241.84 607.42ZM1268.69 591.88V607H1266.69V595.226L1258.4 607H1256.66V591.88H1258.67V603.556L1266.97 591.88H1268.69ZM1278.89 607.42C1277.37 607.42 1276.08 607.079 1275.03 606.398C1273.97 605.717 1273.17 604.779 1272.62 603.584C1272.08 602.38 1271.8 600.999 1271.78 599.44C1271.8 597.853 1272.09 596.463 1272.65 595.268C1273.21 594.064 1274.02 593.131 1275.07 592.468C1276.12 591.796 1277.4 591.46 1278.91 591.46C1280.44 591.46 1281.77 591.833 1282.9 592.58C1284.03 593.327 1284.81 594.349 1285.23 595.646L1283.22 596.29C1282.86 595.385 1282.3 594.685 1281.52 594.19C1280.76 593.686 1279.88 593.434 1278.89 593.434C1277.78 593.434 1276.86 593.691 1276.13 594.204C1275.41 594.708 1274.86 595.413 1274.51 596.318C1274.16 597.223 1273.97 598.264 1273.96 599.44C1273.98 601.251 1274.4 602.707 1275.22 603.808C1276.05 604.9 1277.27 605.446 1278.89 605.446C1279.92 605.446 1280.79 605.213 1281.51 604.746C1282.24 604.27 1282.79 603.579 1283.16 602.674L1285.23 603.29C1284.67 604.634 1283.85 605.661 1282.77 606.37C1281.69 607.07 1280.39 607.42 1278.89 607.42ZM1291.87 607V593.784H1286.51V591.88H1299.29V593.784H1293.93V607H1291.87ZM1308 607.42C1306.5 607.42 1305.21 607.079 1304.15 606.398C1303.09 605.717 1302.27 604.774 1301.7 603.57C1301.13 602.366 1300.85 600.985 1300.85 599.426C1300.85 597.839 1301.14 596.449 1301.71 595.254C1302.29 594.059 1303.11 593.131 1304.18 592.468C1305.25 591.796 1306.53 591.46 1308 591.46C1309.51 591.46 1310.8 591.801 1311.86 592.482C1312.94 593.154 1313.75 594.092 1314.31 595.296C1314.88 596.491 1315.17 597.867 1315.17 599.426C1315.17 601.013 1314.88 602.408 1314.31 603.612C1313.75 604.807 1312.92 605.74 1311.85 606.412C1310.78 607.084 1309.49 607.42 1308 607.42ZM1308 605.446C1309.68 605.446 1310.93 604.891 1311.75 603.78C1312.57 602.66 1312.98 601.209 1312.98 599.426C1312.98 597.597 1312.57 596.141 1311.74 595.058C1310.92 593.975 1309.67 593.434 1308 593.434C1306.87 593.434 1305.94 593.691 1305.2 594.204C1304.47 594.708 1303.93 595.413 1303.56 596.318C1303.21 597.214 1303.03 598.25 1303.03 599.426C1303.03 601.246 1303.45 602.707 1304.29 603.808C1305.13 604.9 1306.37 605.446 1308 605.446ZM1325.05 607.42C1323.66 607.42 1322.48 607.07 1321.52 606.37C1320.56 605.661 1319.83 604.704 1319.33 603.5C1318.84 602.287 1318.59 600.929 1318.59 599.426C1318.59 597.895 1318.84 596.533 1319.33 595.338C1319.84 594.134 1320.58 593.187 1321.55 592.496C1322.52 591.805 1323.71 591.46 1325.13 591.46C1326.51 591.46 1327.7 591.81 1328.69 592.51C1329.68 593.21 1330.43 594.162 1330.95 595.366C1331.49 596.57 1331.75 597.923 1331.75 599.426C1331.75 600.938 1331.49 602.296 1330.95 603.5C1330.42 604.704 1329.66 605.661 1328.66 606.37C1327.66 607.07 1326.46 607.42 1325.05 607.42ZM1318.24 613.72V591.88H1320.09V603.262H1320.31V613.72H1318.24ZM1324.84 605.502C1325.89 605.502 1326.77 605.236 1327.47 604.704C1328.17 604.172 1328.69 603.449 1329.04 602.534C1329.39 601.61 1329.57 600.574 1329.57 599.426C1329.57 598.287 1329.4 597.261 1329.05 596.346C1328.71 595.431 1328.18 594.708 1327.47 594.176C1326.77 593.644 1325.88 593.378 1324.79 593.378C1323.74 593.378 1322.86 593.635 1322.16 594.148C1321.47 594.661 1320.95 595.375 1320.61 596.29C1320.26 597.195 1320.09 598.241 1320.09 599.426C1320.09 600.593 1320.26 601.638 1320.61 602.562C1320.95 603.477 1321.48 604.195 1322.18 604.718C1322.88 605.241 1323.76 605.502 1324.84 605.502ZM1346.84 591.88V607H1344.84V595.226L1336.55 607H1334.81V591.88H1336.82V603.556L1345.12 591.88H1346.84ZM1357.17 607.42C1355.69 607.42 1354.41 607.093 1353.33 606.44C1352.26 605.787 1351.42 604.867 1350.82 603.682C1350.23 602.497 1349.93 601.106 1349.93 599.51C1349.93 597.858 1350.22 596.43 1350.81 595.226C1351.4 594.022 1352.22 593.093 1353.29 592.44C1354.36 591.787 1355.63 591.46 1357.08 591.46C1358.58 591.46 1359.85 591.805 1360.9 592.496C1361.96 593.177 1362.76 594.157 1363.3 595.436C1363.84 596.715 1364.09 598.241 1364.04 600.014H1361.94V599.286C1361.9 597.326 1361.48 595.847 1360.67 594.848C1359.86 593.849 1358.69 593.35 1357.14 593.35C1355.51 593.35 1354.27 593.877 1353.4 594.932C1352.54 595.987 1352.11 597.489 1352.11 599.44C1352.11 601.344 1352.54 602.823 1353.4 603.878C1354.27 604.923 1355.5 605.446 1357.08 605.446C1358.17 605.446 1359.11 605.199 1359.91 604.704C1360.72 604.2 1361.36 603.477 1361.83 602.534L1363.75 603.276C1363.15 604.592 1362.27 605.614 1361.1 606.342C1359.94 607.061 1358.63 607.42 1357.17 607.42ZM1351.38 600.014V598.292H1362.93V600.014H1351.38ZM1373.42 590.088C1372.76 590.088 1372.15 589.925 1371.6 589.598C1371.05 589.271 1370.61 588.837 1370.28 588.296C1369.97 587.745 1369.81 587.139 1369.81 586.476H1371.52C1371.52 586.999 1371.7 587.447 1372.08 587.82C1372.45 588.193 1372.9 588.38 1373.42 588.38C1373.95 588.38 1374.4 588.193 1374.76 587.82C1375.14 587.447 1375.32 586.999 1375.32 586.476H1377.03C1377.03 587.139 1376.87 587.745 1376.54 588.296C1376.22 588.837 1375.79 589.271 1375.24 589.598C1374.69 589.925 1374.08 590.088 1373.42 590.088ZM1379.16 591.88V607H1377.16V595.226L1368.87 607H1367.13V591.88H1369.14V603.556L1377.44 591.88H1379.16Z" fill="#23374F"></path><path d="M895.6 549L914.32 491.4H926.36L945.08 549H936.4L919.16 496.44H921.32L904.28 549H895.6ZM905.32 536V528.16H935.4V536H905.32ZM961.851 549V499.28H942.691V491.4H989.371V499.28H970.211V549H961.851ZM995.772 549V491.4H1003.33L1024.21 534.72L1044.97 491.4H1052.61V548.96H1044.69V509.56L1026.09 549H1022.29L1003.65 509.56V549H995.772ZM1087.86 550.2C1082.1 550.2 1077.19 548.947 1073.14 546.44C1069.09 543.907 1065.98 540.387 1063.82 535.88C1061.69 531.373 1060.62 526.147 1060.62 520.2C1060.62 514.253 1061.69 509.027 1063.82 504.52C1065.98 500.013 1069.09 496.507 1073.14 494C1077.19 491.467 1082.1 490.2 1087.86 490.2C1093.59 490.2 1098.49 491.467 1102.54 494C1106.62 496.507 1109.73 500.013 1111.86 504.52C1113.99 509.027 1115.06 514.253 1115.06 520.2C1115.06 526.147 1113.99 531.373 1111.86 535.88C1109.73 540.387 1106.62 543.907 1102.54 546.44C1098.49 548.947 1093.59 550.2 1087.86 550.2ZM1087.86 542.24C1091.94 542.293 1095.33 541.4 1098.02 539.56C1100.74 537.693 1102.78 535.107 1104.14 531.8C1105.5 528.467 1106.18 524.6 1106.18 520.2C1106.18 515.8 1105.5 511.96 1104.14 508.68C1102.78 505.373 1100.74 502.8 1098.02 500.96C1095.33 499.12 1091.94 498.187 1087.86 498.16C1083.78 498.107 1080.38 499 1077.66 500.84C1074.97 502.68 1072.94 505.267 1071.58 508.6C1070.22 511.933 1069.53 515.8 1069.5 520.2C1069.47 524.6 1070.14 528.453 1071.5 531.76C1072.86 535.04 1074.9 537.6 1077.62 539.44C1080.37 541.28 1083.78 542.213 1087.86 542.24ZM1147.08 550.2C1141.32 550.2 1136.41 548.947 1132.36 546.44C1128.3 543.907 1125.2 540.387 1123.04 535.88C1120.9 531.373 1119.84 526.147 1119.84 520.2C1119.84 514.253 1120.9 509.027 1123.04 504.52C1125.2 500.013 1128.3 496.507 1132.36 494C1136.41 491.467 1141.32 490.2 1147.08 490.2C1153.72 490.2 1159.21 491.88 1163.56 495.24C1167.93 498.6 1170.97 503.12 1172.68 508.8L1164.2 511.08C1163.08 507.053 1161.08 503.893 1158.2 501.6C1155.34 499.307 1151.64 498.16 1147.08 498.16C1143 498.16 1139.6 499.08 1136.88 500.92C1134.16 502.76 1132.1 505.333 1130.72 508.64C1129.36 511.947 1128.68 515.8 1128.68 520.2C1128.65 524.6 1129.32 528.453 1130.68 531.76C1132.06 535.067 1134.12 537.64 1136.84 539.48C1139.58 541.32 1143 542.24 1147.08 542.24C1151.64 542.24 1155.34 541.093 1158.2 538.8C1161.08 536.48 1163.08 533.32 1164.2 529.32L1172.68 531.6C1170.97 537.28 1167.93 541.8 1163.56 545.16C1159.21 548.52 1153.72 550.2 1147.08 550.2ZM1200.88 549V540.96C1197.91 541.467 1195.08 541.347 1192.36 540.6C1189.66 539.853 1187.25 538.52 1185.12 536.6C1183.01 534.68 1181.34 532.2 1180.12 529.16C1178.89 526.12 1178.28 522.573 1178.28 518.52C1178.28 514.44 1178.89 510.88 1180.12 507.84C1181.34 504.773 1183.01 502.267 1185.12 500.32C1187.25 498.373 1189.66 497.013 1192.36 496.24C1195.08 495.44 1197.91 495.293 1200.88 495.8V491.4H1209.2V495.8C1212.16 495.293 1214.98 495.44 1217.68 496.24C1220.4 497.013 1222.81 498.373 1224.92 500.32C1227.05 502.267 1228.73 504.773 1229.96 507.84C1231.21 510.88 1231.84 514.44 1231.84 518.52C1231.84 522.573 1231.21 526.12 1229.96 529.16C1228.73 532.2 1227.05 534.68 1224.92 536.6C1222.81 538.52 1220.4 539.853 1217.68 540.6C1214.98 541.347 1212.16 541.467 1209.2 540.96V549H1200.88ZM1200.88 533.2V503.44C1198.48 503.067 1196.38 503.227 1194.6 503.92C1192.84 504.613 1191.38 505.693 1190.24 507.16C1189.09 508.6 1188.24 510.307 1187.68 512.28C1187.12 514.227 1186.84 516.307 1186.84 518.52C1186.84 520.707 1187.12 522.773 1187.68 524.72C1188.24 526.64 1189.09 528.307 1190.24 529.72C1191.38 531.107 1192.84 532.12 1194.6 532.76C1196.38 533.4 1198.48 533.547 1200.88 533.2ZM1209.2 533.2C1211.6 533.547 1213.68 533.4 1215.44 532.76C1217.2 532.12 1218.65 531.107 1219.8 529.72C1220.97 528.333 1221.84 526.693 1222.4 524.8C1222.98 522.88 1223.28 520.853 1223.28 518.72C1223.28 516.587 1222.98 514.533 1222.4 512.56C1221.84 510.587 1220.97 508.853 1219.8 507.36C1218.65 505.84 1217.2 504.72 1215.44 504C1213.68 503.253 1211.6 503.067 1209.2 503.44V533.2ZM1239.83 549V491.4H1276.63V499.28H1248.19V515.44H1271.83V523.32H1248.19V541.12H1276.63V549H1239.83ZM1286.24 549V491.4H1309.52C1310.08 491.4 1310.77 491.427 1311.6 491.48C1312.43 491.507 1313.21 491.587 1313.96 491.72C1317.16 492.227 1319.83 493.32 1321.96 495C1324.12 496.68 1325.73 498.8 1326.8 501.36C1327.87 503.92 1328.4 506.747 1328.4 509.84C1328.4 512.96 1327.87 515.8 1326.8 518.36C1325.73 520.92 1324.12 523.04 1321.96 524.72C1319.83 526.4 1317.16 527.493 1313.96 528C1313.21 528.107 1312.41 528.187 1311.56 528.24C1310.73 528.293 1310.05 528.32 1309.52 528.32H1294.6V549H1286.24ZM1294.6 520.4H1309.2C1309.73 520.4 1310.32 520.373 1310.96 520.32C1311.63 520.267 1312.25 520.173 1312.84 520.04C1314.55 519.64 1315.92 518.907 1316.96 517.84C1318 516.747 1318.75 515.493 1319.2 514.08C1319.65 512.667 1319.88 511.253 1319.88 509.84C1319.88 508.427 1319.65 507.027 1319.2 505.64C1318.75 504.227 1318 502.987 1316.96 501.92C1315.92 500.827 1314.55 500.08 1312.84 499.68C1312.25 499.52 1311.63 499.413 1310.96 499.36C1310.32 499.307 1309.73 499.28 1309.2 499.28H1294.6V520.4ZM1329.19 549L1347.91 491.4H1359.95L1378.67 549H1369.99L1352.75 496.44H1354.91L1337.87 549H1329.19ZM1338.91 536V528.16H1368.99V536H1338.91Z" fill="#23374F"></path><g clip-path="url(#clip0_803_4305)"><path d="M608.998 435H660.291L731 644H682.315L658.552 563.932C610.136 566.672 561.96 601.726 538 644L608.998 435ZM658.552 563.932L634.5 483.57L609.868 563.932H658.552Z" fill="#23374F"></path></g><rect x="814" y="402" width="275" height="3" transform="rotate(90 814 402)" fill="#23374F"></rect><defs><clipPath id="clip0_803_4305"><rect width="193" height="209" fill="white" transform="translate(538 435)"></rect></clipPath></defs></svg> 