<?xml version="1.0" encoding="UTF-8"?> <svg xmlns="http://www.w3.org/2000/svg" width="640" height="677" viewBox="0 0 640 677" fill="none"><rect width="640" height="677" fill="#FBF5EE"></rect><path d="M34.144 107.68V93.696C35.7227 93.696 37.024 93.3013 38.048 92.512C39.072 91.7013 39.8827 90.6027 40.48 89.216C41.0987 87.808 41.568 86.208 41.888 84.416C42.2293 82.624 42.4853 80.736 42.656 78.752C42.912 76.064 43.1253 73.44 43.296 70.88C43.488 68.2987 43.6587 65.632 43.808 62.88C43.9787 60.128 44.16 57.1307 44.352 53.888L73.856 53.92V93.696H77.28V107.68H70.56V100H40.832V107.68H34.144ZM45.12 93.696H67.168V60.224L50.528 60.192C50.3787 62.5387 50.2507 64.768 50.144 66.88C50.0373 68.992 49.8987 71.1253 49.728 73.28C49.5787 75.4133 49.3867 77.7067 49.152 80.16C48.9173 82.5067 48.672 84.5013 48.416 86.144C48.16 87.7653 47.776 89.1733 47.264 90.368C46.7733 91.5627 46.0587 92.672 45.12 93.696ZM103.525 100.96C98.9165 100.96 94.9912 99.9573 91.7485 97.952C88.5058 95.9253 86.0205 93.1093 84.2925 89.504C82.5858 85.8987 81.7325 81.7173 81.7325 76.96C81.7325 72.2027 82.5858 68.0213 84.2925 64.416C86.0205 60.8107 88.5058 58.0053 91.7485 56C94.9912 53.9733 98.9165 52.96 103.525 52.96C108.111 52.96 112.026 53.9733 115.269 56C118.533 58.0053 121.018 60.8107 122.725 64.416C124.431 68.0213 125.285 72.2027 125.285 76.96C125.285 81.7173 124.431 85.8987 122.725 89.504C121.018 93.1093 118.533 95.9253 115.269 97.952C112.026 99.9573 108.111 100.96 103.525 100.96ZM103.525 94.592C106.789 94.6347 109.498 93.92 111.653 92.448C113.829 90.9547 115.461 88.8853 116.549 86.24C117.637 83.5733 118.181 80.48 118.181 76.96C118.181 73.44 117.637 70.368 116.549 67.744C115.461 65.0987 113.829 63.04 111.653 61.568C109.498 60.096 106.789 59.3493 103.525 59.328C100.261 59.2853 97.5405 60 95.3645 61.472C93.2098 62.944 91.5885 65.0133 90.5005 67.68C89.4125 70.3467 88.8578 73.44 88.8365 76.96C88.8152 80.48 89.3485 83.5627 90.4365 86.208C91.5245 88.832 93.1565 90.88 95.3325 92.352C97.5298 93.824 100.261 94.5707 103.525 94.592ZM124.64 100L140.352 76.672L125.056 53.92H133.248L144.48 71.008L155.648 53.92H163.872L148.576 76.672L164.256 100H156.064L144.48 82.368L132.864 100H124.64ZM186.65 100.96C182.042 100.96 178.116 99.9573 174.874 97.952C171.631 95.9253 169.146 93.1093 167.418 89.504C165.711 85.8987 164.858 81.7173 164.858 76.96C164.858 72.2027 165.711 68.0213 167.418 64.416C169.146 60.8107 171.631 58.0053 174.874 56C178.116 53.9733 182.042 52.96 186.65 52.96C191.236 52.96 195.151 53.9733 198.394 56C201.658 58.0053 204.143 60.8107 205.85 64.416C207.556 68.0213 208.41 72.2027 208.41 76.96C208.41 81.7173 207.556 85.8987 205.85 89.504C204.143 93.1093 201.658 95.9253 198.394 97.952C195.151 99.9573 191.236 100.96 186.65 100.96ZM186.65 94.592C189.914 94.6347 192.623 93.92 194.778 92.448C196.954 90.9547 198.586 88.8853 199.674 86.24C200.762 83.5733 201.306 80.48 201.306 76.96C201.306 73.44 200.762 70.368 199.674 67.744C198.586 65.0987 196.954 63.04 194.778 61.568C192.623 60.096 189.914 59.3493 186.65 59.328C183.386 59.2853 180.666 60 178.49 61.472C176.335 62.944 174.714 65.0133 173.626 67.68C172.538 70.3467 171.983 73.44 171.962 76.96C171.94 80.48 172.474 83.5627 173.562 86.208C174.65 88.832 176.282 90.88 178.458 92.352C180.655 93.824 183.386 94.5707 186.65 94.592ZM211.207 107.68V93.696C212.785 93.696 214.087 93.3013 215.111 92.512C216.135 91.7013 216.945 90.6027 217.543 89.216C218.161 87.808 218.631 86.208 218.951 84.416C219.292 82.624 219.548 80.736 219.719 78.752C219.975 76.064 220.188 73.44 220.359 70.88C220.551 68.2987 220.721 65.632 220.871 62.88C221.041 60.128 221.223 57.1307 221.415 53.888L250.919 53.92V93.696H254.343V107.68H247.623V100H217.895V107.68H211.207ZM222.183 93.696H244.231V60.224L227.591 60.192C227.441 62.5387 227.313 64.768 227.207 66.88C227.1 68.992 226.961 71.1253 226.791 73.28C226.641 75.4133 226.449 77.7067 226.215 80.16C225.98 82.5067 225.735 84.5013 225.479 86.144C225.223 87.7653 224.839 89.1733 224.327 90.368C223.836 91.5627 223.121 92.672 222.183 93.696ZM261.355 100V53.92H268.043V73.792H291.083V53.92H297.803V100H291.083V80.096H268.043V100H261.355ZM326.025 100.96C321.417 100.96 317.491 99.9573 314.249 97.952C311.006 95.9253 308.521 93.1093 306.793 89.504C305.086 85.8987 304.233 81.7173 304.233 76.96C304.233 72.2027 305.086 68.0213 306.793 64.416C308.521 60.8107 311.006 58.0053 314.249 56C317.491 53.9733 321.417 52.96 326.025 52.96C330.611 52.96 334.526 53.9733 337.769 56C341.033 58.0053 343.518 60.8107 345.225 64.416C346.931 68.0213 347.785 72.2027 347.785 76.96C347.785 81.7173 346.931 85.8987 345.225 89.504C343.518 93.1093 341.033 95.9253 337.769 97.952C334.526 99.9573 330.611 100.96 326.025 100.96ZM326.025 94.592C329.289 94.6347 331.998 93.92 334.153 92.448C336.329 90.9547 337.961 88.8853 339.049 86.24C340.137 83.5733 340.681 80.48 340.681 76.96C340.681 73.44 340.137 70.368 339.049 67.744C337.961 65.0987 336.329 63.04 334.153 61.568C331.998 60.096 329.289 59.3493 326.025 59.328C322.761 59.2853 320.041 60 317.865 61.472C315.71 62.944 314.089 65.0133 313.001 67.68C311.913 70.3467 311.358 73.44 311.337 76.96C311.315 80.48 311.849 83.5627 312.937 86.208C314.025 88.832 315.657 90.88 317.833 92.352C320.03 93.824 322.761 94.5707 326.025 94.592ZM373.4 100.96C368.792 100.96 364.866 99.9573 361.624 97.952C358.381 95.9253 355.896 93.1093 354.168 89.504C352.461 85.8987 351.608 81.7173 351.608 76.96C351.608 72.2027 352.461 68.0213 354.168 64.416C355.896 60.8107 358.381 58.0053 361.624 56C364.866 53.9733 368.792 52.96 373.4 52.96C378.712 52.96 383.106 54.304 386.583 56.992C390.082 59.68 392.514 63.296 393.88 67.84L387.096 69.664C386.2 66.4427 384.6 63.9147 382.296 62.08C380.013 60.2453 377.048 59.328 373.4 59.328C370.136 59.328 367.416 60.064 365.24 61.536C363.064 63.008 361.421 65.0667 360.312 67.712C359.224 70.3573 358.68 73.44 358.68 76.96C358.658 80.48 359.192 83.5627 360.28 86.208C361.389 88.8533 363.032 90.912 365.208 92.384C367.405 93.856 370.136 94.592 373.4 94.592C377.048 94.592 380.013 93.6747 382.296 91.84C384.6 89.984 386.2 87.456 387.096 84.256L393.88 86.08C392.514 90.624 390.082 94.24 386.583 96.928C383.106 99.616 378.712 100.96 373.4 100.96ZM412.406 100V60.224H397.078V53.92H434.422V60.224H419.094V100H412.406ZM439.511 100V53.92H446.199V70.464H458.135C458.561 70.464 459.105 70.4853 459.767 70.528C460.449 70.5493 461.079 70.6133 461.655 70.72C464.215 71.1253 466.348 72 468.055 73.344C469.783 74.688 471.073 76.384 471.927 78.432C472.801 80.48 473.239 82.752 473.239 85.248C473.239 87.7227 472.812 89.984 471.958 92.032C471.105 94.08 469.815 95.776 468.087 97.12C466.38 98.464 464.236 99.3387 461.655 99.744C461.079 99.8293 460.46 99.8933 459.799 99.936C459.137 99.9787 458.583 100 458.135 100H439.511ZM446.199 93.696H457.879C458.284 93.696 458.743 93.6747 459.255 93.632C459.788 93.5893 460.289 93.504 460.759 93.376C462.145 93.056 463.244 92.4693 464.055 91.616C464.887 90.7413 465.484 89.7493 465.847 88.64C466.231 87.5093 466.423 86.3787 466.423 85.248C466.423 84.1173 466.231 82.9867 465.847 81.856C465.484 80.7253 464.887 79.7333 464.055 78.88C463.244 78.0053 462.145 77.408 460.759 77.088C460.289 76.96 459.788 76.8853 459.255 76.864C458.743 76.8213 458.284 76.8 457.879 76.8H446.199V93.696Z" fill="#23374F"></path><path d="M45.1731 356V286.88H73.1091C73.7811 286.88 74.6131 286.912 75.6051 286.976C76.5971 287.008 77.5411 287.104 78.4371 287.264C82.2771 287.872 85.4771 289.184 88.0371 291.2C90.6291 293.216 92.5651 295.76 93.8451 298.832C95.1251 301.904 95.7651 305.296 95.7651 309.008C95.7651 314.512 94.3571 319.264 91.5411 323.264C88.7251 327.232 84.5011 329.712 78.8691 330.704L74.7891 331.184H55.2051V356H45.1731ZM85.5891 356L71.9571 327.872L82.0851 325.28L97.0611 356H85.5891ZM55.2051 321.68H72.7251C73.3651 321.68 74.0691 321.648 74.8371 321.584C75.6371 321.52 76.3891 321.408 77.0931 321.248C79.1411 320.768 80.7891 319.888 82.0371 318.608C83.2851 317.296 84.1811 315.792 84.7251 314.096C85.2691 312.4 85.5411 310.704 85.5411 309.008C85.5411 307.312 85.2691 305.632 84.7251 303.968C84.1811 302.272 83.2851 300.784 82.0371 299.504C80.7891 298.192 79.1411 297.296 77.0931 296.816C76.3891 296.624 75.6371 296.496 74.8371 296.432C74.0691 296.368 73.3651 296.336 72.7251 296.336H55.2051V321.68ZM136.459 357.44C129.547 357.44 123.659 355.936 118.795 352.928C113.931 349.888 110.203 345.664 107.611 340.256C105.051 334.848 103.771 328.576 103.771 321.44C103.771 314.304 105.051 308.032 107.611 302.624C110.203 297.216 113.931 293.008 118.795 290C123.659 286.96 129.547 285.44 136.459 285.44C143.339 285.44 149.211 286.96 154.075 290C158.971 293.008 162.699 297.216 165.259 302.624C167.819 308.032 169.099 314.304 169.099 321.44C169.099 328.576 167.819 334.848 165.259 340.256C162.699 345.664 158.971 349.888 154.075 352.928C149.211 355.936 143.339 357.44 136.459 357.44ZM136.459 347.888C141.355 347.952 145.419 346.88 148.651 344.672C151.915 342.432 154.363 339.328 155.995 335.36C157.627 331.36 158.443 326.72 158.443 321.44C158.443 316.16 157.627 311.552 155.995 307.616C154.363 303.648 151.915 300.56 148.651 298.352C145.419 296.144 141.355 295.024 136.459 294.992C131.563 294.928 127.483 296 124.219 298.208C120.987 300.416 118.555 303.52 116.923 307.52C115.291 311.52 114.459 316.16 114.427 321.44C114.395 326.72 115.195 331.344 116.827 335.312C118.459 339.248 120.907 342.32 124.171 344.528C127.467 346.736 131.563 347.856 136.459 347.888ZM179.633 356V286.88H189.665V356H179.633ZM222.338 329.744V321.68H251.138V329.744H222.338ZM300.253 348.656L293.965 342.416L311.005 325.76L293.965 309.104L300.253 302.864L323.101 325.76L300.253 348.656ZM341.378 355.952L341.426 347.024L371.522 320.048C373.954 317.904 375.602 315.856 376.466 313.904C377.362 311.952 377.81 310 377.81 308.048C377.81 305.584 377.266 303.376 376.178 301.424C375.09 299.44 373.586 297.872 371.666 296.72C369.746 295.568 367.538 294.992 365.042 294.992C362.482 294.992 360.194 295.6 358.178 296.816C356.194 298 354.642 299.584 353.522 301.568C352.402 303.552 351.858 305.696 351.89 308H341.618C341.618 303.52 342.626 299.6 344.642 296.24C346.69 292.848 349.49 290.208 353.042 288.32C356.594 286.4 360.658 285.44 365.234 285.44C369.586 285.44 373.49 286.432 376.946 288.416C380.402 290.368 383.122 293.056 385.106 296.48C387.122 299.904 388.13 303.808 388.13 308.192C388.13 311.36 387.714 314.048 386.882 316.256C386.05 318.464 384.802 320.512 383.138 322.4C381.474 324.288 379.394 326.336 376.898 328.544L353.666 349.28L352.562 346.4H388.13V355.952H341.378ZM423.738 357.44C419.034 357.44 414.874 356.416 411.258 354.368C407.642 352.288 404.794 349.44 402.714 345.824C400.666 342.208 399.642 338.048 399.642 333.344V309.536C399.642 304.832 400.666 300.672 402.714 297.056C404.794 293.44 407.642 290.608 411.258 288.56C414.874 286.48 419.034 285.44 423.738 285.44C428.442 285.44 432.602 286.48 436.218 288.56C439.834 290.608 442.666 293.44 444.714 297.056C446.794 300.672 447.834 304.832 447.834 309.536V333.344C447.834 338.048 446.794 342.208 444.714 345.824C442.666 349.44 439.834 352.288 436.218 354.368C432.602 356.416 428.442 357.44 423.738 357.44ZM423.738 347.84C426.298 347.84 428.618 347.232 430.698 346.016C432.81 344.768 434.49 343.104 435.738 341.024C436.986 338.912 437.61 336.56 437.61 333.968V308.816C437.61 306.256 436.986 303.936 435.738 301.856C434.49 299.744 432.81 298.08 430.698 296.864C428.618 295.616 426.298 294.992 423.738 294.992C421.178 294.992 418.842 295.616 416.73 296.864C414.65 298.08 412.986 299.744 411.738 301.856C410.49 303.936 409.866 306.256 409.866 308.816V333.968C409.866 336.56 410.49 338.912 411.738 341.024C412.986 343.104 414.65 344.768 416.73 346.016C418.842 347.232 421.178 347.84 423.738 347.84ZM485.332 357.44C480.628 357.44 476.468 356.416 472.852 354.368C469.236 352.288 466.388 349.44 464.308 345.824C462.26 342.208 461.236 338.048 461.236 333.344V309.536C461.236 304.832 462.26 300.672 464.308 297.056C466.388 293.44 469.236 290.608 472.852 288.56C476.468 286.48 480.628 285.44 485.332 285.44C490.036 285.44 494.196 286.48 497.812 288.56C501.428 290.608 504.26 293.44 506.308 297.056C508.388 300.672 509.428 304.832 509.428 309.536V333.344C509.428 338.048 508.388 342.208 506.308 345.824C504.26 349.44 501.428 352.288 497.812 354.368C494.196 356.416 490.036 357.44 485.332 357.44ZM485.332 347.84C487.892 347.84 490.212 347.232 492.292 346.016C494.404 344.768 496.084 343.104 497.332 341.024C498.58 338.912 499.204 336.56 499.204 333.968V308.816C499.204 306.256 498.58 303.936 497.332 301.856C496.084 299.744 494.404 298.08 492.292 296.864C490.212 295.616 487.892 294.992 485.332 294.992C482.772 294.992 480.436 295.616 478.324 296.864C476.244 298.08 474.58 299.744 473.332 301.856C472.084 303.936 471.46 306.256 471.46 308.816V333.968C471.46 336.56 472.084 338.912 473.332 341.024C474.58 343.104 476.244 344.768 478.324 346.016C480.436 347.232 482.772 347.84 485.332 347.84ZM531.469 356L524.749 349.28L587.197 286.88L593.917 293.648L531.469 356ZM579.517 357.44C576.349 357.44 573.453 356.672 570.829 355.136C568.237 353.568 566.157 351.488 564.589 348.896C563.021 346.272 562.237 343.36 562.237 340.16C562.237 337.024 563.037 334.144 564.637 331.52C566.237 328.896 568.349 326.8 570.973 325.232C573.597 323.664 576.445 322.88 579.517 322.88C582.685 322.88 585.581 323.664 588.205 325.232C590.829 326.768 592.909 328.848 594.445 331.472C596.013 334.064 596.797 336.96 596.797 340.16C596.797 343.36 596.013 346.272 594.445 348.896C592.909 351.488 590.829 353.568 588.205 355.136C585.581 356.672 582.685 357.44 579.517 357.44ZM579.517 348.752C581.085 348.752 582.509 348.368 583.789 347.6C585.101 346.8 586.141 345.744 586.909 344.432C587.709 343.12 588.109 341.696 588.109 340.16C588.109 338.624 587.709 337.2 586.909 335.888C586.141 334.576 585.101 333.536 583.789 332.768C582.509 331.968 581.085 331.568 579.517 331.568C577.981 331.568 576.557 331.968 575.245 332.768C573.965 333.536 572.925 334.576 572.125 335.888C571.357 337.2 570.973 338.624 570.973 340.16C570.973 341.696 571.357 343.12 572.125 344.432C572.925 345.744 573.965 346.8 575.245 347.6C576.557 348.368 577.981 348.752 579.517 348.752ZM539.149 320C535.981 320 533.085 319.232 530.461 317.696C527.837 316.128 525.741 314.048 524.173 311.456C522.637 308.832 521.869 305.92 521.869 302.72C521.869 299.584 522.669 296.704 524.269 294.08C525.869 291.456 527.981 289.36 530.605 287.792C533.229 286.224 536.077 285.44 539.149 285.44C542.317 285.44 545.197 286.224 547.789 287.792C550.413 289.328 552.509 291.408 554.077 294.032C555.645 296.624 556.429 299.52 556.429 302.72C556.429 305.92 555.645 308.832 554.077 311.456C552.509 314.048 550.413 316.128 547.789 317.696C545.197 319.232 542.317 320 539.149 320ZM539.149 311.312C540.685 311.312 542.109 310.928 543.421 310.16C544.733 309.36 545.773 308.304 546.541 306.992C547.341 305.68 547.741 304.256 547.741 302.72C547.741 301.184 547.341 299.76 546.541 298.448C545.773 297.136 544.733 296.096 543.421 295.328C542.109 294.528 540.685 294.128 539.149 294.128C537.613 294.128 536.189 294.528 534.877 295.328C533.597 296.096 532.557 297.136 531.757 298.448C530.957 299.76 530.557 301.184 530.557 302.72C530.557 304.256 530.957 305.68 531.757 306.992C532.557 308.304 533.597 309.36 534.877 310.16C536.157 310.928 537.581 311.312 539.149 311.312Z" fill="#23374F"></path><path d="M76.9712 472V446.08H87.4472C87.6992 446.08 88.0112 446.092 88.3832 446.116C88.7552 446.128 89.1092 446.164 89.4452 446.224C90.8852 446.452 92.0852 446.944 93.0452 447.7C94.0172 448.456 94.7432 449.41 95.2232 450.562C95.7032 451.714 95.9432 452.986 95.9432 454.378C95.9432 456.442 95.4152 458.224 94.3592 459.724C93.3032 461.212 91.7192 462.142 89.6072 462.514L88.0772 462.694H80.7332V472H76.9712ZM92.1272 472L87.0152 461.452L90.8132 460.48L96.4292 472H92.1272ZM80.7332 459.13H87.3032C87.5432 459.13 87.8072 459.118 88.0952 459.094C88.3952 459.07 88.6772 459.028 88.9412 458.968C89.7092 458.788 90.3272 458.458 90.7952 457.978C91.2632 457.486 91.5992 456.922 91.8032 456.286C92.0072 455.65 92.1092 455.014 92.1092 454.378C92.1092 453.742 92.0072 453.112 91.8032 452.488C91.5992 451.852 91.2632 451.294 90.7952 450.814C90.3272 450.322 89.7092 449.986 88.9412 449.806C88.6772 449.734 88.3952 449.686 88.0952 449.662C87.8072 449.638 87.5432 449.626 87.3032 449.626H80.7332V459.13ZM111.203 472.54C108.611 472.54 106.403 471.976 104.579 470.848C102.755 469.708 101.357 468.124 100.385 466.096C99.4252 464.068 98.9452 461.716 98.9452 459.04C98.9452 456.364 99.4252 454.012 100.385 451.984C101.357 449.956 102.755 448.378 104.579 447.25C106.403 446.11 108.611 445.54 111.203 445.54C113.783 445.54 115.985 446.11 117.809 447.25C119.645 448.378 121.043 449.956 122.003 451.984C122.963 454.012 123.443 456.364 123.443 459.04C123.443 461.716 122.963 464.068 122.003 466.096C121.043 468.124 119.645 469.708 117.809 470.848C115.985 471.976 113.783 472.54 111.203 472.54ZM111.203 468.958C113.039 468.982 114.563 468.58 115.775 467.752C116.999 466.912 117.917 465.748 118.529 464.26C119.141 462.76 119.447 461.02 119.447 459.04C119.447 457.06 119.141 455.332 118.529 453.856C117.917 452.368 116.999 451.21 115.775 450.382C114.563 449.554 113.039 449.134 111.203 449.122C109.367 449.098 107.837 449.5 106.613 450.328C105.401 451.156 104.489 452.32 103.877 453.82C103.265 455.32 102.953 457.06 102.941 459.04C102.929 461.02 103.229 462.754 103.841 464.242C104.453 465.718 105.371 466.87 106.595 467.698C107.831 468.526 109.367 468.946 111.203 468.958ZM127.394 472V446.08H131.156V472H127.394ZM152.93 478.714C151.538 477.094 150.338 475.264 149.33 473.224C148.322 471.196 147.554 469.066 147.026 466.834C146.498 464.59 146.252 462.352 146.288 460.12C146.252 457.888 146.498 455.656 147.026 453.424C147.554 451.18 148.322 449.044 149.33 447.016C150.338 444.976 151.538 443.146 152.93 441.526L155.738 443.614C154.298 445.318 153.14 447.07 152.264 448.87C151.388 450.658 150.746 452.494 150.338 454.378C149.93 456.25 149.726 458.164 149.726 460.12C149.726 462.064 149.93 463.978 150.338 465.862C150.746 467.746 151.388 469.588 152.264 471.388C153.152 473.188 154.31 474.934 155.738 476.626L152.93 478.714ZM159.764 472V446.08H170.24C170.492 446.08 170.804 446.092 171.176 446.116C171.548 446.128 171.902 446.164 172.238 446.224C173.678 446.452 174.878 446.944 175.838 447.7C176.81 448.456 177.536 449.41 178.016 450.562C178.496 451.714 178.736 452.986 178.736 454.378C178.736 456.442 178.208 458.224 177.152 459.724C176.096 461.212 174.512 462.142 172.4 462.514L170.87 462.694H163.526V472H159.764ZM174.92 472L169.808 461.452L173.606 460.48L179.222 472H174.92ZM163.526 459.13H170.096C170.336 459.13 170.6 459.118 170.888 459.094C171.188 459.07 171.47 459.028 171.734 458.968C172.502 458.788 173.12 458.458 173.588 457.978C174.056 457.486 174.392 456.922 174.596 456.286C174.8 455.65 174.902 455.014 174.902 454.378C174.902 453.742 174.8 453.112 174.596 452.488C174.392 451.852 174.056 451.294 173.588 450.814C173.12 450.322 172.502 449.986 171.734 449.806C171.47 449.734 171.188 449.686 170.888 449.662C170.6 449.638 170.336 449.626 170.096 449.626H163.526V459.13ZM191.8 472.54C189.868 472.54 188.17 472.12 186.706 471.28C185.254 470.428 184.12 469.246 183.304 467.734C182.5 466.21 182.098 464.446 182.098 462.442C182.098 460.318 182.494 458.476 183.286 456.916C184.09 455.356 185.206 454.15 186.634 453.298C188.062 452.446 189.724 452.02 191.62 452.02C193.6 452.02 195.286 452.482 196.678 453.406C198.07 454.318 199.108 455.62 199.792 457.312C200.488 459.004 200.764 461.014 200.62 463.342H196.858V461.974C196.834 459.718 196.402 458.05 195.562 456.97C194.734 455.89 193.468 455.35 191.764 455.35C189.88 455.35 188.464 455.944 187.516 457.132C186.568 458.32 186.094 460.036 186.094 462.28C186.094 464.416 186.568 466.072 187.516 467.248C188.464 468.412 189.832 468.994 191.62 468.994C192.796 468.994 193.81 468.73 194.662 468.202C195.526 467.662 196.198 466.894 196.678 465.898L200.368 467.068C199.612 468.808 198.466 470.158 196.93 471.118C195.394 472.066 193.684 472.54 191.8 472.54ZM184.87 463.342V460.408H198.748V463.342H184.87ZM215.783 472C214.559 472.24 213.359 472.342 212.183 472.306C211.007 472.27 209.957 472.042 209.033 471.622C208.109 471.202 207.413 470.542 206.945 469.642C206.525 468.838 206.297 468.022 206.261 467.194C206.237 466.354 206.225 465.406 206.225 464.35V447.16H210.005V464.17C210.005 464.95 210.011 465.628 210.023 466.204C210.047 466.78 210.173 467.266 210.401 467.662C210.833 468.406 211.517 468.832 212.453 468.94C213.401 469.036 214.511 468.994 215.783 468.814V472ZM202.499 455.584V452.56H215.783V455.584H202.499ZM227.207 472.522C225.863 472.522 224.735 472.306 223.823 471.874C222.911 471.442 222.167 470.878 221.591 470.182C221.027 469.474 220.595 468.706 220.295 467.878C219.995 467.05 219.791 466.24 219.683 465.448C219.575 464.656 219.521 463.96 219.521 463.36V452.56H223.337V462.118C223.337 462.874 223.397 463.654 223.517 464.458C223.649 465.25 223.889 465.988 224.237 466.672C224.597 467.356 225.095 467.908 225.731 468.328C226.379 468.748 227.219 468.958 228.251 468.958C228.923 468.958 229.559 468.85 230.159 468.634C230.759 468.406 231.281 468.046 231.725 467.554C232.181 467.062 232.535 466.414 232.787 465.61C233.051 464.806 233.183 463.828 233.183 462.676L235.523 463.558C235.523 465.322 235.193 466.882 234.533 468.238C233.873 469.582 232.925 470.632 231.689 471.388C230.453 472.144 228.959 472.522 227.207 472.522ZM233.633 472V466.384H233.183V452.56H236.981V472H233.633ZM242.03 472V452.56H245.378V457.276L244.91 456.664C245.15 456.04 245.462 455.47 245.846 454.954C246.23 454.426 246.674 453.994 247.178 453.658C247.67 453.298 248.216 453.022 248.816 452.83C249.428 452.626 250.052 452.506 250.688 452.47C251.324 452.422 251.936 452.452 252.524 452.56V456.088C251.888 455.92 251.18 455.872 250.4 455.944C249.632 456.016 248.924 456.262 248.276 456.682C247.664 457.078 247.178 457.558 246.818 458.122C246.47 458.686 246.218 459.316 246.062 460.012C245.906 460.696 245.828 461.422 245.828 462.19V472H242.03ZM269.596 472V462.442C269.596 461.686 269.53 460.912 269.398 460.12C269.278 459.316 269.038 458.572 268.678 457.888C268.33 457.204 267.832 456.652 267.184 456.232C266.548 455.812 265.714 455.602 264.682 455.602C264.01 455.602 263.374 455.716 262.774 455.944C262.174 456.16 261.646 456.514 261.19 457.006C260.746 457.498 260.392 458.146 260.128 458.95C259.876 459.754 259.75 460.732 259.75 461.884L257.41 461.002C257.41 459.238 257.74 457.684 258.4 456.34C259.06 454.984 260.008 453.928 261.244 453.172C262.48 452.416 263.974 452.038 265.726 452.038C267.07 452.038 268.198 452.254 269.11 452.686C270.022 453.118 270.76 453.688 271.324 454.396C271.9 455.092 272.338 455.854 272.638 456.682C272.938 457.51 273.142 458.32 273.25 459.112C273.358 459.904 273.412 460.6 273.412 461.2V472H269.596ZM255.934 472V452.56H259.3V458.176H259.75V472H255.934ZM293.749 472.54C291.805 472.54 290.119 472.102 288.691 471.226C287.263 470.35 286.159 469.144 285.379 467.608C284.611 466.06 284.227 464.278 284.227 462.262C284.227 460.234 284.623 458.452 285.415 456.916C286.207 455.368 287.317 454.168 288.745 453.316C290.173 452.452 291.841 452.02 293.749 452.02C295.693 452.02 297.379 452.458 298.807 453.334C300.235 454.21 301.339 455.416 302.119 456.952C302.899 458.488 303.289 460.258 303.289 462.262C303.289 464.29 302.893 466.078 302.101 467.626C301.321 469.162 300.217 470.368 298.789 471.244C297.361 472.108 295.681 472.54 293.749 472.54ZM293.749 468.994C295.609 468.994 296.995 468.37 297.907 467.122C298.831 465.862 299.293 464.242 299.293 462.262C299.293 460.234 298.825 458.614 297.889 457.402C296.965 456.178 295.585 455.566 293.749 455.566C292.489 455.566 291.451 455.854 290.635 456.43C289.819 456.994 289.213 457.78 288.817 458.788C288.421 459.784 288.223 460.942 288.223 462.262C288.223 464.302 288.691 465.934 289.627 467.158C290.563 468.382 291.937 468.994 293.749 468.994ZM320.889 472V462.442C320.889 461.686 320.823 460.912 320.691 460.12C320.571 459.316 320.331 458.572 319.971 457.888C319.623 457.204 319.125 456.652 318.477 456.232C317.841 455.812 317.007 455.602 315.975 455.602C315.303 455.602 314.667 455.716 314.067 455.944C313.467 456.16 312.939 456.514 312.483 457.006C312.039 457.498 311.685 458.146 311.421 458.95C311.169 459.754 311.043 460.732 311.043 461.884L308.703 461.002C308.703 459.238 309.033 457.684 309.693 456.34C310.353 454.984 311.301 453.928 312.537 453.172C313.773 452.416 315.267 452.038 317.019 452.038C318.363 452.038 319.491 452.254 320.403 452.686C321.315 453.118 322.053 453.688 322.617 454.396C323.193 455.092 323.631 455.854 323.931 456.682C324.231 457.51 324.435 458.32 324.543 459.112C324.651 459.904 324.705 460.6 324.705 461.2V472H320.889ZM307.227 472V452.56H310.593V458.176H311.043V472H307.227ZM336.96 472V446.08H340.722V472H336.96ZM359.771 472V462.442C359.771 461.686 359.705 460.912 359.573 460.12C359.453 459.316 359.213 458.572 358.853 457.888C358.505 457.204 358.007 456.652 357.359 456.232C356.723 455.812 355.889 455.602 354.857 455.602C354.185 455.602 353.549 455.716 352.949 455.944C352.349 456.16 351.821 456.514 351.365 457.006C350.921 457.498 350.567 458.146 350.303 458.95C350.051 459.754 349.925 460.732 349.925 461.884L347.585 461.002C347.585 459.238 347.915 457.684 348.575 456.34C349.235 454.984 350.183 453.928 351.419 453.172C352.655 452.416 354.149 452.038 355.901 452.038C357.245 452.038 358.373 452.254 359.285 452.686C360.197 453.118 360.935 453.688 361.499 454.396C362.075 455.092 362.513 455.854 362.813 456.682C363.113 457.51 363.317 458.32 363.425 459.112C363.533 459.904 363.587 460.6 363.587 461.2V472H359.771ZM346.109 472V452.56H349.475V458.176H349.925V472H346.109ZM373.532 472L366.476 452.56H370.274L375.44 467.284L380.606 452.56H384.404L377.348 472H373.532ZM395.566 472.54C393.634 472.54 391.936 472.12 390.472 471.28C389.02 470.428 387.886 469.246 387.07 467.734C386.266 466.21 385.864 464.446 385.864 462.442C385.864 460.318 386.26 458.476 387.052 456.916C387.856 455.356 388.972 454.15 390.4 453.298C391.828 452.446 393.49 452.02 395.386 452.02C397.366 452.02 399.052 452.482 400.444 453.406C401.836 454.318 402.874 455.62 403.558 457.312C404.254 459.004 404.53 461.014 404.386 463.342H400.624V461.974C400.6 459.718 400.168 458.05 399.328 456.97C398.5 455.89 397.234 455.35 395.53 455.35C393.646 455.35 392.23 455.944 391.282 457.132C390.334 458.32 389.86 460.036 389.86 462.28C389.86 464.416 390.334 466.072 391.282 467.248C392.23 468.412 393.598 468.994 395.386 468.994C396.562 468.994 397.576 468.73 398.428 468.202C399.292 467.662 399.964 466.894 400.444 465.898L404.134 467.068C403.378 468.808 402.232 470.158 400.696 471.118C399.16 472.066 397.45 472.54 395.566 472.54ZM388.636 463.342V460.408H402.514V463.342H388.636ZM415.858 472.522C413.494 472.522 411.568 472 410.08 470.956C408.592 469.912 407.68 468.442 407.344 466.546L411.196 465.952C411.436 466.96 411.988 467.758 412.852 468.346C413.728 468.922 414.814 469.21 416.11 469.21C417.286 469.21 418.204 468.97 418.864 468.49C419.536 468.01 419.872 467.35 419.872 466.51C419.872 466.018 419.752 465.622 419.512 465.322C419.284 465.01 418.798 464.716 418.054 464.44C417.31 464.164 416.176 463.822 414.652 463.414C412.984 462.982 411.658 462.52 410.674 462.028C409.702 461.524 409.006 460.942 408.586 460.282C408.178 459.61 407.974 458.8 407.974 457.852C407.974 456.676 408.286 455.65 408.91 454.774C409.534 453.898 410.41 453.22 411.538 452.74C412.678 452.26 414.01 452.02 415.534 452.02C417.022 452.02 418.348 452.254 419.512 452.722C420.676 453.19 421.618 453.856 422.338 454.72C423.058 455.572 423.49 456.574 423.634 457.726L419.782 458.428C419.65 457.492 419.212 456.754 418.468 456.214C417.724 455.674 416.758 455.38 415.57 455.332C414.43 455.284 413.506 455.476 412.798 455.908C412.09 456.328 411.736 456.91 411.736 457.654C411.736 458.086 411.868 458.452 412.132 458.752C412.408 459.052 412.936 459.34 413.716 459.616C414.496 459.892 415.648 460.222 417.172 460.606C418.804 461.026 420.1 461.494 421.06 462.01C422.02 462.514 422.704 463.12 423.112 463.828C423.532 464.524 423.742 465.37 423.742 466.366C423.742 468.286 423.04 469.792 421.636 470.884C420.244 471.976 418.318 472.522 415.858 472.522ZM438.849 472C437.625 472.24 436.425 472.342 435.249 472.306C434.073 472.27 433.023 472.042 432.099 471.622C431.175 471.202 430.479 470.542 430.011 469.642C429.591 468.838 429.363 468.022 429.327 467.194C429.303 466.354 429.291 465.406 429.291 464.35V447.16H433.071V464.17C433.071 464.95 433.077 465.628 433.089 466.204C433.113 466.78 433.239 467.266 433.467 467.662C433.899 468.406 434.583 468.832 435.519 468.94C436.467 469.036 437.577 468.994 438.849 468.814V472ZM425.565 455.584V452.56H438.849V455.584H425.565ZM466.24 472L466.258 459.886C466.258 458.482 465.898 457.39 465.178 456.61C464.458 455.818 463.51 455.422 462.334 455.422C461.614 455.422 460.954 455.59 460.354 455.926C459.766 456.25 459.286 456.742 458.914 457.402C458.554 458.05 458.374 458.866 458.374 459.85L456.556 458.932C456.532 457.564 456.82 456.364 457.42 455.332C458.032 454.3 458.86 453.502 459.904 452.938C460.948 452.362 462.118 452.074 463.414 452.074C465.514 452.074 467.14 452.704 468.292 453.964C469.444 455.224 470.02 456.898 470.02 458.986L470.002 472H466.24ZM442.93 472V452.56H446.278V458.176H446.71V472H442.93ZM454.594 472L454.612 459.958C454.612 458.542 454.252 457.432 453.532 456.628C452.824 455.824 451.87 455.422 450.67 455.422C449.482 455.422 448.522 455.83 447.79 456.646C447.07 457.462 446.71 458.53 446.71 459.85L444.91 458.698C444.91 457.426 445.216 456.292 445.828 455.296C446.44 454.3 447.268 453.514 448.312 452.938C449.356 452.362 450.538 452.074 451.858 452.074C453.238 452.074 454.414 452.368 455.386 452.956C456.358 453.532 457.096 454.342 457.6 455.386C458.116 456.43 458.374 457.642 458.374 459.022L458.356 472H454.594ZM483.07 472.54C481.138 472.54 479.44 472.12 477.976 471.28C476.524 470.428 475.39 469.246 474.574 467.734C473.77 466.21 473.368 464.446 473.368 462.442C473.368 460.318 473.764 458.476 474.556 456.916C475.36 455.356 476.476 454.15 477.904 453.298C479.332 452.446 480.994 452.02 482.89 452.02C484.87 452.02 486.556 452.482 487.948 453.406C489.34 454.318 490.378 455.62 491.062 457.312C491.758 459.004 492.034 461.014 491.89 463.342H488.128V461.974C488.104 459.718 487.672 458.05 486.832 456.97C486.004 455.89 484.738 455.35 483.034 455.35C481.15 455.35 479.734 455.944 478.786 457.132C477.838 458.32 477.364 460.036 477.364 462.28C477.364 464.416 477.838 466.072 478.786 467.248C479.734 468.412 481.102 468.994 482.89 468.994C484.066 468.994 485.08 468.73 485.932 468.202C486.796 467.662 487.468 466.894 487.948 465.898L491.638 467.068C490.882 468.808 489.736 470.158 488.2 471.118C486.664 472.066 484.954 472.54 483.07 472.54ZM476.14 463.342V460.408H490.018V463.342H476.14ZM509.045 472V462.442C509.045 461.686 508.979 460.912 508.847 460.12C508.727 459.316 508.487 458.572 508.127 457.888C507.779 457.204 507.281 456.652 506.633 456.232C505.997 455.812 505.163 455.602 504.131 455.602C503.459 455.602 502.823 455.716 502.223 455.944C501.623 456.16 501.095 456.514 500.639 457.006C500.195 457.498 499.841 458.146 499.577 458.95C499.325 459.754 499.199 460.732 499.199 461.884L496.859 461.002C496.859 459.238 497.189 457.684 497.849 456.34C498.509 454.984 499.457 453.928 500.693 453.172C501.929 452.416 503.423 452.038 505.175 452.038C506.519 452.038 507.647 452.254 508.559 452.686C509.471 453.118 510.209 453.688 510.773 454.396C511.349 455.092 511.787 455.854 512.087 456.682C512.387 457.51 512.591 458.32 512.699 459.112C512.807 459.904 512.861 460.6 512.861 461.2V472H509.045ZM495.383 472V452.56H498.749V458.176H499.199V472H495.383ZM528.673 472C527.449 472.24 526.249 472.342 525.073 472.306C523.897 472.27 522.847 472.042 521.923 471.622C520.999 471.202 520.303 470.542 519.835 469.642C519.415 468.838 519.187 468.022 519.151 467.194C519.127 466.354 519.115 465.406 519.115 464.35V447.16H522.895V464.17C522.895 464.95 522.901 465.628 522.913 466.204C522.937 466.78 523.063 467.266 523.291 467.662C523.723 468.406 524.407 468.832 525.343 468.94C526.291 469.036 527.401 468.994 528.673 468.814V472ZM515.389 455.584V452.56H528.673V455.584H515.389ZM539.619 462.154V459.13H563.379V462.154H539.619ZM127.986 519.2L121.686 511.262L127.986 503.342L130.056 504.98L125.034 511.262L130.056 517.562L127.986 519.2ZM121.02 519.2L114.72 511.262L121.02 503.342L123.09 504.98L118.086 511.262L123.09 517.562L121.02 519.2ZM134.838 521V501.56H143.388C143.952 501.56 144.516 501.596 145.08 501.668C145.644 501.728 146.142 501.818 146.574 501.938C147.558 502.214 148.398 502.766 149.094 503.594C149.79 504.41 150.138 505.502 150.138 506.87C150.138 507.65 150.018 508.31 149.778 508.85C149.538 509.378 149.208 509.834 148.788 510.218C148.596 510.386 148.392 510.536 148.176 510.668C147.96 510.8 147.744 510.902 147.528 510.974C147.972 511.046 148.41 511.202 148.842 511.442C149.502 511.79 150.042 512.294 150.462 512.954C150.894 513.602 151.11 514.472 151.11 515.564C151.11 516.872 150.792 517.97 150.156 518.858C149.52 519.734 148.62 520.334 147.456 520.658C147 520.79 146.484 520.88 145.908 520.928C145.344 520.976 144.78 521 144.216 521H134.838ZM138.654 518.03H143.982C144.234 518.03 144.522 518.006 144.846 517.958C145.17 517.91 145.458 517.844 145.71 517.76C146.25 517.592 146.634 517.286 146.862 516.842C147.102 516.398 147.222 515.924 147.222 515.42C147.222 514.736 147.042 514.19 146.682 513.782C146.322 513.362 145.866 513.092 145.314 512.972C145.074 512.888 144.81 512.84 144.522 512.828C144.234 512.816 143.988 512.81 143.784 512.81H138.654V518.03ZM138.654 509.786H142.866C143.214 509.786 143.568 509.768 143.928 509.732C144.288 509.684 144.6 509.606 144.864 509.498C145.332 509.318 145.68 509.018 145.908 508.598C146.136 508.166 146.25 507.698 146.25 507.194C146.25 506.642 146.124 506.15 145.872 505.718C145.62 505.286 145.242 504.986 144.738 504.818C144.39 504.698 143.988 504.632 143.532 504.62C143.088 504.596 142.806 504.584 142.686 504.584H138.654V509.786ZM163.161 521.54C161.217 521.54 159.531 521.102 158.103 520.226C156.675 519.35 155.571 518.144 154.791 516.608C154.023 515.06 153.639 513.278 153.639 511.262C153.639 509.234 154.035 507.452 154.827 505.916C155.619 504.368 156.729 503.168 158.157 502.316C159.585 501.452 161.253 501.02 163.161 501.02C165.105 501.02 166.791 501.458 168.219 502.334C169.647 503.21 170.751 504.416 171.531 505.952C172.311 507.488 172.701 509.258 172.701 511.262C172.701 513.29 172.305 515.078 171.513 516.626C170.733 518.162 169.629 519.368 168.201 520.244C166.773 521.108 165.093 521.54 163.161 521.54ZM163.161 517.994C165.021 517.994 166.407 517.37 167.319 516.122C168.243 514.862 168.705 513.242 168.705 511.262C168.705 509.234 168.237 507.614 167.301 506.402C166.377 505.178 164.997 504.566 163.161 504.566C161.901 504.566 160.863 504.854 160.047 505.43C159.231 505.994 158.625 506.78 158.229 507.788C157.833 508.784 157.635 509.942 157.635 511.262C157.635 513.302 158.103 514.934 159.039 516.158C159.975 517.382 161.349 517.994 163.161 517.994ZM183.059 521.54C181.175 521.54 179.483 521.138 177.983 520.334C176.495 519.53 175.319 518.42 174.455 517.004L177.443 515.042C178.139 515.978 178.943 516.704 179.855 517.22C180.779 517.736 181.817 517.994 182.969 517.994C184.169 517.994 185.117 517.724 185.813 517.184C186.521 516.632 186.875 515.894 186.875 514.97C186.875 514.238 186.671 513.698 186.263 513.35C185.867 512.99 185.315 512.756 184.607 512.648C183.911 512.54 183.119 512.486 182.231 512.486H180.503V509.462H182.231C183.407 509.462 184.373 509.3 185.129 508.976C185.897 508.64 186.281 508.01 186.281 507.086C186.281 506.186 185.951 505.538 185.291 505.142C184.643 504.746 183.869 504.548 182.969 504.548C181.961 504.548 180.983 504.764 180.035 505.196C179.087 505.616 178.259 506.138 177.551 506.762L175.355 504.188C176.387 503.192 177.563 502.418 178.883 501.866C180.215 501.302 181.643 501.02 183.167 501.02C184.415 501.02 185.567 501.242 186.623 501.686C187.691 502.118 188.543 502.76 189.179 503.612C189.827 504.464 190.151 505.514 190.151 506.762C190.151 507.734 189.935 508.622 189.503 509.426C189.071 510.23 188.411 510.962 187.523 511.622L187.415 510.344C188.147 510.572 188.759 510.938 189.251 511.442C189.743 511.946 190.109 512.54 190.349 513.224C190.601 513.896 190.727 514.61 190.727 515.366C190.727 516.674 190.379 517.79 189.683 518.714C188.999 519.638 188.075 520.34 186.911 520.82C185.747 521.3 184.463 521.54 183.059 521.54ZM194.674 521V501.56H203.224C203.788 501.56 204.352 501.596 204.916 501.668C205.48 501.728 205.978 501.818 206.41 501.938C207.394 502.214 208.234 502.766 208.93 503.594C209.626 504.41 209.974 505.502 209.974 506.87C209.974 507.65 209.854 508.31 209.614 508.85C209.374 509.378 209.044 509.834 208.624 510.218C208.432 510.386 208.228 510.536 208.012 510.668C207.796 510.8 207.58 510.902 207.364 510.974C207.808 511.046 208.246 511.202 208.678 511.442C209.338 511.79 209.878 512.294 210.298 512.954C210.73 513.602 210.946 514.472 210.946 515.564C210.946 516.872 210.628 517.97 209.992 518.858C209.356 519.734 208.456 520.334 207.292 520.658C206.836 520.79 206.32 520.88 205.744 520.928C205.18 520.976 204.616 521 204.052 521H194.674ZM198.49 518.03H203.818C204.07 518.03 204.358 518.006 204.682 517.958C205.006 517.91 205.294 517.844 205.546 517.76C206.086 517.592 206.47 517.286 206.698 516.842C206.938 516.398 207.058 515.924 207.058 515.42C207.058 514.736 206.878 514.19 206.518 513.782C206.158 513.362 205.702 513.092 205.15 512.972C204.91 512.888 204.646 512.84 204.358 512.828C204.07 512.816 203.824 512.81 203.62 512.81H198.49V518.03ZM198.49 509.786H202.702C203.05 509.786 203.404 509.768 203.764 509.732C204.124 509.684 204.436 509.606 204.7 509.498C205.168 509.318 205.516 509.018 205.744 508.598C205.972 508.166 206.086 507.698 206.086 507.194C206.086 506.642 205.96 506.15 205.708 505.718C205.456 505.286 205.078 504.986 204.574 504.818C204.226 504.698 203.824 504.632 203.368 504.62C202.924 504.596 202.642 504.584 202.522 504.584H198.49V509.786ZM223.681 521.54C221.821 521.54 220.261 521.09 219.001 520.19C217.741 519.278 216.787 518.048 216.139 516.5C215.491 514.952 215.167 513.206 215.167 511.262C215.167 509.318 215.485 507.572 216.121 506.024C216.769 504.476 217.717 503.258 218.965 502.37C220.225 501.47 221.773 501.02 223.609 501.02C225.433 501.02 227.005 501.47 228.325 502.37C229.657 503.258 230.683 504.476 231.403 506.024C232.123 507.56 232.483 509.306 232.483 511.262C232.483 513.206 232.123 514.958 231.403 516.518C230.695 518.066 229.681 519.29 228.361 520.19C227.053 521.09 225.493 521.54 223.681 521.54ZM214.537 529.64V501.56H217.885V515.546H218.317V529.64H214.537ZM223.159 518.138C224.359 518.138 225.349 517.832 226.129 517.22C226.921 516.608 227.509 515.786 227.893 514.754C228.289 513.71 228.487 512.546 228.487 511.262C228.487 509.99 228.289 508.838 227.893 507.806C227.509 506.774 226.915 505.952 226.111 505.34C225.307 504.728 224.281 504.422 223.033 504.422C221.857 504.422 220.885 504.71 220.117 505.286C219.361 505.862 218.797 506.666 218.425 507.698C218.065 508.73 217.885 509.918 217.885 511.262C217.885 512.606 218.065 513.794 218.425 514.826C218.785 515.858 219.355 516.668 220.135 517.256C220.915 517.844 221.923 518.138 223.159 518.138ZM241.948 521.54C240.508 521.54 239.302 521.276 238.33 520.748C237.358 520.208 236.62 519.5 236.116 518.624C235.624 517.736 235.378 516.764 235.378 515.708C235.378 514.724 235.552 513.86 235.9 513.116C236.248 512.372 236.764 511.742 237.448 511.226C238.132 510.698 238.972 510.272 239.968 509.948C240.832 509.696 241.81 509.474 242.902 509.282C243.994 509.09 245.14 508.91 246.34 508.742C247.552 508.574 248.752 508.406 249.94 508.238L248.572 508.994C248.596 507.47 248.272 506.342 247.6 505.61C246.94 504.866 245.8 504.494 244.18 504.494C243.16 504.494 242.224 504.734 241.372 505.214C240.52 505.682 239.926 506.462 239.59 507.554L236.08 506.474C236.56 504.806 237.472 503.48 238.816 502.496C240.172 501.512 241.972 501.02 244.216 501.02C245.956 501.02 247.468 501.32 248.752 501.92C250.048 502.508 250.996 503.444 251.596 504.728C251.908 505.364 252.1 506.036 252.172 506.744C252.244 507.452 252.28 508.214 252.28 509.03V521H248.95V516.554L249.598 517.13C248.794 518.618 247.768 519.728 246.52 520.46C245.284 521.18 243.76 521.54 241.948 521.54ZM242.614 518.462C243.682 518.462 244.6 518.276 245.368 517.904C246.136 517.52 246.754 517.034 247.222 516.446C247.69 515.858 247.996 515.246 248.14 514.61C248.344 514.034 248.458 513.386 248.482 512.666C248.518 511.946 248.536 511.37 248.536 510.938L249.76 511.388C248.572 511.568 247.492 511.73 246.52 511.874C245.548 512.018 244.666 512.162 243.874 512.306C243.094 512.438 242.398 512.6 241.786 512.792C241.27 512.972 240.808 513.188 240.4 513.44C240.004 513.692 239.686 513.998 239.446 514.358C239.218 514.718 239.104 515.156 239.104 515.672C239.104 516.176 239.23 516.644 239.482 517.076C239.734 517.496 240.118 517.832 240.634 518.084C241.15 518.336 241.81 518.462 242.614 518.462ZM261.976 521V504.944H255.334V501.56H272.38V504.944H265.738V521H261.976ZM299.384 501.56V521H295.766V507.482L286.046 521H282.986V501.56H286.604V514.808L296.342 501.56H299.384ZM304.397 521V501.56H308.159V509.498H317.645V501.56H321.407V521H317.645V513.044H308.159V521H304.397ZM326.44 521V501.56H334.99C335.554 501.56 336.118 501.596 336.682 501.668C337.246 501.728 337.744 501.818 338.176 501.938C339.16 502.214 340 502.766 340.696 503.594C341.392 504.41 341.74 505.502 341.74 506.87C341.74 507.65 341.62 508.31 341.38 508.85C341.14 509.378 340.81 509.834 340.39 510.218C340.198 510.386 339.994 510.536 339.778 510.668C339.562 510.8 339.346 510.902 339.13 510.974C339.574 511.046 340.012 511.202 340.444 511.442C341.104 511.79 341.644 512.294 342.064 512.954C342.496 513.602 342.712 514.472 342.712 515.564C342.712 516.872 342.394 517.97 341.758 518.858C341.122 519.734 340.222 520.334 339.058 520.658C338.602 520.79 338.086 520.88 337.51 520.928C336.946 520.976 336.382 521 335.818 521H326.44ZM330.256 518.03H335.584C335.836 518.03 336.124 518.006 336.448 517.958C336.772 517.91 337.06 517.844 337.312 517.76C337.852 517.592 338.236 517.286 338.464 516.842C338.704 516.398 338.824 515.924 338.824 515.42C338.824 514.736 338.644 514.19 338.284 513.782C337.924 513.362 337.468 513.092 336.916 512.972C336.676 512.888 336.412 512.84 336.124 512.828C335.836 512.816 335.59 512.81 335.386 512.81H330.256V518.03ZM330.256 509.786H334.468C334.816 509.786 335.17 509.768 335.53 509.732C335.89 509.684 336.202 509.606 336.466 509.498C336.934 509.318 337.282 509.018 337.51 508.598C337.738 508.166 337.852 507.698 337.852 507.194C337.852 506.642 337.726 506.15 337.474 505.718C337.222 505.286 336.844 504.986 336.34 504.818C335.992 504.698 335.59 504.632 335.134 504.62C334.69 504.596 334.408 504.584 334.288 504.584H330.256V509.786ZM354.943 521.54C353.011 521.54 351.313 521.12 349.849 520.28C348.397 519.428 347.263 518.246 346.447 516.734C345.643 515.21 345.241 513.446 345.241 511.442C345.241 509.318 345.637 507.476 346.429 505.916C347.233 504.356 348.349 503.15 349.777 502.298C351.205 501.446 352.867 501.02 354.763 501.02C356.743 501.02 358.429 501.482 359.821 502.406C361.213 503.318 362.251 504.62 362.935 506.312C363.631 508.004 363.907 510.014 363.763 512.342H360.001V510.974C359.977 508.718 359.545 507.05 358.705 505.97C357.877 504.89 356.611 504.35 354.907 504.35C353.023 504.35 351.607 504.944 350.659 506.132C349.711 507.32 349.237 509.036 349.237 511.28C349.237 513.416 349.711 515.072 350.659 516.248C351.607 517.412 352.975 517.994 354.763 517.994C355.939 517.994 356.953 517.73 357.805 517.202C358.669 516.662 359.341 515.894 359.821 514.898L363.511 516.068C362.755 517.808 361.609 519.158 360.073 520.118C358.537 521.066 356.827 521.54 354.943 521.54ZM348.013 512.342V509.408H361.891V512.342H348.013ZM376.117 521.54C374.125 521.54 372.433 521.096 371.041 520.208C369.649 519.32 368.581 518.102 367.837 516.554C367.105 515.006 366.733 513.248 366.721 511.28C366.733 509.276 367.117 507.506 367.873 505.97C368.629 504.422 369.709 503.21 371.113 502.334C372.517 501.458 374.203 501.02 376.171 501.02C378.295 501.02 380.107 501.548 381.607 502.604C383.119 503.66 384.115 505.106 384.595 506.942L380.851 508.022C380.479 506.93 379.867 506.084 379.015 505.484C378.175 504.872 377.209 504.566 376.117 504.566C374.881 504.566 373.867 504.86 373.075 505.448C372.283 506.024 371.695 506.816 371.311 507.824C370.927 508.832 370.729 509.984 370.717 511.28C370.729 513.284 371.185 514.904 372.085 516.14C372.997 517.376 374.341 517.994 376.117 517.994C377.329 517.994 378.307 517.718 379.051 517.166C379.807 516.602 380.383 515.798 380.779 514.754L384.595 515.654C383.959 517.55 382.909 519.008 381.445 520.028C379.981 521.036 378.205 521.54 376.117 521.54ZM393.073 521V504.944H386.431V501.56H403.477V504.944H396.835V521H393.073ZM423.275 501.56V521H419.657V507.482L409.937 521H406.877V501.56H410.495V514.808L420.233 501.56H423.275ZM444.721 524.834V521H428.287V501.56H432.049V517.454H440.923V501.56H444.685V517.616H448.483V524.834H444.721ZM467.748 501.56V521H464.13V507.482L454.41 521H451.35V501.56H454.968V514.808L464.706 501.56H467.748ZM481.454 499.328C480.506 499.328 479.636 499.094 478.844 498.626C478.064 498.158 477.44 497.534 476.972 496.754C476.504 495.974 476.27 495.104 476.27 494.144H479.258C479.258 494.744 479.474 495.26 479.906 495.692C480.338 496.124 480.854 496.34 481.454 496.34C482.066 496.34 482.582 496.124 483.002 495.692C483.434 495.26 483.65 494.744 483.65 494.144H486.638C486.638 495.104 486.404 495.974 485.936 496.754C485.468 497.534 484.838 498.158 484.046 498.626C483.266 499.094 482.402 499.328 481.454 499.328ZM489.158 501.56V521H485.54V507.482L475.82 521H472.76V501.56H476.378V514.808L486.116 501.56H489.158ZM496.024 519.2L493.954 517.562L498.958 511.262L493.954 504.98L496.024 503.342L502.324 511.262L496.024 519.2ZM502.99 519.2L500.902 517.562L505.924 511.262L500.902 504.98L502.99 503.342L509.29 511.262L502.99 519.2ZM516.466 527.714L513.658 525.626C515.086 523.934 516.238 522.188 517.114 520.388C518.002 518.588 518.65 516.746 519.058 514.862C519.466 512.978 519.67 511.064 519.67 509.12C519.67 507.164 519.466 505.25 519.058 503.378C518.65 501.494 518.008 499.658 517.132 497.87C516.256 496.07 515.098 494.318 513.658 492.614L516.466 490.526C517.858 492.146 519.058 493.976 520.066 496.016C521.074 498.044 521.842 500.18 522.37 502.424C522.898 504.656 523.144 506.888 523.108 509.12C523.144 511.352 522.898 513.59 522.37 515.834C521.842 518.066 521.074 520.196 520.066 522.224C519.058 524.264 517.858 526.094 516.466 527.714Z" fill="#23374F"></path><path d="M25.7556 598V574.96H35.0676C35.2916 574.96 35.569 574.971 35.8996 574.992C36.2303 575.003 36.545 575.035 36.8436 575.088C38.1236 575.291 39.1903 575.728 40.0436 576.4C40.9076 577.072 41.553 577.92 41.9796 578.944C42.4063 579.968 42.6196 581.099 42.6196 582.336C42.6196 584.171 42.1503 585.755 41.2116 587.088C40.273 588.411 38.865 589.237 36.9876 589.568L35.6276 589.728H29.0996V598H25.7556ZM39.2276 598L34.6836 588.624L38.0596 587.76L43.0516 598H39.2276ZM29.0996 586.56H34.9396C35.153 586.56 35.3876 586.549 35.6436 586.528C35.9103 586.507 36.161 586.469 36.3956 586.416C37.0783 586.256 37.6276 585.963 38.0436 585.536C38.4596 585.099 38.7583 584.597 38.9396 584.032C39.121 583.467 39.2116 582.901 39.2116 582.336C39.2116 581.771 39.121 581.211 38.9396 580.656C38.7583 580.091 38.4596 579.595 38.0436 579.168C37.6276 578.731 37.0783 578.432 36.3956 578.272C36.161 578.208 35.9103 578.165 35.6436 578.144C35.3876 578.123 35.153 578.112 34.9396 578.112H29.0996V586.56ZM56.1841 598.48C53.8801 598.48 51.9175 597.979 50.2961 596.976C48.6748 595.963 47.4321 594.555 46.5681 592.752C45.7148 590.949 45.2881 588.859 45.2881 586.48C45.2881 584.101 45.7148 582.011 46.5681 580.208C47.4321 578.405 48.6748 577.003 50.2961 576C51.9175 574.987 53.8801 574.48 56.1841 574.48C58.4775 574.48 60.4348 574.987 62.0561 576C63.6881 577.003 64.9308 578.405 65.7841 580.208C66.6375 582.011 67.0641 584.101 67.0641 586.48C67.0641 588.859 66.6375 590.949 65.7841 592.752C64.9308 594.555 63.6881 595.963 62.0561 596.976C60.4348 597.979 58.4775 598.48 56.1841 598.48ZM56.1841 595.296C57.8161 595.317 59.1708 594.96 60.2481 594.224C61.3361 593.477 62.1521 592.443 62.6961 591.12C63.2401 589.787 63.5121 588.24 63.5121 586.48C63.5121 584.72 63.2401 583.184 62.6961 581.872C62.1521 580.549 61.3361 579.52 60.2481 578.784C59.1708 578.048 57.8161 577.675 56.1841 577.664C54.5521 577.643 53.1921 578 52.1041 578.736C51.0268 579.472 50.2161 580.507 49.6721 581.84C49.1281 583.173 48.8508 584.72 48.8401 586.48C48.8295 588.24 49.0961 589.781 49.6401 591.104C50.1841 592.416 51.0001 593.44 52.0881 594.176C53.1868 594.912 54.5521 595.285 56.1841 595.296ZM70.5756 598V574.96H73.9196V598H70.5756ZM86.7306 584.896V582.208H103.051V584.896H86.7306ZM86.7306 590.752V588.064H103.051V590.752H86.7306ZM123.681 603.968C122.444 602.528 121.377 600.901 120.481 599.088C119.585 597.285 118.902 595.392 118.433 593.408C117.964 591.413 117.745 589.424 117.777 587.44C117.745 585.456 117.964 583.472 118.433 581.488C118.902 579.493 119.585 577.595 120.481 575.792C121.377 573.979 122.444 572.352 123.681 570.912L126.177 572.768C124.897 574.283 123.868 575.84 123.089 577.44C122.31 579.029 121.74 580.661 121.377 582.336C121.014 584 120.833 585.701 120.833 587.44C120.833 589.168 121.014 590.869 121.377 592.544C121.74 594.219 122.31 595.856 123.089 597.456C123.878 599.056 124.908 600.608 126.177 602.112L123.681 603.968ZM129.756 598V574.96H148.076V598H144.732V578.112H133.1V598H129.756ZM160.68 598.48C159.027 598.48 157.64 598.08 156.52 597.28C155.4 596.469 154.552 595.376 153.976 594C153.4 592.624 153.112 591.072 153.112 589.344C153.112 587.616 153.395 586.064 153.96 584.688C154.536 583.312 155.379 582.229 156.488 581.44C157.608 580.64 158.984 580.24 160.616 580.24C162.237 580.24 163.635 580.64 164.808 581.44C165.992 582.229 166.904 583.312 167.544 584.688C168.184 586.053 168.504 587.605 168.504 589.344C168.504 591.072 168.184 592.629 167.544 594.016C166.915 595.392 166.013 596.48 164.84 597.28C163.677 598.08 162.291 598.48 160.68 598.48ZM152.552 605.68V580.72H155.528V593.152H155.912V605.68H152.552ZM160.216 595.456C161.283 595.456 162.163 595.184 162.856 594.64C163.56 594.096 164.083 593.365 164.424 592.448C164.776 591.52 164.952 590.485 164.952 589.344C164.952 588.213 164.776 587.189 164.424 586.272C164.083 585.355 163.555 584.624 162.84 584.08C162.125 583.536 161.213 583.264 160.104 583.264C159.059 583.264 158.195 583.52 157.512 584.032C156.84 584.544 156.339 585.259 156.008 586.176C155.688 587.093 155.528 588.149 155.528 589.344C155.528 590.539 155.688 591.595 156.008 592.512C156.328 593.429 156.835 594.149 157.528 594.672C158.221 595.195 159.117 595.456 160.216 595.456ZM186.597 580.72V598H183.381V585.984L174.741 598H172.021V580.72H175.237V592.496L183.893 580.72H186.597ZM198.172 598.496C196.529 598.485 195.132 598.128 193.98 597.424C192.828 596.72 191.927 595.707 191.276 594.384C190.636 593.051 190.263 591.445 190.156 589.568C190.103 588.661 190.108 587.659 190.172 586.56C190.236 585.451 190.353 584.379 190.524 583.344C190.705 582.309 190.935 581.445 191.212 580.752C191.521 579.984 191.943 579.28 192.476 578.64C193.009 577.989 193.596 577.445 194.236 577.008C194.919 576.539 195.676 576.176 196.508 575.92C197.34 575.653 198.209 575.445 199.116 575.296C200.033 575.147 200.956 575.019 201.884 574.912C202.823 574.795 203.735 574.651 204.62 574.48L204.94 577.472C204.353 577.611 203.66 577.723 202.86 577.808C202.071 577.893 201.249 577.989 200.396 578.096C199.553 578.203 198.748 578.352 197.98 578.544C197.212 578.736 196.545 579.008 195.98 579.36C195.18 579.851 194.567 580.565 194.14 581.504C193.724 582.443 193.473 583.461 193.388 584.56C194.049 583.557 194.892 582.837 195.916 582.4C196.94 581.952 198.001 581.728 199.1 581.728C200.636 581.728 201.959 582.091 203.068 582.816C204.188 583.541 205.047 584.528 205.644 585.776C206.241 587.024 206.54 588.437 206.54 590.016C206.54 591.723 206.188 593.216 205.484 594.496C204.791 595.765 203.815 596.757 202.556 597.472C201.297 598.176 199.836 598.517 198.172 598.496ZM198.348 595.344C199.884 595.344 201.041 594.869 201.82 593.92C202.609 592.971 203.004 591.707 203.004 590.128C203.004 588.507 202.599 587.232 201.788 586.304C200.977 585.376 199.831 584.912 198.348 584.912C196.844 584.912 195.692 585.376 194.892 586.304C194.103 587.232 193.708 588.507 193.708 590.128C193.708 591.771 194.108 593.051 194.908 593.968C195.708 594.885 196.855 595.344 198.348 595.344ZM210.052 598V580.72H213.412V586.72H215.684C216.175 586.72 216.703 586.731 217.268 586.752C217.833 586.773 218.313 586.827 218.708 586.912C219.636 587.104 220.441 587.424 221.124 587.872C221.807 588.32 222.329 588.917 222.692 589.664C223.065 590.4 223.252 591.307 223.252 592.384C223.252 593.888 222.863 595.088 222.084 595.984C221.305 596.869 220.249 597.467 218.916 597.776C218.489 597.872 217.983 597.936 217.396 597.968C216.82 597.989 216.287 598 215.796 598H210.052ZM213.412 595.312H215.988C216.265 595.312 216.575 595.301 216.916 595.28C217.257 595.259 217.572 595.211 217.86 595.136C218.361 594.987 218.815 594.683 219.22 594.224C219.625 593.765 219.828 593.152 219.828 592.384C219.828 591.595 219.625 590.965 219.22 590.496C218.825 590.027 218.324 589.723 217.716 589.584C217.439 589.509 217.145 589.461 216.836 589.44C216.537 589.419 216.255 589.408 215.988 589.408H213.412V595.312ZM225.156 598V580.72H228.5V598H225.156ZM231.374 598V595.168C232.014 595.285 232.5 595.269 232.83 595.12C233.172 594.96 233.422 594.672 233.582 594.256C233.753 593.84 233.897 593.301 234.014 592.64C234.196 591.669 234.35 590.565 234.478 589.328C234.617 588.08 234.74 586.731 234.846 585.28C234.953 583.829 235.049 582.309 235.134 580.72H247.55V598H244.19V583.872H238.142C238.078 584.715 238.004 585.611 237.918 586.56C237.844 587.499 237.758 588.432 237.662 589.36C237.566 590.288 237.465 591.157 237.358 591.968C237.252 592.779 237.14 593.472 237.022 594.048C236.809 595.2 236.494 596.117 236.078 596.8C235.673 597.472 235.097 597.904 234.35 598.096C233.604 598.299 232.612 598.267 231.374 598ZM252.021 598V580.72H255.381V586.72H258.789C259.28 586.72 259.802 586.731 260.357 586.752C260.922 586.773 261.408 586.827 261.813 586.912C262.741 587.104 263.541 587.424 264.213 587.872C264.896 588.32 265.424 588.917 265.797 589.664C266.17 590.4 266.357 591.307 266.357 592.384C266.357 593.888 265.962 595.088 265.173 595.984C264.394 596.869 263.338 597.467 262.005 597.776C261.578 597.872 261.072 597.936 260.485 597.968C259.909 597.989 259.381 598 258.901 598H252.021ZM255.381 595.312H259.093C259.36 595.312 259.664 595.301 260.005 595.28C260.346 595.259 260.661 595.211 260.949 595.136C261.461 594.987 261.92 594.683 262.325 594.224C262.73 593.765 262.933 593.152 262.933 592.384C262.933 591.595 262.73 590.965 262.325 590.496C261.93 590.027 261.429 589.723 260.821 589.584C260.533 589.509 260.24 589.461 259.941 589.44C259.642 589.419 259.36 589.408 259.093 589.408H255.381V595.312ZM282.111 574.96H285.487L279.343 598H275.967L282.111 574.96ZM314.196 598H310.804V580.864L299.46 598H296.068V574.96H299.46V592.08L310.804 574.96H314.196V598ZM318.646 598V580.72H321.99V587.776H330.422V580.72H333.766V598H330.422V590.928H321.99V598H318.646ZM338.24 598V580.72H345.84C346.341 580.72 346.842 580.752 347.344 580.816C347.845 580.869 348.288 580.949 348.672 581.056C349.546 581.301 350.293 581.792 350.912 582.528C351.53 583.253 351.84 584.224 351.84 585.44C351.84 586.133 351.733 586.72 351.52 587.2C351.306 587.669 351.013 588.075 350.64 588.416C350.469 588.565 350.288 588.699 350.096 588.816C349.904 588.933 349.712 589.024 349.52 589.088C349.914 589.152 350.304 589.291 350.688 589.504C351.274 589.813 351.754 590.261 352.128 590.848C352.512 591.424 352.704 592.197 352.704 593.168C352.704 594.331 352.421 595.307 351.856 596.096C351.29 596.875 350.49 597.408 349.456 597.696C349.05 597.813 348.592 597.893 348.08 597.936C347.578 597.979 347.077 598 346.576 598H338.24ZM341.632 595.36H346.368C346.592 595.36 346.848 595.339 347.136 595.296C347.424 595.253 347.68 595.195 347.904 595.12C348.384 594.971 348.725 594.699 348.928 594.304C349.141 593.909 349.248 593.488 349.248 593.04C349.248 592.432 349.088 591.947 348.768 591.584C348.448 591.211 348.042 590.971 347.552 590.864C347.338 590.789 347.104 590.747 346.848 590.736C346.592 590.725 346.373 590.72 346.192 590.72H341.632V595.36ZM341.632 588.032H345.376C345.685 588.032 346 588.016 346.32 587.984C346.64 587.941 346.917 587.872 347.152 587.776C347.568 587.616 347.877 587.349 348.08 586.976C348.282 586.592 348.384 586.176 348.384 585.728C348.384 585.237 348.272 584.8 348.048 584.416C347.824 584.032 347.488 583.765 347.04 583.616C346.73 583.509 346.373 583.451 345.968 583.44C345.573 583.419 345.322 583.408 345.216 583.408H341.632V588.032ZM363.576 598.48C361.859 598.48 360.349 598.107 359.048 597.36C357.757 596.603 356.749 595.552 356.024 594.208C355.309 592.853 354.952 591.285 354.952 589.504C354.952 587.616 355.304 585.979 356.008 584.592C356.723 583.205 357.715 582.133 358.984 581.376C360.253 580.619 361.731 580.24 363.416 580.24C365.176 580.24 366.675 580.651 367.912 581.472C369.149 582.283 370.072 583.44 370.68 584.944C371.299 586.448 371.544 588.235 371.416 590.304H368.072V589.088C368.051 587.083 367.667 585.6 366.92 584.64C366.184 583.68 365.059 583.2 363.544 583.2C361.869 583.2 360.611 583.728 359.768 584.784C358.925 585.84 358.504 587.365 358.504 589.36C358.504 591.259 358.925 592.731 359.768 593.776C360.611 594.811 361.827 595.328 363.416 595.328C364.461 595.328 365.363 595.093 366.12 594.624C366.888 594.144 367.485 593.461 367.912 592.576L371.192 593.616C370.52 595.163 369.501 596.363 368.136 597.216C366.771 598.059 365.251 598.48 363.576 598.48ZM357.416 590.304V587.696H369.752V590.304H357.416ZM382.398 598.48C380.627 598.48 379.123 598.085 377.886 597.296C376.648 596.507 375.699 595.424 375.038 594.048C374.387 592.672 374.056 591.109 374.046 589.36C374.056 587.579 374.398 586.005 375.07 584.64C375.742 583.264 376.702 582.187 377.95 581.408C379.198 580.629 380.696 580.24 382.446 580.24C384.334 580.24 385.944 580.709 387.278 581.648C388.622 582.587 389.507 583.872 389.934 585.504L386.606 586.464C386.275 585.493 385.731 584.741 384.974 584.208C384.227 583.664 383.368 583.392 382.398 583.392C381.299 583.392 380.398 583.653 379.694 584.176C378.99 584.688 378.467 585.392 378.126 586.288C377.784 587.184 377.608 588.208 377.598 589.36C377.608 591.141 378.014 592.581 378.814 593.68C379.624 594.779 380.819 595.328 382.398 595.328C383.475 595.328 384.344 595.083 385.006 594.592C385.678 594.091 386.19 593.376 386.542 592.448L389.934 593.248C389.368 594.933 388.435 596.229 387.134 597.136C385.832 598.032 384.254 598.48 382.398 598.48ZM397.47 598V583.728H391.566V580.72H406.718V583.728H400.814V598H397.47ZM424.316 580.72V598H421.1V585.984L412.46 598H409.74V580.72H412.956V592.496L421.612 580.72H424.316ZM443.379 601.408V598H428.771V580.72H432.115V594.848H440.003V580.72H443.347V594.992H446.723V601.408H443.379ZM463.847 580.72V598H460.631V585.984L451.991 598H449.271V580.72H452.487V592.496L461.143 580.72H463.847ZM482.878 580.72V598H479.662V585.984L471.022 598H468.302V580.72H471.518V592.496L480.174 580.72H482.878ZM495.34 603.968L492.844 602.112C494.113 600.608 495.137 599.056 495.916 597.456C496.705 595.856 497.281 594.219 497.644 592.544C498.006 590.869 498.188 589.168 498.188 587.44C498.188 585.701 498.006 584 497.644 582.336C497.281 580.661 496.71 579.029 495.932 577.44C495.153 575.84 494.124 574.283 492.844 572.768L495.34 570.912C496.577 572.352 497.644 573.979 498.54 575.792C499.436 577.595 500.118 579.493 500.588 581.488C501.057 583.472 501.276 585.456 501.244 587.44C501.276 589.424 501.057 591.413 500.588 593.408C500.118 595.392 499.436 597.285 498.54 599.088C497.644 600.901 496.577 602.528 495.34 603.968ZM516.829 586.08L514.397 584.32L516.829 581.344L513.101 580.304L514.029 577.44L517.629 578.848L517.437 574.96H520.445L520.253 578.848L523.869 577.44L524.797 580.304L521.053 581.344L523.485 584.32L521.053 586.08L518.941 582.88L516.829 586.08ZM539.365 598V578.64L535.029 581.28V577.552L539.365 574.96H542.773V598H539.365ZM556.881 598.48C555.313 598.48 553.927 598.139 552.721 597.456C551.516 596.763 550.567 595.813 549.873 594.608C549.191 593.403 548.849 592.016 548.849 590.448V582.512C548.849 580.944 549.191 579.557 549.873 578.352C550.567 577.147 551.516 576.203 552.721 575.52C553.927 574.827 555.313 574.48 556.881 574.48C558.449 574.48 559.836 574.827 561.041 575.52C562.247 576.203 563.191 577.147 563.873 578.352C564.567 579.557 564.913 580.944 564.913 582.512V590.448C564.913 592.016 564.567 593.403 563.873 594.608C563.191 595.813 562.247 596.763 561.041 597.456C559.836 598.139 558.449 598.48 556.881 598.48ZM556.881 595.28C557.735 595.28 558.508 595.077 559.201 594.672C559.905 594.256 560.465 593.701 560.881 593.008C561.297 592.304 561.505 591.52 561.505 590.656V582.272C561.505 581.419 561.297 580.645 560.881 579.952C560.465 579.248 559.905 578.693 559.201 578.288C558.508 577.872 557.735 577.664 556.881 577.664C556.028 577.664 555.249 577.872 554.545 578.288C553.852 578.693 553.297 579.248 552.881 579.952C552.465 580.645 552.257 581.419 552.257 582.272V590.656C552.257 591.52 552.465 592.304 552.881 593.008C553.297 593.701 553.852 594.256 554.545 594.672C555.249 595.077 556.028 595.28 556.881 595.28ZM577.413 598.48C575.845 598.48 574.458 598.139 573.253 597.456C572.047 596.763 571.098 595.813 570.405 594.608C569.722 593.403 569.381 592.016 569.381 590.448V582.512C569.381 580.944 569.722 579.557 570.405 578.352C571.098 577.147 572.047 576.203 573.253 575.52C574.458 574.827 575.845 574.48 577.413 574.48C578.981 574.48 580.367 574.827 581.573 575.52C582.778 576.203 583.722 577.147 584.405 578.352C585.098 579.557 585.445 580.944 585.445 582.512V590.448C585.445 592.016 585.098 593.403 584.405 594.608C583.722 595.813 582.778 596.763 581.573 597.456C580.367 598.139 578.981 598.48 577.413 598.48ZM577.413 595.28C578.266 595.28 579.039 595.077 579.733 594.672C580.437 594.256 580.997 593.701 581.413 593.008C581.829 592.304 582.037 591.52 582.037 590.656V582.272C582.037 581.419 581.829 580.645 581.413 579.952C580.997 579.248 580.437 578.693 579.733 578.288C579.039 577.872 578.266 577.664 577.413 577.664C576.559 577.664 575.781 577.872 575.077 578.288C574.383 578.693 573.829 579.248 573.413 579.952C572.997 580.645 572.789 581.419 572.789 582.272V590.656C572.789 591.52 572.997 592.304 573.413 593.008C573.829 593.701 574.383 594.256 575.077 594.672C575.781 595.077 576.559 595.28 577.413 595.28ZM592.792 598L590.552 595.76L611.368 574.96L613.608 577.216L592.792 598ZM608.808 598.48C607.752 598.48 606.787 598.224 605.912 597.712C605.048 597.189 604.355 596.496 603.832 595.632C603.309 594.757 603.048 593.787 603.048 592.72C603.048 591.675 603.315 590.715 603.848 589.84C604.381 588.965 605.085 588.267 605.96 587.744C606.835 587.221 607.784 586.96 608.808 586.96C609.864 586.96 610.829 587.221 611.704 587.744C612.579 588.256 613.272 588.949 613.784 589.824C614.307 590.688 614.568 591.653 614.568 592.72C614.568 593.787 614.307 594.757 613.784 595.632C613.272 596.496 612.579 597.189 611.704 597.712C610.829 598.224 609.864 598.48 608.808 598.48ZM608.808 595.584C609.331 595.584 609.805 595.456 610.232 595.2C610.669 594.933 611.016 594.581 611.272 594.144C611.539 593.707 611.672 593.232 611.672 592.72C611.672 592.208 611.539 591.733 611.272 591.296C611.016 590.859 610.669 590.512 610.232 590.256C609.805 589.989 609.331 589.856 608.808 589.856C608.296 589.856 607.821 589.989 607.384 590.256C606.957 590.512 606.611 590.859 606.344 591.296C606.088 591.733 605.96 592.208 605.96 592.72C605.96 593.232 606.088 593.707 606.344 594.144C606.611 594.581 606.957 594.933 607.384 595.2C607.821 595.456 608.296 595.584 608.808 595.584ZM595.352 586C594.296 586 593.331 585.744 592.456 585.232C591.581 584.709 590.883 584.016 590.36 583.152C589.848 582.277 589.592 581.307 589.592 580.24C589.592 579.195 589.859 578.235 590.392 577.36C590.925 576.485 591.629 575.787 592.504 575.264C593.379 574.741 594.328 574.48 595.352 574.48C596.408 574.48 597.368 574.741 598.232 575.264C599.107 575.776 599.805 576.469 600.328 577.344C600.851 578.208 601.112 579.173 601.112 580.24C601.112 581.307 600.851 582.277 600.328 583.152C599.805 584.016 599.107 584.709 598.232 585.232C597.368 585.744 596.408 586 595.352 586ZM595.352 583.104C595.864 583.104 596.339 582.976 596.776 582.72C597.213 582.453 597.56 582.101 597.816 581.664C598.083 581.227 598.216 580.752 598.216 580.24C598.216 579.728 598.083 579.253 597.816 578.816C597.56 578.379 597.213 578.032 596.776 577.776C596.339 577.509 595.864 577.376 595.352 577.376C594.84 577.376 594.365 577.509 593.928 577.776C593.501 578.032 593.155 578.379 592.888 578.816C592.621 579.253 592.488 579.728 592.488 580.24C592.488 580.752 592.621 581.227 592.888 581.664C593.155 582.101 593.501 582.453 593.928 582.72C594.355 582.976 594.829 583.104 595.352 583.104Z" fill="#23374F"></path></svg> 