<?xml version="1.0" encoding="UTF-8"?> <svg xmlns="http://www.w3.org/2000/svg" width="640" height="706" viewBox="0 0 640 706" fill="none"><rect width="640" height="706" fill="#FBF5EE"></rect><path d="M36.48 100V53.92H73.12V100H66.432V60.224H43.168V100H36.48ZM82.105 100V53.92H100.729C101.177 53.92 101.732 53.9413 102.393 53.984C103.054 54.0053 103.684 54.0693 104.281 54.176C106.841 54.5813 108.974 55.456 110.681 56.8C112.409 58.144 113.7 59.84 114.553 61.888C115.406 63.936 115.833 66.1973 115.833 68.672C115.833 71.168 115.406 73.44 114.553 75.488C113.7 77.536 112.409 79.232 110.681 80.576C108.974 81.92 106.841 82.7947 104.281 83.2C103.684 83.2853 103.044 83.3493 102.361 83.392C101.7 83.4347 101.156 83.456 100.729 83.456H88.793V100H82.105ZM88.793 77.12H100.473C100.9 77.12 101.369 77.0987 101.881 77.056C102.414 77.0133 102.916 76.9387 103.385 76.832C104.75 76.512 105.849 75.9253 106.681 75.072C107.513 74.1973 108.11 73.1947 108.473 72.064C108.836 70.9333 109.017 69.8027 109.017 68.672C109.017 67.5413 108.836 66.4213 108.473 65.312C108.11 64.1813 107.513 63.1893 106.681 62.336C105.849 61.4613 104.75 60.864 103.385 60.544C102.916 60.416 102.414 60.3307 101.881 60.288C101.369 60.2453 100.9 60.224 100.473 60.224H88.793V77.12ZM122.23 100V53.92H151.67V60.224H128.918V73.152H147.83V79.456H128.918V93.696H151.67V100H122.23ZM195.611 100H188.827V65.728L166.139 100H159.355V53.92H166.139V88.16L188.827 53.92H195.611V100ZM204.543 100V53.92H210.591L227.295 88.576L243.903 53.92H250.015V99.968H243.679V68.448L228.799 100H225.759L210.847 68.448V100H204.543ZM265.604 100L271.428 88.064L255.364 53.92H262.884L274.916 80.96L287.268 53.92H294.404L272.836 100H265.604ZM348.538 106.816V100H344.058V93.984H355.226V106.816H348.538ZM299.418 100V53.92H306.106V93.696H321.466V53.92H328.154V93.696H343.482V53.92H350.202V100H299.418ZM360.355 100V53.92H389.795V60.224H367.043V73.152H385.955V79.456H367.043V93.696H389.795V100H360.355ZM414.775 100.96C410.167 100.96 406.241 99.9573 402.999 97.952C399.756 95.9253 397.271 93.1093 395.543 89.504C393.836 85.8987 392.983 81.7173 392.983 76.96C392.983 72.2027 393.836 68.0213 395.543 64.416C397.271 60.8107 399.756 58.0053 402.999 56C406.241 53.9733 410.167 52.96 414.775 52.96C420.087 52.96 424.481 54.304 427.958 56.992C431.457 59.68 433.889 63.296 435.255 67.84L428.471 69.664C427.575 66.4427 425.975 63.9147 423.671 62.08C421.388 60.2453 418.423 59.328 414.775 59.328C411.511 59.328 408.791 60.064 406.615 61.536C404.439 63.008 402.796 65.0667 401.687 67.712C400.599 70.3573 400.055 73.44 400.055 76.96C400.033 80.48 400.567 83.5627 401.655 86.208C402.764 88.8533 404.407 90.912 406.583 92.384C408.78 93.856 411.511 94.592 414.775 94.592C418.423 94.592 421.388 93.6747 423.671 91.84C425.975 89.984 427.575 87.456 428.471 84.256L435.255 86.08C433.889 90.624 431.457 94.24 427.958 96.928C424.481 99.616 420.087 100.96 414.775 100.96ZM453.781 100V60.224H438.453V53.92H475.797V60.224H460.469V100H453.781ZM480.918 100V53.92H499.03C501.952 53.92 504.406 54.5173 506.39 55.712C508.374 56.9067 509.867 58.4533 510.87 60.352C511.872 62.2293 512.374 64.2133 512.374 66.304C512.374 68.8427 511.744 71.0187 510.486 72.832C509.248 74.6453 507.574 75.8827 505.462 76.544L505.398 74.976C508.342 75.7013 510.603 77.12 512.182 79.232C513.76 81.3227 514.55 83.7653 514.55 86.56C514.55 89.2693 514.006 91.6267 512.918 93.632C511.851 95.6373 510.283 97.2053 508.214 98.336C506.166 99.4453 503.68 100 500.758 100H480.918ZM487.702 93.632H499.734C501.248 93.632 502.603 93.344 503.798 92.768C505.014 92.192 505.963 91.3707 506.646 90.304C507.35 89.216 507.702 87.9253 507.702 86.432C507.702 85.0453 507.392 83.7973 506.774 82.688C506.176 81.5573 505.302 80.672 504.15 80.032C503.019 79.3707 501.686 79.04 500.15 79.04H487.702V93.632ZM487.702 72.736H498.934C500.171 72.736 501.28 72.4907 502.262 72C503.264 71.488 504.054 70.7627 504.63 69.824C505.227 68.864 505.526 67.712 505.526 66.368C505.526 64.576 504.928 63.104 503.734 61.952C502.539 60.8 500.939 60.224 498.934 60.224H487.702V72.736ZM517.718 100L532.694 53.92H542.326L557.302 100H550.358L536.566 57.952H538.294L524.661 100H517.718ZM525.494 89.6V83.328H549.558V89.6H525.494Z" fill="#23374F"></path><rect x="13" y="187" width="614" height="194" rx="31" fill="white"></rect><rect x="13" y="187" width="614" height="194" rx="31" stroke="#DFDFDF" stroke-width="2"></rect><path d="M68.5546 269V239.864H57.3706V234.44H85.5226V239.864H74.3386V269H68.5546ZM96.9643 269.72C94.3723 269.72 92.1083 269.136 90.1723 267.968C88.2363 266.8 86.7323 265.192 85.6603 263.144C84.6043 261.08 84.0763 258.712 84.0763 256.04C84.0763 253.32 84.6203 250.936 85.7083 248.888C86.7963 246.84 88.3083 245.24 90.2443 244.088C92.1803 242.936 94.4203 242.36 96.9643 242.36C99.5723 242.36 101.844 242.944 103.78 244.112C105.716 245.28 107.22 246.896 108.292 248.96C109.364 251.008 109.9 253.368 109.9 256.04C109.9 258.728 109.356 261.104 108.268 263.168C107.196 265.216 105.692 266.824 103.756 267.992C101.82 269.144 99.5563 269.72 96.9643 269.72ZM96.9643 264.296C99.2683 264.296 100.98 263.528 102.1 261.992C103.22 260.456 103.78 258.472 103.78 256.04C103.78 253.528 103.212 251.528 102.076 250.04C100.94 248.536 99.2363 247.784 96.9643 247.784C95.4123 247.784 94.1323 248.136 93.1243 248.84C92.1323 249.528 91.3963 250.496 90.9163 251.744C90.4363 252.976 90.1963 254.408 90.1963 256.04C90.1963 258.552 90.7643 260.56 91.9003 262.064C93.0523 263.552 94.7403 264.296 96.9643 264.296ZM130.284 269V260.288C129.388 260.736 128.364 261.088 127.212 261.344C126.076 261.6 124.884 261.728 123.636 261.728C120.964 261.728 118.828 261.128 117.228 259.928C115.644 258.728 114.62 256.984 114.156 254.696C114.012 254.04 113.908 253.36 113.844 252.656C113.796 251.936 113.764 251.288 113.748 250.712C113.748 250.12 113.748 249.672 113.748 249.368V243.08H119.604V249.368C119.604 249.72 119.62 250.24 119.652 250.928C119.684 251.6 119.772 252.272 119.916 252.944C120.22 254.224 120.772 255.16 121.572 255.752C122.372 256.344 123.516 256.64 125.004 256.64C126.156 256.64 127.172 256.488 128.052 256.184C128.932 255.88 129.676 255.496 130.284 255.032V243.08H136.092V269H130.284ZM142.75 269V243.08H148.534V253.304H160.174V243.08H165.958V269H160.174V258.728H148.534V269H142.75ZM172.633 269L172.609 243.08H178.393V251.72H181.297C182.017 251.72 182.825 251.736 183.721 251.768C184.633 251.8 185.393 251.872 186.001 251.984C187.457 252.304 188.697 252.816 189.721 253.52C190.761 254.224 191.553 255.144 192.097 256.28C192.641 257.416 192.913 258.784 192.913 260.384C192.913 262.672 192.321 264.504 191.137 265.88C189.953 267.24 188.297 268.168 186.169 268.664C185.545 268.808 184.769 268.904 183.841 268.952C182.913 268.984 182.089 269 181.369 269H172.633ZM178.393 264.464H181.873C182.225 264.464 182.617 264.448 183.049 264.416C183.481 264.384 183.889 264.312 184.273 264.2C184.993 264.008 185.633 263.576 186.193 262.904C186.753 262.216 187.033 261.376 187.033 260.384C187.033 259.344 186.753 258.488 186.193 257.816C185.633 257.144 184.945 256.704 184.129 256.496C183.745 256.4 183.353 256.336 182.953 256.304C182.569 256.272 182.209 256.256 181.873 256.256H178.393V264.464ZM195.625 269V243.08H201.409V269H195.625ZM220.117 240.152C218.789 240.152 217.573 239.824 216.469 239.168C215.365 238.512 214.485 237.64 213.829 236.552C213.173 235.448 212.845 234.224 212.845 232.88H217.357C217.357 233.648 217.621 234.304 218.149 234.848C218.693 235.376 219.349 235.64 220.117 235.64C220.885 235.64 221.533 235.376 222.061 234.848C222.605 234.304 222.877 233.648 222.877 232.88H227.389C227.389 234.224 227.061 235.448 226.405 236.552C225.749 237.64 224.869 238.512 223.765 239.168C222.661 239.824 221.445 240.152 220.117 240.152ZM230.605 243.08V269H225.061V252.08L212.725 269H208.093V243.08H213.637V259.568L226.021 243.08H230.605ZM258.21 269.72C255.538 269.72 253.258 269.128 251.37 267.944C249.482 266.744 248.034 265.112 247.026 263.048C246.034 260.984 245.53 258.648 245.514 256.04C245.53 253.384 246.05 251.032 247.074 248.984C248.114 246.92 249.586 245.304 251.49 244.136C253.394 242.952 255.658 242.36 258.282 242.36C261.226 242.36 263.714 243.104 265.746 244.592C267.794 246.064 269.13 248.08 269.754 250.64L263.994 252.2C263.546 250.808 262.802 249.728 261.762 248.96C260.722 248.176 259.538 247.784 258.21 247.784C256.706 247.784 255.466 248.144 254.49 248.864C253.514 249.568 252.794 250.544 252.33 251.792C251.866 253.04 251.634 254.456 251.634 256.04C251.634 258.504 252.186 260.496 253.29 262.016C254.394 263.536 256.034 264.296 258.21 264.296C259.746 264.296 260.954 263.944 261.834 263.24C262.73 262.536 263.402 261.52 263.85 260.192L269.754 261.512C268.954 264.152 267.554 266.184 265.554 267.608C263.554 269.016 261.106 269.72 258.21 269.72ZM287.019 269.72C284.491 269.72 282.371 269.12 280.659 267.92C278.947 266.72 277.659 265.088 276.795 263.024C275.931 260.944 275.499 258.616 275.499 256.04C275.499 253.432 275.931 251.096 276.795 249.032C277.659 246.968 278.923 245.344 280.587 244.16C282.267 242.96 284.339 242.36 286.803 242.36C289.251 242.36 291.371 242.96 293.163 244.16C294.971 245.344 296.371 246.968 297.363 249.032C298.355 251.08 298.851 253.416 298.851 256.04C298.851 258.632 298.363 260.96 297.387 263.024C296.411 265.088 295.035 266.72 293.259 267.92C291.483 269.12 289.403 269.72 287.019 269.72ZM274.515 280.52V243.08H279.627V261.272H280.347V280.52H274.515ZM286.131 264.536C287.635 264.536 288.875 264.16 289.851 263.408C290.827 262.656 291.547 261.64 292.011 260.36C292.491 259.064 292.731 257.624 292.731 256.04C292.731 254.472 292.491 253.048 292.011 251.768C291.531 250.472 290.787 249.448 289.779 248.696C288.771 247.928 287.491 247.544 285.939 247.544C284.467 247.544 283.267 247.904 282.339 248.624C281.411 249.328 280.723 250.32 280.275 251.6C279.843 252.864 279.627 254.344 279.627 256.04C279.627 257.72 279.843 259.2 280.275 260.48C280.723 261.76 281.419 262.76 282.363 263.48C283.323 264.184 284.579 264.536 286.131 264.536ZM315.589 269.72C312.997 269.72 310.733 269.136 308.797 267.968C306.861 266.8 305.357 265.192 304.285 263.144C303.229 261.08 302.701 258.712 302.701 256.04C302.701 253.32 303.245 250.936 304.333 248.888C305.421 246.84 306.933 245.24 308.869 244.088C310.805 242.936 313.045 242.36 315.589 242.36C318.197 242.36 320.469 242.944 322.405 244.112C324.341 245.28 325.845 246.896 326.917 248.96C327.989 251.008 328.525 253.368 328.525 256.04C328.525 258.728 327.981 261.104 326.893 263.168C325.821 265.216 324.317 266.824 322.381 267.992C320.445 269.144 318.181 269.72 315.589 269.72ZM315.589 264.296C317.893 264.296 319.605 263.528 320.725 261.992C321.845 260.456 322.405 258.472 322.405 256.04C322.405 253.528 321.837 251.528 320.701 250.04C319.565 248.536 317.861 247.784 315.589 247.784C314.037 247.784 312.757 248.136 311.749 248.84C310.757 249.528 310.021 250.496 309.541 251.744C309.061 252.976 308.821 254.408 308.821 256.04C308.821 258.552 309.389 260.56 310.525 262.064C311.677 263.552 313.365 264.296 315.589 264.296ZM333.765 269L333.813 243.08H339.669V255.56L349.149 243.08H356.373L346.317 256.04L357.237 269H349.581L339.669 256.52V269H333.765ZM369.203 269V243.08H380.987C381.835 243.08 382.627 243.128 383.363 243.224C384.099 243.32 384.731 243.44 385.259 243.584C386.507 243.952 387.611 244.672 388.571 245.744C389.531 246.8 390.011 248.264 390.011 250.136C390.011 251.24 389.835 252.152 389.483 252.872C389.131 253.576 388.667 254.168 388.091 254.648C387.819 254.872 387.539 255.064 387.251 255.224C386.963 255.384 386.675 255.512 386.387 255.608C387.011 255.704 387.603 255.888 388.163 256.16C389.043 256.592 389.779 257.232 390.371 258.08C390.979 258.928 391.283 260.12 391.283 261.656C391.283 263.4 390.859 264.872 390.011 266.072C389.179 267.256 387.955 268.08 386.339 268.544C385.747 268.704 385.067 268.824 384.299 268.904C383.531 268.968 382.747 269 381.947 269H369.203ZM375.059 264.536H381.539C381.875 264.536 382.243 264.504 382.643 264.44C383.043 264.376 383.403 264.288 383.723 264.176C384.299 263.968 384.715 263.6 384.971 263.072C385.243 262.544 385.379 261.992 385.379 261.416C385.379 260.632 385.179 260.008 384.779 259.544C384.395 259.064 383.931 258.744 383.387 258.584C383.067 258.456 382.715 258.384 382.331 258.368C381.963 258.336 381.659 258.32 381.419 258.32H375.059V264.536ZM375.059 253.784H379.859C380.355 253.784 380.835 253.76 381.299 253.712C381.779 253.648 382.179 253.544 382.499 253.4C383.027 253.192 383.411 252.84 383.651 252.344C383.907 251.848 384.035 251.296 384.035 250.688C384.035 250.048 383.891 249.472 383.603 248.96C383.331 248.432 382.891 248.08 382.283 247.904C381.883 247.744 381.395 247.656 380.819 247.64C380.259 247.624 379.899 247.616 379.739 247.616H375.059V253.784ZM407.511 269.72C404.919 269.72 402.655 269.136 400.719 267.968C398.783 266.8 397.279 265.192 396.207 263.144C395.151 261.08 394.623 258.712 394.623 256.04C394.623 253.32 395.167 250.936 396.255 248.888C397.343 246.84 398.855 245.24 400.791 244.088C402.727 242.936 404.967 242.36 407.511 242.36C410.119 242.36 412.391 242.944 414.327 244.112C416.263 245.28 417.767 246.896 418.839 248.96C419.911 251.008 420.447 253.368 420.447 256.04C420.447 258.728 419.903 261.104 418.815 263.168C417.743 265.216 416.239 266.824 414.303 267.992C412.367 269.144 410.103 269.72 407.511 269.72ZM407.511 264.296C409.815 264.296 411.527 263.528 412.647 261.992C413.767 260.456 414.327 258.472 414.327 256.04C414.327 253.528 413.759 251.528 412.623 250.04C411.487 248.536 409.783 247.784 407.511 247.784C405.959 247.784 404.679 248.136 403.671 248.84C402.679 249.528 401.943 250.496 401.463 251.744C400.983 252.976 400.743 254.408 400.743 256.04C400.743 258.552 401.311 260.56 402.447 262.064C403.599 263.552 405.287 264.296 407.511 264.296ZM434.107 269.72C431.643 269.72 429.395 269.2 427.363 268.16C425.331 267.12 423.731 265.696 422.563 263.888L427.123 260.84C428.051 261.944 429.083 262.8 430.219 263.408C431.355 264 432.619 264.296 434.011 264.296C435.467 264.296 436.611 263.976 437.443 263.336C438.275 262.696 438.691 261.84 438.691 260.768C438.691 259.824 438.411 259.16 437.851 258.776C437.291 258.376 436.555 258.136 435.643 258.056C434.731 257.976 433.755 257.936 432.715 257.936H430.795V253.352H432.691C434.147 253.352 435.363 253.184 436.339 252.848C437.331 252.512 437.827 251.768 437.827 250.616C437.827 249.576 437.443 248.84 436.675 248.408C435.907 247.96 435.011 247.736 433.987 247.736C432.739 247.736 431.507 248 430.291 248.528C429.075 249.056 427.987 249.696 427.027 250.448L423.763 246.512C425.203 245.232 426.811 244.224 428.587 243.488C430.363 242.736 432.259 242.36 434.275 242.36C435.939 242.36 437.491 242.648 438.931 243.224C440.387 243.8 441.555 244.664 442.435 245.816C443.331 246.968 443.779 248.392 443.779 250.088C443.779 251.304 443.515 252.448 442.987 253.52C442.475 254.592 441.651 255.608 440.515 256.568L440.443 254.696C441.323 255.064 442.067 255.576 442.675 256.232C443.299 256.888 443.771 257.656 444.091 258.536C444.427 259.416 444.595 260.352 444.595 261.344C444.595 263.152 444.115 264.68 443.155 265.928C442.195 267.176 440.915 268.12 439.315 268.76C437.731 269.4 435.995 269.72 434.107 269.72ZM449.828 269V243.08H461.612C462.46 243.08 463.252 243.128 463.988 243.224C464.724 243.32 465.356 243.44 465.884 243.584C467.132 243.952 468.236 244.672 469.196 245.744C470.156 246.8 470.636 248.264 470.636 250.136C470.636 251.24 470.46 252.152 470.108 252.872C469.756 253.576 469.292 254.168 468.716 254.648C468.444 254.872 468.164 255.064 467.876 255.224C467.588 255.384 467.3 255.512 467.012 255.608C467.636 255.704 468.228 255.888 468.788 256.16C469.668 256.592 470.404 257.232 470.996 258.08C471.604 258.928 471.908 260.12 471.908 261.656C471.908 263.4 471.484 264.872 470.636 266.072C469.804 267.256 468.58 268.08 466.964 268.544C466.372 268.704 465.692 268.824 464.924 268.904C464.156 268.968 463.372 269 462.572 269H449.828ZM455.684 264.536H462.164C462.5 264.536 462.868 264.504 463.268 264.44C463.668 264.376 464.028 264.288 464.348 264.176C464.924 263.968 465.34 263.6 465.596 263.072C465.868 262.544 466.004 261.992 466.004 261.416C466.004 260.632 465.804 260.008 465.404 259.544C465.02 259.064 464.556 258.744 464.012 258.584C463.692 258.456 463.34 258.384 462.956 258.368C462.588 258.336 462.284 258.32 462.044 258.32H455.684V264.536ZM455.684 253.784H460.484C460.98 253.784 461.46 253.76 461.924 253.712C462.404 253.648 462.804 253.544 463.124 253.4C463.652 253.192 464.036 252.84 464.276 252.344C464.532 251.848 464.66 251.296 464.66 250.688C464.66 250.048 464.516 249.472 464.228 248.96C463.956 248.432 463.516 248.08 462.908 247.904C462.508 247.744 462.02 247.656 461.444 247.64C460.884 247.624 460.524 247.616 460.364 247.616H455.684V253.784ZM489.144 269.72C486.616 269.72 484.496 269.12 482.784 267.92C481.072 266.72 479.784 265.088 478.92 263.024C478.056 260.944 477.624 258.616 477.624 256.04C477.624 253.432 478.056 251.096 478.92 249.032C479.784 246.968 481.048 245.344 482.712 244.16C484.392 242.96 486.464 242.36 488.928 242.36C491.376 242.36 493.496 242.96 495.288 244.16C497.096 245.344 498.496 246.968 499.488 249.032C500.48 251.08 500.976 253.416 500.976 256.04C500.976 258.632 500.488 260.96 499.512 263.024C498.536 265.088 497.16 266.72 495.384 267.92C493.608 269.12 491.528 269.72 489.144 269.72ZM476.64 280.52V243.08H481.752V261.272H482.472V280.52H476.64ZM488.256 264.536C489.76 264.536 491 264.16 491.976 263.408C492.952 262.656 493.672 261.64 494.136 260.36C494.616 259.064 494.856 257.624 494.856 256.04C494.856 254.472 494.616 253.048 494.136 251.768C493.656 250.472 492.912 249.448 491.904 248.696C490.896 247.928 489.616 247.544 488.064 247.544C486.592 247.544 485.392 247.904 484.464 248.624C483.536 249.328 482.848 250.32 482.4 251.6C481.968 252.864 481.752 254.344 481.752 256.04C481.752 257.72 481.968 259.2 482.4 260.48C482.848 261.76 483.544 262.76 484.488 263.48C485.448 264.184 486.704 264.536 488.256 264.536ZM513.514 269.72C511.642 269.72 510.058 269.368 508.762 268.664C507.466 267.944 506.482 266.992 505.81 265.808C505.154 264.624 504.826 263.32 504.826 261.896C504.826 260.648 505.034 259.528 505.45 258.536C505.866 257.528 506.506 256.664 507.37 255.944C508.234 255.208 509.354 254.608 510.73 254.144C511.77 253.808 512.986 253.504 514.378 253.232C515.786 252.96 517.306 252.712 518.938 252.488C520.586 252.248 522.306 251.992 524.098 251.72L522.034 252.896C522.05 251.104 521.65 249.784 520.834 248.936C520.018 248.088 518.642 247.664 516.706 247.664C515.538 247.664 514.41 247.936 513.322 248.48C512.234 249.024 511.474 249.96 511.042 251.288L505.762 249.632C506.402 247.44 507.618 245.68 509.41 244.352C511.218 243.024 513.65 242.36 516.706 242.36C519.01 242.36 521.034 242.736 522.778 243.488C524.538 244.24 525.842 245.472 526.69 247.184C527.154 248.096 527.434 249.032 527.53 249.992C527.626 250.936 527.674 251.968 527.674 253.088V269H522.61V263.384L523.45 264.296C522.282 266.168 520.914 267.544 519.346 268.424C517.794 269.288 515.85 269.72 513.514 269.72ZM514.666 265.112C515.978 265.112 517.098 264.88 518.026 264.416C518.954 263.952 519.69 263.384 520.234 262.712C520.794 262.04 521.17 261.408 521.362 260.816C521.666 260.08 521.834 259.24 521.866 258.296C521.914 257.336 521.938 256.56 521.938 255.968L523.714 256.496C521.97 256.768 520.474 257.008 519.226 257.216C517.978 257.424 516.906 257.624 516.01 257.816C515.114 257.992 514.322 258.192 513.634 258.416C512.962 258.656 512.394 258.936 511.93 259.256C511.466 259.576 511.106 259.944 510.85 260.36C510.61 260.776 510.49 261.264 510.49 261.824C510.49 262.464 510.65 263.032 510.97 263.528C511.29 264.008 511.754 264.392 512.362 264.68C512.986 264.968 513.754 265.112 514.666 265.112ZM540.427 269V248.216H531.763V243.08H554.875V248.216H546.211V269H540.427ZM566.061 269.72C564.189 269.72 562.605 269.368 561.309 268.664C560.013 267.944 559.029 266.992 558.357 265.808C557.701 264.624 557.373 263.32 557.373 261.896C557.373 260.648 557.581 259.528 557.997 258.536C558.413 257.528 559.053 256.664 559.917 255.944C560.781 255.208 561.901 254.608 563.277 254.144C564.317 253.808 565.533 253.504 566.925 253.232C568.333 252.96 569.853 252.712 571.485 252.488C573.133 252.248 574.853 251.992 576.645 251.72L574.581 252.896C574.597 251.104 574.197 249.784 573.381 248.936C572.565 248.088 571.189 247.664 569.253 247.664C568.085 247.664 566.957 247.936 565.869 248.48C564.781 249.024 564.021 249.96 563.589 251.288L558.309 249.632C558.949 247.44 560.165 245.68 561.957 244.352C563.765 243.024 566.197 242.36 569.253 242.36C571.557 242.36 573.581 242.736 575.325 243.488C577.085 244.24 578.389 245.472 579.237 247.184C579.701 248.096 579.981 249.032 580.077 249.992C580.173 250.936 580.221 251.968 580.221 253.088V269H575.157V263.384L575.997 264.296C574.829 266.168 573.461 267.544 571.893 268.424C570.341 269.288 568.397 269.72 566.061 269.72ZM567.213 265.112C568.525 265.112 569.645 264.88 570.573 264.416C571.501 263.952 572.237 263.384 572.781 262.712C573.341 262.04 573.717 261.408 573.909 260.816C574.213 260.08 574.381 259.24 574.413 258.296C574.461 257.336 574.485 256.56 574.485 255.968L576.261 256.496C574.517 256.768 573.021 257.008 571.773 257.216C570.525 257.424 569.453 257.624 568.557 257.816C567.661 257.992 566.869 258.192 566.181 258.416C565.509 258.656 564.941 258.936 564.477 259.256C564.013 259.576 563.653 259.944 563.397 260.36C563.157 260.776 563.037 261.264 563.037 261.824C563.037 262.464 563.197 263.032 563.517 263.528C563.837 264.008 564.301 264.392 564.909 264.68C565.533 264.968 566.301 265.112 567.213 265.112ZM202.504 309.08V335H196.96V318.08L184.624 335H179.992V309.08H185.536V325.568L197.92 309.08H202.504ZM209.195 335V309.08H214.979V319.304H226.619V309.08H232.403V335H226.619V324.728H214.979V335H209.195ZM239.054 335V309.08H250.838C251.686 309.08 252.478 309.128 253.214 309.224C253.95 309.32 254.582 309.44 255.11 309.584C256.358 309.952 257.462 310.672 258.422 311.744C259.382 312.8 259.862 314.264 259.862 316.136C259.862 317.24 259.686 318.152 259.334 318.872C258.982 319.576 258.518 320.168 257.942 320.648C257.67 320.872 257.39 321.064 257.102 321.224C256.814 321.384 256.526 321.512 256.238 321.608C256.862 321.704 257.454 321.888 258.014 322.16C258.894 322.592 259.63 323.232 260.222 324.08C260.83 324.928 261.134 326.12 261.134 327.656C261.134 329.4 260.71 330.872 259.862 332.072C259.03 333.256 257.806 334.08 256.19 334.544C255.598 334.704 254.918 334.824 254.15 334.904C253.382 334.968 252.598 335 251.798 335H239.054ZM244.91 330.536H251.39C251.726 330.536 252.094 330.504 252.494 330.44C252.894 330.376 253.254 330.288 253.574 330.176C254.15 329.968 254.566 329.6 254.822 329.072C255.094 328.544 255.23 327.992 255.23 327.416C255.23 326.632 255.03 326.008 254.63 325.544C254.246 325.064 253.782 324.744 253.238 324.584C252.918 324.456 252.566 324.384 252.182 324.368C251.814 324.336 251.51 324.32 251.27 324.32H244.91V330.536ZM244.91 319.784H249.71C250.206 319.784 250.686 319.76 251.15 319.712C251.63 319.648 252.03 319.544 252.35 319.4C252.878 319.192 253.262 318.84 253.502 318.344C253.758 317.848 253.886 317.296 253.886 316.688C253.886 316.048 253.742 315.472 253.454 314.96C253.182 314.432 252.742 314.08 252.134 313.904C251.734 313.744 251.246 313.656 250.67 313.64C250.11 313.624 249.75 313.616 249.59 313.616H244.91V319.784ZM277.699 335.72C275.075 335.72 272.771 335.152 270.787 334.016C268.803 332.88 267.251 331.304 266.131 329.288C265.027 327.272 264.475 324.952 264.475 322.328C264.475 319.496 265.019 317.04 266.107 314.96C267.195 312.864 268.707 311.24 270.643 310.088C272.579 308.936 274.819 308.36 277.363 308.36C280.051 308.36 282.331 308.992 284.203 310.256C286.091 311.504 287.491 313.272 288.403 315.56C289.315 317.848 289.659 320.544 289.435 323.648H283.699V321.536C283.683 318.72 283.187 316.664 282.211 315.368C281.235 314.072 279.699 313.424 277.603 313.424C275.235 313.424 273.475 314.16 272.323 315.632C271.171 317.088 270.595 319.224 270.595 322.04C270.595 324.664 271.171 326.696 272.323 328.136C273.475 329.576 275.155 330.296 277.363 330.296C278.787 330.296 280.011 329.984 281.035 329.36C282.075 328.72 282.875 327.8 283.435 326.6L289.147 328.328C288.155 330.664 286.619 332.48 284.539 333.776C282.475 335.072 280.195 335.72 277.699 335.72ZM268.771 323.648V319.28H286.603V323.648H268.771ZM306.046 335.72C303.374 335.72 301.094 335.128 299.206 333.944C297.318 332.744 295.87 331.112 294.862 329.048C293.87 326.984 293.366 324.648 293.35 322.04C293.366 319.384 293.886 317.032 294.91 314.984C295.95 312.92 297.422 311.304 299.326 310.136C301.23 308.952 303.494 308.36 306.118 308.36C309.062 308.36 311.55 309.104 313.582 310.592C315.63 312.064 316.966 314.08 317.59 316.64L311.83 318.2C311.382 316.808 310.638 315.728 309.598 314.96C308.558 314.176 307.374 313.784 306.046 313.784C304.542 313.784 303.302 314.144 302.326 314.864C301.35 315.568 300.63 316.544 300.166 317.792C299.702 319.04 299.47 320.456 299.47 322.04C299.47 324.504 300.022 326.496 301.126 328.016C302.23 329.536 303.87 330.296 306.046 330.296C307.582 330.296 308.79 329.944 309.67 329.24C310.566 328.536 311.238 327.52 311.686 326.192L317.59 327.512C316.79 330.152 315.39 332.184 313.39 333.608C311.39 335.016 308.942 335.72 306.046 335.72ZM328.762 335V314.216H320.098V309.08H343.21V314.216H334.546V335H328.762ZM370.222 309.08V335H364.678V318.08L352.342 335H347.71V309.08H353.254V325.568L365.638 309.08H370.222ZM398.658 340.448V335H376.914V309.08H382.698V329.576H393.642V309.08H399.426V329.864H404.442V340.448H398.658ZM430.738 309.08V335H425.194V318.08L412.858 335H408.226V309.08H413.77V325.568L426.154 309.08H430.738ZM449.453 306.152C448.125 306.152 446.909 305.824 445.805 305.168C444.701 304.512 443.821 303.64 443.165 302.552C442.509 301.448 442.181 300.224 442.181 298.88H446.693C446.693 299.648 446.957 300.304 447.485 300.848C448.029 301.376 448.685 301.64 449.453 301.64C450.221 301.64 450.869 301.376 451.397 300.848C451.941 300.304 452.213 299.648 452.213 298.88H456.725C456.725 300.224 456.397 301.448 455.741 302.552C455.085 303.64 454.205 304.512 453.101 305.168C451.997 305.824 450.781 306.152 449.453 306.152ZM459.941 309.08V335H454.397V318.08L442.061 335H437.429V309.08H442.973V325.568L455.357 309.08H459.941Z" fill="#23374F"></path><rect x="13" y="425" width="614" height="194" rx="31" fill="white"></rect><rect x="13" y="425" width="614" height="194" rx="31" stroke="#DFDFDF" stroke-width="2"></rect><path d="M105.311 507L109.871 497.688L97.9426 472.44H104.471L112.895 491.592L121.583 472.44H127.751L111.479 507H105.311ZM138.953 507L139.001 481.08H144.857V493.56L154.337 481.08H161.561L151.505 494.04L162.425 507H154.769L144.857 494.52V507H138.953ZM172.077 507.72C170.205 507.72 168.621 507.368 167.325 506.664C166.029 505.944 165.045 504.992 164.373 503.808C163.717 502.624 163.389 501.32 163.389 499.896C163.389 498.648 163.597 497.528 164.013 496.536C164.429 495.528 165.069 494.664 165.933 493.944C166.797 493.208 167.917 492.608 169.293 492.144C170.333 491.808 171.549 491.504 172.941 491.232C174.349 490.96 175.869 490.712 177.501 490.488C179.149 490.248 180.869 489.992 182.661 489.72L180.597 490.896C180.613 489.104 180.213 487.784 179.397 486.936C178.581 486.088 177.205 485.664 175.269 485.664C174.101 485.664 172.973 485.936 171.885 486.48C170.797 487.024 170.037 487.96 169.605 489.288L164.325 487.632C164.965 485.44 166.181 483.68 167.973 482.352C169.781 481.024 172.213 480.36 175.269 480.36C177.573 480.36 179.597 480.736 181.341 481.488C183.101 482.24 184.405 483.472 185.253 485.184C185.717 486.096 185.997 487.032 186.093 487.992C186.189 488.936 186.237 489.968 186.237 491.088V507H181.173V501.384L182.013 502.296C180.845 504.168 179.477 505.544 177.909 506.424C176.357 507.288 174.413 507.72 172.077 507.72ZM173.229 503.112C174.541 503.112 175.661 502.88 176.589 502.416C177.517 501.952 178.253 501.384 178.797 500.712C179.357 500.04 179.733 499.408 179.925 498.816C180.229 498.08 180.397 497.24 180.429 496.296C180.477 495.336 180.501 494.56 180.501 493.968L182.277 494.496C180.533 494.768 179.037 495.008 177.789 495.216C176.541 495.424 175.469 495.624 174.573 495.816C173.677 495.992 172.885 496.192 172.197 496.416C171.525 496.656 170.957 496.936 170.493 497.256C170.029 497.576 169.669 497.944 169.413 498.36C169.173 498.776 169.053 499.264 169.053 499.824C169.053 500.464 169.213 501.032 169.533 501.528C169.853 502.008 170.317 502.392 170.925 502.68C171.549 502.968 172.317 503.112 173.229 503.112ZM189.605 507L199.109 494.04L190.181 481.08H196.517L204.941 493.632V481.08H210.077V493.632L218.501 481.08H224.813L215.885 494.04L225.389 507H218.717L210.077 494.448V507H204.941V494.448L196.277 507H189.605ZM226.378 512.76V502.464C227.786 502.464 228.786 501.984 229.378 501.024C229.97 500.064 230.442 498.4 230.794 496.032C231.018 494.624 231.202 493.136 231.346 491.568C231.49 490 231.61 488.344 231.706 486.6C231.818 484.856 231.914 483.016 231.993 481.08H251.29V502.464H253.906V512.76H248.434V507H231.826V512.76H226.378ZM234.13 502.464H245.53V485.616H237.057C237.01 486.576 236.954 487.56 236.89 488.568C236.826 489.56 236.754 490.552 236.674 491.544C236.594 492.536 236.506 493.488 236.41 494.4C236.33 495.296 236.234 496.128 236.122 496.896C235.946 498.24 235.73 499.344 235.474 500.208C235.218 501.072 234.77 501.824 234.13 502.464ZM270.167 507.72C267.575 507.72 265.311 507.136 263.375 505.968C261.439 504.8 259.935 503.192 258.863 501.144C257.807 499.08 257.279 496.712 257.279 494.04C257.279 491.32 257.823 488.936 258.911 486.888C259.999 484.84 261.511 483.24 263.447 482.088C265.383 480.936 267.623 480.36 270.167 480.36C272.775 480.36 275.047 480.944 276.983 482.112C278.919 483.28 280.423 484.896 281.495 486.96C282.567 489.008 283.103 491.368 283.103 494.04C283.103 496.728 282.559 499.104 281.471 501.168C280.399 503.216 278.895 504.824 276.959 505.992C275.023 507.144 272.759 507.72 270.167 507.72ZM270.167 502.296C272.471 502.296 274.183 501.528 275.303 499.992C276.423 498.456 276.983 496.472 276.983 494.04C276.983 491.528 276.415 489.528 275.279 488.04C274.143 486.536 272.439 485.784 270.167 485.784C268.615 485.784 267.335 486.136 266.327 486.84C265.335 487.528 264.599 488.496 264.119 489.744C263.639 490.976 263.399 492.408 263.399 494.04C263.399 496.552 263.967 498.56 265.103 500.064C266.255 501.552 267.943 502.296 270.167 502.296ZM288.391 507V481.08H306.871V486.504H294.175V507H288.391ZM322.433 507.72C319.841 507.72 317.577 507.136 315.641 505.968C313.705 504.8 312.201 503.192 311.129 501.144C310.073 499.08 309.545 496.712 309.545 494.04C309.545 491.32 310.089 488.936 311.177 486.888C312.265 484.84 313.777 483.24 315.713 482.088C317.649 480.936 319.889 480.36 322.433 480.36C325.041 480.36 327.313 480.944 329.249 482.112C331.185 483.28 332.689 484.896 333.761 486.96C334.833 489.008 335.369 491.368 335.369 494.04C335.369 496.728 334.825 499.104 333.737 501.168C332.665 503.216 331.161 504.824 329.225 505.992C327.289 507.144 325.025 507.72 322.433 507.72ZM322.433 502.296C324.737 502.296 326.449 501.528 327.569 499.992C328.689 498.456 329.249 496.472 329.249 494.04C329.249 491.528 328.681 489.528 327.545 488.04C326.409 486.536 324.705 485.784 322.433 485.784C320.881 485.784 319.601 486.136 318.593 486.84C317.601 487.528 316.865 488.496 316.385 489.744C315.905 490.976 315.665 492.408 315.665 494.04C315.665 496.552 316.233 498.56 317.369 500.064C318.521 501.552 320.209 502.296 322.433 502.296ZM350.218 507V481.08H372.73V507H366.946V486.504H356.002V507H350.218ZM391.925 507.72C389.397 507.72 387.277 507.12 385.565 505.92C383.853 504.72 382.565 503.088 381.701 501.024C380.837 498.944 380.405 496.616 380.405 494.04C380.405 491.432 380.837 489.096 381.701 487.032C382.565 484.968 383.829 483.344 385.493 482.16C387.173 480.96 389.245 480.36 391.709 480.36C394.157 480.36 396.277 480.96 398.069 482.16C399.877 483.344 401.277 484.968 402.269 487.032C403.261 489.08 403.757 491.416 403.757 494.04C403.757 496.632 403.269 498.96 402.293 501.024C401.317 503.088 399.941 504.72 398.165 505.92C396.389 507.12 394.309 507.72 391.925 507.72ZM379.421 518.52V481.08H384.533V499.272H385.253V518.52H379.421ZM391.037 502.536C392.541 502.536 393.781 502.16 394.757 501.408C395.733 500.656 396.453 499.64 396.917 498.36C397.397 497.064 397.637 495.624 397.637 494.04C397.637 492.472 397.397 491.048 396.917 489.768C396.437 488.472 395.693 487.448 394.685 486.696C393.677 485.928 392.397 485.544 390.845 485.544C389.373 485.544 388.173 485.904 387.245 486.624C386.317 487.328 385.629 488.32 385.181 489.6C384.749 490.864 384.533 492.344 384.533 494.04C384.533 495.72 384.749 497.2 385.181 498.48C385.629 499.76 386.325 500.76 387.269 501.48C388.229 502.184 389.485 502.536 391.037 502.536ZM420.496 507.72C417.904 507.72 415.64 507.136 413.704 505.968C411.768 504.8 410.264 503.192 409.192 501.144C408.136 499.08 407.608 496.712 407.608 494.04C407.608 491.32 408.152 488.936 409.24 486.888C410.328 484.84 411.84 483.24 413.776 482.088C415.712 480.936 417.952 480.36 420.496 480.36C423.104 480.36 425.376 480.944 427.312 482.112C429.248 483.28 430.752 484.896 431.824 486.96C432.896 489.008 433.432 491.368 433.432 494.04C433.432 496.728 432.888 499.104 431.8 501.168C430.728 503.216 429.224 504.824 427.288 505.992C425.352 507.144 423.088 507.72 420.496 507.72ZM420.496 502.296C422.8 502.296 424.512 501.528 425.632 499.992C426.752 498.456 427.312 496.472 427.312 494.04C427.312 491.528 426.744 489.528 425.608 488.04C424.472 486.536 422.768 485.784 420.496 485.784C418.944 485.784 417.664 486.136 416.656 486.84C415.664 487.528 414.928 488.496 414.448 489.744C413.968 490.976 413.728 492.408 413.728 494.04C413.728 496.552 414.296 498.56 415.432 500.064C416.584 501.552 418.272 502.296 420.496 502.296ZM450.503 507.72C447.879 507.72 445.575 507.152 443.591 506.016C441.607 504.88 440.055 503.304 438.935 501.288C437.831 499.272 437.279 496.952 437.279 494.328C437.279 491.496 437.823 489.04 438.911 486.96C439.999 484.864 441.511 483.24 443.447 482.088C445.383 480.936 447.623 480.36 450.167 480.36C452.855 480.36 455.135 480.992 457.007 482.256C458.895 483.504 460.295 485.272 461.207 487.56C462.119 489.848 462.463 492.544 462.239 495.648H456.503V493.536C456.487 490.72 455.991 488.664 455.015 487.368C454.039 486.072 452.503 485.424 450.407 485.424C448.039 485.424 446.279 486.16 445.127 487.632C443.975 489.088 443.399 491.224 443.399 494.04C443.399 496.664 443.975 498.696 445.127 500.136C446.279 501.576 447.959 502.296 450.167 502.296C451.591 502.296 452.815 501.984 453.839 501.36C454.879 500.72 455.679 499.8 456.239 498.6L461.951 500.328C460.959 502.664 459.423 504.48 457.343 505.776C455.279 507.072 452.999 507.72 450.503 507.72ZM441.575 495.648V491.28H459.407V495.648H441.575ZM467.546 507L467.594 481.08H473.45V493.56L482.93 481.08H490.154L480.098 494.04L491.018 507H483.362L473.45 494.52V507H467.546ZM499.927 507V486.216H491.263V481.08H514.375V486.216H505.711V507H499.927ZM525.561 507.72C523.689 507.72 522.105 507.368 520.809 506.664C519.513 505.944 518.529 504.992 517.857 503.808C517.201 502.624 516.873 501.32 516.873 499.896C516.873 498.648 517.081 497.528 517.497 496.536C517.913 495.528 518.553 494.664 519.417 493.944C520.281 493.208 521.401 492.608 522.777 492.144C523.817 491.808 525.033 491.504 526.425 491.232C527.833 490.96 529.353 490.712 530.985 490.488C532.633 490.248 534.353 489.992 536.145 489.72L534.081 490.896C534.097 489.104 533.697 487.784 532.881 486.936C532.065 486.088 530.689 485.664 528.753 485.664C527.585 485.664 526.457 485.936 525.369 486.48C524.281 487.024 523.521 487.96 523.089 489.288L517.809 487.632C518.449 485.44 519.665 483.68 521.457 482.352C523.265 481.024 525.697 480.36 528.753 480.36C531.057 480.36 533.081 480.736 534.825 481.488C536.585 482.24 537.889 483.472 538.737 485.184C539.201 486.096 539.481 487.032 539.577 487.992C539.673 488.936 539.721 489.968 539.721 491.088V507H534.657V501.384L535.497 502.296C534.329 504.168 532.961 505.544 531.393 506.424C529.841 507.288 527.897 507.72 525.561 507.72ZM526.713 503.112C528.025 503.112 529.145 502.88 530.073 502.416C531.001 501.952 531.737 501.384 532.281 500.712C532.841 500.04 533.217 499.408 533.409 498.816C533.713 498.08 533.881 497.24 533.913 496.296C533.961 495.336 533.985 494.56 533.985 493.968L535.761 494.496C534.017 494.768 532.521 495.008 531.273 495.216C530.025 495.424 528.953 495.624 528.057 495.816C527.161 495.992 526.369 496.192 525.681 496.416C525.009 496.656 524.441 496.936 523.977 497.256C523.513 497.576 523.153 497.944 522.897 498.36C522.657 498.776 522.537 499.264 522.537 499.824C522.537 500.464 522.697 501.032 523.017 501.528C523.337 502.008 523.801 502.392 524.409 502.68C525.033 502.968 525.801 503.112 526.713 503.112ZM71.4956 573.72C68.8716 573.72 66.5676 573.152 64.5836 572.016C62.5996 570.88 61.0476 569.304 59.9276 567.288C58.8236 565.272 58.2716 562.952 58.2716 560.328C58.2716 557.496 58.8156 555.04 59.9036 552.96C60.9916 550.864 62.5036 549.24 64.4396 548.088C66.3756 546.936 68.6156 546.36 71.1596 546.36C73.8476 546.36 76.1276 546.992 77.9996 548.256C79.8876 549.504 81.2876 551.272 82.1996 553.56C83.1116 555.848 83.4556 558.544 83.2316 561.648H77.4956V559.536C77.4796 556.72 76.9836 554.664 76.0076 553.368C75.0316 552.072 73.4956 551.424 71.3996 551.424C69.0316 551.424 67.2716 552.16 66.1196 553.632C64.9676 555.088 64.3916 557.224 64.3916 560.04C64.3916 562.664 64.9676 564.696 66.1196 566.136C67.2716 567.576 68.9516 568.296 71.1596 568.296C72.5836 568.296 73.8076 567.984 74.8316 567.36C75.8716 566.72 76.6716 565.8 77.2316 564.6L82.9436 566.328C81.9516 568.664 80.4156 570.48 78.3356 571.776C76.2716 573.072 73.9916 573.72 71.4956 573.72ZM62.5676 561.648V557.28H80.3996V561.648H62.5676ZM99.8426 573.72C97.1706 573.72 94.8906 573.128 93.0026 571.944C91.1146 570.744 89.6666 569.112 88.6586 567.048C87.6666 564.984 87.1626 562.648 87.1466 560.04C87.1626 557.384 87.6826 555.032 88.7066 552.984C89.7466 550.92 91.2186 549.304 93.1226 548.136C95.0266 546.952 97.2906 546.36 99.9146 546.36C102.859 546.36 105.347 547.104 107.379 548.592C109.427 550.064 110.763 552.08 111.387 554.64L105.627 556.2C105.179 554.808 104.435 553.728 103.395 552.96C102.355 552.176 101.171 551.784 99.8426 551.784C98.3386 551.784 97.0986 552.144 96.1226 552.864C95.1466 553.568 94.4266 554.544 93.9626 555.792C93.4986 557.04 93.2666 558.456 93.2666 560.04C93.2666 562.504 93.8186 564.496 94.9226 566.016C96.0266 567.536 97.6666 568.296 99.8426 568.296C101.379 568.296 102.587 567.944 103.467 567.24C104.363 566.536 105.035 565.52 105.483 564.192L111.387 565.512C110.587 568.152 109.187 570.184 107.187 571.608C105.187 573.016 102.739 573.72 99.8426 573.72ZM122.559 573V552.216H113.895V547.08H137.007V552.216H128.343V573H122.559ZM141.531 573L141.507 547.08H147.291V555.72H151.947C152.667 555.72 153.475 555.736 154.371 555.768C155.283 555.8 156.043 555.872 156.651 555.984C158.107 556.304 159.347 556.816 160.371 557.52C161.411 558.224 162.203 559.144 162.747 560.28C163.291 561.416 163.563 562.784 163.563 564.384C163.563 566.672 162.971 568.504 161.787 569.88C160.619 571.24 158.971 572.168 156.843 572.664C156.203 572.808 155.419 572.904 154.491 572.952C153.579 572.984 152.755 573 152.019 573H141.531ZM147.291 568.464H152.523C152.875 568.464 153.267 568.448 153.699 568.416C154.131 568.384 154.547 568.312 154.947 568.2C155.667 568.008 156.299 567.576 156.843 566.904C157.403 566.216 157.683 565.376 157.683 564.384C157.683 563.344 157.403 562.488 156.843 561.816C156.283 561.144 155.595 560.704 154.779 560.496C154.411 560.4 154.027 560.336 153.627 560.304C153.227 560.272 152.859 560.256 152.523 560.256H147.291V568.464ZM189.702 573.72C187.03 573.72 184.75 573.128 182.862 571.944C180.974 570.744 179.526 569.112 178.518 567.048C177.526 564.984 177.022 562.648 177.006 560.04C177.022 557.384 177.542 555.032 178.566 552.984C179.606 550.92 181.078 549.304 182.982 548.136C184.886 546.952 187.15 546.36 189.774 546.36C192.718 546.36 195.206 547.104 197.238 548.592C199.286 550.064 200.622 552.08 201.246 554.64L195.486 556.2C195.038 554.808 194.294 553.728 193.254 552.96C192.214 552.176 191.03 551.784 189.702 551.784C188.198 551.784 186.958 552.144 185.982 552.864C185.006 553.568 184.286 554.544 183.822 555.792C183.358 557.04 183.126 558.456 183.126 560.04C183.126 562.504 183.678 564.496 184.782 566.016C185.886 567.536 187.526 568.296 189.702 568.296C191.238 568.296 192.446 567.944 193.326 567.24C194.222 566.536 194.894 565.52 195.342 564.192L201.246 565.512C200.446 568.152 199.046 570.184 197.046 571.608C195.046 573.016 192.598 573.72 189.702 573.72ZM218.511 573.72C215.983 573.72 213.863 573.12 212.151 571.92C210.439 570.72 209.151 569.088 208.287 567.024C207.423 564.944 206.991 562.616 206.991 560.04C206.991 557.432 207.423 555.096 208.287 553.032C209.151 550.968 210.415 549.344 212.079 548.16C213.759 546.96 215.831 546.36 218.295 546.36C220.743 546.36 222.863 546.96 224.655 548.16C226.463 549.344 227.863 550.968 228.855 553.032C229.847 555.08 230.343 557.416 230.343 560.04C230.343 562.632 229.855 564.96 228.879 567.024C227.903 569.088 226.527 570.72 224.751 571.92C222.975 573.12 220.895 573.72 218.511 573.72ZM206.007 584.52V547.08H211.119V565.272H211.839V584.52H206.007ZM217.623 568.536C219.127 568.536 220.367 568.16 221.343 567.408C222.319 566.656 223.039 565.64 223.503 564.36C223.983 563.064 224.223 561.624 224.223 560.04C224.223 558.472 223.983 557.048 223.503 555.768C223.023 554.472 222.279 553.448 221.271 552.696C220.263 551.928 218.983 551.544 217.431 551.544C215.959 551.544 214.759 551.904 213.831 552.624C212.903 553.328 212.215 554.32 211.767 555.6C211.335 556.864 211.119 558.344 211.119 560.04C211.119 561.72 211.335 563.2 211.767 564.48C212.215 565.76 212.911 566.76 213.855 567.48C214.815 568.184 216.071 568.536 217.623 568.536ZM247.081 573.72C244.489 573.72 242.225 573.136 240.289 571.968C238.353 570.8 236.849 569.192 235.777 567.144C234.721 565.08 234.193 562.712 234.193 560.04C234.193 557.32 234.737 554.936 235.825 552.888C236.913 550.84 238.425 549.24 240.361 548.088C242.297 546.936 244.537 546.36 247.081 546.36C249.689 546.36 251.961 546.944 253.897 548.112C255.833 549.28 257.337 550.896 258.409 552.96C259.481 555.008 260.017 557.368 260.017 560.04C260.017 562.728 259.473 565.104 258.385 567.168C257.313 569.216 255.809 570.824 253.873 571.992C251.937 573.144 249.673 573.72 247.081 573.72ZM247.081 568.296C249.385 568.296 251.097 567.528 252.217 565.992C253.337 564.456 253.897 562.472 253.897 560.04C253.897 557.528 253.329 555.528 252.193 554.04C251.057 552.536 249.353 551.784 247.081 551.784C245.529 551.784 244.249 552.136 243.241 552.84C242.249 553.528 241.513 554.496 241.033 555.744C240.553 556.976 240.313 558.408 240.313 560.04C240.313 562.552 240.881 564.56 242.017 566.064C243.169 567.552 244.857 568.296 247.081 568.296ZM265.257 573L265.305 547.08H271.161V559.56L280.641 547.08H287.865L277.809 560.04L288.729 573H281.073L271.161 560.52V573H265.257ZM313.199 573.72C310.671 573.72 308.551 573.12 306.839 571.92C305.127 570.72 303.839 569.088 302.975 567.024C302.111 564.944 301.679 562.616 301.679 560.04C301.679 557.432 302.111 555.096 302.975 553.032C303.839 550.968 305.103 549.344 306.767 548.16C308.447 546.96 310.519 546.36 312.983 546.36C315.431 546.36 317.551 546.96 319.343 548.16C321.151 549.344 322.551 550.968 323.543 553.032C324.535 555.08 325.031 557.416 325.031 560.04C325.031 562.632 324.543 564.96 323.567 567.024C322.591 569.088 321.215 570.72 319.439 571.92C317.663 573.12 315.583 573.72 313.199 573.72ZM300.695 584.52V547.08H305.807V565.272H306.527V584.52H300.695ZM312.311 568.536C313.815 568.536 315.055 568.16 316.031 567.408C317.007 566.656 317.727 565.64 318.191 564.36C318.671 563.064 318.911 561.624 318.911 560.04C318.911 558.472 318.671 557.048 318.191 555.768C317.711 554.472 316.967 553.448 315.959 552.696C314.951 551.928 313.671 551.544 312.119 551.544C310.647 551.544 309.447 551.904 308.519 552.624C307.591 553.328 306.903 554.32 306.455 555.6C306.023 556.864 305.807 558.344 305.807 560.04C305.807 561.72 306.023 563.2 306.455 564.48C306.903 565.76 307.599 566.76 308.543 567.48C309.503 568.184 310.759 568.536 312.311 568.536ZM342.105 573.72C339.481 573.72 337.177 573.152 335.193 572.016C333.209 570.88 331.657 569.304 330.537 567.288C329.433 565.272 328.881 562.952 328.881 560.328C328.881 557.496 329.425 555.04 330.513 552.96C331.601 550.864 333.113 549.24 335.049 548.088C336.985 546.936 339.225 546.36 341.769 546.36C344.457 546.36 346.737 546.992 348.609 548.256C350.497 549.504 351.897 551.272 352.809 553.56C353.721 555.848 354.065 558.544 353.841 561.648H348.105V559.536C348.089 556.72 347.593 554.664 346.617 553.368C345.641 552.072 344.105 551.424 342.009 551.424C339.641 551.424 337.881 552.16 336.729 553.632C335.577 555.088 335.001 557.224 335.001 560.04C335.001 562.664 335.577 564.696 336.729 566.136C337.881 567.576 339.561 568.296 341.769 568.296C343.193 568.296 344.417 567.984 345.441 567.36C346.481 566.72 347.281 565.8 347.841 564.6L353.553 566.328C352.561 568.664 351.025 570.48 348.945 571.776C346.881 573.072 344.601 573.72 342.105 573.72ZM333.177 561.648V557.28H351.009V561.648H333.177ZM365.975 573.72C364.103 573.72 362.519 573.368 361.223 572.664C359.927 571.944 358.943 570.992 358.271 569.808C357.615 568.624 357.287 567.32 357.287 565.896C357.287 564.648 357.495 563.528 357.911 562.536C358.327 561.528 358.967 560.664 359.831 559.944C360.695 559.208 361.815 558.608 363.191 558.144C364.231 557.808 365.447 557.504 366.839 557.232C368.247 556.96 369.767 556.712 371.399 556.488C373.047 556.248 374.767 555.992 376.559 555.72L374.495 556.896C374.511 555.104 374.111 553.784 373.295 552.936C372.479 552.088 371.103 551.664 369.167 551.664C367.999 551.664 366.871 551.936 365.783 552.48C364.695 553.024 363.935 553.96 363.503 555.288L358.223 553.632C358.863 551.44 360.079 549.68 361.871 548.352C363.679 547.024 366.111 546.36 369.167 546.36C371.471 546.36 373.495 546.736 375.239 547.488C376.999 548.24 378.303 549.472 379.151 551.184C379.615 552.096 379.895 553.032 379.991 553.992C380.087 554.936 380.135 555.968 380.135 557.088V573H375.071V567.384L375.911 568.296C374.743 570.168 373.375 571.544 371.807 572.424C370.255 573.288 368.311 573.72 365.975 573.72ZM367.127 569.112C368.439 569.112 369.559 568.88 370.487 568.416C371.415 567.952 372.151 567.384 372.695 566.712C373.255 566.04 373.631 565.408 373.823 564.816C374.127 564.08 374.295 563.24 374.327 562.296C374.375 561.336 374.399 560.56 374.399 559.968L376.175 560.496C374.431 560.768 372.935 561.008 371.687 561.216C370.439 561.424 369.367 561.624 368.471 561.816C367.575 561.992 366.783 562.192 366.095 562.416C365.423 562.656 364.855 562.936 364.391 563.256C363.927 563.576 363.567 563.944 363.311 564.36C363.071 564.776 362.951 565.264 362.951 565.824C362.951 566.464 363.111 567.032 363.431 567.528C363.751 568.008 364.215 568.392 364.823 568.68C365.447 568.968 366.215 569.112 367.127 569.112ZM383.983 573V568.152C384.927 568.328 385.655 568.312 386.167 568.104C386.679 567.88 387.063 567.464 387.319 566.856C387.575 566.248 387.799 565.44 387.991 564.432C388.247 563.008 388.471 561.368 388.663 559.512C388.871 557.656 389.047 555.672 389.191 553.56C389.351 551.448 389.495 549.288 389.623 547.08H408.703V573H402.943V552.504H394.711C394.631 553.544 394.535 554.712 394.423 556.008C394.311 557.288 394.191 558.584 394.063 559.896C393.935 561.208 393.791 562.456 393.631 563.64C393.487 564.808 393.335 565.808 393.175 566.64C392.807 568.512 392.279 569.992 391.591 571.08C390.919 572.168 389.975 572.864 388.759 573.168C387.543 573.488 385.951 573.432 383.983 573ZM437.91 547.08V573H432.366V556.08L420.03 573H415.398V547.08H420.942V563.568L433.326 547.08H437.91ZM453.865 573.72C451.401 573.72 449.153 573.2 447.121 572.16C445.089 571.12 443.489 569.696 442.321 567.888L446.881 564.84C447.809 565.944 448.841 566.8 449.977 567.408C451.113 568 452.377 568.296 453.769 568.296C455.225 568.296 456.369 567.976 457.201 567.336C458.033 566.696 458.449 565.84 458.449 564.768C458.449 563.824 458.169 563.16 457.609 562.776C457.049 562.376 456.313 562.136 455.401 562.056C454.489 561.976 453.513 561.936 452.473 561.936H450.553V557.352H452.449C453.905 557.352 455.121 557.184 456.097 556.848C457.089 556.512 457.585 555.768 457.585 554.616C457.585 553.576 457.201 552.84 456.433 552.408C455.665 551.96 454.769 551.736 453.745 551.736C452.497 551.736 451.265 552 450.049 552.528C448.833 553.056 447.745 553.696 446.785 554.448L443.521 550.512C444.961 549.232 446.569 548.224 448.345 547.488C450.121 546.736 452.017 546.36 454.033 546.36C455.697 546.36 457.249 546.648 458.689 547.224C460.145 547.8 461.313 548.664 462.193 549.816C463.089 550.968 463.537 552.392 463.537 554.088C463.537 555.304 463.273 556.448 462.745 557.52C462.233 558.592 461.409 559.608 460.273 560.568L460.201 558.696C461.081 559.064 461.825 559.576 462.433 560.232C463.057 560.888 463.529 561.656 463.849 562.536C464.185 563.416 464.353 564.352 464.353 565.344C464.353 567.152 463.873 568.68 462.913 569.928C461.953 571.176 460.673 572.12 459.073 572.76C457.489 573.4 455.753 573.72 453.865 573.72ZM476.881 573.72C475.009 573.72 473.425 573.368 472.129 572.664C470.833 571.944 469.849 570.992 469.177 569.808C468.521 568.624 468.193 567.32 468.193 565.896C468.193 564.648 468.401 563.528 468.817 562.536C469.233 561.528 469.873 560.664 470.737 559.944C471.601 559.208 472.721 558.608 474.097 558.144C475.137 557.808 476.353 557.504 477.745 557.232C479.153 556.96 480.673 556.712 482.305 556.488C483.953 556.248 485.673 555.992 487.465 555.72L485.401 556.896C485.417 555.104 485.017 553.784 484.201 552.936C483.385 552.088 482.009 551.664 480.073 551.664C478.905 551.664 477.777 551.936 476.689 552.48C475.601 553.024 474.841 553.96 474.409 555.288L469.129 553.632C469.769 551.44 470.985 549.68 472.777 548.352C474.585 547.024 477.017 546.36 480.073 546.36C482.377 546.36 484.401 546.736 486.145 547.488C487.905 548.24 489.209 549.472 490.057 551.184C490.521 552.096 490.801 553.032 490.897 553.992C490.993 554.936 491.041 555.968 491.041 557.088V573H485.977V567.384L486.817 568.296C485.649 570.168 484.281 571.544 482.713 572.424C481.161 573.288 479.217 573.72 476.881 573.72ZM478.033 569.112C479.345 569.112 480.465 568.88 481.393 568.416C482.321 567.952 483.057 567.384 483.601 566.712C484.161 566.04 484.537 565.408 484.729 564.816C485.033 564.08 485.201 563.24 485.233 562.296C485.281 561.336 485.305 560.56 485.305 559.968L487.081 560.496C485.337 560.768 483.841 561.008 482.593 561.216C481.345 561.424 480.273 561.624 479.377 561.816C478.481 561.992 477.689 562.192 477.001 562.416C476.329 562.656 475.761 562.936 475.297 563.256C474.833 563.576 474.473 563.944 474.217 564.36C473.977 564.776 473.857 565.264 473.857 565.824C473.857 566.464 474.017 567.032 474.337 567.528C474.657 568.008 475.121 568.392 475.729 568.68C476.353 568.968 477.121 569.112 478.033 569.112ZM518.986 578.448V573H497.242V547.08H503.026V567.576H513.97V547.08H519.754V567.864H524.77V578.448H518.986ZM551.066 547.08V573H545.522V556.08L533.186 573H528.554V547.08H534.098V563.568L546.482 547.08H551.066ZM580.269 547.08V573H574.725V556.08L562.389 573H557.757V547.08H563.301V563.568L575.685 547.08H580.269Z" fill="#23374F"></path></svg> 