<?xml version="1.0" encoding="UTF-8"?> <svg xmlns="http://www.w3.org/2000/svg" width="640" height="1118" viewBox="0 0 640 1118" fill="none"><rect width="640" height="1118" fill="#FBF5EE"></rect><path d="M54.368 100.96C50.976 100.96 47.9253 100.416 45.216 99.328C42.528 98.2187 40.2453 96.576 38.368 94.4C36.512 92.224 35.136 89.536 34.24 86.336L40.8 84.672C41.7173 87.68 43.328 90.1013 45.632 91.936C47.9573 93.7493 50.7413 94.6347 53.984 94.592C56.224 94.5493 58.336 94.1227 60.32 93.312C62.304 92.48 63.936 91.2 65.216 89.472C66.304 88.064 67.0827 86.5707 67.552 84.992C68.0427 83.4133 68.3627 81.7813 68.512 80.096H52V73.792H68.544C68.2453 70.912 67.488 68.384 66.272 66.208C65.0773 64.032 63.4453 62.336 61.376 61.12C59.328 59.8827 56.864 59.2853 53.984 59.328C50.5707 59.3707 47.7013 60.3307 45.376 62.208C43.0507 64.064 41.4827 66.5813 40.672 69.76L33.92 68.8C35.072 63.7653 37.4293 59.872 40.992 57.12C44.576 54.3467 49.0347 52.96 54.368 52.96C58.848 52.96 62.6773 53.9733 65.856 56C69.0347 58.0053 71.4667 60.8107 73.152 64.416C74.8587 68 75.7333 72.1813 75.776 76.96C75.8187 81.44 74.9973 85.4933 73.312 89.12C71.648 92.7467 69.2053 95.6267 65.984 97.76C62.784 99.8933 58.912 100.96 54.368 100.96ZM92.4055 100V60.224H77.0775V53.92H114.422V60.224H99.0935V100H92.4055ZM115.093 100L130.069 53.92H139.701L154.677 100H147.733L133.941 57.952H135.669L122.036 100H115.093ZM122.869 89.6V83.328H146.933V89.6H122.869ZM160.418 100V53.92H197.058V100H190.37V60.224H167.106V100H160.418ZM206.011 100V53.92H212.699V70.464H224.635C225.061 70.464 225.605 70.4853 226.267 70.528C226.949 70.5493 227.579 70.6133 228.155 70.72C230.715 71.1253 232.848 72 234.555 73.344C236.283 74.688 237.573 76.384 238.427 78.432C239.301 80.48 239.739 82.752 239.739 85.248C239.739 87.7227 239.312 89.984 238.458 92.032C237.605 94.08 236.315 95.776 234.587 97.12C232.88 98.464 230.736 99.3387 228.155 99.744C227.579 99.8293 226.96 99.8933 226.299 99.936C225.637 99.9787 225.083 100 224.635 100H206.011ZM212.699 93.696H224.379C224.784 93.696 225.243 93.6747 225.755 93.632C226.288 93.5893 226.789 93.504 227.259 93.376C228.645 93.056 229.744 92.4693 230.555 91.616C231.387 90.7413 231.984 89.7493 232.347 88.64C232.731 87.5093 232.923 86.3787 232.923 85.248C232.923 84.1173 232.731 82.9867 232.347 81.856C231.984 80.7253 231.387 79.7333 230.555 78.88C229.744 78.0053 228.645 77.408 227.259 77.088C226.789 76.96 226.288 76.8853 225.755 76.864C225.243 76.8213 224.784 76.8 224.379 76.8H212.699V93.696ZM244.283 100V53.92H250.971V100H244.283ZM272.793 100V53.92H291.417C291.865 53.92 292.419 53.9413 293.081 53.984C293.742 54.0053 294.371 54.0693 294.969 54.176C297.529 54.5813 299.662 55.456 301.368 56.8C303.097 58.144 304.387 59.84 305.241 61.888C306.094 63.936 306.521 66.1973 306.521 68.672C306.521 71.168 306.094 73.44 305.241 75.488C304.387 77.536 303.097 79.232 301.368 80.576C299.662 81.92 297.529 82.7947 294.969 83.2C294.371 83.2853 293.731 83.3493 293.049 83.392C292.387 83.4347 291.843 83.456 291.417 83.456H279.481V100H272.793ZM279.481 77.12H291.161C291.587 77.12 292.057 77.0987 292.569 77.056C293.102 77.0133 293.603 76.9387 294.073 76.832C295.438 76.512 296.537 75.9253 297.369 75.072C298.201 74.1973 298.798 73.1947 299.161 72.064C299.523 70.9333 299.705 69.8027 299.705 68.672C299.705 67.5413 299.523 66.4213 299.161 65.312C298.798 64.1813 298.201 63.1893 297.369 62.336C296.537 61.4613 295.438 60.864 294.073 60.544C293.603 60.416 293.102 60.3307 292.569 60.288C292.057 60.2453 291.587 60.224 291.161 60.224H279.481V77.12ZM307.155 100L322.131 53.92H331.763L346.739 100H339.795L326.003 57.952H327.731L314.099 100H307.155ZM314.931 89.6V83.328H338.995V89.6H314.931ZM352.48 100V53.92H382.528V60.224H359.168V71.328H371.104C371.531 71.328 372.075 71.3493 372.736 71.392C373.419 71.4133 374.059 71.4667 374.656 71.552C377.152 71.8507 379.253 72.6613 380.96 73.984C382.688 75.3067 383.989 76.9813 384.864 79.008C385.76 81.0347 386.208 83.2533 386.208 85.664C386.208 88.0747 385.771 90.2933 384.896 92.32C384.021 94.3467 382.72 96.0213 380.992 97.344C379.285 98.6667 377.173 99.4773 374.656 99.776C374.059 99.8613 373.429 99.9253 372.768 99.968C372.107 99.9893 371.552 100 371.104 100H352.48ZM359.168 93.696H370.848C371.275 93.696 371.744 93.6747 372.256 93.632C372.789 93.5893 373.291 93.5253 373.76 93.44C375.829 93.0133 377.28 92.032 378.112 90.496C378.965 88.96 379.392 87.3493 379.392 85.664C379.392 83.9573 378.965 82.3467 378.112 80.832C377.28 79.296 375.829 78.3147 373.76 77.888C373.291 77.7813 372.789 77.7173 372.256 77.696C371.744 77.6533 371.275 77.632 370.848 77.632H359.168V93.696ZM411.837 100.96C407.229 100.96 403.304 99.9573 400.061 97.952C396.818 95.9253 394.333 93.1093 392.605 89.504C390.898 85.8987 390.045 81.7173 390.045 76.96C390.045 72.2027 390.898 68.0213 392.605 64.416C394.333 60.8107 396.818 58.0053 400.061 56C403.304 53.9733 407.229 52.96 411.837 52.96C416.424 52.96 420.338 53.9733 423.581 56C426.845 58.0053 429.33 60.8107 431.037 64.416C432.744 68.0213 433.597 72.2027 433.597 76.96C433.597 81.7173 432.744 85.8987 431.037 89.504C429.33 93.1093 426.845 95.9253 423.581 97.952C420.338 99.9573 416.424 100.96 411.837 100.96ZM411.837 94.592C415.101 94.6347 417.81 93.92 419.965 92.448C422.141 90.9547 423.773 88.8853 424.861 86.24C425.949 83.5733 426.493 80.48 426.493 76.96C426.493 73.44 425.949 70.368 424.861 67.744C423.773 65.0987 422.141 63.04 419.965 61.568C417.81 60.096 415.101 59.3493 411.837 59.328C408.573 59.2853 405.853 60 403.677 61.472C401.522 62.944 399.901 65.0133 398.813 67.68C397.725 70.3467 397.17 73.44 397.149 76.96C397.128 80.48 397.661 83.5627 398.749 86.208C399.837 88.832 401.469 90.88 403.645 92.352C405.842 93.824 408.573 94.5707 411.837 94.592ZM450.218 100V60.224H434.89V53.92H472.234V60.224H456.906V100H450.218ZM477.323 100V53.92H484.011V70.464H495.947C496.374 70.464 496.918 70.4853 497.579 70.528C498.262 70.5493 498.891 70.6133 499.467 70.72C502.027 71.1253 504.16 72 505.867 73.344C507.595 74.688 508.886 76.384 509.739 78.432C510.614 80.48 511.051 82.752 511.051 85.248C511.051 87.7227 510.624 89.984 509.771 92.032C508.918 94.08 507.627 95.776 505.899 97.12C504.192 98.464 502.048 99.3387 499.467 99.744C498.891 99.8293 498.272 99.8933 497.611 99.936C496.95 99.9787 496.395 100 495.947 100H477.323ZM484.011 93.696H495.691C496.096 93.696 496.555 93.6747 497.067 93.632C497.6 93.5893 498.102 93.504 498.571 93.376C499.958 93.056 501.056 92.4693 501.867 91.616C502.699 90.7413 503.296 89.7493 503.659 88.64C504.043 87.5093 504.235 86.3787 504.235 85.248C504.235 84.1173 504.043 82.9867 503.659 81.856C503.296 80.7253 502.699 79.7333 501.867 78.88C501.056 78.0053 499.958 77.408 498.571 77.088C498.102 76.96 497.6 76.8853 497.067 76.864C496.555 76.8213 496.096 76.8 495.691 76.8H484.011V93.696ZM515.595 100V53.92H522.283V100H515.595ZM36.48 187V140.92H73.12V187H66.432V147.224H43.168V187H36.48ZM101.337 187.96C96.729 187.96 92.8037 186.957 89.561 184.952C86.3183 182.925 83.833 180.109 82.105 176.504C80.3983 172.899 79.545 168.717 79.545 163.96C79.545 159.203 80.3983 155.021 82.105 151.416C83.833 147.811 86.3183 145.005 89.561 143C92.8037 140.973 96.729 139.96 101.337 139.96C105.924 139.96 109.838 140.973 113.081 143C116.345 145.005 118.83 147.811 120.537 151.416C122.244 155.021 123.097 159.203 123.097 163.96C123.097 168.717 122.244 172.899 120.537 176.504C118.83 180.109 116.345 182.925 113.081 184.952C109.838 186.957 105.924 187.96 101.337 187.96ZM101.337 181.592C104.601 181.635 107.31 180.92 109.465 179.448C111.641 177.955 113.273 175.885 114.361 173.24C115.449 170.573 115.993 167.48 115.993 163.96C115.993 160.44 115.449 157.368 114.361 154.744C113.273 152.099 111.641 150.04 109.465 148.568C107.31 147.096 104.601 146.349 101.337 146.328C98.073 146.285 95.353 147 93.177 148.472C91.0223 149.944 89.401 152.013 88.313 154.68C87.225 157.347 86.6703 160.44 86.649 163.96C86.6277 167.48 87.161 170.563 88.249 173.208C89.337 175.832 90.969 177.88 93.145 179.352C95.3423 180.824 98.073 181.571 101.337 181.592ZM148.712 187.96C144.104 187.96 140.179 186.957 136.936 184.952C133.693 182.925 131.208 180.109 129.48 176.504C127.773 172.899 126.92 168.717 126.92 163.96C126.92 159.203 127.773 155.021 129.48 151.416C131.208 147.811 133.693 145.005 136.936 143C140.179 140.973 144.104 139.96 148.712 139.96C154.024 139.96 158.419 141.304 161.896 143.992C165.395 146.68 167.827 150.296 169.192 154.84L162.408 156.664C161.512 153.443 159.912 150.915 157.608 149.08C155.325 147.245 152.36 146.328 148.712 146.328C145.448 146.328 142.728 147.064 140.552 148.536C138.376 150.008 136.733 152.067 135.624 154.712C134.536 157.357 133.992 160.44 133.992 163.96C133.971 167.48 134.504 170.563 135.592 173.208C136.701 175.853 138.344 177.912 140.52 179.384C142.717 180.856 145.448 181.592 148.712 181.592C152.36 181.592 155.325 180.675 157.608 178.84C159.912 176.984 161.512 174.456 162.408 171.256L169.192 173.08C167.827 177.624 165.395 181.24 161.896 183.928C158.419 186.616 154.024 187.96 148.712 187.96ZM171.78 187V181.272C172.868 181.379 173.764 181.325 174.468 181.112C175.193 180.877 175.801 180.429 176.292 179.768C176.783 179.085 177.199 178.104 177.54 176.824C177.903 175.544 178.255 173.891 178.596 171.864C179.065 169.283 179.46 166.627 179.78 163.896C180.1 161.165 180.367 158.456 180.58 155.768C180.815 153.059 181.007 150.445 181.156 147.928C181.305 145.411 181.423 143.075 181.508 140.92H211.748V187H205.06V147.224H187.78C187.673 148.931 187.545 150.84 187.396 152.952C187.247 155.064 187.065 157.304 186.852 159.672C186.639 162.04 186.372 164.483 186.052 167C185.753 169.517 185.369 172.045 184.9 174.584C184.516 176.76 184.047 178.723 183.492 180.472C182.937 182.221 182.191 183.683 181.252 184.856C180.313 186.008 179.087 186.776 177.572 187.16C176.057 187.565 174.127 187.512 171.78 187ZM220.73 187V140.92H250.17V147.224H227.418V160.152H246.33V166.456H227.418V180.696H250.17V187H220.73ZM72.736 274H65.952V239.728L43.264 274H36.48V227.92H43.264V262.16L65.952 227.92H72.736V274ZM81.6675 274V227.92H88.3555V247.792H111.396V227.92H118.116V274H111.396V254.096H88.3555V274H81.6675ZM127.105 274V227.92H145.217C148.14 227.92 150.593 228.517 152.577 229.712C154.561 230.907 156.054 232.453 157.057 234.352C158.06 236.229 158.561 238.213 158.561 240.304C158.561 242.843 157.932 245.019 156.673 246.832C155.436 248.645 153.761 249.883 151.649 250.544L151.585 248.976C154.529 249.701 156.79 251.12 158.369 253.232C159.948 255.323 160.737 257.765 160.737 260.56C160.737 263.269 160.193 265.627 159.105 267.632C158.038 269.637 156.47 271.205 154.401 272.336C152.353 273.445 149.868 274 146.945 274H127.105ZM133.889 267.632H145.921C147.436 267.632 148.79 267.344 149.985 266.768C151.201 266.192 152.15 265.371 152.833 264.304C153.537 263.216 153.889 261.925 153.889 260.432C153.889 259.045 153.58 257.797 152.961 256.688C152.364 255.557 151.489 254.672 150.337 254.032C149.206 253.371 147.873 253.04 146.337 253.04H133.889V267.632ZM133.889 246.736H145.121C146.358 246.736 147.468 246.491 148.449 246C149.452 245.488 150.241 244.763 150.817 243.824C151.414 242.864 151.713 241.712 151.713 240.368C151.713 238.576 151.116 237.104 149.921 235.952C148.726 234.8 147.126 234.224 145.121 234.224H133.889V246.736ZM167.105 274V227.92H196.545V234.224H173.793V247.152H192.705V253.456H173.793V267.696H196.545V274H167.105ZM221.525 274.96C216.917 274.96 212.991 273.957 209.749 271.952C206.506 269.925 204.021 267.109 202.293 263.504C200.586 259.899 199.733 255.717 199.733 250.96C199.733 246.203 200.586 242.021 202.293 238.416C204.021 234.811 206.506 232.005 209.749 230C212.991 227.973 216.917 226.96 221.525 226.96C226.837 226.96 231.231 228.304 234.708 230.992C238.207 233.68 240.639 237.296 242.005 241.84L235.221 243.664C234.325 240.443 232.725 237.915 230.421 236.08C228.138 234.245 225.173 233.328 221.525 233.328C218.261 233.328 215.541 234.064 213.365 235.536C211.189 237.008 209.546 239.067 208.437 241.712C207.349 244.357 206.805 247.44 206.805 250.96C206.783 254.48 207.317 257.563 208.405 260.208C209.514 262.853 211.157 264.912 213.333 266.384C215.53 267.856 218.261 268.592 221.525 268.592C225.173 268.592 228.138 267.675 230.421 265.84C232.725 263.984 234.325 261.456 235.221 258.256L242.005 260.08C240.639 264.624 238.207 268.24 234.708 270.928C231.231 273.616 226.837 274.96 221.525 274.96ZM260.531 274V234.224H245.203V227.92H282.547V234.224H267.219V274H260.531ZM323.924 274H317.14V239.728L294.452 274H287.668V227.92H294.452V262.16L317.14 227.92H323.924V274ZM332.855 274V227.92H351.479C351.927 227.92 352.482 227.941 353.143 227.984C353.804 228.005 354.434 228.069 355.031 228.176C357.591 228.581 359.724 229.456 361.431 230.8C363.159 232.144 364.45 233.84 365.303 235.888C366.156 237.936 366.583 240.197 366.583 242.672C366.583 245.168 366.156 247.44 365.303 249.488C364.45 251.536 363.159 253.232 361.431 254.576C359.724 255.92 357.591 256.795 355.031 257.2C354.434 257.285 353.794 257.349 353.111 257.392C352.45 257.435 351.906 257.456 351.479 257.456H339.543V274H332.855ZM339.543 251.12H351.223C351.65 251.12 352.119 251.099 352.631 251.056C353.164 251.013 353.666 250.939 354.135 250.832C355.5 250.512 356.599 249.925 357.431 249.072C358.263 248.197 358.86 247.195 359.223 246.064C359.586 244.933 359.767 243.803 359.767 242.672C359.767 241.541 359.586 240.421 359.223 239.312C358.86 238.181 358.263 237.189 357.431 236.336C356.599 235.461 355.5 234.864 354.135 234.544C353.666 234.416 353.164 234.331 352.631 234.288C352.119 234.245 351.65 234.224 351.223 234.224H339.543V251.12ZM392.212 274.96C387.604 274.96 383.679 273.957 380.436 271.952C377.193 269.925 374.708 267.109 372.98 263.504C371.273 259.899 370.42 255.717 370.42 250.96C370.42 246.203 371.273 242.021 372.98 238.416C374.708 234.811 377.193 232.005 380.436 230C383.679 227.973 387.604 226.96 392.212 226.96C396.799 226.96 400.713 227.973 403.956 230C407.22 232.005 409.705 234.811 411.412 238.416C413.119 242.021 413.972 246.203 413.972 250.96C413.972 255.717 413.119 259.899 411.412 263.504C409.705 267.109 407.22 269.925 403.956 271.952C400.713 273.957 396.799 274.96 392.212 274.96ZM392.212 268.592C395.476 268.635 398.185 267.92 400.34 266.448C402.516 264.955 404.148 262.885 405.236 260.24C406.324 257.573 406.868 254.48 406.868 250.96C406.868 247.44 406.324 244.368 405.236 241.744C404.148 239.099 402.516 237.04 400.34 235.568C398.185 234.096 395.476 233.349 392.212 233.328C388.948 233.285 386.228 234 384.052 235.472C381.897 236.944 380.276 239.013 379.188 241.68C378.1 244.347 377.545 247.44 377.524 250.96C377.503 254.48 378.036 257.563 379.124 260.208C380.212 262.832 381.844 264.88 384.02 266.352C386.217 267.824 388.948 268.571 392.212 268.592ZM420.355 274V227.92H438.467C441.39 227.92 443.843 228.517 445.827 229.712C447.811 230.907 449.304 232.453 450.307 234.352C451.31 236.229 451.811 238.213 451.811 240.304C451.811 242.843 451.182 245.019 449.923 246.832C448.686 248.645 447.011 249.883 444.899 250.544L444.835 248.976C447.779 249.701 450.04 251.12 451.619 253.232C453.198 255.323 453.987 257.765 453.987 260.56C453.987 263.269 453.443 265.627 452.355 267.632C451.288 269.637 449.72 271.205 447.651 272.336C445.603 273.445 443.118 274 440.195 274H420.355ZM427.139 267.632H439.171C440.686 267.632 442.04 267.344 443.235 266.768C444.451 266.192 445.4 265.371 446.083 264.304C446.787 263.216 447.139 261.925 447.139 260.432C447.139 259.045 446.83 257.797 446.211 256.688C445.614 255.557 444.739 254.672 443.587 254.032C442.456 253.371 441.123 253.04 439.587 253.04H427.139V267.632ZM427.139 246.736H438.371C439.608 246.736 440.718 246.491 441.699 246C442.702 245.488 443.491 244.763 444.067 243.824C444.664 242.864 444.963 241.712 444.963 240.368C444.963 238.576 444.366 237.104 443.171 235.952C441.976 234.8 440.376 234.224 438.371 234.224H427.139V246.736ZM457.155 274L472.131 227.92H481.763L496.739 274H489.795L476.003 231.952H477.731L464.099 274H457.155ZM464.931 263.6V257.328H488.995V263.6H464.931ZM502.48 274V227.92H509.168V247.792H532.208V227.92H538.928V274H532.208V254.096H509.168V274H502.48ZM584.174 274H577.39V239.728L554.702 274H547.918V227.92H554.702V262.16L577.39 227.92H584.174V274ZM625.777 274H619.057V257.456H606.033L603.313 257.136C599.558 256.475 596.742 254.821 594.865 252.176C592.988 249.509 592.049 246.341 592.049 242.672C592.049 240.197 592.476 237.936 593.329 235.888C594.182 233.84 595.462 232.144 597.169 230.8C598.876 229.456 601.02 228.581 603.601 228.176C604.198 228.069 604.828 228.005 605.489 227.984C606.15 227.941 606.705 227.92 607.153 227.92H625.777V274ZM598.833 274H591.185L601.169 253.52L607.921 255.248L598.833 274ZM619.057 251.12V234.224H607.409C606.982 234.224 606.502 234.245 605.969 234.288C605.457 234.331 604.966 234.416 604.497 234.544C603.132 234.864 602.033 235.461 601.201 236.336C600.369 237.189 599.761 238.181 599.377 239.312C599.014 240.421 598.833 241.541 598.833 242.672C598.833 243.803 599.014 244.933 599.377 246.064C599.761 247.195 600.369 248.197 601.201 249.072C602.033 249.925 603.132 250.512 604.497 250.832C604.966 250.939 605.457 251.013 605.969 251.056C606.502 251.099 606.982 251.12 607.409 251.12H619.057Z" fill="#23374F"></path><rect x="65" y="382" width="7" height="618" fill="#23374F"></rect><circle cx="69" cy="419" r="44.5" fill="#FBF5EE" stroke="#23374F" stroke-width="3"></circle><path d="M67.512 444V405.28L58.84 410.56V403.104L67.512 397.92H74.328V444H67.512Z" fill="#23374F"></path><path d="M145.36 437V402.44H172.336V437H168.064V406.496H149.632V437H145.36ZM190.103 437.72C187.527 437.72 185.303 437.136 183.431 435.968C181.575 434.8 180.143 433.184 179.135 431.12C178.127 429.056 177.623 426.688 177.623 424.016C177.623 421.296 178.135 418.912 179.159 416.864C180.183 414.816 181.631 413.224 183.503 412.088C185.375 410.936 187.575 410.36 190.103 410.36C192.695 410.36 194.927 410.944 196.799 412.112C198.671 413.264 200.103 414.872 201.095 416.936C202.103 418.984 202.607 421.344 202.607 424.016C202.607 426.72 202.103 429.104 201.095 431.168C200.087 433.216 198.647 434.824 196.775 435.992C194.903 437.144 192.679 437.72 190.103 437.72ZM190.103 433.664C192.791 433.664 194.791 432.768 196.103 430.976C197.415 429.184 198.071 426.864 198.071 424.016C198.071 421.088 197.407 418.76 196.079 417.032C194.751 415.288 192.759 414.416 190.103 414.416C188.295 414.416 186.807 414.824 185.639 415.64C184.471 416.456 183.599 417.584 183.023 419.024C182.447 420.464 182.159 422.128 182.159 424.016C182.159 426.928 182.831 429.264 184.175 431.024C185.519 432.784 187.495 433.664 190.103 433.664ZM207.867 437L207.891 411.08H212.211V423.56L223.083 411.08H228.627L217.179 424.04L229.971 437H223.995L212.211 424.52V437H207.867ZM235.96 448.52L240.976 434.888L241.048 438.92L229.72 411.08H234.208L243.088 433.472H241.552L249.88 411.08H254.224L240.112 448.52H235.96ZM258.164 437V411.08H279.404V437H275.132V415.136H262.436V437H258.164ZM286.102 437L286.126 411.08H290.446V423.56L301.318 411.08H306.862L295.414 424.04L308.206 437H302.23L290.446 424.52V437H286.102ZM317.962 437.72C316.026 437.72 314.402 437.368 313.09 436.664C311.794 435.944 310.81 435 310.138 433.832C309.482 432.664 309.154 431.384 309.154 429.992C309.154 428.632 309.41 427.456 309.922 426.464C310.45 425.456 311.186 424.624 312.13 423.968C313.074 423.296 314.202 422.768 315.514 422.384C316.746 422.048 318.122 421.76 319.642 421.52C321.178 421.264 322.73 421.032 324.298 420.824C325.866 420.616 327.33 420.416 328.69 420.224L327.154 421.112C327.202 418.808 326.738 417.104 325.762 416C324.802 414.896 323.138 414.344 320.77 414.344C319.202 414.344 317.826 414.704 316.642 415.424C315.474 416.128 314.65 417.28 314.17 418.88L310.114 417.656C310.738 415.384 311.946 413.6 313.738 412.304C315.53 411.008 317.89 410.36 320.818 410.36C323.17 410.36 325.186 410.784 326.866 411.632C328.562 412.464 329.778 413.728 330.514 415.424C330.882 416.224 331.114 417.096 331.21 418.04C331.306 418.968 331.354 419.944 331.354 420.968V437H327.562V430.784L328.45 431.36C327.474 433.456 326.106 435.04 324.346 436.112C322.602 437.184 320.474 437.72 317.962 437.72ZM318.61 434.144C320.146 434.144 321.474 433.872 322.594 433.328C323.73 432.768 324.642 432.04 325.33 431.144C326.018 430.232 326.466 429.24 326.674 428.168C326.914 427.368 327.042 426.48 327.058 425.504C327.09 424.512 327.106 423.752 327.106 423.224L328.594 423.872C327.202 424.064 325.834 424.248 324.49 424.424C323.146 424.6 321.874 424.792 320.674 425C319.474 425.192 318.394 425.424 317.434 425.696C316.73 425.92 316.066 426.208 315.442 426.56C314.834 426.912 314.338 427.368 313.954 427.928C313.586 428.472 313.402 429.152 313.402 429.968C313.402 430.672 313.578 431.344 313.93 431.984C314.298 432.624 314.858 433.144 315.61 433.544C316.378 433.944 317.378 434.144 318.61 434.144ZM358.244 437.72C355.668 437.72 353.444 437.136 351.572 435.968C349.716 434.8 348.284 433.184 347.276 431.12C346.268 429.056 345.764 426.688 345.764 424.016C345.764 421.296 346.276 418.912 347.3 416.864C348.324 414.816 349.772 413.224 351.644 412.088C353.516 410.936 355.716 410.36 358.244 410.36C360.836 410.36 363.068 410.944 364.94 412.112C366.812 413.264 368.244 414.872 369.236 416.936C370.244 418.984 370.748 421.344 370.748 424.016C370.748 426.72 370.244 429.104 369.236 431.168C368.228 433.216 366.788 434.824 364.916 435.992C363.044 437.144 360.82 437.72 358.244 437.72ZM358.244 433.664C360.932 433.664 362.932 432.768 364.244 430.976C365.556 429.184 366.212 426.864 366.212 424.016C366.212 421.088 365.548 418.76 364.22 417.032C362.892 415.288 360.9 414.416 358.244 414.416C356.436 414.416 354.948 414.824 353.78 415.64C352.612 416.456 351.74 417.584 351.164 419.024C350.588 420.464 350.3 422.128 350.3 424.016C350.3 426.928 350.972 429.264 352.316 431.024C353.66 432.784 355.636 433.664 358.244 433.664ZM386.568 437.744C384.12 437.728 382.032 437.2 380.304 436.16C378.576 435.104 377.232 433.56 376.272 431.528C375.312 429.496 374.776 427.008 374.664 424.064C374.6 422.704 374.616 421.208 374.712 419.576C374.824 417.944 375 416.376 375.24 414.872C375.496 413.368 375.816 412.128 376.2 411.152C376.632 409.984 377.24 408.904 378.024 407.912C378.824 406.904 379.72 406.072 380.712 405.416C381.72 404.728 382.848 404.192 384.096 403.808C385.344 403.424 386.648 403.128 388.008 402.92C389.384 402.696 390.76 402.504 392.136 402.344C393.512 402.168 394.824 401.96 396.072 401.72L396.504 405.56C395.624 405.752 394.584 405.92 393.384 406.064C392.184 406.192 390.936 406.344 389.64 406.52C388.36 406.696 387.128 406.944 385.944 407.264C384.776 407.568 383.768 407.992 382.92 408.536C381.672 409.288 380.712 410.416 380.04 411.92C379.384 413.408 378.984 415.08 378.84 416.936C379.832 415.4 381.12 414.272 382.704 413.552C384.288 412.832 385.976 412.472 387.768 412.472C390.088 412.472 392.088 413.016 393.768 414.104C395.448 415.176 396.736 416.656 397.632 418.544C398.544 420.432 399 422.584 399 425C399 427.56 398.488 429.8 397.464 431.72C396.44 433.64 394.992 435.128 393.12 436.184C391.264 437.24 389.08 437.76 386.568 437.744ZM386.832 433.688C389.344 433.688 391.248 432.912 392.544 431.36C393.84 429.792 394.488 427.712 394.488 425.12C394.488 422.464 393.816 420.376 392.472 418.856C391.128 417.32 389.24 416.552 386.808 416.552C384.344 416.552 382.456 417.32 381.144 418.856C379.848 420.376 379.2 422.464 379.2 425.12C379.2 427.792 379.856 429.888 381.168 431.408C382.48 432.928 384.368 433.688 386.832 433.688ZM405.522 437L405.498 414.608H401.898V411.08H409.794V420.464H415.386C416.138 420.464 416.906 420.48 417.69 420.512C418.474 420.544 419.154 420.616 419.73 420.728C421.074 420.984 422.25 421.432 423.258 422.072C424.266 422.712 425.05 423.584 425.609 424.688C426.17 425.776 426.45 427.128 426.45 428.744C426.45 430.984 425.866 432.76 424.698 434.072C423.546 435.368 422.034 436.232 420.162 436.664C419.522 436.808 418.786 436.904 417.954 436.952C417.138 436.984 416.362 437 415.626 437H405.522ZM409.794 433.472H415.698C416.178 433.472 416.714 433.456 417.306 433.424C417.898 433.392 418.426 433.312 418.89 433.184C419.706 432.944 420.434 432.472 421.074 431.768C421.73 431.064 422.058 430.056 422.058 428.744C422.058 427.416 421.738 426.392 421.098 425.672C420.474 424.952 419.65 424.48 418.626 424.256C418.162 424.144 417.674 424.072 417.162 424.04C416.65 424.008 416.162 423.992 415.698 423.992H409.794V433.472ZM442.951 437.72C440.407 437.72 438.183 437.16 436.279 436.04C434.391 434.904 432.919 433.328 431.863 431.312C430.807 429.28 430.279 426.912 430.279 424.208C430.279 421.376 430.799 418.928 431.839 416.864C432.879 414.784 434.327 413.184 436.183 412.064C438.055 410.928 440.247 410.36 442.759 410.36C445.367 410.36 447.583 410.96 449.407 412.16C451.247 413.36 452.623 415.072 453.535 417.296C454.463 419.52 454.863 422.168 454.735 425.24H450.415V423.704C450.367 420.52 449.719 418.144 448.471 416.576C447.223 414.992 445.367 414.2 442.903 414.2C440.263 414.2 438.255 415.048 436.879 416.744C435.503 418.44 434.815 420.872 434.815 424.04C434.815 427.096 435.503 429.464 436.879 431.144C438.255 432.824 440.215 433.664 442.759 433.664C444.471 433.664 445.959 433.272 447.223 432.488C448.487 431.704 449.479 430.576 450.199 429.104L454.303 430.52C453.295 432.808 451.775 434.584 449.743 435.848C447.727 437.096 445.463 437.72 442.951 437.72ZM433.375 425.24V421.808H452.527V425.24H433.375ZM460.055 437L460.079 411.08H464.399V423.56L475.271 411.08H480.815L469.367 424.04L482.159 437H476.183L464.399 424.52V437H460.055ZM491.412 437V414.968H482.388V411.08H504.708V414.968H495.684V437H491.412ZM515.775 437.72C513.839 437.72 512.215 437.368 510.903 436.664C509.607 435.944 508.623 435 507.951 433.832C507.295 432.664 506.967 431.384 506.967 429.992C506.967 428.632 507.223 427.456 507.735 426.464C508.263 425.456 508.999 424.624 509.943 423.968C510.887 423.296 512.015 422.768 513.327 422.384C514.559 422.048 515.935 421.76 517.455 421.52C518.991 421.264 520.543 421.032 522.111 420.824C523.679 420.616 525.143 420.416 526.503 420.224L524.967 421.112C525.015 418.808 524.551 417.104 523.575 416C522.615 414.896 520.951 414.344 518.583 414.344C517.015 414.344 515.639 414.704 514.455 415.424C513.287 416.128 512.463 417.28 511.983 418.88L507.927 417.656C508.551 415.384 509.759 413.6 511.551 412.304C513.343 411.008 515.703 410.36 518.631 410.36C520.983 410.36 522.999 410.784 524.679 411.632C526.375 412.464 527.591 413.728 528.327 415.424C528.695 416.224 528.927 417.096 529.023 418.04C529.119 418.968 529.167 419.944 529.167 420.968V437H525.375V430.784L526.263 431.36C525.287 433.456 523.919 435.04 522.159 436.112C520.415 437.184 518.287 437.72 515.775 437.72ZM516.423 434.144C517.959 434.144 519.287 433.872 520.407 433.328C521.543 432.768 522.455 432.04 523.143 431.144C523.831 430.232 524.279 429.24 524.487 428.168C524.727 427.368 524.855 426.48 524.871 425.504C524.903 424.512 524.919 423.752 524.919 423.224L526.407 423.872C525.015 424.064 523.647 424.248 522.303 424.424C520.959 424.6 519.687 424.792 518.487 425C517.287 425.192 516.207 425.424 515.247 425.696C514.543 425.92 513.879 426.208 513.255 426.56C512.647 426.912 512.151 427.368 511.767 427.928C511.399 428.472 511.215 429.152 511.215 429.968C511.215 430.672 511.391 431.344 511.743 431.984C512.111 432.624 512.671 433.144 513.423 433.544C514.191 433.944 515.191 434.144 516.423 434.144Z" fill="#23374F"></path><circle cx="69" cy="573" r="44.5" fill="#FBF5EE" stroke="#23374F" stroke-width="3"></circle><path d="M52.4188 597.968L52.4508 592.016L72.5148 574.032C74.1361 572.603 75.2348 571.237 75.8108 569.936C76.4081 568.635 76.7068 567.333 76.7068 566.032C76.7068 564.389 76.3441 562.917 75.6188 561.616C74.8934 560.293 73.8908 559.248 72.6108 558.48C71.3308 557.712 69.8588 557.328 68.1948 557.328C66.4881 557.328 64.9628 557.733 63.6188 558.544C62.2961 559.333 61.2614 560.389 60.5148 561.712C59.7681 563.035 59.4054 564.464 59.4268 566H52.5788C52.5788 563.013 53.2508 560.4 54.5948 558.16C55.9601 555.899 57.8268 554.139 60.1948 552.88C62.5628 551.6 65.2721 550.96 68.3228 550.96C71.2241 550.96 73.8268 551.621 76.1308 552.944C78.4348 554.245 80.2481 556.037 81.5708 558.32C82.9148 560.603 83.5868 563.205 83.5868 566.128C83.5868 568.24 83.3094 570.032 82.7548 571.504C82.2001 572.976 81.3681 574.341 80.2588 575.6C79.1494 576.859 77.7628 578.224 76.0988 579.696L60.6108 593.52L59.8748 591.6H83.5868V597.968H52.4188Z" fill="#23374F"></path><path d="M147.36 558V523.44H174.336V558H170.064V527.496H151.632V558H147.36ZM192.967 558.72C190.535 558.72 188.487 558.12 186.823 556.92C185.159 555.704 183.895 554.064 183.031 552C182.183 549.92 181.759 547.592 181.759 545.016C181.759 542.408 182.183 540.072 183.031 538.008C183.895 535.944 185.159 534.32 186.823 533.136C188.503 531.952 190.559 531.36 192.991 531.36C195.391 531.36 197.455 531.96 199.183 533.16C200.927 534.344 202.263 535.968 203.191 538.032C204.119 540.096 204.583 542.424 204.583 545.016C204.583 547.608 204.119 549.936 203.191 552C202.263 554.064 200.927 555.704 199.183 556.92C197.455 558.12 195.383 558.72 192.967 558.72ZM181.039 569.52V532.08H184.855V551.16H185.335V569.52H181.039ZM192.439 554.808C194.151 554.808 195.567 554.376 196.687 553.512C197.807 552.648 198.647 551.48 199.207 550.008C199.767 548.52 200.047 546.856 200.047 545.016C200.047 543.192 199.767 541.544 199.207 540.072C198.663 538.6 197.815 537.432 196.663 536.568C195.527 535.704 194.079 535.272 192.319 535.272C190.639 535.272 189.247 535.688 188.143 536.52C187.039 537.336 186.215 538.48 185.671 539.952C185.127 541.408 184.855 543.096 184.855 545.016C184.855 546.904 185.119 548.592 185.647 550.08C186.191 551.552 187.023 552.712 188.143 553.56C189.263 554.392 190.695 554.808 192.439 554.808ZM220.884 558.72C218.308 558.72 216.084 558.136 214.212 556.968C212.356 555.8 210.924 554.184 209.916 552.12C208.908 550.056 208.404 547.688 208.404 545.016C208.404 542.296 208.916 539.912 209.94 537.864C210.964 535.816 212.412 534.224 214.284 533.088C216.156 531.936 218.356 531.36 220.884 531.36C223.476 531.36 225.708 531.944 227.58 533.112C229.452 534.264 230.884 535.872 231.876 537.936C232.884 539.984 233.388 542.344 233.388 545.016C233.388 547.72 232.884 550.104 231.876 552.168C230.868 554.216 229.428 555.824 227.556 556.992C225.684 558.144 223.46 558.72 220.884 558.72ZM220.884 554.664C223.572 554.664 225.572 553.768 226.884 551.976C228.196 550.184 228.852 547.864 228.852 545.016C228.852 542.088 228.188 539.76 226.86 538.032C225.532 536.288 223.54 535.416 220.884 535.416C219.076 535.416 217.588 535.824 216.42 536.64C215.252 537.456 214.38 538.584 213.804 540.024C213.228 541.464 212.94 543.128 212.94 545.016C212.94 547.928 213.612 550.264 214.956 552.024C216.3 553.784 218.276 554.664 220.884 554.664ZM249.905 558.72C247.361 558.72 245.137 558.16 243.233 557.04C241.345 555.904 239.873 554.328 238.817 552.312C237.761 550.28 237.233 547.912 237.233 545.208C237.233 542.376 237.753 539.928 238.793 537.864C239.833 535.784 241.281 534.184 243.137 533.064C245.009 531.928 247.201 531.36 249.713 531.36C252.321 531.36 254.537 531.96 256.361 533.16C258.201 534.36 259.577 536.072 260.489 538.296C261.417 540.52 261.817 543.168 261.689 546.24H257.369V544.704C257.321 541.52 256.673 539.144 255.425 537.576C254.177 535.992 252.321 535.2 249.857 535.2C247.217 535.2 245.209 536.048 243.833 537.744C242.457 539.44 241.769 541.872 241.769 545.04C241.769 548.096 242.457 550.464 243.833 552.144C245.209 553.824 247.169 554.664 249.713 554.664C251.425 554.664 252.913 554.272 254.177 553.488C255.441 552.704 256.433 551.576 257.153 550.104L261.257 551.52C260.249 553.808 258.729 555.584 256.697 556.848C254.681 558.096 252.417 558.72 249.905 558.72ZM240.329 546.24V542.808H259.481V546.24H240.329ZM267.008 558L267.032 532.08H271.352V544.56L282.224 532.08H287.768L276.32 545.04L289.112 558H283.136L271.352 545.52V558H267.008ZM298.365 558V535.968H289.341V532.08H311.661V535.968H302.637V558H298.365ZM316.18 558V532.08H320.452V543H334.084V532.08H338.356V558H334.084V547.056H320.452V558H316.18ZM352.447 558.72C350.511 558.72 348.887 558.368 347.575 557.664C346.279 556.944 345.295 556 344.623 554.832C343.967 553.664 343.639 552.384 343.639 550.992C343.639 549.632 343.895 548.456 344.407 547.464C344.935 546.456 345.671 545.624 346.615 544.968C347.559 544.296 348.687 543.768 349.999 543.384C351.231 543.048 352.607 542.76 354.127 542.52C355.663 542.264 357.215 542.032 358.783 541.824C360.351 541.616 361.815 541.416 363.175 541.224L361.639 542.112C361.687 539.808 361.223 538.104 360.247 537C359.287 535.896 357.623 535.344 355.255 535.344C353.687 535.344 352.311 535.704 351.127 536.424C349.959 537.128 349.135 538.28 348.655 539.88L344.599 538.656C345.223 536.384 346.431 534.6 348.223 533.304C350.015 532.008 352.375 531.36 355.303 531.36C357.655 531.36 359.671 531.784 361.351 532.632C363.047 533.464 364.263 534.728 364.999 536.424C365.367 537.224 365.599 538.096 365.695 539.04C365.791 539.968 365.839 540.944 365.839 541.968V558H362.047V551.784L362.935 552.36C361.959 554.456 360.591 556.04 358.831 557.112C357.087 558.184 354.959 558.72 352.447 558.72ZM353.095 555.144C354.631 555.144 355.959 554.872 357.079 554.328C358.215 553.768 359.127 553.04 359.815 552.144C360.503 551.232 360.951 550.24 361.159 549.168C361.399 548.368 361.527 547.48 361.543 546.504C361.575 545.512 361.591 544.752 361.591 544.224L363.079 544.872C361.687 545.064 360.319 545.248 358.975 545.424C357.631 545.6 356.359 545.792 355.159 546C353.959 546.192 352.879 546.424 351.919 546.696C351.215 546.92 350.551 547.208 349.927 547.56C349.319 547.912 348.823 548.368 348.439 548.928C348.071 549.472 347.887 550.152 347.887 550.968C347.887 551.672 348.063 552.344 348.415 552.984C348.783 553.624 349.343 554.144 350.095 554.544C350.863 554.944 351.863 555.144 353.095 555.144ZM388.087 558V548.616H382.495C381.839 548.616 381.111 548.592 380.311 548.544C379.527 548.48 378.791 548.392 378.103 548.28C376.231 547.928 374.647 547.104 373.351 545.808C372.071 544.512 371.431 542.72 371.431 540.432C371.431 538.208 372.031 536.424 373.231 535.08C374.447 533.72 375.943 532.84 377.719 532.44C378.519 532.248 379.327 532.144 380.143 532.128C380.975 532.096 381.679 532.08 382.255 532.08H392.359L392.383 558H388.087ZM370.639 558L377.527 547.44H382.135L375.247 558H370.639ZM382.183 545.088H388.087V535.608H382.183C381.815 535.608 381.327 535.624 380.719 535.656C380.127 535.688 379.559 535.784 379.015 535.944C378.503 536.088 377.999 536.352 377.503 536.736C377.023 537.12 376.623 537.616 376.303 538.224C375.983 538.832 375.823 539.552 375.823 540.384C375.823 541.584 376.159 542.56 376.831 543.312C377.503 544.048 378.319 544.544 379.279 544.8C379.807 544.928 380.327 545.008 380.839 545.04C381.367 545.072 381.815 545.088 382.183 545.088ZM145.44 629.76V620.472C146.896 620.472 147.936 620 148.56 619.056C149.184 618.096 149.688 616.52 150.072 614.328C150.328 612.952 150.536 611.48 150.696 609.912C150.856 608.344 150.992 606.6 151.104 604.68C151.232 602.744 151.352 600.544 151.464 598.08H169.32V620.472H171.84V629.76H167.76V624H149.52V629.76H145.44ZM152.016 620.472H165.048V601.608H155.328C155.28 602.744 155.216 603.936 155.136 605.184C155.056 606.416 154.96 607.648 154.848 608.88C154.752 610.112 154.632 611.28 154.488 612.384C154.36 613.472 154.208 614.448 154.032 615.312C153.824 616.512 153.584 617.528 153.312 618.36C153.04 619.192 152.608 619.896 152.016 620.472ZM187.697 624.72C185.121 624.72 182.897 624.136 181.025 622.968C179.169 621.8 177.737 620.184 176.729 618.12C175.721 616.056 175.217 613.688 175.217 611.016C175.217 608.296 175.729 605.912 176.753 603.864C177.777 601.816 179.225 600.224 181.097 599.088C182.969 597.936 185.169 597.36 187.697 597.36C190.289 597.36 192.521 597.944 194.393 599.112C196.265 600.264 197.697 601.872 198.689 603.936C199.697 605.984 200.201 608.344 200.201 611.016C200.201 613.72 199.697 616.104 198.689 618.168C197.681 620.216 196.241 621.824 194.369 622.992C192.497 624.144 190.273 624.72 187.697 624.72ZM187.697 620.664C190.385 620.664 192.385 619.768 193.697 617.976C195.009 616.184 195.665 613.864 195.665 611.016C195.665 608.088 195.001 605.76 193.673 604.032C192.345 602.288 190.353 601.416 187.697 601.416C185.889 601.416 184.401 601.824 183.233 602.64C182.065 603.456 181.193 604.584 180.617 606.024C180.041 607.464 179.753 609.128 179.753 611.016C179.753 613.928 180.425 616.264 181.769 618.024C183.113 619.784 185.089 620.664 187.697 620.664ZM205.461 624L205.485 598.08H209.805V610.56L220.677 598.08H226.221L214.773 611.04L227.565 624H221.589L209.805 611.52V624H205.461ZM233.554 635.52L238.57 621.888L238.642 625.92L227.314 598.08H231.802L240.682 620.472H239.146L247.474 598.08H251.818L237.706 635.52H233.554ZM255.758 624V598.08H259.43L269.27 618.192L279.11 598.08H282.782V624H278.654V606.984L270.398 624H268.142L259.886 606.984V624H255.758ZM300.717 624.72C298.173 624.72 295.949 624.16 294.045 623.04C292.157 621.904 290.685 620.328 289.629 618.312C288.573 616.28 288.045 613.912 288.045 611.208C288.045 608.376 288.565 605.928 289.605 603.864C290.645 601.784 292.093 600.184 293.949 599.064C295.821 597.928 298.013 597.36 300.525 597.36C303.133 597.36 305.349 597.96 307.173 599.16C309.013 600.36 310.389 602.072 311.301 604.296C312.229 606.52 312.629 609.168 312.501 612.24H308.181V610.704C308.133 607.52 307.485 605.144 306.237 603.576C304.989 601.992 303.133 601.2 300.669 601.2C298.029 601.2 296.021 602.048 294.645 603.744C293.269 605.44 292.581 607.872 292.581 611.04C292.581 614.096 293.269 616.464 294.645 618.144C296.021 619.824 297.981 620.664 300.525 620.664C302.237 620.664 303.725 620.272 304.989 619.488C306.253 618.704 307.245 617.576 307.965 616.104L312.069 617.52C311.061 619.808 309.541 621.584 307.509 622.848C305.493 624.096 303.229 624.72 300.717 624.72ZM291.141 612.24V608.808H310.293V612.24H291.141ZM317.82 624V598.08H322.092V609H335.724V598.08H339.996V624H335.724V613.056H322.092V624H317.82ZM353.583 624V601.968H344.559V598.08H366.879V601.968H357.855V624H353.583ZM377.947 624.72C376.011 624.72 374.387 624.368 373.075 623.664C371.779 622.944 370.795 622 370.123 620.832C369.467 619.664 369.139 618.384 369.139 616.992C369.139 615.632 369.395 614.456 369.907 613.464C370.435 612.456 371.171 611.624 372.115 610.968C373.059 610.296 374.187 609.768 375.499 609.384C376.731 609.048 378.107 608.76 379.627 608.52C381.163 608.264 382.715 608.032 384.283 607.824C385.851 607.616 387.315 607.416 388.675 607.224L387.139 608.112C387.187 605.808 386.723 604.104 385.747 603C384.787 601.896 383.123 601.344 380.755 601.344C379.187 601.344 377.811 601.704 376.627 602.424C375.459 603.128 374.635 604.28 374.155 605.88L370.099 604.656C370.723 602.384 371.931 600.6 373.723 599.304C375.515 598.008 377.875 597.36 380.803 597.36C383.155 597.36 385.171 597.784 386.851 598.632C388.547 599.464 389.763 600.728 390.499 602.424C390.867 603.224 391.099 604.096 391.195 605.04C391.291 605.968 391.339 606.944 391.339 607.968V624H387.547V617.784L388.435 618.36C387.459 620.456 386.091 622.04 384.331 623.112C382.587 624.184 380.459 624.72 377.947 624.72ZM378.595 621.144C380.131 621.144 381.459 620.872 382.579 620.328C383.715 619.768 384.627 619.04 385.315 618.144C386.003 617.232 386.451 616.24 386.659 615.168C386.899 614.368 387.027 613.48 387.043 612.504C387.075 611.512 387.091 610.752 387.091 610.224L388.579 610.872C387.187 611.064 385.819 611.248 384.475 611.424C383.131 611.6 381.859 611.792 380.659 612C379.459 612.192 378.379 612.424 377.419 612.696C376.715 612.92 376.051 613.208 375.427 613.56C374.819 613.912 374.323 614.368 373.939 614.928C373.571 615.472 373.387 616.152 373.387 616.968C373.387 617.672 373.563 618.344 373.915 618.984C374.283 619.624 374.843 620.144 375.595 620.544C376.363 620.944 377.363 621.144 378.595 621.144ZM419.659 628.8V624H397.555V598.08H401.827V619.944H414.523V598.08H418.795V620.112H423.931V628.8H419.659ZM448.982 598.08V624H444.854V604.896L431.27 624H427.742V598.08H431.87V616.92L445.478 598.08H448.982ZM471.712 624V614.616H466.12C465.464 614.616 464.736 614.592 463.936 614.544C463.152 614.48 462.416 614.392 461.728 614.28C459.856 613.928 458.272 613.104 456.976 611.808C455.696 610.512 455.056 608.72 455.056 606.432C455.056 604.208 455.656 602.424 456.856 601.08C458.072 599.72 459.568 598.84 461.344 598.44C462.144 598.248 462.952 598.144 463.768 598.128C464.6 598.096 465.304 598.08 465.88 598.08H475.984L476.008 624H471.712ZM454.264 624L461.152 613.44H465.76L458.872 624H454.264ZM465.808 611.088H471.712V601.608H465.808C465.44 601.608 464.952 601.624 464.344 601.656C463.752 601.688 463.184 601.784 462.64 601.944C462.128 602.088 461.624 602.352 461.128 602.736C460.648 603.12 460.248 603.616 459.928 604.224C459.608 604.832 459.448 605.552 459.448 606.384C459.448 607.584 459.784 608.56 460.456 609.312C461.128 610.048 461.944 610.544 462.904 610.8C463.432 610.928 463.952 611.008 464.464 611.04C464.992 611.072 465.44 611.088 465.808 611.088Z" fill="#23374F"></path><circle cx="69" cy="727" r="44.5" fill="#FBF5EE" stroke="#23374F" stroke-width="3"></circle><path d="M67.5635 752.864C65.2808 752.864 63.1368 752.437 61.1315 751.584C59.1262 750.709 57.3875 749.472 55.9155 747.872C54.4648 746.272 53.4088 744.384 52.7475 742.208L59.2115 740.416C59.8302 742.4 60.9075 743.925 62.4435 744.992C63.9795 746.037 65.6862 746.549 67.5635 746.528C69.2488 746.507 70.7315 746.112 72.0115 745.344C73.2915 744.576 74.2942 743.541 75.0195 742.24C75.7448 740.917 76.1075 739.403 76.1075 737.696C76.1075 735.136 75.3075 733.024 73.7075 731.36C72.1288 729.696 70.0595 728.864 67.4995 728.864C66.7742 728.864 66.0275 728.971 65.2595 729.184C64.5128 729.397 63.8088 729.675 63.1475 730.016L60.0115 724.736L76.2675 710.368L76.9715 712.288H54.5715V705.92H82.2835V712.288L68.7795 725.28L68.7155 723.104C71.6168 723.104 74.1342 723.755 76.2675 725.056C78.4008 726.336 80.0435 728.085 81.1955 730.304C82.3688 732.501 82.9555 734.965 82.9555 737.696C82.9555 740.64 82.2622 743.253 80.8755 745.536C79.5102 747.819 77.6648 749.611 75.3395 750.912C73.0355 752.213 70.4435 752.864 67.5635 752.864Z" fill="#23374F"></path><path d="M145.36 745V710.44H172.336V745H168.064V714.496H149.632V745H145.36ZM190.103 745.72C187.527 745.72 185.303 745.136 183.431 743.968C181.575 742.8 180.143 741.184 179.135 739.12C178.127 737.056 177.623 734.688 177.623 732.016C177.623 729.296 178.135 726.912 179.159 724.864C180.183 722.816 181.631 721.224 183.503 720.088C185.375 718.936 187.575 718.36 190.103 718.36C192.695 718.36 194.927 718.944 196.799 720.112C198.671 721.264 200.103 722.872 201.095 724.936C202.103 726.984 202.607 729.344 202.607 732.016C202.607 734.72 202.103 737.104 201.095 739.168C200.087 741.216 198.647 742.824 196.775 743.992C194.903 745.144 192.679 745.72 190.103 745.72ZM190.103 741.664C192.791 741.664 194.791 740.768 196.103 738.976C197.415 737.184 198.071 734.864 198.071 732.016C198.071 729.088 197.407 726.76 196.079 725.032C194.751 723.288 192.759 722.416 190.103 722.416C188.295 722.416 186.807 722.824 185.639 723.64C184.471 724.456 183.599 725.584 183.023 727.024C182.447 728.464 182.159 730.128 182.159 732.016C182.159 734.928 182.831 737.264 184.175 739.024C185.519 740.784 187.495 741.664 190.103 741.664ZM205.491 745V741.328C206.451 741.504 207.179 741.472 207.675 741.232C208.187 740.976 208.563 740.536 208.803 739.912C209.059 739.272 209.267 738.472 209.427 737.512C209.699 735.992 209.931 734.296 210.123 732.424C210.331 730.552 210.515 728.504 210.675 726.28C210.851 724.04 211.011 721.64 211.155 719.08H229.275V745H225.003V723.136H215.043C214.947 724.608 214.827 726.12 214.683 727.672C214.555 729.224 214.419 730.736 214.275 732.208C214.131 733.664 213.971 735.024 213.795 736.288C213.635 737.536 213.459 738.616 213.267 739.528C212.963 741.096 212.539 742.352 211.995 743.296C211.451 744.224 210.667 744.824 209.643 745.096C208.619 745.384 207.235 745.352 205.491 745ZM239.616 756.52L244.632 742.888L244.704 746.92L233.376 719.08H237.864L246.744 741.472H245.208L253.536 719.08H257.88L243.768 756.52H239.616ZM277.444 745V735.664C276.58 736.096 275.532 736.464 274.3 736.768C273.084 737.072 271.78 737.224 270.388 737.224C267.748 737.224 265.62 736.632 264.004 735.448C262.388 734.264 261.332 732.56 260.836 730.336C260.692 729.664 260.588 728.968 260.524 728.248C260.476 727.528 260.444 726.872 260.428 726.28C260.412 725.688 260.404 725.256 260.404 724.984V719.08H264.724V724.984C264.724 725.448 264.74 726.024 264.772 726.712C264.804 727.384 264.884 728.04 265.012 728.68C265.332 730.264 265.996 731.456 267.004 732.256C268.028 733.056 269.468 733.456 271.324 733.456C272.572 733.456 273.724 733.296 274.78 732.976C275.836 732.656 276.724 732.232 277.444 731.704V719.08H281.74V745H277.444ZM299.701 745.72C297.157 745.72 294.933 745.16 293.029 744.04C291.141 742.904 289.669 741.328 288.613 739.312C287.557 737.28 287.029 734.912 287.029 732.208C287.029 729.376 287.549 726.928 288.589 724.864C289.629 722.784 291.077 721.184 292.933 720.064C294.805 718.928 296.997 718.36 299.509 718.36C302.117 718.36 304.333 718.96 306.157 720.16C307.997 721.36 309.373 723.072 310.285 725.296C311.213 727.52 311.613 730.168 311.485 733.24H307.165V731.704C307.117 728.52 306.469 726.144 305.221 724.576C303.973 722.992 302.117 722.2 299.653 722.2C297.013 722.2 295.005 723.048 293.629 724.744C292.253 726.44 291.565 728.872 291.565 732.04C291.565 735.096 292.253 737.464 293.629 739.144C295.005 740.824 296.965 741.664 299.509 741.664C301.221 741.664 302.709 741.272 303.973 740.488C305.237 739.704 306.229 738.576 306.949 737.104L311.053 738.52C310.045 740.808 308.525 742.584 306.493 743.848C304.477 745.096 302.213 745.72 299.701 745.72ZM290.125 733.24V729.808H309.277V733.24H290.125ZM316.805 745V719.08H321.077V730H334.709V719.08H338.981V745H334.709V734.056H321.077V745H316.805ZM366.92 719.08V745H362.792V725.896L349.208 745H345.68V719.08H349.808V737.92L363.416 719.08H366.92ZM384.873 745.72C382.329 745.72 380.105 745.16 378.201 744.04C376.313 742.904 374.841 741.328 373.785 739.312C372.729 737.28 372.201 734.912 372.201 732.208C372.201 729.376 372.721 726.928 373.761 724.864C374.801 722.784 376.249 721.184 378.105 720.064C379.977 718.928 382.169 718.36 384.681 718.36C387.289 718.36 389.505 718.96 391.329 720.16C393.169 721.36 394.545 723.072 395.457 725.296C396.385 727.52 396.785 730.168 396.657 733.24H392.337V731.704C392.289 728.52 391.641 726.144 390.393 724.576C389.145 722.992 387.289 722.2 384.825 722.2C382.185 722.2 380.177 723.048 378.801 724.744C377.425 726.44 376.737 728.872 376.737 732.04C376.737 735.096 377.425 737.464 378.801 739.144C380.177 740.824 382.137 741.664 384.681 741.664C386.393 741.664 387.881 741.272 389.145 740.488C390.409 739.704 391.401 738.576 392.121 737.104L396.225 738.52C395.217 740.808 393.697 742.584 391.665 743.848C389.649 745.096 387.385 745.72 384.873 745.72ZM375.297 733.24V729.808H394.449V733.24H375.297ZM411.61 745V710.44H438.586V745H434.314V714.496H415.882V745H411.61ZM457.097 745V740.296C455.321 740.6 453.609 740.52 451.961 740.056C450.329 739.592 448.865 738.784 447.569 737.632C446.289 736.464 445.273 734.96 444.521 733.12C443.769 731.28 443.393 729.136 443.393 726.688C443.393 724.224 443.769 722.072 444.521 720.232C445.273 718.376 446.289 716.864 447.569 715.696C448.865 714.512 450.329 713.688 451.961 713.224C453.609 712.744 455.321 712.656 457.097 712.96V710.44H461.345V712.96C463.121 712.656 464.833 712.744 466.481 713.224C468.129 713.688 469.593 714.512 470.873 715.696C472.169 716.864 473.193 718.376 473.945 720.232C474.697 722.072 475.073 724.224 475.073 726.688C475.073 729.136 474.697 731.28 473.945 733.12C473.193 734.96 472.169 736.464 470.873 737.632C469.593 738.784 468.129 739.592 466.481 740.056C464.833 740.52 463.121 740.6 461.345 740.296V745H457.097ZM457.097 736.288V716.896C455.625 716.672 454.305 716.776 453.137 717.208C451.985 717.624 451.009 718.296 450.209 719.224C449.425 720.136 448.825 721.232 448.409 722.512C447.993 723.792 447.785 725.184 447.785 726.688C447.785 728.176 447.993 729.552 448.409 730.816C448.825 732.08 449.425 733.16 450.209 734.056C451.009 734.952 451.985 735.6 453.137 736C454.305 736.4 455.625 736.496 457.097 736.288ZM461.345 736.288C462.833 736.496 464.153 736.4 465.305 736C466.457 735.584 467.433 734.936 468.233 734.056C469.033 733.176 469.641 732.112 470.057 730.864C470.473 729.6 470.681 728.24 470.681 726.784C470.681 725.312 470.473 723.936 470.057 722.656C469.641 721.36 469.033 720.248 468.233 719.32C467.433 718.376 466.457 717.68 465.305 717.232C464.153 716.784 462.833 716.672 461.345 716.896V736.288Z" fill="#23374F"></path><circle cx="69" cy="861" r="44.5" fill="#FBF5EE" stroke="#23374F" stroke-width="3"></circle><path d="M73.2188 886V877.968H52.4188V871.632L67.3948 839.92H75.0428L60.0668 871.632H73.2188V859.152H80.0028V871.632H84.5788V877.968H80.0028V886H73.2188Z" fill="#23374F"></path><path d="M146.36 879V844.44H160.016C160.352 844.44 160.752 844.456 161.216 844.488C161.68 844.504 162.128 844.552 162.56 844.632C164.432 844.92 166 845.56 167.264 846.552C168.544 847.544 169.504 848.8 170.144 850.32C170.784 851.824 171.104 853.496 171.104 855.336C171.104 857.16 170.776 858.832 170.12 860.352C169.48 861.856 168.52 863.112 167.24 864.12C165.976 865.112 164.416 865.752 162.56 866.04C162.128 866.104 161.68 866.152 161.216 866.184C160.752 866.216 160.352 866.232 160.016 866.232H150.632V879H146.36ZM150.632 862.176H159.872C160.176 862.176 160.52 862.16 160.904 862.128C161.304 862.096 161.68 862.04 162.032 861.96C163.136 861.704 164.032 861.24 164.72 860.568C165.424 859.88 165.936 859.08 166.256 858.168C166.576 857.24 166.736 856.296 166.736 855.336C166.736 854.376 166.576 853.44 166.256 852.528C165.936 851.6 165.424 850.792 164.72 850.104C164.032 849.416 163.136 848.952 162.032 848.712C161.68 848.616 161.304 848.56 160.904 848.544C160.52 848.512 160.176 848.496 159.872 848.496H150.632V862.176ZM187.123 879.72C184.579 879.72 182.355 879.16 180.451 878.04C178.563 876.904 177.091 875.328 176.035 873.312C174.979 871.28 174.451 868.912 174.451 866.208C174.451 863.376 174.971 860.928 176.011 858.864C177.051 856.784 178.499 855.184 180.355 854.064C182.227 852.928 184.419 852.36 186.931 852.36C189.539 852.36 191.755 852.96 193.579 854.16C195.419 855.36 196.795 857.072 197.707 859.296C198.635 861.52 199.035 864.168 198.907 867.24H194.587V865.704C194.539 862.52 193.891 860.144 192.643 858.576C191.395 856.992 189.539 856.2 187.075 856.2C184.435 856.2 182.427 857.048 181.051 858.744C179.675 860.44 178.987 862.872 178.987 866.04C178.987 869.096 179.675 871.464 181.051 873.144C182.427 874.824 184.387 875.664 186.931 875.664C188.643 875.664 190.131 875.272 191.395 874.488C192.659 873.704 193.651 872.576 194.371 871.104L198.475 872.52C197.467 874.808 195.947 876.584 193.915 877.848C191.899 879.096 189.635 879.72 187.123 879.72ZM177.547 867.24V863.808H196.699V867.24H177.547ZM211.15 879.72C209.214 879.72 207.59 879.368 206.278 878.664C204.982 877.944 203.998 877 203.326 875.832C202.67 874.664 202.342 873.384 202.342 871.992C202.342 870.632 202.598 869.456 203.11 868.464C203.638 867.456 204.374 866.624 205.318 865.968C206.262 865.296 207.39 864.768 208.702 864.384C209.934 864.048 211.31 863.76 212.83 863.52C214.366 863.264 215.918 863.032 217.486 862.824C219.054 862.616 220.518 862.416 221.878 862.224L220.342 863.112C220.39 860.808 219.926 859.104 218.95 858C217.99 856.896 216.326 856.344 213.958 856.344C212.39 856.344 211.014 856.704 209.83 857.424C208.662 858.128 207.838 859.28 207.358 860.88L203.302 859.656C203.926 857.384 205.134 855.6 206.926 854.304C208.718 853.008 211.078 852.36 214.006 852.36C216.358 852.36 218.374 852.784 220.054 853.632C221.75 854.464 222.966 855.728 223.702 857.424C224.07 858.224 224.302 859.096 224.398 860.04C224.494 860.968 224.542 861.944 224.542 862.968V879H220.75V872.784L221.638 873.36C220.662 875.456 219.294 877.04 217.534 878.112C215.79 879.184 213.662 879.72 211.15 879.72ZM211.798 876.144C213.334 876.144 214.662 875.872 215.782 875.328C216.918 874.768 217.83 874.04 218.518 873.144C219.206 872.232 219.654 871.24 219.862 870.168C220.102 869.368 220.23 868.48 220.246 867.504C220.278 866.512 220.294 865.752 220.294 865.224L221.782 865.872C220.39 866.064 219.022 866.248 217.678 866.424C216.334 866.6 215.062 866.792 213.862 867C212.662 867.192 211.582 867.424 210.622 867.696C209.918 867.92 209.254 868.208 208.63 868.56C208.022 868.912 207.526 869.368 207.142 869.928C206.774 870.472 206.59 871.152 206.59 871.968C206.59 872.672 206.766 873.344 207.118 873.984C207.486 874.624 208.046 875.144 208.798 875.544C209.566 875.944 210.566 876.144 211.798 876.144ZM228.382 879V875.328C229.342 875.504 230.07 875.472 230.566 875.232C231.078 874.976 231.454 874.536 231.694 873.912C231.95 873.272 232.158 872.472 232.318 871.512C232.59 869.992 232.822 868.296 233.014 866.424C233.222 864.552 233.406 862.504 233.566 860.28C233.742 858.04 233.902 855.64 234.046 853.08H252.166V879H247.894V857.136H237.934C237.838 858.608 237.718 860.12 237.574 861.672C237.446 863.224 237.31 864.736 237.166 866.208C237.022 867.664 236.862 869.024 236.686 870.288C236.526 871.536 236.35 872.616 236.158 873.528C235.854 875.096 235.43 876.352 234.886 877.296C234.342 878.224 233.558 878.824 232.534 879.096C231.51 879.384 230.126 879.352 228.382 879ZM280.123 853.08V879H275.995V859.896L262.411 879H258.883V853.08H263.011V871.92L276.619 853.08H280.123ZM296.132 879.72C293.572 879.72 291.308 879.168 289.34 878.064C287.372 876.944 285.82 875.408 284.684 873.456L288.092 871.248C289.036 872.672 290.164 873.768 291.476 874.536C292.788 875.288 294.284 875.664 295.964 875.664C297.724 875.664 299.124 875.264 300.164 874.464C301.204 873.648 301.724 872.552 301.724 871.176C301.724 870.152 301.468 869.368 300.956 868.824C300.444 868.28 299.708 867.904 298.748 867.696C297.788 867.488 296.644 867.384 295.316 867.384H292.628V863.856H295.292C296.972 863.856 298.34 863.584 299.396 863.04C300.452 862.496 300.98 861.568 300.98 860.256C300.98 858.912 300.484 857.936 299.492 857.328C298.516 856.704 297.348 856.392 295.988 856.392C294.548 856.392 293.172 856.696 291.86 857.304C290.548 857.896 289.42 858.648 288.476 859.56L285.884 856.656C287.228 855.28 288.772 854.224 290.516 853.488C292.276 852.736 294.188 852.36 296.252 852.36C297.916 852.36 299.436 852.656 300.812 853.248C302.204 853.824 303.308 854.68 304.124 855.816C304.956 856.936 305.372 858.304 305.372 859.92C305.372 861.296 305.052 862.52 304.412 863.592C303.772 864.664 302.828 865.6 301.58 866.4L301.412 864.888C302.468 865.144 303.34 865.616 304.028 866.304C304.732 866.976 305.252 867.776 305.588 868.704C305.924 869.632 306.092 870.6 306.092 871.608C306.092 873.304 305.644 874.76 304.748 875.976C303.868 877.176 302.676 878.104 301.172 878.76C299.668 879.4 297.988 879.72 296.132 879.72ZM318.728 879.72C316.792 879.72 315.168 879.368 313.856 878.664C312.56 877.944 311.576 877 310.904 875.832C310.248 874.664 309.92 873.384 309.92 871.992C309.92 870.632 310.176 869.456 310.688 868.464C311.216 867.456 311.952 866.624 312.896 865.968C313.84 865.296 314.968 864.768 316.28 864.384C317.512 864.048 318.888 863.76 320.408 863.52C321.944 863.264 323.496 863.032 325.064 862.824C326.632 862.616 328.096 862.416 329.456 862.224L327.92 863.112C327.968 860.808 327.504 859.104 326.528 858C325.568 856.896 323.904 856.344 321.536 856.344C319.968 856.344 318.592 856.704 317.408 857.424C316.24 858.128 315.416 859.28 314.936 860.88L310.88 859.656C311.504 857.384 312.712 855.6 314.504 854.304C316.296 853.008 318.656 852.36 321.584 852.36C323.936 852.36 325.952 852.784 327.632 853.632C329.328 854.464 330.544 855.728 331.28 857.424C331.648 858.224 331.88 859.096 331.976 860.04C332.072 860.968 332.12 861.944 332.12 862.968V879H328.328V872.784L329.216 873.36C328.24 875.456 326.872 877.04 325.112 878.112C323.368 879.184 321.24 879.72 318.728 879.72ZM319.376 876.144C320.912 876.144 322.24 875.872 323.36 875.328C324.496 874.768 325.408 874.04 326.096 873.144C326.784 872.232 327.232 871.24 327.44 870.168C327.68 869.368 327.808 868.48 327.824 867.504C327.856 866.512 327.872 865.752 327.872 865.224L329.36 865.872C327.968 866.064 326.6 866.248 325.256 866.424C323.912 866.6 322.64 866.792 321.44 867C320.24 867.192 319.16 867.424 318.2 867.696C317.496 867.92 316.832 868.208 316.208 868.56C315.6 868.912 315.104 869.368 314.72 869.928C314.352 870.472 314.168 871.152 314.168 871.968C314.168 872.672 314.344 873.344 314.696 873.984C315.064 874.624 315.624 875.144 316.376 875.544C317.144 875.944 318.144 876.144 319.376 876.144ZM360.44 883.8V879H338.336V853.08H342.608V874.944H355.304V853.08H359.576V875.112H364.712V883.8H360.44ZM389.764 853.08V879H385.636V859.896L372.052 879H368.524V853.08H372.652V871.92L386.26 853.08H389.764ZM412.493 879V869.616H406.901C406.245 869.616 405.517 869.592 404.717 869.544C403.933 869.48 403.197 869.392 402.509 869.28C400.637 868.928 399.053 868.104 397.757 866.808C396.477 865.512 395.837 863.72 395.837 861.432C395.837 859.208 396.437 857.424 397.637 856.08C398.853 854.72 400.349 853.84 402.125 853.44C402.925 853.248 403.733 853.144 404.549 853.128C405.381 853.096 406.085 853.08 406.661 853.08H416.765L416.789 879H412.493ZM395.045 879L401.933 868.44H406.541L399.653 879H395.045ZM406.589 866.088H412.493V856.608H406.589C406.221 856.608 405.733 856.624 405.125 856.656C404.533 856.688 403.965 856.784 403.421 856.944C402.909 857.088 402.405 857.352 401.909 857.736C401.429 858.12 401.029 858.616 400.709 859.224C400.389 859.832 400.229 860.552 400.229 861.384C400.229 862.584 400.565 863.56 401.237 864.312C401.909 865.048 402.725 865.544 403.685 865.8C404.213 865.928 404.733 866.008 405.245 866.04C405.773 866.072 406.221 866.088 406.589 866.088ZM444.181 879.72C441.605 879.72 439.381 879.136 437.509 877.968C435.653 876.8 434.221 875.184 433.213 873.12C432.205 871.056 431.701 868.688 431.701 866.016C431.701 863.296 432.213 860.912 433.237 858.864C434.261 856.816 435.709 855.224 437.581 854.088C439.453 852.936 441.653 852.36 444.181 852.36C446.773 852.36 449.005 852.944 450.877 854.112C452.749 855.264 454.181 856.872 455.173 858.936C456.181 860.984 456.685 863.344 456.685 866.016C456.685 868.72 456.181 871.104 455.173 873.168C454.165 875.216 452.725 876.824 450.853 877.992C448.981 879.144 446.757 879.72 444.181 879.72ZM444.181 875.664C446.869 875.664 448.869 874.768 450.181 872.976C451.493 871.184 452.149 868.864 452.149 866.016C452.149 863.088 451.485 860.76 450.157 859.032C448.829 857.288 446.837 856.416 444.181 856.416C442.373 856.416 440.885 856.824 439.717 857.64C438.549 858.456 437.677 859.584 437.101 861.024C436.525 862.464 436.237 864.128 436.237 866.016C436.237 868.928 436.909 871.264 438.253 873.024C439.597 874.784 441.573 875.664 444.181 875.664ZM472.505 879.744C470.057 879.728 467.969 879.2 466.241 878.16C464.513 877.104 463.169 875.56 462.209 873.528C461.249 871.496 460.713 869.008 460.601 866.064C460.537 864.704 460.553 863.208 460.649 861.576C460.761 859.944 460.937 858.376 461.177 856.872C461.433 855.368 461.753 854.128 462.137 853.152C462.569 851.984 463.177 850.904 463.961 849.912C464.761 848.904 465.657 848.072 466.649 847.416C467.657 846.728 468.785 846.192 470.033 845.808C471.281 845.424 472.585 845.128 473.945 844.92C475.321 844.696 476.697 844.504 478.073 844.344C479.449 844.168 480.761 843.96 482.009 843.72L482.441 847.56C481.561 847.752 480.521 847.92 479.321 848.064C478.121 848.192 476.873 848.344 475.577 848.52C474.297 848.696 473.065 848.944 471.881 849.264C470.713 849.568 469.705 849.992 468.857 850.536C467.609 851.288 466.649 852.416 465.977 853.92C465.321 855.408 464.921 857.08 464.777 858.936C465.769 857.4 467.057 856.272 468.641 855.552C470.225 854.832 471.913 854.472 473.705 854.472C476.025 854.472 478.025 855.016 479.705 856.104C481.385 857.176 482.673 858.656 483.569 860.544C484.481 862.432 484.937 864.584 484.937 867C484.937 869.56 484.425 871.8 483.401 873.72C482.377 875.64 480.929 877.128 479.057 878.184C477.201 879.24 475.017 879.76 472.505 879.744ZM472.769 875.688C475.281 875.688 477.185 874.912 478.481 873.36C479.777 871.792 480.425 869.712 480.425 867.12C480.425 864.464 479.753 862.376 478.409 860.856C477.065 859.32 475.177 858.552 472.745 858.552C470.281 858.552 468.393 859.32 467.081 860.856C465.785 862.376 465.137 864.464 465.137 867.12C465.137 869.792 465.793 871.888 467.105 873.408C468.417 874.928 470.305 875.688 472.769 875.688ZM491.459 879L491.435 856.608H487.835V853.08H495.731V862.464H501.323C502.075 862.464 502.843 862.48 503.627 862.512C504.411 862.544 505.091 862.616 505.667 862.728C507.011 862.984 508.187 863.432 509.195 864.072C510.203 864.712 510.987 865.584 511.547 866.688C512.107 867.776 512.387 869.128 512.387 870.744C512.387 872.984 511.803 874.76 510.635 876.072C509.483 877.368 507.971 878.232 506.099 878.664C505.459 878.808 504.723 878.904 503.891 878.952C503.075 878.984 502.299 879 501.563 879H491.459ZM495.731 875.472H501.635C502.115 875.472 502.651 875.456 503.243 875.424C503.835 875.392 504.363 875.312 504.827 875.184C505.643 874.944 506.371 874.472 507.011 873.768C507.667 873.064 507.995 872.056 507.995 870.744C507.995 869.416 507.675 868.392 507.035 867.672C506.411 866.952 505.587 866.48 504.563 866.256C504.099 866.144 503.611 866.072 503.099 866.04C502.587 866.008 502.099 865.992 501.635 865.992H495.731V875.472ZM528.889 879.72C526.345 879.72 524.121 879.16 522.217 878.04C520.329 876.904 518.857 875.328 517.801 873.312C516.745 871.28 516.217 868.912 516.217 866.208C516.217 863.376 516.737 860.928 517.777 858.864C518.817 856.784 520.265 855.184 522.121 854.064C523.993 852.928 526.185 852.36 528.697 852.36C531.305 852.36 533.521 852.96 535.345 854.16C537.185 855.36 538.561 857.072 539.473 859.296C540.401 861.52 540.801 864.168 540.673 867.24H536.353V865.704C536.305 862.52 535.657 860.144 534.409 858.576C533.161 856.992 531.305 856.2 528.841 856.2C526.201 856.2 524.193 857.048 522.817 858.744C521.441 860.44 520.753 862.872 520.753 866.04C520.753 869.096 521.441 871.464 522.817 873.144C524.193 874.824 526.153 875.664 528.697 875.664C530.409 875.664 531.897 875.272 533.161 874.488C534.425 873.704 535.417 872.576 536.137 871.104L540.241 872.52C539.233 874.808 537.713 876.584 535.681 877.848C533.665 879.096 531.401 879.72 528.889 879.72ZM519.313 867.24V863.808H538.465V867.24H519.313ZM545.992 879L546.016 853.08H550.336V865.56L561.208 853.08H566.752L555.304 866.04L568.096 879H562.12L550.336 866.52V879H545.992ZM577.349 879V856.968H568.325V853.08H590.645V856.968H581.621V879H577.349ZM601.712 879.72C599.776 879.72 598.152 879.368 596.84 878.664C595.544 877.944 594.56 877 593.888 875.832C593.232 874.664 592.904 873.384 592.904 871.992C592.904 870.632 593.16 869.456 593.672 868.464C594.2 867.456 594.936 866.624 595.88 865.968C596.824 865.296 597.952 864.768 599.264 864.384C600.496 864.048 601.872 863.76 603.392 863.52C604.928 863.264 606.48 863.032 608.048 862.824C609.616 862.616 611.08 862.416 612.44 862.224L610.904 863.112C610.952 860.808 610.488 859.104 609.512 858C608.552 856.896 606.888 856.344 604.52 856.344C602.952 856.344 601.576 856.704 600.392 857.424C599.224 858.128 598.4 859.28 597.92 860.88L593.864 859.656C594.488 857.384 595.696 855.6 597.488 854.304C599.28 853.008 601.64 852.36 604.568 852.36C606.92 852.36 608.936 852.784 610.616 853.632C612.312 854.464 613.528 855.728 614.264 857.424C614.632 858.224 614.864 859.096 614.96 860.04C615.056 860.968 615.104 861.944 615.104 862.968V879H611.312V872.784L612.2 873.36C611.224 875.456 609.856 877.04 608.096 878.112C606.352 879.184 604.224 879.72 601.712 879.72ZM602.36 876.144C603.896 876.144 605.224 875.872 606.344 875.328C607.48 874.768 608.392 874.04 609.08 873.144C609.768 872.232 610.216 871.24 610.424 870.168C610.664 869.368 610.792 868.48 610.808 867.504C610.84 866.512 610.856 865.752 610.856 865.224L612.344 865.872C610.952 866.064 609.584 866.248 608.24 866.424C606.896 866.6 605.624 866.792 604.424 867C603.224 867.192 602.144 867.424 601.184 867.696C600.48 867.92 599.816 868.208 599.192 868.56C598.584 868.912 598.088 869.368 597.704 869.928C597.336 870.472 597.152 871.152 597.152 871.968C597.152 872.672 597.328 873.344 597.68 873.984C598.048 874.624 598.608 875.144 599.36 875.544C600.128 875.944 601.128 876.144 602.36 876.144Z" fill="#23374F"></path><circle cx="69" cy="1015" r="44.5" fill="#FBF5EE" stroke="#23374F" stroke-width="3"></circle><path d="M67.4878 1040.96C65.1198 1040.96 62.9118 1040.48 60.8638 1039.52C58.8371 1038.54 57.0984 1037.19 55.6478 1035.49C54.1971 1033.76 53.1624 1031.78 52.5438 1029.54L58.9758 1027.81C59.3384 1029.17 59.9571 1030.36 60.8318 1031.36C61.7278 1032.36 62.7731 1033.14 63.9678 1033.7C65.1624 1034.23 66.3998 1034.5 67.6798 1034.5C69.3651 1034.5 70.8904 1034.09 72.2558 1033.28C73.6424 1032.47 74.7304 1031.38 75.5198 1030.02C76.3304 1028.65 76.7358 1027.15 76.7358 1025.5C76.7358 1023.82 76.3198 1022.29 75.4878 1020.93C74.6771 1019.56 73.5784 1018.49 72.1918 1017.7C70.8264 1016.89 69.3224 1016.48 67.6798 1016.48C65.8024 1016.48 64.2131 1016.85 62.9118 1017.6C61.6104 1018.35 60.5971 1019.21 59.8718 1020.19L54.0477 1018.14L55.4558 993.92H80.3198V1000.22H58.8798L61.5998 997.696L60.4798 1015.84L59.1678 1014.14C60.3838 1012.93 61.8344 1012 63.5198 1011.36C65.2051 1010.72 66.8798 1010.4 68.5438 1010.4C71.4024 1010.4 73.9518 1011.06 76.1918 1012.38C78.4531 1013.71 80.2344 1015.51 81.5358 1017.79C82.8371 1020.05 83.4878 1022.62 83.4878 1025.5C83.4878 1028.36 82.7518 1030.97 81.2798 1033.31C79.8078 1035.64 77.8558 1037.49 75.4238 1038.88C72.9918 1040.27 70.3464 1040.96 67.4878 1040.96Z" fill="#23374F"></path><path d="M147.36 1000V965.44H160.824C162.888 965.44 164.648 965.864 166.104 966.712C167.576 967.56 168.696 968.68 169.464 970.072C170.248 971.448 170.64 972.936 170.64 974.536C170.64 976.408 170.16 978.048 169.2 979.456C168.24 980.864 166.944 981.832 165.312 982.36L165.264 981.184C167.488 981.776 169.216 982.864 170.448 984.448C171.68 986.032 172.296 987.92 172.296 990.112C172.296 992.128 171.88 993.872 171.048 995.344C170.232 996.816 169.048 997.96 167.496 998.776C165.96 999.592 164.136 1000 162.024 1000H147.36ZM151.68 995.92H161.208C162.488 995.92 163.632 995.688 164.64 995.224C165.648 994.744 166.44 994.072 167.016 993.208C167.608 992.344 167.904 991.304 167.904 990.088C167.904 988.92 167.64 987.872 167.112 986.944C166.6 986.016 165.872 985.28 164.928 984.736C164 984.176 162.92 983.896 161.688 983.896H151.68V995.92ZM151.68 979.864H160.776C161.8 979.864 162.72 979.648 163.536 979.216C164.368 978.768 165.024 978.144 165.504 977.344C166 976.544 166.248 975.608 166.248 974.536C166.248 973.048 165.744 971.832 164.736 970.888C163.728 969.944 162.408 969.472 160.776 969.472H151.68V979.864ZM188.119 1000.72C185.543 1000.72 183.319 1000.14 181.447 998.968C179.591 997.8 178.159 996.184 177.151 994.12C176.143 992.056 175.639 989.688 175.639 987.016C175.639 984.296 176.151 981.912 177.175 979.864C178.199 977.816 179.647 976.224 181.519 975.088C183.391 973.936 185.591 973.36 188.119 973.36C190.711 973.36 192.943 973.944 194.815 975.112C196.687 976.264 198.119 977.872 199.111 979.936C200.119 981.984 200.623 984.344 200.623 987.016C200.623 989.72 200.119 992.104 199.111 994.168C198.103 996.216 196.663 997.824 194.791 998.992C192.919 1000.14 190.695 1000.72 188.119 1000.72ZM188.119 996.664C190.807 996.664 192.807 995.768 194.119 993.976C195.431 992.184 196.087 989.864 196.087 987.016C196.087 984.088 195.423 981.76 194.095 980.032C192.767 978.288 190.775 977.416 188.119 977.416C186.311 977.416 184.823 977.824 183.655 978.64C182.487 979.456 181.615 980.584 181.039 982.024C180.463 983.464 180.175 985.128 180.175 987.016C180.175 989.928 180.847 992.264 182.191 994.024C183.535 995.784 185.511 996.664 188.119 996.664ZM214.586 1000.72C212.026 1000.72 209.762 1000.17 207.794 999.064C205.826 997.944 204.274 996.408 203.138 994.456L206.546 992.248C207.49 993.672 208.618 994.768 209.93 995.536C211.242 996.288 212.738 996.664 214.418 996.664C216.178 996.664 217.578 996.264 218.618 995.464C219.658 994.648 220.178 993.552 220.178 992.176C220.178 991.152 219.922 990.368 219.41 989.824C218.898 989.28 218.162 988.904 217.202 988.696C216.242 988.488 215.098 988.384 213.77 988.384H211.082V984.856H213.746C215.426 984.856 216.794 984.584 217.85 984.04C218.906 983.496 219.434 982.568 219.434 981.256C219.434 979.912 218.938 978.936 217.946 978.328C216.97 977.704 215.802 977.392 214.442 977.392C213.002 977.392 211.626 977.696 210.314 978.304C209.002 978.896 207.874 979.648 206.93 980.56L204.338 977.656C205.682 976.28 207.226 975.224 208.97 974.488C210.73 973.736 212.642 973.36 214.706 973.36C216.37 973.36 217.89 973.656 219.266 974.248C220.658 974.824 221.762 975.68 222.578 976.816C223.41 977.936 223.826 979.304 223.826 980.92C223.826 982.296 223.506 983.52 222.866 984.592C222.226 985.664 221.282 986.6 220.034 987.4L219.866 985.888C220.922 986.144 221.794 986.616 222.482 987.304C223.186 987.976 223.706 988.776 224.042 989.704C224.378 990.632 224.546 991.6 224.546 992.608C224.546 994.304 224.098 995.76 223.202 996.976C222.322 998.176 221.13 999.104 219.626 999.76C218.122 1000.4 216.442 1000.72 214.586 1000.72ZM229.789 1000V974.08H240.829C241.485 974.08 242.189 974.12 242.941 974.2C243.709 974.264 244.405 974.384 245.029 974.56C246.421 974.928 247.565 975.688 248.461 976.84C249.373 977.976 249.829 979.416 249.829 981.16C249.829 982.136 249.677 982.984 249.373 983.704C249.085 984.424 248.669 985.048 248.125 985.576C247.885 985.816 247.621 986.032 247.333 986.224C247.045 986.416 246.757 986.568 246.469 986.68C247.029 986.776 247.597 986.992 248.173 987.328C249.085 987.824 249.797 988.52 250.309 989.416C250.837 990.312 251.101 991.456 251.101 992.848C251.101 994.608 250.677 996.064 249.829 997.216C248.981 998.352 247.813 999.136 246.325 999.568C245.701 999.744 245.013 999.864 244.261 999.928C243.509 999.976 242.781 1000 242.077 1000H229.789ZM234.109 996.52H241.837C242.173 996.52 242.573 996.488 243.037 996.424C243.517 996.36 243.941 996.28 244.309 996.184C245.141 995.944 245.741 995.496 246.109 994.84C246.493 994.184 246.685 993.472 246.685 992.704C246.685 991.68 246.397 990.848 245.821 990.208C245.261 989.568 244.517 989.168 243.589 989.008C243.253 988.912 242.885 988.856 242.485 988.84C242.101 988.824 241.757 988.816 241.453 988.816H234.109V996.52ZM234.109 985.288H240.541C240.989 985.288 241.461 985.264 241.957 985.216C242.453 985.152 242.885 985.048 243.253 984.904C243.989 984.632 244.525 984.184 244.861 983.56C245.213 982.92 245.389 982.224 245.389 981.472C245.389 980.64 245.197 979.912 244.813 979.288C244.445 978.648 243.877 978.208 243.109 977.968C242.597 977.776 242.021 977.672 241.381 977.656C240.757 977.624 240.357 977.608 240.181 977.608H234.109V985.288ZM267.827 1000.72C265.395 1000.72 263.347 1000.12 261.683 998.92C260.019 997.704 258.755 996.064 257.891 994C257.043 991.92 256.619 989.592 256.619 987.016C256.619 984.408 257.043 982.072 257.891 980.008C258.755 977.944 260.019 976.32 261.683 975.136C263.363 973.952 265.419 973.36 267.851 973.36C270.251 973.36 272.315 973.96 274.043 975.16C275.787 976.344 277.123 977.968 278.051 980.032C278.979 982.096 279.443 984.424 279.443 987.016C279.443 989.608 278.979 991.936 278.051 994C277.123 996.064 275.787 997.704 274.043 998.92C272.315 1000.12 270.243 1000.72 267.827 1000.72ZM255.899 1011.52V974.08H259.715V993.16H260.195V1011.52H255.899ZM267.299 996.808C269.011 996.808 270.427 996.376 271.547 995.512C272.667 994.648 273.507 993.48 274.067 992.008C274.627 990.52 274.907 988.856 274.907 987.016C274.907 985.192 274.627 983.544 274.067 982.072C273.523 980.6 272.675 979.432 271.523 978.568C270.387 977.704 268.939 977.272 267.179 977.272C265.499 977.272 264.107 977.688 263.003 978.52C261.899 979.336 261.075 980.48 260.531 981.952C259.987 983.408 259.715 985.096 259.715 987.016C259.715 988.904 259.979 990.592 260.507 992.08C261.051 993.552 261.883 994.712 263.003 995.56C264.123 996.392 265.555 996.808 267.299 996.808ZM292.072 1000.72C290.136 1000.72 288.512 1000.37 287.2 999.664C285.904 998.944 284.92 998 284.248 996.832C283.592 995.664 283.264 994.384 283.264 992.992C283.264 991.632 283.52 990.456 284.032 989.464C284.56 988.456 285.296 987.624 286.24 986.968C287.184 986.296 288.312 985.768 289.624 985.384C290.856 985.048 292.232 984.76 293.752 984.52C295.288 984.264 296.84 984.032 298.408 983.824C299.976 983.616 301.44 983.416 302.8 983.224L301.264 984.112C301.312 981.808 300.848 980.104 299.872 979C298.912 977.896 297.248 977.344 294.88 977.344C293.312 977.344 291.936 977.704 290.752 978.424C289.584 979.128 288.76 980.28 288.28 981.88L284.224 980.656C284.848 978.384 286.056 976.6 287.848 975.304C289.64 974.008 292 973.36 294.928 973.36C297.28 973.36 299.296 973.784 300.976 974.632C302.672 975.464 303.888 976.728 304.624 978.424C304.992 979.224 305.224 980.096 305.32 981.04C305.416 981.968 305.464 982.944 305.464 983.968V1000H301.672V993.784L302.56 994.36C301.584 996.456 300.216 998.04 298.456 999.112C296.712 1000.18 294.584 1000.72 292.072 1000.72ZM292.72 997.144C294.256 997.144 295.584 996.872 296.704 996.328C297.84 995.768 298.752 995.04 299.44 994.144C300.128 993.232 300.576 992.24 300.784 991.168C301.024 990.368 301.152 989.48 301.168 988.504C301.2 987.512 301.216 986.752 301.216 986.224L302.704 986.872C301.312 987.064 299.944 987.248 298.6 987.424C297.256 987.6 295.984 987.792 294.784 988C293.584 988.192 292.504 988.424 291.544 988.696C290.84 988.92 290.176 989.208 289.552 989.56C288.944 989.912 288.448 990.368 288.064 990.928C287.696 991.472 287.512 992.152 287.512 992.968C287.512 993.672 287.688 994.344 288.04 994.984C288.408 995.624 288.968 996.144 289.72 996.544C290.488 996.944 291.488 997.144 292.72 997.144ZM318.568 1000V977.968H309.544V974.08H331.864V977.968H322.84V1000H318.568ZM168.576 1040.08V1066H164.448V1046.9L150.864 1066H147.336V1040.08H151.464V1058.92L165.072 1040.08H168.576ZM175.274 1066V1040.08H179.546V1051H193.178V1040.08H197.45V1066H193.178V1055.06H179.546V1066H175.274ZM204.149 1066V1040.08H215.189C215.845 1040.08 216.549 1040.12 217.301 1040.2C218.069 1040.26 218.765 1040.38 219.389 1040.56C220.781 1040.93 221.925 1041.69 222.821 1042.84C223.733 1043.98 224.189 1045.42 224.189 1047.16C224.189 1048.14 224.037 1048.98 223.733 1049.7C223.445 1050.42 223.029 1051.05 222.485 1051.58C222.245 1051.82 221.981 1052.03 221.693 1052.22C221.405 1052.42 221.117 1052.57 220.829 1052.68C221.389 1052.78 221.957 1052.99 222.533 1053.33C223.445 1053.82 224.157 1054.52 224.669 1055.42C225.197 1056.31 225.461 1057.46 225.461 1058.85C225.461 1060.61 225.037 1062.06 224.189 1063.22C223.341 1064.35 222.173 1065.14 220.685 1065.57C220.061 1065.74 219.373 1065.86 218.621 1065.93C217.869 1065.98 217.141 1066 216.437 1066H204.149ZM208.469 1062.52H216.197C216.533 1062.52 216.933 1062.49 217.397 1062.42C217.877 1062.36 218.301 1062.28 218.669 1062.18C219.501 1061.94 220.101 1061.5 220.469 1060.84C220.853 1060.18 221.045 1059.47 221.045 1058.7C221.045 1057.68 220.757 1056.85 220.181 1056.21C219.621 1055.57 218.877 1055.17 217.949 1055.01C217.613 1054.91 217.245 1054.86 216.845 1054.84C216.461 1054.82 216.117 1054.82 215.812 1054.82H208.469V1062.52ZM208.469 1051.29H214.901C215.349 1051.29 215.821 1051.26 216.317 1051.22C216.813 1051.15 217.245 1051.05 217.613 1050.9C218.349 1050.63 218.885 1050.18 219.221 1049.56C219.573 1048.92 219.749 1048.22 219.749 1047.47C219.749 1046.64 219.557 1045.91 219.173 1045.29C218.805 1044.65 218.237 1044.21 217.469 1043.97C216.957 1043.78 216.381 1043.67 215.741 1043.66C215.117 1043.62 214.717 1043.61 214.541 1043.61H208.469V1051.29ZM241.514 1066.72C238.97 1066.72 236.746 1066.16 234.842 1065.04C232.954 1063.9 231.482 1062.33 230.426 1060.31C229.37 1058.28 228.842 1055.91 228.842 1053.21C228.842 1050.38 229.362 1047.93 230.402 1045.86C231.442 1043.78 232.89 1042.18 234.746 1041.06C236.618 1039.93 238.81 1039.36 241.322 1039.36C243.93 1039.36 246.146 1039.96 247.97 1041.16C249.81 1042.36 251.186 1044.07 252.098 1046.3C253.026 1048.52 253.426 1051.17 253.298 1054.24H248.978V1052.7C248.93 1049.52 248.282 1047.14 247.034 1045.58C245.786 1043.99 243.93 1043.2 241.466 1043.2C238.826 1043.2 236.818 1044.05 235.442 1045.74C234.066 1047.44 233.378 1049.87 233.378 1053.04C233.378 1056.1 234.066 1058.46 235.442 1060.14C236.818 1061.82 238.778 1062.66 241.322 1062.66C243.034 1062.66 244.522 1062.27 245.786 1061.49C247.05 1060.7 248.042 1059.58 248.762 1058.1L252.866 1059.52C251.858 1061.81 250.338 1063.58 248.306 1064.85C246.29 1066.1 244.026 1066.72 241.514 1066.72ZM231.938 1054.24V1050.81H251.09V1054.24H231.938ZM269.561 1066.72C266.937 1066.72 264.705 1066.14 262.865 1064.97C261.041 1063.78 259.649 1062.16 258.689 1060.1C257.729 1058.03 257.233 1055.68 257.201 1053.04C257.233 1050.34 257.737 1047.96 258.713 1045.91C259.705 1043.85 261.121 1042.24 262.961 1041.09C264.801 1039.94 267.017 1039.36 269.609 1039.36C272.345 1039.36 274.697 1040.03 276.665 1041.38C278.649 1042.72 279.977 1044.56 280.649 1046.9L276.425 1048.17C275.881 1046.66 274.993 1045.5 273.761 1044.66C272.545 1043.83 271.145 1043.42 269.561 1043.42C267.785 1043.42 266.321 1043.83 265.169 1044.66C264.017 1045.48 263.161 1046.62 262.601 1048.07C262.041 1049.51 261.753 1051.17 261.737 1053.04C261.769 1055.92 262.433 1058.25 263.729 1060.02C265.041 1061.78 266.985 1062.66 269.561 1062.66C271.257 1062.66 272.665 1062.28 273.785 1061.51C274.905 1060.73 275.753 1059.6 276.329 1058.13L280.649 1059.26C279.753 1061.67 278.353 1063.52 276.449 1064.8C274.545 1066.08 272.249 1066.72 269.561 1066.72ZM291.943 1066V1043.97H282.919V1040.08H305.239V1043.97H296.215V1066H291.943ZM330.998 1040.08V1066H326.87V1046.9L313.286 1066H309.758V1040.08H313.886V1058.92L327.494 1040.08H330.998ZM359.799 1070.8V1066H337.695V1040.08H341.967V1061.94H354.663V1040.08H358.935V1062.11H364.071V1070.8H359.799ZM389.123 1040.08V1066H384.995V1046.9L371.411 1066H367.883V1040.08H372.011V1058.92L385.619 1040.08H389.123ZM407.004 1037.06C405.804 1037.06 404.708 1036.76 403.716 1036.17C402.724 1035.58 401.932 1034.79 401.34 1033.82C400.748 1032.82 400.452 1031.72 400.452 1030.5H403.908C403.908 1031.35 404.212 1032.08 404.82 1032.69C405.428 1033.3 406.156 1033.6 407.004 1033.6C407.868 1033.6 408.596 1033.3 409.188 1032.69C409.796 1032.08 410.1 1031.35 410.1 1030.5H413.556C413.556 1031.72 413.26 1032.82 412.668 1033.82C412.092 1034.79 411.3 1035.58 410.292 1036.17C409.3 1036.76 408.204 1037.06 407.004 1037.06ZM417.06 1040.08V1066H412.932V1046.9L399.348 1066H395.82V1040.08H399.948V1058.92L413.556 1040.08H417.06Z" fill="#23374F"></path></svg> 