<?xml version="1.0" encoding="UTF-8"?> <svg xmlns="http://www.w3.org/2000/svg" width="640" height="1080" viewBox="0 0 640 1080" fill="none"><rect width="640" height="1080" fill="#FBF5EE"></rect><path d="M106.597 704.32V697.462C107.605 697.462 108.415 697.21 109.027 696.706C109.639 696.19 110.107 695.506 110.431 694.654C110.755 693.802 111.001 692.848 111.169 691.792C111.337 690.724 111.481 689.644 111.601 688.552C111.769 686.956 111.901 685.414 111.997 683.926C112.105 682.438 112.195 680.896 112.267 679.3C112.351 677.704 112.447 675.958 112.555 674.062L128.539 674.08V697.462H130.393V704.32H127.765V700H109.243V704.32H106.597ZM111.655 697.462H125.893V676.618L115.021 676.6C114.949 678.064 114.877 679.48 114.805 680.848C114.733 682.216 114.649 683.596 114.553 684.988C114.457 686.38 114.331 687.832 114.175 689.344C114.043 690.724 113.887 691.93 113.707 692.962C113.527 693.994 113.275 694.876 112.951 695.608C112.639 696.34 112.207 696.958 111.655 697.462ZM142.464 700.54C140.532 700.54 138.882 700.102 137.514 699.226C136.146 698.35 135.096 697.138 134.364 695.59C133.632 694.042 133.266 692.266 133.266 690.262C133.266 688.222 133.638 686.434 134.382 684.898C135.126 683.362 136.182 682.168 137.55 681.316C138.93 680.452 140.568 680.02 142.464 680.02C144.408 680.02 146.064 680.458 147.432 681.334C148.812 682.198 149.862 683.404 150.582 684.952C151.314 686.488 151.68 688.258 151.68 690.262C151.68 692.302 151.314 694.096 150.582 695.644C149.85 697.18 148.794 698.38 147.414 699.244C146.034 700.108 144.384 700.54 142.464 700.54ZM142.464 698.002C144.624 698.002 146.232 697.288 147.288 695.86C148.344 694.42 148.872 692.554 148.872 690.262C148.872 687.91 148.338 686.038 147.27 684.646C146.214 683.254 144.612 682.558 142.464 682.558C141.012 682.558 139.812 682.888 138.864 683.548C137.928 684.196 137.226 685.102 136.758 686.266C136.302 687.418 136.074 688.75 136.074 690.262C136.074 692.602 136.614 694.48 137.694 695.896C138.774 697.3 140.364 698.002 142.464 698.002ZM153.139 700L160.735 690.172L153.301 680.56H156.469L162.283 688.138L168.043 680.56H171.211L163.777 690.172L171.391 700H168.205L162.283 692.206L156.325 700H153.139ZM181.699 700.54C179.767 700.54 178.117 700.102 176.749 699.226C175.381 698.35 174.331 697.138 173.599 695.59C172.867 694.042 172.501 692.266 172.501 690.262C172.501 688.222 172.873 686.434 173.617 684.898C174.361 683.362 175.417 682.168 176.785 681.316C178.165 680.452 179.803 680.02 181.699 680.02C183.643 680.02 185.299 680.458 186.667 681.334C188.047 682.198 189.097 683.404 189.817 684.952C190.549 686.488 190.915 688.258 190.915 690.262C190.915 692.302 190.549 694.096 189.817 695.644C189.085 697.18 188.029 698.38 186.649 699.244C185.269 700.108 183.619 700.54 181.699 700.54ZM181.699 698.002C183.859 698.002 185.467 697.288 186.523 695.86C187.579 694.42 188.107 692.554 188.107 690.262C188.107 687.91 187.573 686.038 186.505 684.646C185.449 683.254 183.847 682.558 181.699 682.558C180.247 682.558 179.047 682.888 178.099 683.548C177.163 684.196 176.461 685.102 175.993 686.266C175.537 687.418 175.309 688.75 175.309 690.262C175.309 692.602 175.849 694.48 176.929 695.896C178.009 697.3 179.599 698.002 181.699 698.002ZM193.445 704.32V697.732C194.549 697.732 195.341 697.378 195.821 696.67C196.301 695.95 196.691 694.804 196.991 693.232C197.195 692.212 197.363 691.114 197.495 689.938C197.627 688.762 197.741 687.418 197.837 685.906C197.933 684.382 198.023 682.6 198.107 680.56H210.959V697.732H212.831V704.32H210.275V700H195.983V704.32H193.445ZM197.927 697.732H208.331V682.828H200.555C200.519 683.74 200.465 684.706 200.393 685.726C200.333 686.746 200.255 687.766 200.159 688.786C200.075 689.806 199.973 690.766 199.853 691.666C199.745 692.554 199.613 693.334 199.457 694.006C199.277 694.87 199.079 695.608 198.863 696.22C198.659 696.832 198.347 697.336 197.927 697.732ZM216.418 700V680.56H219.064V689.002H230.026V680.56H232.672V700H230.026V691.54H219.064V700H216.418ZM243.268 700.54C241.804 700.54 240.574 700.276 239.578 699.748C238.594 699.22 237.856 698.518 237.364 697.642C236.872 696.766 236.626 695.812 236.626 694.78C236.626 693.724 236.836 692.824 237.256 692.08C237.688 691.324 238.27 690.706 239.002 690.226C239.746 689.746 240.604 689.38 241.576 689.128C242.56 688.888 243.646 688.678 244.834 688.498C246.034 688.306 247.204 688.144 248.344 688.012C249.496 687.868 250.504 687.73 251.368 687.598L250.432 688.174C250.468 686.254 250.096 684.832 249.316 683.908C248.536 682.984 247.18 682.522 245.248 682.522C243.916 682.522 242.788 682.822 241.864 683.422C240.952 684.022 240.31 684.97 239.938 686.266L237.364 685.51C237.808 683.77 238.702 682.42 240.046 681.46C241.39 680.5 243.136 680.02 245.284 680.02C247.06 680.02 248.566 680.356 249.802 681.028C251.05 681.688 251.932 682.648 252.448 683.908C252.688 684.472 252.844 685.102 252.916 685.798C252.988 686.494 253.024 687.202 253.024 687.922V700H250.666V695.122L251.35 695.41C250.69 697.078 249.664 698.35 248.272 699.226C246.88 700.102 245.212 700.54 243.268 700.54ZM243.574 698.254C244.81 698.254 245.89 698.032 246.814 697.588C247.738 697.144 248.482 696.538 249.046 695.77C249.61 694.99 249.976 694.114 250.144 693.142C250.288 692.518 250.366 691.834 250.378 691.09C250.39 690.334 250.396 689.77 250.396 689.398L251.404 689.92C250.504 690.04 249.526 690.16 248.47 690.28C247.426 690.4 246.394 690.538 245.374 690.694C244.366 690.85 243.454 691.036 242.638 691.252C242.086 691.408 241.552 691.63 241.036 691.918C240.52 692.194 240.094 692.566 239.758 693.034C239.434 693.502 239.272 694.084 239.272 694.78C239.272 695.344 239.41 695.89 239.686 696.418C239.974 696.946 240.43 697.384 241.054 697.732C241.69 698.08 242.53 698.254 243.574 698.254ZM269.895 700V692.674H265.359C264.831 692.674 264.285 692.656 263.721 692.62C263.169 692.572 262.653 692.506 262.173 692.422C260.805 692.158 259.641 691.558 258.681 690.622C257.733 689.674 257.259 688.366 257.259 686.698C257.259 685.066 257.703 683.758 258.591 682.774C259.479 681.778 260.553 681.13 261.813 680.83C262.389 680.698 262.971 680.62 263.559 680.596C264.159 680.572 264.675 680.56 265.107 680.56H272.541L272.559 700H269.895ZM256.629 700L262.047 691.846H264.981L259.527 700H256.629ZM265.215 690.406H269.895V682.828H265.215C264.927 682.828 264.525 682.84 264.009 682.864C263.493 682.888 263.007 682.966 262.551 683.098C262.155 683.218 261.759 683.428 261.363 683.728C260.979 684.016 260.655 684.406 260.391 684.898C260.127 685.378 259.995 685.966 259.995 686.662C259.995 687.634 260.259 688.414 260.787 689.002C261.327 689.578 261.999 689.974 262.803 690.19C263.235 690.286 263.667 690.346 264.099 690.37C264.531 690.394 264.903 690.406 265.215 690.406ZM284.797 700V680.56H287.443V689.002H298.405V680.56H301.051V700H298.405V691.54H287.443V700H284.797ZM314.31 700.54C312.414 700.54 310.77 700.12 309.378 699.28C307.998 698.44 306.924 697.258 306.156 695.734C305.388 694.21 305.004 692.422 305.004 690.37C305.004 688.246 305.382 686.41 306.138 684.862C306.894 683.314 307.956 682.12 309.324 681.28C310.704 680.44 312.33 680.02 314.202 680.02C316.122 680.02 317.76 680.464 319.116 681.352C320.472 682.228 321.498 683.488 322.194 685.132C322.89 686.776 323.208 688.738 323.148 691.018H320.448V690.082C320.4 687.562 319.854 685.66 318.81 684.376C317.778 683.092 316.266 682.45 314.274 682.45C312.186 682.45 310.584 683.128 309.468 684.484C308.364 685.84 307.812 687.772 307.812 690.28C307.812 692.728 308.364 694.63 309.468 695.986C310.584 697.33 312.162 698.002 314.202 698.002C315.594 698.002 316.806 697.684 317.838 697.048C318.882 696.4 319.704 695.47 320.304 694.258L322.77 695.212C322.002 696.904 320.868 698.218 319.368 699.154C317.88 700.078 316.194 700.54 314.31 700.54ZM306.876 691.018V688.804H321.726V691.018H306.876ZM325.703 704.32V697.732C326.807 697.732 327.599 697.378 328.079 696.67C328.559 695.95 328.949 694.804 329.249 693.232C329.453 692.212 329.621 691.114 329.753 689.938C329.885 688.762 329.999 687.418 330.095 685.906C330.191 684.382 330.281 682.6 330.365 680.56H343.217V697.732H345.089V704.32H342.533V700H328.241V704.32H325.703ZM330.185 697.732H340.589V682.828H332.813C332.777 683.74 332.723 684.706 332.651 685.726C332.591 686.746 332.513 687.766 332.417 688.786C332.333 689.806 332.231 690.766 332.111 691.666C332.003 692.554 331.871 693.334 331.715 694.006C331.535 694.87 331.337 695.608 331.121 696.22C330.917 696.832 330.605 697.336 330.185 697.732ZM348.676 700V680.56H356.686C357.094 680.56 357.586 680.584 358.162 680.632C358.75 680.68 359.296 680.77 359.8 680.902C360.892 681.19 361.768 681.778 362.428 682.666C363.1 683.554 363.436 684.622 363.436 685.87C363.436 686.566 363.328 687.19 363.112 687.742C362.908 688.282 362.614 688.75 362.23 689.146C362.05 689.35 361.852 689.53 361.636 689.686C361.42 689.83 361.21 689.95 361.006 690.046C361.39 690.118 361.804 690.286 362.248 690.55C362.944 690.958 363.472 691.51 363.832 692.206C364.192 692.89 364.372 693.724 364.372 694.708C364.372 696.04 364.054 697.126 363.418 697.966C362.782 698.806 361.93 699.382 360.862 699.694C360.382 699.826 359.86 699.91 359.296 699.946C358.744 699.982 358.222 700 357.73 700H348.676ZM351.34 697.75H357.604C357.856 697.75 358.174 697.732 358.558 697.696C358.942 697.648 359.284 697.588 359.584 697.516C360.292 697.336 360.808 696.976 361.132 696.436C361.468 695.884 361.636 695.284 361.636 694.636C361.636 693.784 361.384 693.088 360.88 692.548C360.388 691.996 359.728 691.66 358.9 691.54C358.624 691.48 358.336 691.444 358.036 691.432C357.736 691.42 357.466 691.414 357.226 691.414H351.34V697.75ZM351.34 689.146H356.776C357.088 689.146 357.436 689.128 357.82 689.092C358.216 689.044 358.558 688.966 358.846 688.858C359.47 688.642 359.926 688.27 360.214 687.742C360.514 687.214 360.664 686.638 360.664 686.014C360.664 685.33 360.502 684.73 360.178 684.214C359.866 683.698 359.392 683.338 358.756 683.134C358.324 682.978 357.856 682.888 357.352 682.864C356.86 682.84 356.548 682.828 356.416 682.828H351.34V689.146ZM383.403 680.56V700H380.829V684.862L370.173 700H367.941V680.56H370.515V695.572L381.189 680.56H383.403ZM386.296 700L394.504 690.28L386.638 680.56H389.626L397.294 690.154V680.56H399.742V690.154L407.41 680.56H410.38L402.514 690.28L410.722 700H407.644L399.742 690.406V700H397.294V690.406L389.374 700H386.296ZM429.036 680.56V700H426.462V684.862L415.806 700H413.574V680.56H416.148V695.572L426.822 680.56H429.036ZM434.07 700V680.56H436.428L444.006 696.472L451.602 680.56H453.942V700H451.386V686.212L444.852 700H443.178L436.644 686.212V700H434.07ZM467.097 700.54C465.165 700.54 463.515 700.102 462.147 699.226C460.779 698.35 459.729 697.138 458.997 695.59C458.265 694.042 457.899 692.266 457.899 690.262C457.899 688.222 458.271 686.434 459.015 684.898C459.759 683.362 460.815 682.168 462.183 681.316C463.563 680.452 465.201 680.02 467.097 680.02C469.041 680.02 470.697 680.458 472.065 681.334C473.445 682.198 474.495 683.404 475.215 684.952C475.947 686.488 476.313 688.258 476.313 690.262C476.313 692.302 475.947 694.096 475.215 695.644C474.483 697.18 473.427 698.38 472.047 699.244C470.667 700.108 469.017 700.54 467.097 700.54ZM467.097 698.002C469.257 698.002 470.865 697.288 471.921 695.86C472.977 694.42 473.505 692.554 473.505 690.262C473.505 687.91 472.971 686.038 471.903 684.646C470.847 683.254 469.245 682.558 467.097 682.558C465.645 682.558 464.445 682.888 463.497 683.548C462.561 684.196 461.859 685.102 461.391 686.266C460.935 687.418 460.707 688.75 460.707 690.262C460.707 692.602 461.247 694.48 462.327 695.896C463.407 697.3 464.997 698.002 467.097 698.002ZM488.348 700.54C486.392 700.54 484.736 700.102 483.38 699.226C482.024 698.35 480.992 697.144 480.284 695.608C479.588 694.06 479.228 692.284 479.204 690.28C479.228 688.24 479.6 686.452 480.32 684.916C481.04 683.368 482.078 682.168 483.434 681.316C484.79 680.452 486.434 680.02 488.366 680.02C490.334 680.02 492.044 680.5 493.496 681.46C494.96 682.42 495.962 683.734 496.502 685.402L493.91 686.23C493.454 685.066 492.728 684.166 491.732 683.53C490.748 682.882 489.62 682.558 488.348 682.558C486.92 682.558 485.738 682.888 484.802 683.548C483.866 684.196 483.17 685.102 482.714 686.266C482.258 687.43 482.024 688.768 482.012 690.28C482.036 692.608 482.576 694.48 483.632 695.896C484.688 697.3 486.26 698.002 488.348 698.002C489.668 698.002 490.79 697.702 491.714 697.102C492.65 696.49 493.358 695.602 493.838 694.438L496.502 695.23C495.782 696.958 494.726 698.278 493.334 699.19C491.942 700.09 490.28 700.54 488.348 700.54ZM505.034 700V683.008H498.14V680.56H514.574V683.008H507.68V700H505.034ZM518.024 700L517.988 680.56H520.652V687.886H525.206C525.77 687.886 526.322 687.898 526.862 687.922C527.414 687.946 527.9 687.994 528.32 688.066C529.28 688.246 530.132 688.564 530.876 689.02C531.632 689.476 532.22 690.106 532.64 690.91C533.072 691.714 533.288 692.722 533.288 693.934C533.288 695.602 532.856 696.916 531.992 697.876C531.14 698.836 530.06 699.46 528.752 699.748C528.26 699.856 527.726 699.928 527.15 699.964C526.574 699.988 526.004 700 525.44 700H518.024ZM520.652 697.732H525.332C525.74 697.732 526.196 697.72 526.7 697.696C527.204 697.672 527.648 697.606 528.032 697.498C528.668 697.318 529.244 696.958 529.76 696.418C530.288 695.866 530.552 695.038 530.552 693.934C530.552 692.842 530.3 692.02 529.796 691.468C529.292 690.904 528.62 690.532 527.78 690.352C527.408 690.268 527.006 690.214 526.574 690.19C526.142 690.166 525.728 690.154 525.332 690.154H520.652V697.732ZM235.75 749.54C233.794 749.54 232.138 749.102 230.782 748.226C229.426 747.35 228.394 746.144 227.686 744.608C226.99 743.06 226.63 741.284 226.606 739.28C226.63 737.24 227.002 735.452 227.722 733.916C228.442 732.368 229.48 731.168 230.836 730.316C232.192 729.452 233.836 729.02 235.768 729.02C237.736 729.02 239.446 729.5 240.898 730.46C242.362 731.42 243.364 732.734 243.904 734.402L241.312 735.23C240.856 734.066 240.13 733.166 239.134 732.53C238.15 731.882 237.022 731.558 235.75 731.558C234.322 731.558 233.14 731.888 232.204 732.548C231.268 733.196 230.572 734.102 230.116 735.266C229.66 736.43 229.426 737.768 229.414 739.28C229.438 741.608 229.978 743.48 231.034 744.896C232.09 746.3 233.662 747.002 235.75 747.002C237.07 747.002 238.192 746.702 239.116 746.102C240.052 745.49 240.76 744.602 241.24 743.438L243.904 744.23C243.184 745.958 242.128 747.278 240.736 748.19C239.344 749.09 237.682 749.54 235.75 749.54ZM270.271 729.56V749H267.697V733.862L257.041 749H254.809V729.56H257.383V744.572L268.057 729.56H270.271ZM283.387 749.54C281.431 749.54 279.775 749.102 278.419 748.226C277.063 747.35 276.031 746.144 275.323 744.608C274.627 743.06 274.267 741.284 274.243 739.28C274.267 737.24 274.639 735.452 275.359 733.916C276.079 732.368 277.117 731.168 278.473 730.316C279.829 729.452 281.473 729.02 283.405 729.02C285.373 729.02 287.083 729.5 288.535 730.46C289.999 731.42 291.001 732.734 291.541 734.402L288.949 735.23C288.493 734.066 287.767 733.166 286.771 732.53C285.787 731.882 284.659 731.558 283.387 731.558C281.959 731.558 280.777 731.888 279.841 732.548C278.905 733.196 278.209 734.102 277.753 735.266C277.297 736.43 277.063 737.768 277.051 739.28C277.075 741.608 277.615 743.48 278.671 744.896C279.727 746.3 281.299 747.002 283.387 747.002C284.707 747.002 285.829 746.702 286.753 746.102C287.689 745.49 288.397 744.602 288.877 743.438L291.541 744.23C290.821 745.958 289.765 747.278 288.373 748.19C286.981 749.09 285.319 749.54 283.387 749.54ZM300.073 749V732.008H293.179V729.56H309.613V732.008H302.719V749H300.073ZM320.812 749.54C318.88 749.54 317.23 749.102 315.862 748.226C314.494 747.35 313.444 746.138 312.712 744.59C311.98 743.042 311.614 741.266 311.614 739.262C311.614 737.222 311.986 735.434 312.73 733.898C313.474 732.362 314.53 731.168 315.898 730.316C317.278 729.452 318.916 729.02 320.812 729.02C322.756 729.02 324.412 729.458 325.78 730.334C327.16 731.198 328.21 732.404 328.93 733.952C329.662 735.488 330.028 737.258 330.028 739.262C330.028 741.302 329.662 743.096 328.93 744.644C328.198 746.18 327.142 747.38 325.762 748.244C324.382 749.108 322.732 749.54 320.812 749.54ZM320.812 747.002C322.972 747.002 324.58 746.288 325.636 744.86C326.692 743.42 327.22 741.554 327.22 739.262C327.22 736.91 326.686 735.038 325.618 733.646C324.562 732.254 322.96 731.558 320.812 731.558C319.36 731.558 318.16 731.888 317.212 732.548C316.276 733.196 315.574 734.102 315.106 735.266C314.65 736.418 314.422 737.75 314.422 739.262C314.422 741.602 314.962 743.48 316.042 744.896C317.122 746.3 318.712 747.002 320.812 747.002ZM342.729 749.54C340.941 749.54 339.429 749.09 338.193 748.19C336.957 747.278 336.021 746.048 335.385 744.5C334.749 742.94 334.431 741.194 334.431 739.262C334.431 737.294 334.749 735.542 335.385 734.006C336.033 732.458 336.981 731.24 338.229 730.352C339.477 729.464 341.013 729.02 342.837 729.02C344.613 729.02 346.137 729.47 347.409 730.37C348.681 731.27 349.653 732.494 350.325 734.042C351.009 735.59 351.351 737.33 351.351 739.262C351.351 741.206 351.009 742.952 350.325 744.5C349.641 746.048 348.657 747.278 347.373 748.19C346.089 749.09 344.541 749.54 342.729 749.54ZM333.981 757.64V729.56H336.357V744.194H336.645V757.64H333.981ZM342.459 747.074C343.815 747.074 344.943 746.732 345.843 746.048C346.743 745.364 347.415 744.434 347.859 743.258C348.315 742.07 348.543 740.738 348.543 739.262C348.543 737.798 348.321 736.478 347.877 735.302C347.433 734.126 346.755 733.196 345.843 732.512C344.943 731.828 343.797 731.486 342.405 731.486C341.049 731.486 339.921 731.816 339.021 732.476C338.133 733.136 337.467 734.054 337.023 735.23C336.579 736.394 336.357 737.738 336.357 739.262C336.357 740.762 336.579 742.106 337.023 743.294C337.467 744.47 338.139 745.394 339.039 746.066C339.939 746.738 341.079 747.074 342.459 747.074ZM370.747 729.56V749H368.173V733.862L357.517 749H355.285V729.56H357.859V744.572L368.533 729.56H370.747ZM384.025 749.54C382.129 749.54 380.485 749.12 379.093 748.28C377.713 747.44 376.639 746.258 375.871 744.734C375.103 743.21 374.719 741.422 374.719 739.37C374.719 737.246 375.097 735.41 375.853 733.862C376.609 732.314 377.671 731.12 379.039 730.28C380.419 729.44 382.045 729.02 383.917 729.02C385.837 729.02 387.475 729.464 388.831 730.352C390.187 731.228 391.213 732.488 391.909 734.132C392.605 735.776 392.923 737.738 392.863 740.018H390.163V739.082C390.115 736.562 389.569 734.66 388.525 733.376C387.493 732.092 385.981 731.45 383.989 731.45C381.901 731.45 380.299 732.128 379.183 733.484C378.079 734.84 377.527 736.772 377.527 739.28C377.527 741.728 378.079 743.63 379.183 744.986C380.299 746.33 381.877 747.002 383.917 747.002C385.309 747.002 386.521 746.684 387.553 746.048C388.597 745.4 389.419 744.47 390.019 743.258L392.485 744.212C391.717 745.904 390.583 747.218 389.083 748.154C387.595 749.078 385.909 749.54 384.025 749.54ZM376.591 740.018V737.804H391.441V740.018H376.591ZM404.922 727.256C404.07 727.256 403.29 727.046 402.582 726.626C401.874 726.206 401.31 725.648 400.89 724.952C400.482 724.244 400.278 723.464 400.278 722.612H402.474C402.474 723.284 402.714 723.86 403.194 724.34C403.674 724.82 404.25 725.06 404.922 725.06C405.606 725.06 406.182 724.82 406.65 724.34C407.13 723.86 407.37 723.284 407.37 722.612H409.566C409.566 723.464 409.356 724.244 408.936 724.952C408.528 725.648 407.97 726.206 407.262 726.626C406.554 727.046 405.774 727.256 404.922 727.256ZM412.302 729.56V749H409.728V733.862L399.072 749H396.84V729.56H399.414V744.572L410.088 729.56H412.302Z" fill="#23374F"></path><path d="M78.6 634L97.32 576.4H109.36L128.08 634H119.4L102.16 581.44H104.32L87.28 634H78.6ZM88.32 621V613.16H118.4V621H88.32ZM144.851 634V584.28H125.691V576.4H172.371V584.28H153.211V634H144.851ZM178.772 634V576.4H186.332L207.212 619.72L227.972 576.4H235.612V633.96H227.692V594.56L209.092 634H205.292L186.652 594.56V634H178.772ZM270.859 635.2C265.099 635.2 260.192 633.947 256.139 631.44C252.085 628.907 248.979 625.387 246.819 620.88C244.685 616.373 243.619 611.147 243.619 605.2C243.619 599.253 244.685 594.027 246.819 589.52C248.979 585.013 252.085 581.507 256.139 579C260.192 576.467 265.099 575.2 270.859 575.2C276.592 575.2 281.485 576.467 285.539 579C289.619 581.507 292.725 585.013 294.859 589.52C296.992 594.027 298.059 599.253 298.059 605.2C298.059 611.147 296.992 616.373 294.859 620.88C292.725 625.387 289.619 628.907 285.539 631.44C281.485 633.947 276.592 635.2 270.859 635.2ZM270.859 627.24C274.939 627.293 278.325 626.4 281.019 624.56C283.739 622.693 285.779 620.107 287.139 616.8C288.499 613.467 289.179 609.6 289.179 605.2C289.179 600.8 288.499 596.96 287.139 593.68C285.779 590.373 283.739 587.8 281.019 585.96C278.325 584.12 274.939 583.187 270.859 583.16C266.779 583.107 263.379 584 260.659 585.84C257.965 587.68 255.939 590.267 254.579 593.6C253.219 596.933 252.525 600.8 252.499 605.2C252.472 609.6 253.139 613.453 254.499 616.76C255.859 620.04 257.899 622.6 260.619 624.44C263.365 626.28 266.779 627.213 270.859 627.24ZM330.078 635.2C324.318 635.2 319.411 633.947 315.358 631.44C311.304 628.907 308.198 625.387 306.038 620.88C303.904 616.373 302.838 611.147 302.838 605.2C302.838 599.253 303.904 594.027 306.038 589.52C308.198 585.013 311.304 581.507 315.358 579C319.411 576.467 324.318 575.2 330.078 575.2C336.718 575.2 342.211 576.88 346.557 580.24C350.931 583.6 353.971 588.12 355.678 593.8L347.198 596.08C346.078 592.053 344.078 588.893 341.198 586.6C338.344 584.307 334.638 583.16 330.078 583.16C325.998 583.16 322.598 584.08 319.878 585.92C317.158 587.76 315.104 590.333 313.718 593.64C312.358 596.947 311.678 600.8 311.678 605.2C311.651 609.6 312.318 613.453 313.678 616.76C315.064 620.067 317.118 622.64 319.838 624.48C322.584 626.32 325.998 627.24 330.078 627.24C334.638 627.24 338.344 626.093 341.198 623.8C344.078 621.48 346.078 618.32 347.198 614.32L355.678 616.6C353.971 622.28 350.931 626.8 346.557 630.16C342.211 633.52 336.718 635.2 330.078 635.2ZM383.875 634V625.96C380.915 626.467 378.075 626.347 375.355 625.6C372.662 624.853 370.248 623.52 368.115 621.6C366.008 619.68 364.342 617.2 363.115 614.16C361.888 611.12 361.275 607.573 361.275 603.52C361.275 599.44 361.888 595.88 363.115 592.84C364.342 589.773 366.008 587.267 368.115 585.32C370.248 583.373 372.662 582.013 375.355 581.24C378.075 580.44 380.915 580.293 383.875 580.8V576.4H392.195V580.8C395.155 580.293 397.982 580.44 400.675 581.24C403.395 582.013 405.808 583.373 407.915 585.32C410.048 587.267 411.728 589.773 412.955 592.84C414.208 595.88 414.835 599.44 414.835 603.52C414.835 607.573 414.208 611.12 412.955 614.16C411.728 617.2 410.048 619.68 407.915 621.6C405.808 623.52 403.395 624.853 400.675 625.6C397.982 626.347 395.155 626.467 392.195 625.96V634H383.875ZM383.875 618.2V588.44C381.475 588.067 379.382 588.227 377.595 588.92C375.835 589.613 374.382 590.693 373.235 592.16C372.088 593.6 371.235 595.307 370.675 597.28C370.115 599.227 369.835 601.307 369.835 603.52C369.835 605.707 370.115 607.773 370.675 609.72C371.235 611.64 372.088 613.307 373.235 614.72C374.382 616.107 375.835 617.12 377.595 617.76C379.382 618.4 381.475 618.547 383.875 618.2ZM392.195 618.2C394.595 618.547 396.675 618.4 398.435 617.76C400.195 617.12 401.648 616.107 402.795 614.72C403.968 613.333 404.835 611.693 405.395 609.8C405.982 607.88 406.275 605.853 406.275 603.72C406.275 601.587 405.982 599.533 405.395 597.56C404.835 595.587 403.968 593.853 402.795 592.36C401.648 590.84 400.195 589.72 398.435 589C396.675 588.253 394.595 588.067 392.195 588.44V618.2ZM422.834 634V576.4H459.634V584.28H431.194V600.44H454.834V608.32H431.194V626.12H459.634V634H422.834ZM469.241 634V576.4H492.521C493.081 576.4 493.774 576.427 494.601 576.48C495.427 576.507 496.214 576.587 496.961 576.72C500.161 577.227 502.827 578.32 504.961 580C507.121 581.68 508.734 583.8 509.801 586.36C510.867 588.92 511.401 591.747 511.401 594.84C511.401 597.96 510.867 600.8 509.801 603.36C508.734 605.92 507.121 608.04 504.961 609.72C502.827 611.4 500.161 612.493 496.961 613C496.214 613.107 495.414 613.187 494.561 613.24C493.734 613.293 493.054 613.32 492.521 613.32H477.601V634H469.241ZM477.601 605.4H492.201C492.734 605.4 493.321 605.373 493.961 605.32C494.627 605.267 495.254 605.173 495.841 605.04C497.547 604.64 498.921 603.907 499.961 602.84C501.001 601.747 501.747 600.493 502.201 599.08C502.654 597.667 502.881 596.253 502.881 594.84C502.881 593.427 502.654 592.027 502.201 590.64C501.747 589.227 501.001 587.987 499.961 586.92C498.921 585.827 497.547 585.08 495.841 584.68C495.254 584.52 494.627 584.413 493.961 584.36C493.321 584.307 492.734 584.28 492.201 584.28H477.601V605.4ZM512.194 634L530.914 576.4H542.954L561.674 634H552.994L535.754 581.44H537.914L520.874 634H512.194ZM521.914 621V613.16H551.994V621H521.914Z" fill="#23374F"></path><g clip-path="url(#clip0_841_4311)"><path d="M294.998 188H346.291L417 397H368.315L344.552 316.932C296.136 319.672 247.96 354.726 224 397L294.998 188ZM344.552 316.932L320.5 236.57L295.868 316.932H344.552Z" fill="#23374F"></path></g><rect x="458" y="474" width="275" height="3" transform="rotate(-180 458 474)" fill="#23374F"></rect><defs><clipPath id="clip0_841_4311"><rect width="193" height="209" fill="white" transform="translate(224 188)"></rect></clipPath></defs></svg> 